<?xml version="1.0" encoding="UTF-8" standalone="no"?>
<!DOCTYPE svg PUBLIC "-//W3C//DTD SVG 1.1//EN"
 "http://www.w3.org/Graphics/SVG/1.1/DTD/svg11.dtd">
<!-- Generated by graphviz version 2.40.1 (20161225.0304)
 -->
<!-- Title: arho.land_use_area Pages: 1 -->
<svg width="1758pt" height="1889pt"
 viewBox="0.00 0.00 1757.50 1889.00" xmlns="http://www.w3.org/2000/svg" xmlns:xlink="http://www.w3.org/1999/xlink">
<g id="graph0" class="graph" transform="scale(1 1) rotate(0) translate(4 1885)">
<title>arho.land_use_area</title>
<polygon fill="#ffffff" stroke="transparent" points="-4,4 -4,-1885 1753.5,-1885 1753.5,4 -4,4"/>
<!-- arho.land_use_area -->
<g id="node1" class="node">
<title>arho.land_use_area</title>
<polygon fill="#efefef" stroke="transparent" points="735.5,-1222.5 735.5,-1257.5 1036.5,-1257.5 1036.5,-1222.5 735.5,-1222.5"/>
<polygon fill="none" stroke="#000000" points="735.5,-1222.5 735.5,-1257.5 1036.5,-1257.5 1036.5,-1222.5 735.5,-1222.5"/>
<text text-anchor="start" x="742.1853" y="-1235.3" font-family="Arial Bold" font-size="18.00" fill="#000000">arho.land_use_area</text>
<text text-anchor="start" x="902.2467" y="-1235.3" font-family="Arial" font-size="14.00" fill="#000000">    </text>
<text text-anchor="start" x="936.4515" y="-1235.3" font-family="Arial" font-size="14.00" fill="#666666">[BASE TABLE]</text>
<polygon fill="none" stroke="#000000" points="735.5,-1192.5 735.5,-1222.5 1036.5,-1222.5 1036.5,-1192.5 735.5,-1192.5"/>
<text text-anchor="start" x="742.5" y="-1203.9" font-family="Arial" font-size="14.00" fill="#000000">geom </text>
<text text-anchor="start" x="781.399" y="-1203.9" font-family="Arial" font-size="14.00" fill="#666666">[geometry(MultiPolygon,3067)]</text>
<polygon fill="none" stroke="#000000" points="735.5,-1162.5 735.5,-1192.5 1036.5,-1192.5 1036.5,-1162.5 735.5,-1162.5"/>
<text text-anchor="start" x="742.5" y="-1173.9" font-family="Arial" font-size="14.00" fill="#000000">description </text>
<text text-anchor="start" x="814.068" y="-1173.9" font-family="Arial" font-size="14.00" fill="#666666">[jsonb]</text>
<polygon fill="none" stroke="#000000" points="735.5,-1132.5 735.5,-1162.5 1036.5,-1162.5 1036.5,-1132.5 735.5,-1132.5"/>
<text text-anchor="start" x="742.5" y="-1143.9" font-family="Arial" font-size="14.00" fill="#000000">source_data_object </text>
<text text-anchor="start" x="868.5476" y="-1143.9" font-family="Arial" font-size="14.00" fill="#666666">[varchar]</text>
<polygon fill="none" stroke="#000000" points="735.5,-1102.5 735.5,-1132.5 1036.5,-1132.5 1036.5,-1102.5 735.5,-1102.5"/>
<text text-anchor="start" x="742.5" y="-1113.9" font-family="Arial" font-size="14.00" fill="#000000">height_range </text>
<text text-anchor="start" x="828.0918" y="-1113.9" font-family="Arial" font-size="14.00" fill="#666666">[numrange]</text>
<polygon fill="none" stroke="#000000" points="735.5,-1072.5 735.5,-1102.5 1036.5,-1102.5 1036.5,-1072.5 735.5,-1072.5"/>
<text text-anchor="start" x="742.5" y="-1083.9" font-family="Arial" font-size="14.00" fill="#000000">height_unit </text>
<text text-anchor="start" x="814.8632" y="-1083.9" font-family="Arial" font-size="14.00" fill="#666666">[varchar]</text>
<polygon fill="none" stroke="#000000" points="735.5,-1042.5 735.5,-1072.5 1036.5,-1072.5 1036.5,-1042.5 735.5,-1042.5"/>
<text text-anchor="start" x="742.5" y="-1053.9" font-family="Arial" font-size="14.00" fill="#000000">ordering </text>
<text text-anchor="start" x="797.7314" y="-1053.9" font-family="Arial" font-size="14.00" fill="#666666">[integer]</text>
<polygon fill="none" stroke="#000000" points="735.5,-1012.5 735.5,-1042.5 1036.5,-1042.5 1036.5,-1012.5 735.5,-1012.5"/>
<text text-anchor="start" x="742.5" y="-1023.9" font-family="Arial" font-size="14.00" fill="#000000">type_of_underground_id </text>
<text text-anchor="start" x="898.1212" y="-1023.9" font-family="Arial" font-size="14.00" fill="#666666">[uuid]</text>
<polygon fill="none" stroke="#000000" points="735.5,-982.5 735.5,-1012.5 1036.5,-1012.5 1036.5,-982.5 735.5,-982.5"/>
<text text-anchor="start" x="742.5" y="-993.9" font-family="Arial" font-size="14.00" fill="#000000">plan_id </text>
<text text-anchor="start" x="791.5168" y="-993.9" font-family="Arial" font-size="14.00" fill="#666666">[uuid]</text>
<polygon fill="none" stroke="#000000" points="735.5,-952.5 735.5,-982.5 1036.5,-982.5 1036.5,-952.5 735.5,-952.5"/>
<text text-anchor="start" x="742.5" y="-963.9" font-family="Arial" font-size="14.00" fill="#000000">plan_regulation_group_id </text>
<text text-anchor="start" x="904.333" y="-963.9" font-family="Arial" font-size="14.00" fill="#666666">[uuid]</text>
<polygon fill="none" stroke="#000000" points="735.5,-922.5 735.5,-952.5 1036.5,-952.5 1036.5,-922.5 735.5,-922.5"/>
<text text-anchor="start" x="742.5" y="-933.9" font-family="Arial" font-size="14.00" fill="#000000">name </text>
<text text-anchor="start" x="781.399" y="-933.9" font-family="Arial" font-size="14.00" fill="#666666">[jsonb]</text>
<polygon fill="none" stroke="#000000" points="735.5,-892.5 735.5,-922.5 1036.5,-922.5 1036.5,-892.5 735.5,-892.5"/>
<text text-anchor="start" x="742.5" y="-903.9" font-family="Arial" font-size="14.00" fill="#000000">exported_at </text>
<text text-anchor="start" x="820.3106" y="-903.9" font-family="Arial" font-size="14.00" fill="#666666">[timestamp without time zone]</text>
<polygon fill="none" stroke="#000000" points="735.5,-862.5 735.5,-892.5 1036.5,-892.5 1036.5,-862.5 735.5,-862.5"/>
<text text-anchor="start" x="742.5" y="-873.9" font-family="Arial" font-size="14.00" fill="#000000">lifecycle_status_id </text>
<text text-anchor="start" x="859.967" y="-873.9" font-family="Arial" font-size="14.00" fill="#666666">[uuid]</text>
<polygon fill="none" stroke="#000000" points="735.5,-832.5 735.5,-862.5 1036.5,-862.5 1036.5,-832.5 735.5,-832.5"/>
<text text-anchor="start" x="742.5" y="-843.9" font-family="Arial" font-size="14.00" fill="#000000">id </text>
<text text-anchor="start" x="757.2798" y="-843.9" font-family="Arial" font-size="14.00" fill="#666666">[uuid]</text>
<polygon fill="none" stroke="#000000" points="735.5,-802.5 735.5,-832.5 1036.5,-832.5 1036.5,-802.5 735.5,-802.5"/>
<text text-anchor="start" x="742.5" y="-813.9" font-family="Arial" font-size="14.00" fill="#000000">created_at </text>
<text text-anchor="start" x="812.528" y="-813.9" font-family="Arial" font-size="14.00" fill="#666666">[timestamp without time zone]</text>
<polygon fill="none" stroke="#000000" points="735.5,-772.5 735.5,-802.5 1036.5,-802.5 1036.5,-772.5 735.5,-772.5"/>
<text text-anchor="start" x="742.5" y="-783.9" font-family="Arial" font-size="14.00" fill="#000000">modified_at </text>
<text text-anchor="start" x="818.7412" y="-783.9" font-family="Arial" font-size="14.00" fill="#666666">[timestamp without time zone]</text>
<polygon fill="none" stroke="#000000" stroke-width="3" points="733.5,-771.5 733.5,-1259.5 1037.5,-1259.5 1037.5,-771.5 733.5,-771.5"/>
</g>
<!-- codes.type_of_underground -->
<g id="node2" class="node">
<title>codes.type_of_underground</title>
<polygon fill="#efefef" stroke="transparent" points="43.5,-477.5 43.5,-512.5 408.5,-512.5 408.5,-477.5 43.5,-477.5"/>
<polygon fill="none" stroke="#000000" points="43.5,-477.5 43.5,-512.5 408.5,-512.5 408.5,-477.5 43.5,-477.5"/>
<text text-anchor="start" x="50.1678" y="-490.3" font-family="Arial Bold" font-size="18.00" fill="#000000">codes.type_of_underground</text>
<text text-anchor="start" x="274.2642" y="-490.3" font-family="Arial" font-size="14.00" fill="#000000">    </text>
<text text-anchor="start" x="308.469" y="-490.3" font-family="Arial" font-size="14.00" fill="#666666">[BASE TABLE]</text>
<polygon fill="none" stroke="#000000" points="43.5,-447.5 43.5,-477.5 408.5,-477.5 408.5,-447.5 43.5,-447.5"/>
<text text-anchor="start" x="50.5" y="-458.9" font-family="Arial" font-size="14.00" fill="#000000">value    </text>
<text text-anchor="start" x="118.1592" y="-458.9" font-family="Arial" font-size="14.00" fill="#666666">[varchar]</text>
<polygon fill="none" stroke="#000000" points="43.5,-417.5 43.5,-447.5 408.5,-447.5 408.5,-417.5 43.5,-417.5"/>
<text text-anchor="start" x="50.5" y="-428.9" font-family="Arial" font-size="14.00" fill="#000000">short_name    </text>
<text text-anchor="start" x="158.6122" y="-428.9" font-family="Arial" font-size="14.00" fill="#666666">[varchar]</text>
<polygon fill="none" stroke="#000000" points="43.5,-387.5 43.5,-417.5 408.5,-417.5 408.5,-387.5 43.5,-387.5"/>
<text text-anchor="start" x="50.5" y="-398.9" font-family="Arial" font-size="14.00" fill="#000000">name    </text>
<text text-anchor="start" x="119.7132" y="-398.9" font-family="Arial" font-size="14.00" fill="#666666">[jsonb]</text>
<polygon fill="none" stroke="#000000" points="43.5,-357.5 43.5,-387.5 408.5,-387.5 408.5,-357.5 43.5,-357.5"/>
<text text-anchor="start" x="50.5" y="-368.9" font-family="Arial" font-size="14.00" fill="#000000">description    </text>
<text text-anchor="start" x="152.3822" y="-368.9" font-family="Arial" font-size="14.00" fill="#666666">[jsonb]</text>
<polygon fill="none" stroke="#000000" points="43.5,-327.5 43.5,-357.5 408.5,-357.5 408.5,-327.5 43.5,-327.5"/>
<text text-anchor="start" x="50.5" y="-338.9" font-family="Arial" font-size="14.00" fill="#000000">status    </text>
<text text-anchor="start" x="122.0512" y="-338.9" font-family="Arial" font-size="14.00" fill="#666666">[varchar]</text>
<polygon fill="none" stroke="#000000" points="43.5,-297.5 43.5,-327.5 408.5,-327.5 408.5,-297.5 43.5,-297.5"/>
<text text-anchor="start" x="50.5" y="-308.9" font-family="Arial" font-size="14.00" fill="#000000">level    </text>
<text text-anchor="start" x="113.4832" y="-308.9" font-family="Arial" font-size="14.00" fill="#666666">[integer]</text>
<polygon fill="none" stroke="#000000" points="43.5,-267.5 43.5,-297.5 408.5,-297.5 408.5,-267.5 43.5,-267.5"/>
<text text-anchor="start" x="50.5" y="-278.9" font-family="Arial" font-size="14.00" fill="#000000">parent_id    </text>
<text text-anchor="start" x="143.0582" y="-278.9" font-family="Arial" font-size="14.00" fill="#666666">[uuid]</text>
<polygon fill="none" stroke="#000000" points="43.5,-237.5 43.5,-267.5 408.5,-267.5 408.5,-237.5 43.5,-237.5"/>
<text text-anchor="start" x="50.5" y="-248.9" font-family="Arial" font-size="14.00" fill="#000000">id    </text>
<text text-anchor="start" x="95.594" y="-248.9" font-family="Arial" font-size="14.00" fill="#666666">[uuid]</text>
<polygon fill="none" stroke="#000000" points="43.5,-207.5 43.5,-237.5 408.5,-237.5 408.5,-207.5 43.5,-207.5"/>
<text text-anchor="start" x="50.5" y="-218.9" font-family="Arial" font-size="14.00" fill="#000000">created_at    </text>
<text text-anchor="start" x="150.8422" y="-218.9" font-family="Arial" font-size="14.00" fill="#666666">[timestamp without time zone]</text>
<polygon fill="none" stroke="#000000" points="43.5,-177.5 43.5,-207.5 408.5,-207.5 408.5,-177.5 43.5,-177.5"/>
<text text-anchor="start" x="50.5" y="-188.9" font-family="Arial" font-size="14.00" fill="#000000">modified_at    </text>
<text text-anchor="start" x="157.0554" y="-188.9" font-family="Arial" font-size="14.00" fill="#666666">[timestamp without time zone]</text>
</g>
<!-- arho.land_use_area&#45;&gt;codes.type_of_underground -->
<g id="edge1" class="edge">
<title>arho.land_use_area:type_of_underground_id&#45;&gt;codes.type_of_underground:id</title>
<path fill="none" stroke="#000000" d="M725.4864,-1027.3536C542.1098,-1021.914 534.6716,-865.6532 460.5,-691 422.143,-600.6801 506.6272,-252.5 408.5,-252.5"/>
<polygon fill="#000000" stroke="#000000" points="725.5011,-1027.3537 735.4342,-1031.9995 730.5005,-1027.4269 735.5,-1027.5 735.5,-1027.5 735.5,-1027.5 730.5005,-1027.4269 735.5658,-1023.0005 725.5011,-1027.3537 725.5011,-1027.3537"/>
<text text-anchor="start" x="330.0115" y="-1037.5" font-family="Arial" font-size="10.00" fill="#000000">FOREIGN KEY (type_of_underground_id) REFERENCES codes.type_of_underground(id)</text>
</g>
<!-- arho.plan -->
<g id="node3" class="node">
<title>arho.plan</title>
<polygon fill="#efefef" stroke="transparent" points="512.5,-612.5 512.5,-647.5 820.5,-647.5 820.5,-612.5 512.5,-612.5"/>
<polygon fill="none" stroke="#000000" points="512.5,-612.5 512.5,-647.5 820.5,-647.5 820.5,-612.5 512.5,-612.5"/>
<text text-anchor="start" x="565.2031" y="-625.3" font-family="Arial Bold" font-size="18.00" fill="#000000">arho.plan</text>
<text text-anchor="start" x="640.2289" y="-625.3" font-family="Arial" font-size="14.00" fill="#000000">    </text>
<text text-anchor="start" x="674.4337" y="-625.3" font-family="Arial" font-size="14.00" fill="#666666">[BASE TABLE]</text>
<polygon fill="none" stroke="#000000" points="512.5,-582.5 512.5,-612.5 820.5,-612.5 820.5,-582.5 512.5,-582.5"/>
<text text-anchor="start" x="519.5" y="-593.9" font-family="Arial" font-size="14.00" fill="#000000">organisation_id    </text>
<text text-anchor="start" x="648.6192" y="-593.9" font-family="Arial" font-size="14.00" fill="#666666">[uuid]</text>
<polygon fill="none" stroke="#000000" points="512.5,-552.5 512.5,-582.5 820.5,-582.5 820.5,-552.5 512.5,-552.5"/>
<text text-anchor="start" x="519.5" y="-563.9" font-family="Arial" font-size="14.00" fill="#000000">plan_regulation_group_id    </text>
<text text-anchor="start" x="711.6472" y="-563.9" font-family="Arial" font-size="14.00" fill="#666666">[uuid]</text>
<polygon fill="none" stroke="#000000" points="512.5,-522.5 512.5,-552.5 820.5,-552.5 820.5,-522.5 512.5,-522.5"/>
<text text-anchor="start" x="519.5" y="-533.9" font-family="Arial" font-size="14.00" fill="#000000">plan_type_id    </text>
<text text-anchor="start" x="633.0694" y="-533.9" font-family="Arial" font-size="14.00" fill="#666666">[uuid]</text>
<polygon fill="none" stroke="#000000" points="512.5,-492.5 512.5,-522.5 820.5,-522.5 820.5,-492.5 512.5,-492.5"/>
<text text-anchor="start" x="519.5" y="-503.9" font-family="Arial" font-size="14.00" fill="#000000">permanent_plan_identifier    </text>
<text text-anchor="start" x="715.5238" y="-503.9" font-family="Arial" font-size="14.00" fill="#666666">[varchar]</text>
<polygon fill="none" stroke="#000000" points="512.5,-462.5 512.5,-492.5 820.5,-492.5 820.5,-462.5 512.5,-462.5"/>
<text text-anchor="start" x="519.5" y="-473.9" font-family="Arial" font-size="14.00" fill="#000000">producers_plan_identifier    </text>
<text text-anchor="start" x="710.8506" y="-473.9" font-family="Arial" font-size="14.00" fill="#666666">[varchar]</text>
<polygon fill="none" stroke="#000000" points="512.5,-432.5 512.5,-462.5 820.5,-462.5 820.5,-432.5 512.5,-432.5"/>
<text text-anchor="start" x="519.5" y="-443.9" font-family="Arial" font-size="14.00" fill="#000000">description    </text>
<text text-anchor="start" x="621.3822" y="-443.9" font-family="Arial" font-size="14.00" fill="#666666">[jsonb]</text>
<polygon fill="none" stroke="#000000" points="512.5,-402.5 512.5,-432.5 820.5,-432.5 820.5,-402.5 512.5,-402.5"/>
<text text-anchor="start" x="519.5" y="-413.9" font-family="Arial" font-size="14.00" fill="#000000">scale    </text>
<text text-anchor="start" x="586.3766" y="-413.9" font-family="Arial" font-size="14.00" fill="#666666">[integer]</text>
<polygon fill="none" stroke="#000000" points="512.5,-372.5 512.5,-402.5 820.5,-402.5 820.5,-372.5 512.5,-372.5"/>
<text text-anchor="start" x="519.5" y="-383.9" font-family="Arial" font-size="14.00" fill="#000000">matter_management_identifier    </text>
<text text-anchor="start" x="743.5196" y="-383.9" font-family="Arial" font-size="14.00" fill="#666666">[varchar]</text>
<polygon fill="none" stroke="#000000" points="512.5,-342.5 512.5,-372.5 820.5,-372.5 820.5,-342.5 512.5,-342.5"/>
<text text-anchor="start" x="519.5" y="-353.9" font-family="Arial" font-size="14.00" fill="#000000">record_number    </text>
<text text-anchor="start" x="648.608" y="-353.9" font-family="Arial" font-size="14.00" fill="#666666">[varchar]</text>
<polygon fill="none" stroke="#000000" points="512.5,-312.5 512.5,-342.5 820.5,-342.5 820.5,-312.5 512.5,-312.5"/>
<text text-anchor="start" x="519.5" y="-323.9" font-family="Arial" font-size="14.00" fill="#000000">geom    </text>
<text text-anchor="start" x="588.7132" y="-323.9" font-family="Arial" font-size="14.00" fill="#666666">[geometry(MultiPolygon,3067)]</text>
<polygon fill="none" stroke="#000000" points="512.5,-282.5 512.5,-312.5 820.5,-312.5 820.5,-282.5 512.5,-282.5"/>
<text text-anchor="start" x="519.0912" y="-293.9" font-family="Arial" font-size="14.00" fill="#000000">validated_at    </text>
<text text-anchor="start" x="628.7686" y="-293.9" font-family="Arial" font-size="14.00" fill="#666666">[timestamp without time zone]</text>
<polygon fill="none" stroke="#000000" points="512.5,-252.5 512.5,-282.5 820.5,-282.5 820.5,-252.5 512.5,-252.5"/>
<text text-anchor="start" x="519.5" y="-263.9" font-family="Arial" font-size="14.00" fill="#000000">validation_errors    </text>
<text text-anchor="start" x="657.1578" y="-263.9" font-family="Arial" font-size="14.00" fill="#666666">[jsonb]</text>
<polygon fill="none" stroke="#000000" points="512.5,-222.5 512.5,-252.5 820.5,-252.5 820.5,-222.5 512.5,-222.5"/>
<text text-anchor="start" x="519.5" y="-233.9" font-family="Arial" font-size="14.00" fill="#000000">to_be_exported    </text>
<text text-anchor="start" x="650.9726" y="-233.9" font-family="Arial" font-size="14.00" fill="#666666">[boolean]</text>
<polygon fill="none" stroke="#000000" points="512.5,-192.5 512.5,-222.5 820.5,-222.5 820.5,-192.5 512.5,-192.5"/>
<text text-anchor="start" x="519.5" y="-203.9" font-family="Arial" font-size="14.00" fill="#000000">name    </text>
<text text-anchor="start" x="588.7132" y="-203.9" font-family="Arial" font-size="14.00" fill="#666666">[jsonb]</text>
<polygon fill="none" stroke="#000000" points="512.5,-162.5 512.5,-192.5 820.5,-192.5 820.5,-162.5 512.5,-162.5"/>
<text text-anchor="start" x="519.5" y="-173.9" font-family="Arial" font-size="14.00" fill="#000000">exported_at    </text>
<text text-anchor="start" x="627.6248" y="-173.9" font-family="Arial" font-size="14.00" fill="#666666">[timestamp without time zone]</text>
<polygon fill="none" stroke="#000000" points="512.5,-132.5 512.5,-162.5 820.5,-162.5 820.5,-132.5 512.5,-132.5"/>
<text text-anchor="start" x="519.5" y="-143.9" font-family="Arial" font-size="14.00" fill="#000000">lifecycle_status_id    </text>
<text text-anchor="start" x="667.2812" y="-143.9" font-family="Arial" font-size="14.00" fill="#666666">[uuid]</text>
<polygon fill="none" stroke="#000000" points="512.5,-102.5 512.5,-132.5 820.5,-132.5 820.5,-102.5 512.5,-102.5"/>
<text text-anchor="start" x="519.5" y="-113.9" font-family="Arial" font-size="14.00" fill="#000000">id    </text>
<text text-anchor="start" x="564.594" y="-113.9" font-family="Arial" font-size="14.00" fill="#666666">[uuid]</text>
<polygon fill="none" stroke="#000000" points="512.5,-72.5 512.5,-102.5 820.5,-102.5 820.5,-72.5 512.5,-72.5"/>
<text text-anchor="start" x="519.5" y="-83.9" font-family="Arial" font-size="14.00" fill="#000000">created_at    </text>
<text text-anchor="start" x="619.8422" y="-83.9" font-family="Arial" font-size="14.00" fill="#666666">[timestamp without time zone]</text>
<polygon fill="none" stroke="#000000" points="512.5,-42.5 512.5,-72.5 820.5,-72.5 820.5,-42.5 512.5,-42.5"/>
<text text-anchor="start" x="519.5" y="-53.9" font-family="Arial" font-size="14.00" fill="#000000">modified_at    </text>
<text text-anchor="start" x="626.0554" y="-53.9" font-family="Arial" font-size="14.00" fill="#666666">[timestamp without time zone]</text>
</g>
<!-- arho.land_use_area&#45;&gt;arho.plan -->
<g id="edge2" class="edge">
<title>arho.land_use_area:plan_id&#45;&gt;arho.plan:id</title>
<path fill="none" stroke="#000000" d="M725.3777,-997.0676C618.4425,-987.5831 671.0499,-824.2887 735.5,-727 758.1577,-692.7978 797.8423,-725.2022 820.5,-691 855.6919,-637.877 884.2222,-117.5 820.5,-117.5"/>
<polygon fill="#000000" stroke="#000000" points="725.5091,-997.0731 735.3079,-1001.9959 730.5046,-997.2866 735.5,-997.5 735.5,-997.5 735.5,-997.5 730.5046,-997.2866 735.6921,-993.0041 725.5091,-997.0731 725.5091,-997.0731"/>
<text text-anchor="start" x="488.493" y="-1007.5" font-family="Arial" font-size="10.00" fill="#000000">FOREIGN KEY (plan_id) REFERENCES arho.plan(id)</text>
</g>
<!-- arho.plan_regulation_group -->
<g id="node4" class="node">
<title>arho.plan_regulation_group</title>
<polygon fill="#efefef" stroke="transparent" points="925.5,-417.5 925.5,-452.5 1286.5,-452.5 1286.5,-417.5 925.5,-417.5"/>
<polygon fill="none" stroke="#000000" points="925.5,-417.5 925.5,-452.5 1286.5,-452.5 1286.5,-417.5 925.5,-417.5"/>
<text text-anchor="start" x="932.1784" y="-430.3" font-family="Arial Bold" font-size="18.00" fill="#000000">arho.plan_regulation_group</text>
<text text-anchor="start" x="1152.2536" y="-430.3" font-family="Arial" font-size="14.00" fill="#000000">    </text>
<text text-anchor="start" x="1186.4584" y="-430.3" font-family="Arial" font-size="14.00" fill="#666666">[BASE TABLE]</text>
<polygon fill="none" stroke="#000000" points="925.5,-387.5 925.5,-417.5 1286.5,-417.5 1286.5,-387.5 925.5,-387.5"/>
<text text-anchor="start" x="932.5" y="-398.9" font-family="Arial" font-size="14.00" fill="#000000">short_name    </text>
<text text-anchor="start" x="1040.6122" y="-398.9" font-family="Arial" font-size="14.00" fill="#666666">[varchar]</text>
<polygon fill="none" stroke="#000000" points="925.5,-357.5 925.5,-387.5 1286.5,-387.5 1286.5,-357.5 925.5,-357.5"/>
<text text-anchor="start" x="932.5" y="-368.9" font-family="Arial" font-size="14.00" fill="#000000">name    </text>
<text text-anchor="start" x="1001.7132" y="-368.9" font-family="Arial" font-size="14.00" fill="#666666">[jsonb]</text>
<polygon fill="none" stroke="#000000" points="925.5,-327.5 925.5,-357.5 1286.5,-357.5 1286.5,-327.5 925.5,-327.5"/>
<text text-anchor="start" x="932.5" y="-338.9" font-family="Arial" font-size="14.00" fill="#000000">type_of_plan_regulation_group_id    </text>
<text text-anchor="start" x="1178.3414" y="-338.9" font-family="Arial" font-size="14.00" fill="#666666">[uuid]</text>
<polygon fill="none" stroke="#000000" points="925.5,-297.5 925.5,-327.5 1286.5,-327.5 1286.5,-297.5 925.5,-297.5"/>
<text text-anchor="start" x="932.5" y="-308.9" font-family="Arial" font-size="14.00" fill="#000000">id    </text>
<text text-anchor="start" x="977.594" y="-308.9" font-family="Arial" font-size="14.00" fill="#666666">[uuid]</text>
<polygon fill="none" stroke="#000000" points="925.5,-267.5 925.5,-297.5 1286.5,-297.5 1286.5,-267.5 925.5,-267.5"/>
<text text-anchor="start" x="932.5" y="-278.9" font-family="Arial" font-size="14.00" fill="#000000">created_at    </text>
<text text-anchor="start" x="1032.8422" y="-278.9" font-family="Arial" font-size="14.00" fill="#666666">[timestamp without time zone]</text>
<polygon fill="none" stroke="#000000" points="925.5,-237.5 925.5,-267.5 1286.5,-267.5 1286.5,-237.5 925.5,-237.5"/>
<text text-anchor="start" x="932.5" y="-248.9" font-family="Arial" font-size="14.00" fill="#000000">modified_at    </text>
<text text-anchor="start" x="1039.0554" y="-248.9" font-family="Arial" font-size="14.00" fill="#666666">[timestamp without time zone]</text>
</g>
<!-- arho.land_use_area&#45;&gt;arho.plan_regulation_group -->
<g id="edge3" class="edge">
<title>arho.land_use_area:plan_regulation_group_id&#45;&gt;arho.plan_regulation_group:id</title>
<path fill="none" stroke="#000000" d="M1046.59,-967.1004C1220.9087,-952.7017 938.6412,-553.6891 925.5,-496 907.3862,-416.4814 843.9444,-312.5 925.5,-312.5"/>
<polygon fill="#000000" stroke="#000000" points="1046.4922,-967.1041 1036.3219,-963.0035 1041.4961,-967.3021 1036.5,-967.5 1036.5,-967.5 1036.5,-967.5 1041.4961,-967.3021 1036.6781,-971.9965 1046.4922,-967.1041 1046.4922,-967.1041"/>
<text text-anchor="start" x="1043.91" y="-977.5" font-family="Arial" font-size="10.00" fill="#000000">FOREIGN KEY (plan_regulation_group_id) REFERENCES arho.plan_regulation_group(id)</text>
</g>
<!-- codes.lifecycle_status -->
<g id="node5" class="node">
<title>codes.lifecycle_status</title>
<polygon fill="#efefef" stroke="transparent" points="1390.5,-477.5 1390.5,-512.5 1706.5,-512.5 1706.5,-477.5 1390.5,-477.5"/>
<polygon fill="none" stroke="#000000" points="1390.5,-477.5 1390.5,-512.5 1706.5,-512.5 1706.5,-477.5 1390.5,-477.5"/>
<text text-anchor="start" x="1397.1955" y="-490.3" font-family="Arial Bold" font-size="18.00" fill="#000000">codes.lifecycle_status</text>
<text text-anchor="start" x="1572.2365" y="-490.3" font-family="Arial" font-size="14.00" fill="#000000">    </text>
<text text-anchor="start" x="1606.4413" y="-490.3" font-family="Arial" font-size="14.00" fill="#666666">[BASE TABLE]</text>
<polygon fill="none" stroke="#000000" points="1390.5,-447.5 1390.5,-477.5 1706.5,-477.5 1706.5,-447.5 1390.5,-447.5"/>
<text text-anchor="start" x="1397.5" y="-458.9" font-family="Arial" font-size="14.00" fill="#000000">value    </text>
<text text-anchor="start" x="1465.1592" y="-458.9" font-family="Arial" font-size="14.00" fill="#666666">[varchar]</text>
<polygon fill="none" stroke="#000000" points="1390.5,-417.5 1390.5,-447.5 1706.5,-447.5 1706.5,-417.5 1390.5,-417.5"/>
<text text-anchor="start" x="1397.5" y="-428.9" font-family="Arial" font-size="14.00" fill="#000000">short_name    </text>
<text text-anchor="start" x="1505.6122" y="-428.9" font-family="Arial" font-size="14.00" fill="#666666">[varchar]</text>
<polygon fill="none" stroke="#000000" points="1390.5,-387.5 1390.5,-417.5 1706.5,-417.5 1706.5,-387.5 1390.5,-387.5"/>
<text text-anchor="start" x="1397.5" y="-398.9" font-family="Arial" font-size="14.00" fill="#000000">name    </text>
<text text-anchor="start" x="1466.7132" y="-398.9" font-family="Arial" font-size="14.00" fill="#666666">[jsonb]</text>
<polygon fill="none" stroke="#000000" points="1390.5,-357.5 1390.5,-387.5 1706.5,-387.5 1706.5,-357.5 1390.5,-357.5"/>
<text text-anchor="start" x="1397.5" y="-368.9" font-family="Arial" font-size="14.00" fill="#000000">description    </text>
<text text-anchor="start" x="1499.3822" y="-368.9" font-family="Arial" font-size="14.00" fill="#666666">[jsonb]</text>
<polygon fill="none" stroke="#000000" points="1390.5,-327.5 1390.5,-357.5 1706.5,-357.5 1706.5,-327.5 1390.5,-327.5"/>
<text text-anchor="start" x="1397.5" y="-338.9" font-family="Arial" font-size="14.00" fill="#000000">status    </text>
<text text-anchor="start" x="1469.0512" y="-338.9" font-family="Arial" font-size="14.00" fill="#666666">[varchar]</text>
<polygon fill="none" stroke="#000000" points="1390.5,-297.5 1390.5,-327.5 1706.5,-327.5 1706.5,-297.5 1390.5,-297.5"/>
<text text-anchor="start" x="1397.5" y="-308.9" font-family="Arial" font-size="14.00" fill="#000000">level    </text>
<text text-anchor="start" x="1460.4832" y="-308.9" font-family="Arial" font-size="14.00" fill="#666666">[integer]</text>
<polygon fill="none" stroke="#000000" points="1390.5,-267.5 1390.5,-297.5 1706.5,-297.5 1706.5,-267.5 1390.5,-267.5"/>
<text text-anchor="start" x="1397.5" y="-278.9" font-family="Arial" font-size="14.00" fill="#000000">parent_id    </text>
<text text-anchor="start" x="1490.0582" y="-278.9" font-family="Arial" font-size="14.00" fill="#666666">[uuid]</text>
<polygon fill="none" stroke="#000000" points="1390.5,-237.5 1390.5,-267.5 1706.5,-267.5 1706.5,-237.5 1390.5,-237.5"/>
<text text-anchor="start" x="1397.5" y="-248.9" font-family="Arial" font-size="14.00" fill="#000000">id    </text>
<text text-anchor="start" x="1442.594" y="-248.9" font-family="Arial" font-size="14.00" fill="#666666">[uuid]</text>
<polygon fill="none" stroke="#000000" points="1390.5,-207.5 1390.5,-237.5 1706.5,-237.5 1706.5,-207.5 1390.5,-207.5"/>
<text text-anchor="start" x="1397.5" y="-218.9" font-family="Arial" font-size="14.00" fill="#000000">created_at    </text>
<text text-anchor="start" x="1497.8422" y="-218.9" font-family="Arial" font-size="14.00" fill="#666666">[timestamp without time zone]</text>
<polygon fill="none" stroke="#000000" points="1390.5,-177.5 1390.5,-207.5 1706.5,-207.5 1706.5,-177.5 1390.5,-177.5"/>
<text text-anchor="start" x="1397.5" y="-188.9" font-family="Arial" font-size="14.00" fill="#000000">modified_at    </text>
<text text-anchor="start" x="1504.0554" y="-188.9" font-family="Arial" font-size="14.00" fill="#666666">[timestamp without time zone]</text>
</g>
<!-- arho.land_use_area&#45;&gt;codes.lifecycle_status -->
<g id="edge4" class="edge">
<title>arho.land_use_area:lifecycle_status_id&#45;&gt;codes.lifecycle_status:id</title>
<path fill="none" stroke="#000000" d="M1046.5328,-877.4257C1196.818,-875.1645 1255.4857,-821.1421 1338.5,-691 1391.271,-608.2705 1292.3728,-252.5 1390.5,-252.5"/>
<polygon fill="#000000" stroke="#000000" points="1046.4997,-877.4258 1036.4666,-873.0001 1041.4999,-877.4629 1036.5,-877.5 1036.5,-877.5 1036.5,-877.5 1041.4999,-877.4629 1036.5334,-881.9999 1046.4997,-877.4258 1046.4997,-877.4258"/>
<text text-anchor="start" x="1043.2645" y="-887.5" font-family="Arial" font-size="10.00" fill="#000000">FOREIGN KEY (lifecycle_status_id) REFERENCES codes.lifecycle_status(id)</text>
</g>
<!-- arho.lifecycle_date -->
<g id="node6" class="node">
<title>arho.lifecycle_date</title>
<polygon fill="#efefef" stroke="transparent" points="733.5,-1802.5 733.5,-1837.5 1038.5,-1837.5 1038.5,-1802.5 733.5,-1802.5"/>
<polygon fill="none" stroke="#000000" points="733.5,-1802.5 733.5,-1837.5 1038.5,-1837.5 1038.5,-1802.5 733.5,-1802.5"/>
<text text-anchor="start" x="747.1974" y="-1815.3" font-family="Arial Bold" font-size="18.00" fill="#000000">arho.lifecycle_date</text>
<text text-anchor="start" x="897.2346" y="-1815.3" font-family="Arial" font-size="14.00" fill="#000000">    </text>
<text text-anchor="start" x="931.4394" y="-1815.3" font-family="Arial" font-size="14.00" fill="#666666">[BASE TABLE]</text>
<polygon fill="none" stroke="#000000" points="733.5,-1772.5 733.5,-1802.5 1038.5,-1802.5 1038.5,-1772.5 733.5,-1772.5"/>
<text text-anchor="start" x="740.5" y="-1783.9" font-family="Arial" font-size="14.00" fill="#000000">lifecycle_status_id    </text>
<text text-anchor="start" x="888.2812" y="-1783.9" font-family="Arial" font-size="14.00" fill="#666666">[uuid]</text>
<polygon fill="none" stroke="#000000" points="733.5,-1742.5 733.5,-1772.5 1038.5,-1772.5 1038.5,-1742.5 733.5,-1742.5"/>
<text text-anchor="start" x="740.5" y="-1753.9" font-family="Arial" font-size="14.00" fill="#000000">plan_id    </text>
<text text-anchor="start" x="819.831" y="-1753.9" font-family="Arial" font-size="14.00" fill="#666666">[uuid]</text>
<polygon fill="none" stroke="#000000" points="733.5,-1712.5 733.5,-1742.5 1038.5,-1742.5 1038.5,-1712.5 733.5,-1712.5"/>
<text text-anchor="start" x="740.5" y="-1723.9" font-family="Arial" font-size="14.00" fill="#000000">land_use_area_id    </text>
<text text-anchor="start" x="885.9698" y="-1723.9" font-family="Arial" font-size="14.00" fill="#666666">[uuid]</text>
<polygon fill="none" stroke="#000000" points="733.5,-1682.5 733.5,-1712.5 1038.5,-1712.5 1038.5,-1682.5 733.5,-1682.5"/>
<text text-anchor="start" x="740.5" y="-1693.9" font-family="Arial" font-size="14.00" fill="#000000">other_area_id    </text>
<text text-anchor="start" x="861.0666" y="-1693.9" font-family="Arial" font-size="14.00" fill="#666666">[uuid]</text>
<polygon fill="none" stroke="#000000" points="733.5,-1652.5 733.5,-1682.5 1038.5,-1682.5 1038.5,-1652.5 733.5,-1652.5"/>
<text text-anchor="start" x="740.5" y="-1663.9" font-family="Arial" font-size="14.00" fill="#000000">line_id    </text>
<text text-anchor="start" x="815.155" y="-1663.9" font-family="Arial" font-size="14.00" fill="#666666">[uuid]</text>
<polygon fill="none" stroke="#000000" points="733.5,-1622.5 733.5,-1652.5 1038.5,-1652.5 1038.5,-1622.5 733.5,-1622.5"/>
<text text-anchor="start" x="740.5" y="-1633.9" font-family="Arial" font-size="14.00" fill="#000000">land_use_point_id    </text>
<text text-anchor="start" x="888.3064" y="-1633.9" font-family="Arial" font-size="14.00" fill="#666666">[uuid]</text>
<polygon fill="none" stroke="#000000" points="733.5,-1592.5 733.5,-1622.5 1038.5,-1622.5 1038.5,-1592.5 733.5,-1592.5"/>
<text text-anchor="start" x="740.5" y="-1603.9" font-family="Arial" font-size="14.00" fill="#000000">other_point_id    </text>
<text text-anchor="start" x="863.4032" y="-1603.9" font-family="Arial" font-size="14.00" fill="#666666">[uuid]</text>
<polygon fill="none" stroke="#000000" points="733.5,-1562.5 733.5,-1592.5 1038.5,-1592.5 1038.5,-1562.5 733.5,-1562.5"/>
<text text-anchor="start" x="740.5" y="-1573.9" font-family="Arial" font-size="14.00" fill="#000000">plan_regulation_id    </text>
<text text-anchor="start" x="889.0736" y="-1573.9" font-family="Arial" font-size="14.00" fill="#666666">[uuid]</text>
<polygon fill="none" stroke="#000000" points="733.5,-1532.5 733.5,-1562.5 1038.5,-1562.5 1038.5,-1532.5 733.5,-1532.5"/>
<text text-anchor="start" x="740.5" y="-1543.9" font-family="Arial" font-size="14.00" fill="#000000">plan_proposition_id    </text>
<text text-anchor="start" x="896.0736" y="-1543.9" font-family="Arial" font-size="14.00" fill="#666666">[uuid]</text>
<polygon fill="none" stroke="#000000" points="733.5,-1502.5 733.5,-1532.5 1038.5,-1532.5 1038.5,-1502.5 733.5,-1502.5"/>
<text text-anchor="start" x="740.5" y="-1513.9" font-family="Arial" font-size="14.00" fill="#000000">starting_at    </text>
<text text-anchor="start" x="840.0568" y="-1513.9" font-family="Arial" font-size="14.00" fill="#666666">[timestamp without time zone]</text>
<polygon fill="none" stroke="#000000" points="733.5,-1472.5 733.5,-1502.5 1038.5,-1502.5 1038.5,-1472.5 733.5,-1472.5"/>
<text text-anchor="start" x="740.5" y="-1483.9" font-family="Arial" font-size="14.00" fill="#000000">ending_at    </text>
<text text-anchor="start" x="836.1802" y="-1483.9" font-family="Arial" font-size="14.00" fill="#666666">[timestamp without time zone]</text>
<polygon fill="none" stroke="#000000" points="733.5,-1442.5 733.5,-1472.5 1038.5,-1472.5 1038.5,-1442.5 733.5,-1442.5"/>
<text text-anchor="start" x="740.5" y="-1453.9" font-family="Arial" font-size="14.00" fill="#000000">id    </text>
<text text-anchor="start" x="785.594" y="-1453.9" font-family="Arial" font-size="14.00" fill="#666666">[uuid]</text>
<polygon fill="none" stroke="#000000" points="733.5,-1412.5 733.5,-1442.5 1038.5,-1442.5 1038.5,-1412.5 733.5,-1412.5"/>
<text text-anchor="start" x="740.5" y="-1423.9" font-family="Arial" font-size="14.00" fill="#000000">created_at    </text>
<text text-anchor="start" x="840.8422" y="-1423.9" font-family="Arial" font-size="14.00" fill="#666666">[timestamp without time zone]</text>
<polygon fill="none" stroke="#000000" points="733.5,-1382.5 733.5,-1412.5 1038.5,-1412.5 1038.5,-1382.5 733.5,-1382.5"/>
<text text-anchor="start" x="740.1522" y="-1393.9" font-family="Arial" font-size="14.00" fill="#000000">modified_at    </text>
<text text-anchor="start" x="846.7076" y="-1393.9" font-family="Arial" font-size="14.00" fill="#666666">[timestamp without time zone]</text>
</g>
<!-- arho.lifecycle_date&#45;&gt;arho.land_use_area -->
<g id="edge5" class="edge">
<title>arho.lifecycle_date:land_use_area_id&#45;&gt;arho.land_use_area:id</title>
<path fill="none" stroke="#000000" d="M723.2786,-1727.2973C342.4531,-1712.0992 347.8254,-847.5 735.5,-847.5"/>
<polygon fill="#000000" stroke="#000000" points="723.502,-1727.3016 733.4107,-1731.9991 728.501,-1727.4008 733.5,-1727.5 733.5,-1727.5 733.5,-1727.5 728.501,-1727.4008 733.5893,-1723.0009 723.502,-1727.3016 723.502,-1727.3016"/>
<text text-anchor="start" x="392.251" y="-1737.5" font-family="Arial" font-size="10.00" fill="#000000">FOREIGN KEY (land_use_area_id) REFERENCES arho.land_use_area(id)</text>
</g>
</g>
</svg>
