<?xml version="1.0" encoding="UTF-8" standalone="no"?>
<!DOCTYPE svg PUBLIC "-//W3C//DTD SVG 1.1//EN"
 "http://www.w3.org/Graphics/SVG/1.1/DTD/svg11.dtd">
<!-- Generated by graphviz version 2.40.1 (20161225.0304)
 -->
<!-- Title: arho.plan_proposition Pages: 1 -->
<svg width="1285pt" height="1469pt"
 viewBox="0.00 0.00 1284.50 1469.00" xmlns="http://www.w3.org/2000/svg" xmlns:xlink="http://www.w3.org/1999/xlink">
<g id="graph0" class="graph" transform="scale(1 1) rotate(0) translate(4 1465)">
<title>arho.plan_proposition</title>
<polygon fill="#ffffff" stroke="transparent" points="-4,4 -4,-1465 1280.5,-1465 1280.5,4 -4,4"/>
<!-- arho.plan_proposition -->
<g id="node1" class="node">
<title>arho.plan_proposition</title>
<polygon fill="#efefef" stroke="transparent" points="504.5,-802.5 504.5,-837.5 818.5,-837.5 818.5,-802.5 504.5,-802.5"/>
<polygon fill="none" stroke="#000000" points="504.5,-802.5 504.5,-837.5 818.5,-837.5 818.5,-802.5 504.5,-802.5"/>
<text text-anchor="start" x="511.19" y="-815.3" font-family="Arial Bold" font-size="18.00" fill="#000000">arho.plan_proposition</text>
<text text-anchor="start" x="684.242" y="-815.3" font-family="Arial" font-size="14.00" fill="#000000">    </text>
<text text-anchor="start" x="718.4468" y="-815.3" font-family="Arial" font-size="14.00" fill="#666666">[BASE TABLE]</text>
<polygon fill="none" stroke="#000000" points="504.5,-772.5 504.5,-802.5 818.5,-802.5 818.5,-772.5 504.5,-772.5"/>
<text text-anchor="start" x="511.5" y="-783.9" font-family="Arial" font-size="14.00" fill="#000000">plan_regulation_group_id </text>
<text text-anchor="start" x="673.333" y="-783.9" font-family="Arial" font-size="14.00" fill="#666666">[uuid]</text>
<polygon fill="none" stroke="#000000" points="504.5,-742.5 504.5,-772.5 818.5,-772.5 818.5,-742.5 504.5,-742.5"/>
<text text-anchor="start" x="511.5" y="-753.9" font-family="Arial" font-size="14.00" fill="#000000">plan_theme_id </text>
<text text-anchor="start" x="607.1984" y="-753.9" font-family="Arial" font-size="14.00" fill="#666666">[uuid]</text>
<polygon fill="none" stroke="#000000" points="504.5,-712.5 504.5,-742.5 818.5,-742.5 818.5,-712.5 504.5,-712.5"/>
<text text-anchor="start" x="511.5" y="-723.9" font-family="Arial" font-size="14.00" fill="#000000">text_value </text>
<text text-anchor="start" x="579.1914" y="-723.9" font-family="Arial" font-size="14.00" fill="#666666">[jsonb]</text>
<polygon fill="none" stroke="#000000" points="504.5,-682.5 504.5,-712.5 818.5,-712.5 818.5,-682.5 504.5,-682.5"/>
<text text-anchor="start" x="511.5" y="-693.9" font-family="Arial" font-size="14.00" fill="#000000">ordering </text>
<text text-anchor="start" x="566.7314" y="-693.9" font-family="Arial" font-size="14.00" fill="#666666">[integer]</text>
<polygon fill="none" stroke="#000000" points="504.5,-652.5 504.5,-682.5 818.5,-682.5 818.5,-652.5 504.5,-652.5"/>
<text text-anchor="start" x="511.5" y="-663.9" font-family="Arial" font-size="14.00" fill="#000000">name </text>
<text text-anchor="start" x="550.399" y="-663.9" font-family="Arial" font-size="14.00" fill="#666666">[jsonb]</text>
<polygon fill="none" stroke="#000000" points="504.5,-622.5 504.5,-652.5 818.5,-652.5 818.5,-622.5 504.5,-622.5"/>
<text text-anchor="start" x="511.5" y="-633.9" font-family="Arial" font-size="14.00" fill="#000000">exported_at </text>
<text text-anchor="start" x="589.3106" y="-633.9" font-family="Arial" font-size="14.00" fill="#666666">[timestamp without time zone]</text>
<polygon fill="none" stroke="#000000" points="504.5,-592.5 504.5,-622.5 818.5,-622.5 818.5,-592.5 504.5,-592.5"/>
<text text-anchor="start" x="511.5" y="-603.9" font-family="Arial" font-size="14.00" fill="#000000">lifecycle_status_id </text>
<text text-anchor="start" x="628.967" y="-603.9" font-family="Arial" font-size="14.00" fill="#666666">[uuid]</text>
<polygon fill="none" stroke="#000000" points="504.5,-562.5 504.5,-592.5 818.5,-592.5 818.5,-562.5 504.5,-562.5"/>
<text text-anchor="start" x="511.5" y="-573.9" font-family="Arial" font-size="14.00" fill="#000000">id </text>
<text text-anchor="start" x="526.2798" y="-573.9" font-family="Arial" font-size="14.00" fill="#666666">[uuid]</text>
<polygon fill="none" stroke="#000000" points="504.5,-532.5 504.5,-562.5 818.5,-562.5 818.5,-532.5 504.5,-532.5"/>
<text text-anchor="start" x="511.5" y="-543.9" font-family="Arial" font-size="14.00" fill="#000000">created_at </text>
<text text-anchor="start" x="581.528" y="-543.9" font-family="Arial" font-size="14.00" fill="#666666">[timestamp without time zone]</text>
<polygon fill="none" stroke="#000000" points="504.5,-502.5 504.5,-532.5 818.5,-532.5 818.5,-502.5 504.5,-502.5"/>
<text text-anchor="start" x="511.5" y="-513.9" font-family="Arial" font-size="14.00" fill="#000000">modified_at </text>
<text text-anchor="start" x="587.7412" y="-513.9" font-family="Arial" font-size="14.00" fill="#666666">[timestamp without time zone]</text>
<polygon fill="none" stroke="#000000" stroke-width="3" points="503,-501.5 503,-839.5 820,-839.5 820,-501.5 503,-501.5"/>
</g>
<!-- arho.plan_regulation_group -->
<g id="node2" class="node">
<title>arho.plan_regulation_group</title>
<polygon fill="#efefef" stroke="transparent" points="43.5,-282.5 43.5,-317.5 404.5,-317.5 404.5,-282.5 43.5,-282.5"/>
<polygon fill="none" stroke="#000000" points="43.5,-282.5 43.5,-317.5 404.5,-317.5 404.5,-282.5 43.5,-282.5"/>
<text text-anchor="start" x="50.1784" y="-295.3" font-family="Arial Bold" font-size="18.00" fill="#000000">arho.plan_regulation_group</text>
<text text-anchor="start" x="270.2536" y="-295.3" font-family="Arial" font-size="14.00" fill="#000000">    </text>
<text text-anchor="start" x="304.4584" y="-295.3" font-family="Arial" font-size="14.00" fill="#666666">[BASE TABLE]</text>
<polygon fill="none" stroke="#000000" points="43.5,-252.5 43.5,-282.5 404.5,-282.5 404.5,-252.5 43.5,-252.5"/>
<text text-anchor="start" x="50.5" y="-263.9" font-family="Arial" font-size="14.00" fill="#000000">short_name    </text>
<text text-anchor="start" x="158.6122" y="-263.9" font-family="Arial" font-size="14.00" fill="#666666">[varchar]</text>
<polygon fill="none" stroke="#000000" points="43.5,-222.5 43.5,-252.5 404.5,-252.5 404.5,-222.5 43.5,-222.5"/>
<text text-anchor="start" x="50.5" y="-233.9" font-family="Arial" font-size="14.00" fill="#000000">name    </text>
<text text-anchor="start" x="119.7132" y="-233.9" font-family="Arial" font-size="14.00" fill="#666666">[jsonb]</text>
<polygon fill="none" stroke="#000000" points="43.5,-192.5 43.5,-222.5 404.5,-222.5 404.5,-192.5 43.5,-192.5"/>
<text text-anchor="start" x="50.5" y="-203.9" font-family="Arial" font-size="14.00" fill="#000000">type_of_plan_regulation_group_id    </text>
<text text-anchor="start" x="296.3414" y="-203.9" font-family="Arial" font-size="14.00" fill="#666666">[uuid]</text>
<polygon fill="none" stroke="#000000" points="43.5,-162.5 43.5,-192.5 404.5,-192.5 404.5,-162.5 43.5,-162.5"/>
<text text-anchor="start" x="50.5" y="-173.9" font-family="Arial" font-size="14.00" fill="#000000">id    </text>
<text text-anchor="start" x="95.594" y="-173.9" font-family="Arial" font-size="14.00" fill="#666666">[uuid]</text>
<polygon fill="none" stroke="#000000" points="43.5,-132.5 43.5,-162.5 404.5,-162.5 404.5,-132.5 43.5,-132.5"/>
<text text-anchor="start" x="50.5" y="-143.9" font-family="Arial" font-size="14.00" fill="#000000">created_at    </text>
<text text-anchor="start" x="150.8422" y="-143.9" font-family="Arial" font-size="14.00" fill="#666666">[timestamp without time zone]</text>
<polygon fill="none" stroke="#000000" points="43.5,-102.5 43.5,-132.5 404.5,-132.5 404.5,-102.5 43.5,-102.5"/>
<text text-anchor="start" x="50.5" y="-113.9" font-family="Arial" font-size="14.00" fill="#000000">modified_at    </text>
<text text-anchor="start" x="157.0554" y="-113.9" font-family="Arial" font-size="14.00" fill="#666666">[timestamp without time zone]</text>
</g>
<!-- arho.plan_proposition&#45;&gt;arho.plan_regulation_group -->
<g id="edge1" class="edge">
<title>arho.plan_proposition:plan_regulation_group_id&#45;&gt;arho.plan_regulation_group:id</title>
<path fill="none" stroke="#000000" d="M495.1729,-783.279C439.2136,-729.384 469.8288,-177.5 404.5,-177.5"/>
<polygon fill="#000000" stroke="#000000" points="495.3895,-783.3769 502.6446,-791.5997 499.9448,-785.4385 504.5,-787.5 504.5,-787.5 504.5,-787.5 499.9448,-785.4385 506.3554,-783.4003 495.3895,-783.3769 495.3895,-783.3769"/>
<text text-anchor="start" x="96.91" y="-797.5" font-family="Arial" font-size="10.00" fill="#000000">FOREIGN KEY (plan_regulation_group_id) REFERENCES arho.plan_regulation_group(id)</text>
</g>
<!-- codes.plan_theme -->
<g id="node3" class="node">
<title>codes.plan_theme</title>
<polygon fill="#efefef" stroke="transparent" points="508.5,-342.5 508.5,-377.5 813.5,-377.5 813.5,-342.5 508.5,-342.5"/>
<polygon fill="none" stroke="#000000" points="508.5,-342.5 508.5,-377.5 813.5,-377.5 813.5,-342.5 508.5,-342.5"/>
<text text-anchor="start" x="523.6896" y="-355.3" font-family="Arial Bold" font-size="18.00" fill="#000000">codes.plan_theme</text>
<text text-anchor="start" x="670.7424" y="-355.3" font-family="Arial" font-size="14.00" fill="#000000">    </text>
<text text-anchor="start" x="704.9472" y="-355.3" font-family="Arial" font-size="14.00" fill="#666666">[BASE TABLE]</text>
<polygon fill="none" stroke="#000000" points="508.5,-312.5 508.5,-342.5 813.5,-342.5 813.5,-312.5 508.5,-312.5"/>
<text text-anchor="start" x="515.5" y="-323.9" font-family="Arial" font-size="14.00" fill="#000000">value    </text>
<text text-anchor="start" x="583.1592" y="-323.9" font-family="Arial" font-size="14.00" fill="#666666">[varchar]</text>
<polygon fill="none" stroke="#000000" points="508.5,-282.5 508.5,-312.5 813.5,-312.5 813.5,-282.5 508.5,-282.5"/>
<text text-anchor="start" x="515.5" y="-293.9" font-family="Arial" font-size="14.00" fill="#000000">short_name    </text>
<text text-anchor="start" x="623.6122" y="-293.9" font-family="Arial" font-size="14.00" fill="#666666">[varchar]</text>
<polygon fill="none" stroke="#000000" points="508.5,-252.5 508.5,-282.5 813.5,-282.5 813.5,-252.5 508.5,-252.5"/>
<text text-anchor="start" x="515.5" y="-263.9" font-family="Arial" font-size="14.00" fill="#000000">name    </text>
<text text-anchor="start" x="584.7132" y="-263.9" font-family="Arial" font-size="14.00" fill="#666666">[jsonb]</text>
<polygon fill="none" stroke="#000000" points="508.5,-222.5 508.5,-252.5 813.5,-252.5 813.5,-222.5 508.5,-222.5"/>
<text text-anchor="start" x="515.5" y="-233.9" font-family="Arial" font-size="14.00" fill="#000000">description    </text>
<text text-anchor="start" x="617.3822" y="-233.9" font-family="Arial" font-size="14.00" fill="#666666">[jsonb]</text>
<polygon fill="none" stroke="#000000" points="508.5,-192.5 508.5,-222.5 813.5,-222.5 813.5,-192.5 508.5,-192.5"/>
<text text-anchor="start" x="515.5" y="-203.9" font-family="Arial" font-size="14.00" fill="#000000">status    </text>
<text text-anchor="start" x="587.0512" y="-203.9" font-family="Arial" font-size="14.00" fill="#666666">[varchar]</text>
<polygon fill="none" stroke="#000000" points="508.5,-162.5 508.5,-192.5 813.5,-192.5 813.5,-162.5 508.5,-162.5"/>
<text text-anchor="start" x="515.5" y="-173.9" font-family="Arial" font-size="14.00" fill="#000000">level    </text>
<text text-anchor="start" x="578.4832" y="-173.9" font-family="Arial" font-size="14.00" fill="#666666">[integer]</text>
<polygon fill="none" stroke="#000000" points="508.5,-132.5 508.5,-162.5 813.5,-162.5 813.5,-132.5 508.5,-132.5"/>
<text text-anchor="start" x="515.5" y="-143.9" font-family="Arial" font-size="14.00" fill="#000000">parent_id    </text>
<text text-anchor="start" x="608.0582" y="-143.9" font-family="Arial" font-size="14.00" fill="#666666">[uuid]</text>
<polygon fill="none" stroke="#000000" points="508.5,-102.5 508.5,-132.5 813.5,-132.5 813.5,-102.5 508.5,-102.5"/>
<text text-anchor="start" x="515.5" y="-113.9" font-family="Arial" font-size="14.00" fill="#000000">id    </text>
<text text-anchor="start" x="560.594" y="-113.9" font-family="Arial" font-size="14.00" fill="#666666">[uuid]</text>
<polygon fill="none" stroke="#000000" points="508.5,-72.5 508.5,-102.5 813.5,-102.5 813.5,-72.5 508.5,-72.5"/>
<text text-anchor="start" x="515.5" y="-83.9" font-family="Arial" font-size="14.00" fill="#000000">created_at    </text>
<text text-anchor="start" x="615.8422" y="-83.9" font-family="Arial" font-size="14.00" fill="#666666">[timestamp without time zone]</text>
<polygon fill="none" stroke="#000000" points="508.5,-42.5 508.5,-72.5 813.5,-72.5 813.5,-42.5 508.5,-42.5"/>
<text text-anchor="start" x="515.1522" y="-53.9" font-family="Arial" font-size="14.00" fill="#000000">modified_at    </text>
<text text-anchor="start" x="621.7076" y="-53.9" font-family="Arial" font-size="14.00" fill="#666666">[timestamp without time zone]</text>
</g>
<!-- arho.plan_proposition&#45;&gt;codes.plan_theme -->
<g id="edge2" class="edge">
<title>arho.plan_proposition:plan_theme_id&#45;&gt;codes.plan_theme:id</title>
<path fill="none" stroke="#000000" d="M494.305,-757.0868C373.3349,-746.9839 418.0358,-554.1226 504.5,-457 596.4354,-353.7318 721.5646,-524.2682 813.5,-421 858.3462,-370.6257 880.9444,-117.5 813.5,-117.5"/>
<polygon fill="#000000" stroke="#000000" points="494.5082,-757.095 504.3177,-761.9963 499.5041,-757.2975 504.5,-757.5 504.5,-757.5 504.5,-757.5 499.5041,-757.2975 504.6823,-753.0037 494.5082,-757.095 494.5082,-757.095"/>
<text text-anchor="start" x="184.8135" y="-767.5" font-family="Arial" font-size="10.00" fill="#000000">FOREIGN KEY (plan_theme_id) REFERENCES codes.plan_theme(id)</text>
</g>
<!-- codes.lifecycle_status -->
<g id="node4" class="node">
<title>codes.lifecycle_status</title>
<polygon fill="#efefef" stroke="transparent" points="917.5,-342.5 917.5,-377.5 1233.5,-377.5 1233.5,-342.5 917.5,-342.5"/>
<polygon fill="none" stroke="#000000" points="917.5,-342.5 917.5,-377.5 1233.5,-377.5 1233.5,-342.5 917.5,-342.5"/>
<text text-anchor="start" x="924.1955" y="-355.3" font-family="Arial Bold" font-size="18.00" fill="#000000">codes.lifecycle_status</text>
<text text-anchor="start" x="1099.2365" y="-355.3" font-family="Arial" font-size="14.00" fill="#000000">    </text>
<text text-anchor="start" x="1133.4413" y="-355.3" font-family="Arial" font-size="14.00" fill="#666666">[BASE TABLE]</text>
<polygon fill="none" stroke="#000000" points="917.5,-312.5 917.5,-342.5 1233.5,-342.5 1233.5,-312.5 917.5,-312.5"/>
<text text-anchor="start" x="924.5" y="-323.9" font-family="Arial" font-size="14.00" fill="#000000">value    </text>
<text text-anchor="start" x="992.1592" y="-323.9" font-family="Arial" font-size="14.00" fill="#666666">[varchar]</text>
<polygon fill="none" stroke="#000000" points="917.5,-282.5 917.5,-312.5 1233.5,-312.5 1233.5,-282.5 917.5,-282.5"/>
<text text-anchor="start" x="924.5" y="-293.9" font-family="Arial" font-size="14.00" fill="#000000">short_name    </text>
<text text-anchor="start" x="1032.6122" y="-293.9" font-family="Arial" font-size="14.00" fill="#666666">[varchar]</text>
<polygon fill="none" stroke="#000000" points="917.5,-252.5 917.5,-282.5 1233.5,-282.5 1233.5,-252.5 917.5,-252.5"/>
<text text-anchor="start" x="924.5" y="-263.9" font-family="Arial" font-size="14.00" fill="#000000">name    </text>
<text text-anchor="start" x="993.7132" y="-263.9" font-family="Arial" font-size="14.00" fill="#666666">[jsonb]</text>
<polygon fill="none" stroke="#000000" points="917.5,-222.5 917.5,-252.5 1233.5,-252.5 1233.5,-222.5 917.5,-222.5"/>
<text text-anchor="start" x="924.5" y="-233.9" font-family="Arial" font-size="14.00" fill="#000000">description    </text>
<text text-anchor="start" x="1026.3822" y="-233.9" font-family="Arial" font-size="14.00" fill="#666666">[jsonb]</text>
<polygon fill="none" stroke="#000000" points="917.5,-192.5 917.5,-222.5 1233.5,-222.5 1233.5,-192.5 917.5,-192.5"/>
<text text-anchor="start" x="924.5" y="-203.9" font-family="Arial" font-size="14.00" fill="#000000">status    </text>
<text text-anchor="start" x="996.0512" y="-203.9" font-family="Arial" font-size="14.00" fill="#666666">[varchar]</text>
<polygon fill="none" stroke="#000000" points="917.5,-162.5 917.5,-192.5 1233.5,-192.5 1233.5,-162.5 917.5,-162.5"/>
<text text-anchor="start" x="924.5" y="-173.9" font-family="Arial" font-size="14.00" fill="#000000">level    </text>
<text text-anchor="start" x="987.4832" y="-173.9" font-family="Arial" font-size="14.00" fill="#666666">[integer]</text>
<polygon fill="none" stroke="#000000" points="917.5,-132.5 917.5,-162.5 1233.5,-162.5 1233.5,-132.5 917.5,-132.5"/>
<text text-anchor="start" x="924.5" y="-143.9" font-family="Arial" font-size="14.00" fill="#000000">parent_id    </text>
<text text-anchor="start" x="1017.0582" y="-143.9" font-family="Arial" font-size="14.00" fill="#666666">[uuid]</text>
<polygon fill="none" stroke="#000000" points="917.5,-102.5 917.5,-132.5 1233.5,-132.5 1233.5,-102.5 917.5,-102.5"/>
<text text-anchor="start" x="924.5" y="-113.9" font-family="Arial" font-size="14.00" fill="#000000">id    </text>
<text text-anchor="start" x="969.594" y="-113.9" font-family="Arial" font-size="14.00" fill="#666666">[uuid]</text>
<polygon fill="none" stroke="#000000" points="917.5,-72.5 917.5,-102.5 1233.5,-102.5 1233.5,-72.5 917.5,-72.5"/>
<text text-anchor="start" x="924.5" y="-83.9" font-family="Arial" font-size="14.00" fill="#000000">created_at    </text>
<text text-anchor="start" x="1024.8422" y="-83.9" font-family="Arial" font-size="14.00" fill="#666666">[timestamp without time zone]</text>
<polygon fill="none" stroke="#000000" points="917.5,-42.5 917.5,-72.5 1233.5,-72.5 1233.5,-42.5 917.5,-42.5"/>
<text text-anchor="start" x="924.5" y="-53.9" font-family="Arial" font-size="14.00" fill="#000000">modified_at    </text>
<text text-anchor="start" x="1031.0554" y="-53.9" font-family="Arial" font-size="14.00" fill="#666666">[timestamp without time zone]</text>
</g>
<!-- arho.plan_proposition&#45;&gt;codes.lifecycle_status -->
<g id="edge3" class="edge">
<title>arho.plan_proposition:lifecycle_status_id&#45;&gt;codes.lifecycle_status:id</title>
<path fill="none" stroke="#000000" d="M828.5258,-606.0061C921.8932,-576.4269 809.9909,-117.5 917.5,-117.5"/>
<polygon fill="#000000" stroke="#000000" points="828.3908,-606.0262 817.8368,-603.0491 823.4454,-606.7631 818.5,-607.5 818.5,-607.5 818.5,-607.5 823.4454,-606.7631 819.1632,-611.9509 828.3908,-606.0262 828.3908,-606.0262"/>
<text text-anchor="start" x="825.2645" y="-617.5" font-family="Arial" font-size="10.00" fill="#000000">FOREIGN KEY (lifecycle_status_id) REFERENCES codes.lifecycle_status(id)</text>
</g>
<!-- arho.lifecycle_date -->
<g id="node5" class="node">
<title>arho.lifecycle_date</title>
<polygon fill="#efefef" stroke="transparent" points="508.5,-1382.5 508.5,-1417.5 813.5,-1417.5 813.5,-1382.5 508.5,-1382.5"/>
<polygon fill="none" stroke="#000000" points="508.5,-1382.5 508.5,-1417.5 813.5,-1417.5 813.5,-1382.5 508.5,-1382.5"/>
<text text-anchor="start" x="522.1974" y="-1395.3" font-family="Arial Bold" font-size="18.00" fill="#000000">arho.lifecycle_date</text>
<text text-anchor="start" x="672.2346" y="-1395.3" font-family="Arial" font-size="14.00" fill="#000000">    </text>
<text text-anchor="start" x="706.4394" y="-1395.3" font-family="Arial" font-size="14.00" fill="#666666">[BASE TABLE]</text>
<polygon fill="none" stroke="#000000" points="508.5,-1352.5 508.5,-1382.5 813.5,-1382.5 813.5,-1352.5 508.5,-1352.5"/>
<text text-anchor="start" x="515.5" y="-1363.9" font-family="Arial" font-size="14.00" fill="#000000">lifecycle_status_id    </text>
<text text-anchor="start" x="663.2812" y="-1363.9" font-family="Arial" font-size="14.00" fill="#666666">[uuid]</text>
<polygon fill="none" stroke="#000000" points="508.5,-1322.5 508.5,-1352.5 813.5,-1352.5 813.5,-1322.5 508.5,-1322.5"/>
<text text-anchor="start" x="515.5" y="-1333.9" font-family="Arial" font-size="14.00" fill="#000000">plan_id    </text>
<text text-anchor="start" x="594.831" y="-1333.9" font-family="Arial" font-size="14.00" fill="#666666">[uuid]</text>
<polygon fill="none" stroke="#000000" points="508.5,-1292.5 508.5,-1322.5 813.5,-1322.5 813.5,-1292.5 508.5,-1292.5"/>
<text text-anchor="start" x="515.5" y="-1303.9" font-family="Arial" font-size="14.00" fill="#000000">land_use_area_id    </text>
<text text-anchor="start" x="660.9698" y="-1303.9" font-family="Arial" font-size="14.00" fill="#666666">[uuid]</text>
<polygon fill="none" stroke="#000000" points="508.5,-1262.5 508.5,-1292.5 813.5,-1292.5 813.5,-1262.5 508.5,-1262.5"/>
<text text-anchor="start" x="515.5" y="-1273.9" font-family="Arial" font-size="14.00" fill="#000000">other_area_id    </text>
<text text-anchor="start" x="636.0666" y="-1273.9" font-family="Arial" font-size="14.00" fill="#666666">[uuid]</text>
<polygon fill="none" stroke="#000000" points="508.5,-1232.5 508.5,-1262.5 813.5,-1262.5 813.5,-1232.5 508.5,-1232.5"/>
<text text-anchor="start" x="515.5" y="-1243.9" font-family="Arial" font-size="14.00" fill="#000000">line_id    </text>
<text text-anchor="start" x="590.155" y="-1243.9" font-family="Arial" font-size="14.00" fill="#666666">[uuid]</text>
<polygon fill="none" stroke="#000000" points="508.5,-1202.5 508.5,-1232.5 813.5,-1232.5 813.5,-1202.5 508.5,-1202.5"/>
<text text-anchor="start" x="515.5" y="-1213.9" font-family="Arial" font-size="14.00" fill="#000000">land_use_point_id    </text>
<text text-anchor="start" x="663.3064" y="-1213.9" font-family="Arial" font-size="14.00" fill="#666666">[uuid]</text>
<polygon fill="none" stroke="#000000" points="508.5,-1172.5 508.5,-1202.5 813.5,-1202.5 813.5,-1172.5 508.5,-1172.5"/>
<text text-anchor="start" x="515.5" y="-1183.9" font-family="Arial" font-size="14.00" fill="#000000">other_point_id    </text>
<text text-anchor="start" x="638.4032" y="-1183.9" font-family="Arial" font-size="14.00" fill="#666666">[uuid]</text>
<polygon fill="none" stroke="#000000" points="508.5,-1142.5 508.5,-1172.5 813.5,-1172.5 813.5,-1142.5 508.5,-1142.5"/>
<text text-anchor="start" x="515.5" y="-1153.9" font-family="Arial" font-size="14.00" fill="#000000">plan_regulation_id    </text>
<text text-anchor="start" x="664.0736" y="-1153.9" font-family="Arial" font-size="14.00" fill="#666666">[uuid]</text>
<polygon fill="none" stroke="#000000" points="508.5,-1112.5 508.5,-1142.5 813.5,-1142.5 813.5,-1112.5 508.5,-1112.5"/>
<text text-anchor="start" x="515.5" y="-1123.9" font-family="Arial" font-size="14.00" fill="#000000">plan_proposition_id    </text>
<text text-anchor="start" x="671.0736" y="-1123.9" font-family="Arial" font-size="14.00" fill="#666666">[uuid]</text>
<polygon fill="none" stroke="#000000" points="508.5,-1082.5 508.5,-1112.5 813.5,-1112.5 813.5,-1082.5 508.5,-1082.5"/>
<text text-anchor="start" x="515.5" y="-1093.9" font-family="Arial" font-size="14.00" fill="#000000">starting_at    </text>
<text text-anchor="start" x="615.0568" y="-1093.9" font-family="Arial" font-size="14.00" fill="#666666">[timestamp without time zone]</text>
<polygon fill="none" stroke="#000000" points="508.5,-1052.5 508.5,-1082.5 813.5,-1082.5 813.5,-1052.5 508.5,-1052.5"/>
<text text-anchor="start" x="515.5" y="-1063.9" font-family="Arial" font-size="14.00" fill="#000000">ending_at    </text>
<text text-anchor="start" x="611.1802" y="-1063.9" font-family="Arial" font-size="14.00" fill="#666666">[timestamp without time zone]</text>
<polygon fill="none" stroke="#000000" points="508.5,-1022.5 508.5,-1052.5 813.5,-1052.5 813.5,-1022.5 508.5,-1022.5"/>
<text text-anchor="start" x="515.5" y="-1033.9" font-family="Arial" font-size="14.00" fill="#000000">id    </text>
<text text-anchor="start" x="560.594" y="-1033.9" font-family="Arial" font-size="14.00" fill="#666666">[uuid]</text>
<polygon fill="none" stroke="#000000" points="508.5,-992.5 508.5,-1022.5 813.5,-1022.5 813.5,-992.5 508.5,-992.5"/>
<text text-anchor="start" x="515.5" y="-1003.9" font-family="Arial" font-size="14.00" fill="#000000">created_at    </text>
<text text-anchor="start" x="615.8422" y="-1003.9" font-family="Arial" font-size="14.00" fill="#666666">[timestamp without time zone]</text>
<polygon fill="none" stroke="#000000" points="508.5,-962.5 508.5,-992.5 813.5,-992.5 813.5,-962.5 508.5,-962.5"/>
<text text-anchor="start" x="515.1522" y="-973.9" font-family="Arial" font-size="14.00" fill="#000000">modified_at    </text>
<text text-anchor="start" x="621.7076" y="-973.9" font-family="Arial" font-size="14.00" fill="#666666">[timestamp without time zone]</text>
</g>
<!-- arho.lifecycle_date&#45;&gt;arho.plan_proposition -->
<g id="edge4" class="edge">
<title>arho.lifecycle_date:plan_proposition_id&#45;&gt;arho.plan_proposition:id</title>
<path fill="none" stroke="#000000" d="M823.7492,-1126.8779C903.2617,-1116.7768 872.4264,-986.1902 813.5,-920 721.5646,-816.7318 596.4354,-987.2682 504.5,-884 413.921,-782.2555 368.2778,-577.5 504.5,-577.5"/>
<polygon fill="#000000" stroke="#000000" points="823.4816,-1126.894 813.2273,-1123.0083 818.4908,-1127.197 813.5,-1127.5 813.5,-1127.5 813.5,-1127.5 818.4908,-1127.197 813.7727,-1131.9917 823.4816,-1126.894 823.4816,-1126.894"/>
<text text-anchor="start" x="820.034" y="-1137.5" font-family="Arial" font-size="10.00" fill="#000000">FOREIGN KEY (plan_proposition_id) REFERENCES arho.plan_proposition(id)</text>
</g>
</g>
</svg>
