<?xml version="1.0" encoding="UTF-8" standalone="no"?>
<!DOCTYPE svg PUBLIC "-//W3C//DTD SVG 1.1//EN"
 "http://www.w3.org/Graphics/SVG/1.1/DTD/svg11.dtd">
<!-- Generated by graphviz version 2.40.1 (20161225.0304)
 -->
<!-- Title: arho.organisation Pages: 1 -->
<svg width="1039pt" height="1529pt"
 viewBox="0.00 0.00 1039.00 1529.00" xmlns="http://www.w3.org/2000/svg" xmlns:xlink="http://www.w3.org/1999/xlink">
<g id="graph0" class="graph" transform="scale(1 1) rotate(0) translate(4 1525)">
<title>arho.organisation</title>
<polygon fill="#ffffff" stroke="transparent" points="-4,4 -4,-1525 1035,-1525 1035,4 -4,4"/>
<!-- arho.organisation -->
<g id="node1" class="node">
<title>arho.organisation</title>
<polygon fill="#efefef" stroke="transparent" points="412,-712.5 412,-747.5 692,-747.5 692,-712.5 412,-712.5"/>
<polygon fill="none" stroke="#000000" points="412,-712.5 412,-747.5 692,-747.5 692,-712.5 412,-712.5"/>
<text text-anchor="start" x="418.6964" y="-725.3" font-family="Arial Bold" font-size="18.00" fill="#000000">arho.organisation</text>
<text text-anchor="start" x="557.7356" y="-725.3" font-family="Arial" font-size="14.00" fill="#000000">    </text>
<text text-anchor="start" x="591.9404" y="-725.3" font-family="Arial" font-size="14.00" fill="#666666">[BASE TABLE]</text>
<polygon fill="none" stroke="#000000" points="412,-682.5 412,-712.5 692,-712.5 692,-682.5 412,-682.5"/>
<text text-anchor="start" x="419" y="-693.9" font-family="Arial" font-size="14.00" fill="#000000">name </text>
<text text-anchor="start" x="457.899" y="-693.9" font-family="Arial" font-size="14.00" fill="#666666">[jsonb]</text>
<polygon fill="none" stroke="#000000" points="412,-652.5 412,-682.5 692,-682.5 692,-652.5 412,-652.5"/>
<text text-anchor="start" x="419" y="-663.9" font-family="Arial" font-size="14.00" fill="#000000">business_id </text>
<text text-anchor="start" x="496.7994" y="-663.9" font-family="Arial" font-size="14.00" fill="#666666">[varchar]</text>
<polygon fill="none" stroke="#000000" points="412,-622.5 412,-652.5 692,-652.5 692,-622.5 412,-622.5"/>
<text text-anchor="start" x="419" y="-633.9" font-family="Arial" font-size="14.00" fill="#000000">administrative_region_id </text>
<text text-anchor="start" x="574.5778" y="-633.9" font-family="Arial" font-size="14.00" fill="#666666">[uuid]</text>
<polygon fill="none" stroke="#000000" points="412,-592.5 412,-622.5 692,-622.5 692,-592.5 412,-592.5"/>
<text text-anchor="start" x="419" y="-603.9" font-family="Arial" font-size="14.00" fill="#000000">id </text>
<text text-anchor="start" x="433.7798" y="-603.9" font-family="Arial" font-size="14.00" fill="#666666">[uuid]</text>
<polygon fill="none" stroke="#000000" points="412,-562.5 412,-592.5 692,-592.5 692,-562.5 412,-562.5"/>
<text text-anchor="start" x="419" y="-573.9" font-family="Arial" font-size="14.00" fill="#000000">created_at </text>
<text text-anchor="start" x="489.028" y="-573.9" font-family="Arial" font-size="14.00" fill="#666666">[timestamp without time zone]</text>
<polygon fill="none" stroke="#000000" points="412,-532.5 412,-562.5 692,-562.5 692,-532.5 412,-532.5"/>
<text text-anchor="start" x="419" y="-543.9" font-family="Arial" font-size="14.00" fill="#000000">modified_at </text>
<text text-anchor="start" x="495.2412" y="-543.9" font-family="Arial" font-size="14.00" fill="#666666">[timestamp without time zone]</text>
<polygon fill="none" stroke="#000000" stroke-width="3" points="410.5,-531.5 410.5,-749.5 693.5,-749.5 693.5,-531.5 410.5,-531.5"/>
</g>
<!-- codes.administrative_region -->
<g id="node2" class="node">
<title>codes.administrative_region</title>
<polygon fill="#efefef" stroke="transparent" points="369,-372.5 369,-407.5 734,-407.5 734,-372.5 369,-372.5"/>
<polygon fill="none" stroke="#000000" points="369,-372.5 369,-407.5 734,-407.5 734,-372.5 369,-372.5"/>
<text text-anchor="start" x="375.6957" y="-385.3" font-family="Arial Bold" font-size="18.00" fill="#000000">codes.administrative_region</text>
<text text-anchor="start" x="599.7363" y="-385.3" font-family="Arial" font-size="14.00" fill="#000000">    </text>
<text text-anchor="start" x="633.9411" y="-385.3" font-family="Arial" font-size="14.00" fill="#666666">[BASE TABLE]</text>
<polygon fill="none" stroke="#000000" points="369,-342.5 369,-372.5 734,-372.5 734,-342.5 369,-342.5"/>
<text text-anchor="start" x="376" y="-353.9" font-family="Arial" font-size="14.00" fill="#000000">geom    </text>
<text text-anchor="start" x="445.2132" y="-353.9" font-family="Arial" font-size="14.00" fill="#666666">[geometry(MultiPolygon,3067)]</text>
<polygon fill="none" stroke="#000000" points="369,-312.5 369,-342.5 734,-342.5 734,-312.5 369,-312.5"/>
<text text-anchor="start" x="376" y="-323.9" font-family="Arial" font-size="14.00" fill="#000000">value    </text>
<text text-anchor="start" x="443.6592" y="-323.9" font-family="Arial" font-size="14.00" fill="#666666">[varchar]</text>
<polygon fill="none" stroke="#000000" points="369,-282.5 369,-312.5 734,-312.5 734,-282.5 369,-282.5"/>
<text text-anchor="start" x="376" y="-293.9" font-family="Arial" font-size="14.00" fill="#000000">short_name    </text>
<text text-anchor="start" x="484.1122" y="-293.9" font-family="Arial" font-size="14.00" fill="#666666">[varchar]</text>
<polygon fill="none" stroke="#000000" points="369,-252.5 369,-282.5 734,-282.5 734,-252.5 369,-252.5"/>
<text text-anchor="start" x="376" y="-263.9" font-family="Arial" font-size="14.00" fill="#000000">name    </text>
<text text-anchor="start" x="445.2132" y="-263.9" font-family="Arial" font-size="14.00" fill="#666666">[jsonb]</text>
<polygon fill="none" stroke="#000000" points="369,-222.5 369,-252.5 734,-252.5 734,-222.5 369,-222.5"/>
<text text-anchor="start" x="376" y="-233.9" font-family="Arial" font-size="14.00" fill="#000000">description    </text>
<text text-anchor="start" x="477.8822" y="-233.9" font-family="Arial" font-size="14.00" fill="#666666">[jsonb]</text>
<polygon fill="none" stroke="#000000" points="369,-192.5 369,-222.5 734,-222.5 734,-192.5 369,-192.5"/>
<text text-anchor="start" x="376" y="-203.9" font-family="Arial" font-size="14.00" fill="#000000">status    </text>
<text text-anchor="start" x="447.5512" y="-203.9" font-family="Arial" font-size="14.00" fill="#666666">[varchar]</text>
<polygon fill="none" stroke="#000000" points="369,-162.5 369,-192.5 734,-192.5 734,-162.5 369,-162.5"/>
<text text-anchor="start" x="376" y="-173.9" font-family="Arial" font-size="14.00" fill="#000000">level    </text>
<text text-anchor="start" x="438.9832" y="-173.9" font-family="Arial" font-size="14.00" fill="#666666">[integer]</text>
<polygon fill="none" stroke="#000000" points="369,-132.5 369,-162.5 734,-162.5 734,-132.5 369,-132.5"/>
<text text-anchor="start" x="376" y="-143.9" font-family="Arial" font-size="14.00" fill="#000000">parent_id    </text>
<text text-anchor="start" x="468.5582" y="-143.9" font-family="Arial" font-size="14.00" fill="#666666">[uuid]</text>
<polygon fill="none" stroke="#000000" points="369,-102.5 369,-132.5 734,-132.5 734,-102.5 369,-102.5"/>
<text text-anchor="start" x="376" y="-113.9" font-family="Arial" font-size="14.00" fill="#000000">id    </text>
<text text-anchor="start" x="421.094" y="-113.9" font-family="Arial" font-size="14.00" fill="#666666">[uuid]</text>
<polygon fill="none" stroke="#000000" points="369,-72.5 369,-102.5 734,-102.5 734,-72.5 369,-72.5"/>
<text text-anchor="start" x="376" y="-83.9" font-family="Arial" font-size="14.00" fill="#000000">created_at    </text>
<text text-anchor="start" x="476.3422" y="-83.9" font-family="Arial" font-size="14.00" fill="#666666">[timestamp without time zone]</text>
<polygon fill="none" stroke="#000000" points="369,-42.5 369,-72.5 734,-72.5 734,-42.5 369,-42.5"/>
<text text-anchor="start" x="376" y="-53.9" font-family="Arial" font-size="14.00" fill="#000000">modified_at    </text>
<text text-anchor="start" x="482.5554" y="-53.9" font-family="Arial" font-size="14.00" fill="#666666">[timestamp without time zone]</text>
</g>
<!-- arho.organisation&#45;&gt;codes.administrative_region -->
<g id="edge1" class="edge">
<title>arho.organisation:administrative_region_id&#45;&gt;codes.administrative_region:id</title>
<path fill="none" stroke="#000000" d="M401.8153,-636.6218C347.6164,-626.644 369.846,-534.1295 412,-487 508.0019,-379.6668 637.9981,-558.3332 734,-451 783.4075,-395.7609 808.1111,-117.5 734,-117.5"/>
<polygon fill="#000000" stroke="#000000" points="402.037,-636.6408 411.6134,-641.9834 407.0185,-637.0704 412,-637.5 412,-637.5 412,-637.5 407.0185,-637.0704 412.3866,-633.0166 402.037,-636.6408 402.037,-636.6408"/>
<text text-anchor="start" x="6.5425" y="-647.5" font-family="Arial" font-size="10.00" fill="#000000">FOREIGN KEY (administrative_region_id) REFERENCES codes.administrative_region(id)</text>
</g>
<!-- arho.plan -->
<g id="node3" class="node">
<title>arho.plan</title>
<polygon fill="#efefef" stroke="transparent" points="398,-1442.5 398,-1477.5 706,-1477.5 706,-1442.5 398,-1442.5"/>
<polygon fill="none" stroke="#000000" points="398,-1442.5 398,-1477.5 706,-1477.5 706,-1442.5 398,-1442.5"/>
<text text-anchor="start" x="450.7031" y="-1455.3" font-family="Arial Bold" font-size="18.00" fill="#000000">arho.plan</text>
<text text-anchor="start" x="525.7289" y="-1455.3" font-family="Arial" font-size="14.00" fill="#000000">    </text>
<text text-anchor="start" x="559.9337" y="-1455.3" font-family="Arial" font-size="14.00" fill="#666666">[BASE TABLE]</text>
<polygon fill="none" stroke="#000000" points="398,-1412.5 398,-1442.5 706,-1442.5 706,-1412.5 398,-1412.5"/>
<text text-anchor="start" x="405" y="-1423.9" font-family="Arial" font-size="14.00" fill="#000000">organisation_id    </text>
<text text-anchor="start" x="534.1192" y="-1423.9" font-family="Arial" font-size="14.00" fill="#666666">[uuid]</text>
<polygon fill="none" stroke="#000000" points="398,-1382.5 398,-1412.5 706,-1412.5 706,-1382.5 398,-1382.5"/>
<text text-anchor="start" x="405" y="-1393.9" font-family="Arial" font-size="14.00" fill="#000000">plan_regulation_group_id    </text>
<text text-anchor="start" x="597.1472" y="-1393.9" font-family="Arial" font-size="14.00" fill="#666666">[uuid]</text>
<polygon fill="none" stroke="#000000" points="398,-1352.5 398,-1382.5 706,-1382.5 706,-1352.5 398,-1352.5"/>
<text text-anchor="start" x="405" y="-1363.9" font-family="Arial" font-size="14.00" fill="#000000">plan_type_id    </text>
<text text-anchor="start" x="518.5694" y="-1363.9" font-family="Arial" font-size="14.00" fill="#666666">[uuid]</text>
<polygon fill="none" stroke="#000000" points="398,-1322.5 398,-1352.5 706,-1352.5 706,-1322.5 398,-1322.5"/>
<text text-anchor="start" x="405" y="-1333.9" font-family="Arial" font-size="14.00" fill="#000000">permanent_plan_identifier    </text>
<text text-anchor="start" x="601.0238" y="-1333.9" font-family="Arial" font-size="14.00" fill="#666666">[varchar]</text>
<polygon fill="none" stroke="#000000" points="398,-1292.5 398,-1322.5 706,-1322.5 706,-1292.5 398,-1292.5"/>
<text text-anchor="start" x="405" y="-1303.9" font-family="Arial" font-size="14.00" fill="#000000">producers_plan_identifier    </text>
<text text-anchor="start" x="596.3506" y="-1303.9" font-family="Arial" font-size="14.00" fill="#666666">[varchar]</text>
<polygon fill="none" stroke="#000000" points="398,-1262.5 398,-1292.5 706,-1292.5 706,-1262.5 398,-1262.5"/>
<text text-anchor="start" x="405" y="-1273.9" font-family="Arial" font-size="14.00" fill="#000000">description    </text>
<text text-anchor="start" x="506.8822" y="-1273.9" font-family="Arial" font-size="14.00" fill="#666666">[jsonb]</text>
<polygon fill="none" stroke="#000000" points="398,-1232.5 398,-1262.5 706,-1262.5 706,-1232.5 398,-1232.5"/>
<text text-anchor="start" x="405" y="-1243.9" font-family="Arial" font-size="14.00" fill="#000000">scale    </text>
<text text-anchor="start" x="471.8766" y="-1243.9" font-family="Arial" font-size="14.00" fill="#666666">[integer]</text>
<polygon fill="none" stroke="#000000" points="398,-1202.5 398,-1232.5 706,-1232.5 706,-1202.5 398,-1202.5"/>
<text text-anchor="start" x="405" y="-1213.9" font-family="Arial" font-size="14.00" fill="#000000">matter_management_identifier    </text>
<text text-anchor="start" x="629.0196" y="-1213.9" font-family="Arial" font-size="14.00" fill="#666666">[varchar]</text>
<polygon fill="none" stroke="#000000" points="398,-1172.5 398,-1202.5 706,-1202.5 706,-1172.5 398,-1172.5"/>
<text text-anchor="start" x="405" y="-1183.9" font-family="Arial" font-size="14.00" fill="#000000">record_number    </text>
<text text-anchor="start" x="534.108" y="-1183.9" font-family="Arial" font-size="14.00" fill="#666666">[varchar]</text>
<polygon fill="none" stroke="#000000" points="398,-1142.5 398,-1172.5 706,-1172.5 706,-1142.5 398,-1142.5"/>
<text text-anchor="start" x="405" y="-1153.9" font-family="Arial" font-size="14.00" fill="#000000">geom    </text>
<text text-anchor="start" x="474.2132" y="-1153.9" font-family="Arial" font-size="14.00" fill="#666666">[geometry(MultiPolygon,3067)]</text>
<polygon fill="none" stroke="#000000" points="398,-1112.5 398,-1142.5 706,-1142.5 706,-1112.5 398,-1112.5"/>
<text text-anchor="start" x="404.5912" y="-1123.9" font-family="Arial" font-size="14.00" fill="#000000">validated_at    </text>
<text text-anchor="start" x="514.2686" y="-1123.9" font-family="Arial" font-size="14.00" fill="#666666">[timestamp without time zone]</text>
<polygon fill="none" stroke="#000000" points="398,-1082.5 398,-1112.5 706,-1112.5 706,-1082.5 398,-1082.5"/>
<text text-anchor="start" x="405" y="-1093.9" font-family="Arial" font-size="14.00" fill="#000000">validation_errors    </text>
<text text-anchor="start" x="542.6578" y="-1093.9" font-family="Arial" font-size="14.00" fill="#666666">[jsonb]</text>
<polygon fill="none" stroke="#000000" points="398,-1052.5 398,-1082.5 706,-1082.5 706,-1052.5 398,-1052.5"/>
<text text-anchor="start" x="405" y="-1063.9" font-family="Arial" font-size="14.00" fill="#000000">to_be_exported    </text>
<text text-anchor="start" x="536.4726" y="-1063.9" font-family="Arial" font-size="14.00" fill="#666666">[boolean]</text>
<polygon fill="none" stroke="#000000" points="398,-1022.5 398,-1052.5 706,-1052.5 706,-1022.5 398,-1022.5"/>
<text text-anchor="start" x="405" y="-1033.9" font-family="Arial" font-size="14.00" fill="#000000">name    </text>
<text text-anchor="start" x="474.2132" y="-1033.9" font-family="Arial" font-size="14.00" fill="#666666">[jsonb]</text>
<polygon fill="none" stroke="#000000" points="398,-992.5 398,-1022.5 706,-1022.5 706,-992.5 398,-992.5"/>
<text text-anchor="start" x="405" y="-1003.9" font-family="Arial" font-size="14.00" fill="#000000">exported_at    </text>
<text text-anchor="start" x="513.1248" y="-1003.9" font-family="Arial" font-size="14.00" fill="#666666">[timestamp without time zone]</text>
<polygon fill="none" stroke="#000000" points="398,-962.5 398,-992.5 706,-992.5 706,-962.5 398,-962.5"/>
<text text-anchor="start" x="405" y="-973.9" font-family="Arial" font-size="14.00" fill="#000000">lifecycle_status_id    </text>
<text text-anchor="start" x="552.7812" y="-973.9" font-family="Arial" font-size="14.00" fill="#666666">[uuid]</text>
<polygon fill="none" stroke="#000000" points="398,-932.5 398,-962.5 706,-962.5 706,-932.5 398,-932.5"/>
<text text-anchor="start" x="405" y="-943.9" font-family="Arial" font-size="14.00" fill="#000000">id    </text>
<text text-anchor="start" x="450.094" y="-943.9" font-family="Arial" font-size="14.00" fill="#666666">[uuid]</text>
<polygon fill="none" stroke="#000000" points="398,-902.5 398,-932.5 706,-932.5 706,-902.5 398,-902.5"/>
<text text-anchor="start" x="405" y="-913.9" font-family="Arial" font-size="14.00" fill="#000000">created_at    </text>
<text text-anchor="start" x="505.3422" y="-913.9" font-family="Arial" font-size="14.00" fill="#666666">[timestamp without time zone]</text>
<polygon fill="none" stroke="#000000" points="398,-872.5 398,-902.5 706,-902.5 706,-872.5 398,-872.5"/>
<text text-anchor="start" x="405" y="-883.9" font-family="Arial" font-size="14.00" fill="#000000">modified_at    </text>
<text text-anchor="start" x="511.5554" y="-883.9" font-family="Arial" font-size="14.00" fill="#666666">[timestamp without time zone]</text>
</g>
<!-- arho.plan&#45;&gt;arho.organisation -->
<g id="edge2" class="edge">
<title>arho.plan:organisation_id&#45;&gt;arho.organisation:id</title>
<path fill="none" stroke="#000000" d="M715.7118,-1424.1961C795.9791,-1367.7699 779.7428,-607.5 692,-607.5"/>
<polygon fill="#000000" stroke="#000000" points="715.4672,-1424.2793 704.5507,-1423.2398 710.7336,-1425.8896 706,-1427.5 706,-1427.5 706,-1427.5 710.7336,-1425.8896 707.4493,-1431.7602 715.4672,-1424.2793 715.4672,-1424.2793"/>
<text text-anchor="start" x="713.43" y="-1437.5" font-family="Arial" font-size="10.00" fill="#000000">FOREIGN KEY (organisation_id) REFERENCES arho.organisation(id)</text>
</g>
</g>
</svg>
