<?xml version="1.0" encoding="UTF-8" standalone="no"?>
<!DOCTYPE svg PUBLIC "-//W3C//DTD SVG 1.1//EN"
 "http://www.w3.org/Graphics/SVG/1.1/DTD/svg11.dtd">
<!-- Generated by graphviz version 2.40.1 (20161225.0304)
 -->
<!-- Title: arho.document Pages: 1 -->
<svg width="1316pt" height="1252pt"
 viewBox="0.00 0.00 1315.50 1252.00" xmlns="http://www.w3.org/2000/svg" xmlns:xlink="http://www.w3.org/1999/xlink">
<g id="graph0" class="graph" transform="scale(1 1) rotate(0) translate(4 1248)">
<title>arho.document</title>
<polygon fill="#ffffff" stroke="transparent" points="-4,4 -4,-1248 1311.5,-1248 1311.5,4 -4,4"/>
<!-- arho.document -->
<g id="node1" class="node">
<title>arho.document</title>
<polygon fill="#efefef" stroke="transparent" points="498,-1162.5 498,-1197.5 787,-1197.5 787,-1162.5 498,-1162.5"/>
<polygon fill="none" stroke="#000000" points="498,-1162.5 498,-1197.5 787,-1197.5 787,-1162.5 498,-1162.5"/>
<text text-anchor="start" x="518.6968" y="-1175.3" font-family="Arial Bold" font-size="18.00" fill="#000000">arho.document</text>
<text text-anchor="start" x="638.7352" y="-1175.3" font-family="Arial" font-size="14.00" fill="#000000">    </text>
<text text-anchor="start" x="672.94" y="-1175.3" font-family="Arial" font-size="14.00" fill="#666666">[BASE TABLE]</text>
<polygon fill="none" stroke="#000000" points="498,-1132.5 498,-1162.5 787,-1162.5 787,-1132.5 498,-1132.5"/>
<text text-anchor="start" x="505" y="-1143.9" font-family="Arial" font-size="14.00" fill="#000000">type_of_document_id </text>
<text text-anchor="start" x="642.7208" y="-1143.9" font-family="Arial" font-size="14.00" fill="#666666">[uuid]</text>
<polygon fill="none" stroke="#000000" points="498,-1102.5 498,-1132.5 787,-1132.5 787,-1102.5 498,-1102.5"/>
<text text-anchor="start" x="505" y="-1113.9" font-family="Arial" font-size="14.00" fill="#000000">plan_id </text>
<text text-anchor="start" x="554.0168" y="-1113.9" font-family="Arial" font-size="14.00" fill="#666666">[uuid]</text>
<polygon fill="none" stroke="#000000" points="498,-1072.5 498,-1102.5 787,-1102.5 787,-1072.5 498,-1072.5"/>
<text text-anchor="start" x="505" y="-1083.9" font-family="Arial" font-size="14.00" fill="#000000">category_of_publicity_id </text>
<text text-anchor="start" x="659.0406" y="-1083.9" font-family="Arial" font-size="14.00" fill="#666666">[uuid]</text>
<polygon fill="none" stroke="#000000" points="498,-1042.5 498,-1072.5 787,-1072.5 787,-1042.5 498,-1042.5"/>
<text text-anchor="start" x="505" y="-1053.9" font-family="Arial" font-size="14.00" fill="#000000">permanent_document_identifier </text>
<text text-anchor="start" x="705.7194" y="-1053.9" font-family="Arial" font-size="14.00" fill="#666666">[uuid]</text>
<polygon fill="none" stroke="#000000" points="498,-1012.5 498,-1042.5 787,-1042.5 787,-1012.5 498,-1012.5"/>
<text text-anchor="start" x="505" y="-1023.9" font-family="Arial" font-size="14.00" fill="#000000">name </text>
<text text-anchor="start" x="543.899" y="-1023.9" font-family="Arial" font-size="14.00" fill="#666666">[varchar]</text>
<polygon fill="none" stroke="#000000" points="498,-982.5 498,-1012.5 787,-1012.5 787,-982.5 498,-982.5"/>
<text text-anchor="start" x="505" y="-993.9" font-family="Arial" font-size="14.00" fill="#000000">personal_details </text>
<text text-anchor="start" x="610.805" y="-993.9" font-family="Arial" font-size="14.00" fill="#666666">[varchar]</text>
<polygon fill="none" stroke="#000000" points="498,-952.5 498,-982.5 787,-982.5 787,-952.5 498,-952.5"/>
<text text-anchor="start" x="505" y="-963.9" font-family="Arial" font-size="14.00" fill="#000000">language </text>
<text text-anchor="start" x="566.4754" y="-963.9" font-family="Arial" font-size="14.00" fill="#666666">[varchar]</text>
<polygon fill="none" stroke="#000000" points="498,-922.5 498,-952.5 787,-952.5 787,-922.5 498,-922.5"/>
<text text-anchor="start" x="505" y="-933.9" font-family="Arial" font-size="14.00" fill="#000000">decision </text>
<text text-anchor="start" x="560.2342" y="-933.9" font-family="Arial" font-size="14.00" fill="#666666">[boolean]</text>
<polygon fill="none" stroke="#000000" points="498,-892.5 498,-922.5 787,-922.5 787,-892.5 498,-892.5"/>
<text text-anchor="start" x="504.8023" y="-903.9" font-family="Arial" font-size="14.00" fill="#000000">decision_date </text>
<text text-anchor="start" x="595.0575" y="-903.9" font-family="Arial" font-size="14.00" fill="#666666">[timestamp without time zone]</text>
<polygon fill="none" stroke="#000000" points="498,-862.5 498,-892.5 787,-892.5 787,-862.5 498,-862.5"/>
<text text-anchor="start" x="505" y="-873.9" font-family="Arial" font-size="14.00" fill="#000000">url </text>
<text text-anchor="start" x="524.4404" y="-873.9" font-family="Arial" font-size="14.00" fill="#666666">[varchar]</text>
<polygon fill="none" stroke="#000000" points="498,-832.5 498,-862.5 787,-862.5 787,-832.5 498,-832.5"/>
<text text-anchor="start" x="505" y="-843.9" font-family="Arial" font-size="14.00" fill="#000000">id </text>
<text text-anchor="start" x="519.7798" y="-843.9" font-family="Arial" font-size="14.00" fill="#666666">[uuid]</text>
<polygon fill="none" stroke="#000000" points="498,-802.5 498,-832.5 787,-832.5 787,-802.5 498,-802.5"/>
<text text-anchor="start" x="505" y="-813.9" font-family="Arial" font-size="14.00" fill="#000000">created_at </text>
<text text-anchor="start" x="575.028" y="-813.9" font-family="Arial" font-size="14.00" fill="#666666">[timestamp without time zone]</text>
<polygon fill="none" stroke="#000000" points="498,-772.5 498,-802.5 787,-802.5 787,-772.5 498,-772.5"/>
<text text-anchor="start" x="505" y="-783.9" font-family="Arial" font-size="14.00" fill="#000000">modified_at </text>
<text text-anchor="start" x="581.2412" y="-783.9" font-family="Arial" font-size="14.00" fill="#666666">[timestamp without time zone]</text>
<polygon fill="none" stroke="#000000" stroke-width="3" points="496,-771.5 496,-1199.5 788,-1199.5 788,-771.5 496,-771.5"/>
</g>
<!-- codes.type_of_document -->
<g id="node2" class="node">
<title>codes.type_of_document</title>
<polygon fill="#efefef" stroke="transparent" points="43,-477.5 43,-512.5 385,-512.5 385,-477.5 43,-477.5"/>
<polygon fill="none" stroke="#000000" points="43,-477.5 43,-512.5 385,-512.5 385,-477.5 43,-477.5"/>
<text text-anchor="start" x="49.6752" y="-490.3" font-family="Arial Bold" font-size="18.00" fill="#000000">codes.type_of_document</text>
<text text-anchor="start" x="250.7568" y="-490.3" font-family="Arial" font-size="14.00" fill="#000000">    </text>
<text text-anchor="start" x="284.9616" y="-490.3" font-family="Arial" font-size="14.00" fill="#666666">[BASE TABLE]</text>
<polygon fill="none" stroke="#000000" points="43,-447.5 43,-477.5 385,-477.5 385,-447.5 43,-447.5"/>
<text text-anchor="start" x="50" y="-458.9" font-family="Arial" font-size="14.00" fill="#000000">value    </text>
<text text-anchor="start" x="117.6592" y="-458.9" font-family="Arial" font-size="14.00" fill="#666666">[varchar]</text>
<polygon fill="none" stroke="#000000" points="43,-417.5 43,-447.5 385,-447.5 385,-417.5 43,-417.5"/>
<text text-anchor="start" x="50" y="-428.9" font-family="Arial" font-size="14.00" fill="#000000">short_name    </text>
<text text-anchor="start" x="158.1122" y="-428.9" font-family="Arial" font-size="14.00" fill="#666666">[varchar]</text>
<polygon fill="none" stroke="#000000" points="43,-387.5 43,-417.5 385,-417.5 385,-387.5 43,-387.5"/>
<text text-anchor="start" x="50" y="-398.9" font-family="Arial" font-size="14.00" fill="#000000">name    </text>
<text text-anchor="start" x="119.2132" y="-398.9" font-family="Arial" font-size="14.00" fill="#666666">[jsonb]</text>
<polygon fill="none" stroke="#000000" points="43,-357.5 43,-387.5 385,-387.5 385,-357.5 43,-357.5"/>
<text text-anchor="start" x="50" y="-368.9" font-family="Arial" font-size="14.00" fill="#000000">description    </text>
<text text-anchor="start" x="151.8822" y="-368.9" font-family="Arial" font-size="14.00" fill="#666666">[jsonb]</text>
<polygon fill="none" stroke="#000000" points="43,-327.5 43,-357.5 385,-357.5 385,-327.5 43,-327.5"/>
<text text-anchor="start" x="50" y="-338.9" font-family="Arial" font-size="14.00" fill="#000000">status    </text>
<text text-anchor="start" x="121.5512" y="-338.9" font-family="Arial" font-size="14.00" fill="#666666">[varchar]</text>
<polygon fill="none" stroke="#000000" points="43,-297.5 43,-327.5 385,-327.5 385,-297.5 43,-297.5"/>
<text text-anchor="start" x="50" y="-308.9" font-family="Arial" font-size="14.00" fill="#000000">level    </text>
<text text-anchor="start" x="112.9832" y="-308.9" font-family="Arial" font-size="14.00" fill="#666666">[integer]</text>
<polygon fill="none" stroke="#000000" points="43,-267.5 43,-297.5 385,-297.5 385,-267.5 43,-267.5"/>
<text text-anchor="start" x="50" y="-278.9" font-family="Arial" font-size="14.00" fill="#000000">parent_id    </text>
<text text-anchor="start" x="142.5582" y="-278.9" font-family="Arial" font-size="14.00" fill="#666666">[uuid]</text>
<polygon fill="none" stroke="#000000" points="43,-237.5 43,-267.5 385,-267.5 385,-237.5 43,-237.5"/>
<text text-anchor="start" x="50" y="-248.9" font-family="Arial" font-size="14.00" fill="#000000">id    </text>
<text text-anchor="start" x="95.094" y="-248.9" font-family="Arial" font-size="14.00" fill="#666666">[uuid]</text>
<polygon fill="none" stroke="#000000" points="43,-207.5 43,-237.5 385,-237.5 385,-207.5 43,-207.5"/>
<text text-anchor="start" x="50" y="-218.9" font-family="Arial" font-size="14.00" fill="#000000">created_at    </text>
<text text-anchor="start" x="150.3422" y="-218.9" font-family="Arial" font-size="14.00" fill="#666666">[timestamp without time zone]</text>
<polygon fill="none" stroke="#000000" points="43,-177.5 43,-207.5 385,-207.5 385,-177.5 43,-177.5"/>
<text text-anchor="start" x="50" y="-188.9" font-family="Arial" font-size="14.00" fill="#000000">modified_at    </text>
<text text-anchor="start" x="156.5554" y="-188.9" font-family="Arial" font-size="14.00" fill="#666666">[timestamp without time zone]</text>
</g>
<!-- arho.document&#45;&gt;codes.type_of_document -->
<g id="edge1" class="edge">
<title>arho.document:type_of_document_id&#45;&gt;codes.type_of_document:id</title>
<path fill="none" stroke="#000000" d="M487.8304,-1147.2795C299.0375,-1138.853 462.171,-890.6133 437,-691 430.8618,-642.3219 434.0636,-252.5 385,-252.5"/>
<polygon fill="#000000" stroke="#000000" points="488.0024,-1147.2831 497.9024,-1151.9989 493.0012,-1147.3916 498,-1147.5 498,-1147.5 498,-1147.5 493.0012,-1147.3916 498.0976,-1143.0011 488.0024,-1147.2831 488.0024,-1147.2831"/>
<text text-anchor="start" x="118.2975" y="-1157.5" font-family="Arial" font-size="10.00" fill="#000000">FOREIGN KEY (type_of_document_id) REFERENCES codes.type_of_document(id)</text>
</g>
<!-- arho.plan -->
<g id="node3" class="node">
<title>arho.plan</title>
<polygon fill="#efefef" stroke="transparent" points="489,-612.5 489,-647.5 797,-647.5 797,-612.5 489,-612.5"/>
<polygon fill="none" stroke="#000000" points="489,-612.5 489,-647.5 797,-647.5 797,-612.5 489,-612.5"/>
<text text-anchor="start" x="541.7031" y="-625.3" font-family="Arial Bold" font-size="18.00" fill="#000000">arho.plan</text>
<text text-anchor="start" x="616.7289" y="-625.3" font-family="Arial" font-size="14.00" fill="#000000">    </text>
<text text-anchor="start" x="650.9337" y="-625.3" font-family="Arial" font-size="14.00" fill="#666666">[BASE TABLE]</text>
<polygon fill="none" stroke="#000000" points="489,-582.5 489,-612.5 797,-612.5 797,-582.5 489,-582.5"/>
<text text-anchor="start" x="496" y="-593.9" font-family="Arial" font-size="14.00" fill="#000000">organisation_id    </text>
<text text-anchor="start" x="625.1192" y="-593.9" font-family="Arial" font-size="14.00" fill="#666666">[uuid]</text>
<polygon fill="none" stroke="#000000" points="489,-552.5 489,-582.5 797,-582.5 797,-552.5 489,-552.5"/>
<text text-anchor="start" x="496" y="-563.9" font-family="Arial" font-size="14.00" fill="#000000">plan_regulation_group_id    </text>
<text text-anchor="start" x="688.1472" y="-563.9" font-family="Arial" font-size="14.00" fill="#666666">[uuid]</text>
<polygon fill="none" stroke="#000000" points="489,-522.5 489,-552.5 797,-552.5 797,-522.5 489,-522.5"/>
<text text-anchor="start" x="496" y="-533.9" font-family="Arial" font-size="14.00" fill="#000000">plan_type_id    </text>
<text text-anchor="start" x="609.5694" y="-533.9" font-family="Arial" font-size="14.00" fill="#666666">[uuid]</text>
<polygon fill="none" stroke="#000000" points="489,-492.5 489,-522.5 797,-522.5 797,-492.5 489,-492.5"/>
<text text-anchor="start" x="496" y="-503.9" font-family="Arial" font-size="14.00" fill="#000000">permanent_plan_identifier    </text>
<text text-anchor="start" x="692.0238" y="-503.9" font-family="Arial" font-size="14.00" fill="#666666">[varchar]</text>
<polygon fill="none" stroke="#000000" points="489,-462.5 489,-492.5 797,-492.5 797,-462.5 489,-462.5"/>
<text text-anchor="start" x="496" y="-473.9" font-family="Arial" font-size="14.00" fill="#000000">producers_plan_identifier    </text>
<text text-anchor="start" x="687.3506" y="-473.9" font-family="Arial" font-size="14.00" fill="#666666">[varchar]</text>
<polygon fill="none" stroke="#000000" points="489,-432.5 489,-462.5 797,-462.5 797,-432.5 489,-432.5"/>
<text text-anchor="start" x="496" y="-443.9" font-family="Arial" font-size="14.00" fill="#000000">description    </text>
<text text-anchor="start" x="597.8822" y="-443.9" font-family="Arial" font-size="14.00" fill="#666666">[jsonb]</text>
<polygon fill="none" stroke="#000000" points="489,-402.5 489,-432.5 797,-432.5 797,-402.5 489,-402.5"/>
<text text-anchor="start" x="496" y="-413.9" font-family="Arial" font-size="14.00" fill="#000000">scale    </text>
<text text-anchor="start" x="562.8766" y="-413.9" font-family="Arial" font-size="14.00" fill="#666666">[integer]</text>
<polygon fill="none" stroke="#000000" points="489,-372.5 489,-402.5 797,-402.5 797,-372.5 489,-372.5"/>
<text text-anchor="start" x="496" y="-383.9" font-family="Arial" font-size="14.00" fill="#000000">matter_management_identifier    </text>
<text text-anchor="start" x="720.0196" y="-383.9" font-family="Arial" font-size="14.00" fill="#666666">[varchar]</text>
<polygon fill="none" stroke="#000000" points="489,-342.5 489,-372.5 797,-372.5 797,-342.5 489,-342.5"/>
<text text-anchor="start" x="496" y="-353.9" font-family="Arial" font-size="14.00" fill="#000000">record_number    </text>
<text text-anchor="start" x="625.108" y="-353.9" font-family="Arial" font-size="14.00" fill="#666666">[varchar]</text>
<polygon fill="none" stroke="#000000" points="489,-312.5 489,-342.5 797,-342.5 797,-312.5 489,-312.5"/>
<text text-anchor="start" x="496" y="-323.9" font-family="Arial" font-size="14.00" fill="#000000">geom    </text>
<text text-anchor="start" x="565.2132" y="-323.9" font-family="Arial" font-size="14.00" fill="#666666">[geometry(MultiPolygon,3067)]</text>
<polygon fill="none" stroke="#000000" points="489,-282.5 489,-312.5 797,-312.5 797,-282.5 489,-282.5"/>
<text text-anchor="start" x="495.5912" y="-293.9" font-family="Arial" font-size="14.00" fill="#000000">validated_at    </text>
<text text-anchor="start" x="605.2686" y="-293.9" font-family="Arial" font-size="14.00" fill="#666666">[timestamp without time zone]</text>
<polygon fill="none" stroke="#000000" points="489,-252.5 489,-282.5 797,-282.5 797,-252.5 489,-252.5"/>
<text text-anchor="start" x="496" y="-263.9" font-family="Arial" font-size="14.00" fill="#000000">validation_errors    </text>
<text text-anchor="start" x="633.6578" y="-263.9" font-family="Arial" font-size="14.00" fill="#666666">[jsonb]</text>
<polygon fill="none" stroke="#000000" points="489,-222.5 489,-252.5 797,-252.5 797,-222.5 489,-222.5"/>
<text text-anchor="start" x="496" y="-233.9" font-family="Arial" font-size="14.00" fill="#000000">to_be_exported    </text>
<text text-anchor="start" x="627.4726" y="-233.9" font-family="Arial" font-size="14.00" fill="#666666">[boolean]</text>
<polygon fill="none" stroke="#000000" points="489,-192.5 489,-222.5 797,-222.5 797,-192.5 489,-192.5"/>
<text text-anchor="start" x="496" y="-203.9" font-family="Arial" font-size="14.00" fill="#000000">name    </text>
<text text-anchor="start" x="565.2132" y="-203.9" font-family="Arial" font-size="14.00" fill="#666666">[jsonb]</text>
<polygon fill="none" stroke="#000000" points="489,-162.5 489,-192.5 797,-192.5 797,-162.5 489,-162.5"/>
<text text-anchor="start" x="496" y="-173.9" font-family="Arial" font-size="14.00" fill="#000000">exported_at    </text>
<text text-anchor="start" x="604.1248" y="-173.9" font-family="Arial" font-size="14.00" fill="#666666">[timestamp without time zone]</text>
<polygon fill="none" stroke="#000000" points="489,-132.5 489,-162.5 797,-162.5 797,-132.5 489,-132.5"/>
<text text-anchor="start" x="496" y="-143.9" font-family="Arial" font-size="14.00" fill="#000000">lifecycle_status_id    </text>
<text text-anchor="start" x="643.7812" y="-143.9" font-family="Arial" font-size="14.00" fill="#666666">[uuid]</text>
<polygon fill="none" stroke="#000000" points="489,-102.5 489,-132.5 797,-132.5 797,-102.5 489,-102.5"/>
<text text-anchor="start" x="496" y="-113.9" font-family="Arial" font-size="14.00" fill="#000000">id    </text>
<text text-anchor="start" x="541.094" y="-113.9" font-family="Arial" font-size="14.00" fill="#666666">[uuid]</text>
<polygon fill="none" stroke="#000000" points="489,-72.5 489,-102.5 797,-102.5 797,-72.5 489,-72.5"/>
<text text-anchor="start" x="496" y="-83.9" font-family="Arial" font-size="14.00" fill="#000000">created_at    </text>
<text text-anchor="start" x="596.3422" y="-83.9" font-family="Arial" font-size="14.00" fill="#666666">[timestamp without time zone]</text>
<polygon fill="none" stroke="#000000" points="489,-42.5 489,-72.5 797,-72.5 797,-42.5 489,-42.5"/>
<text text-anchor="start" x="496" y="-53.9" font-family="Arial" font-size="14.00" fill="#000000">modified_at    </text>
<text text-anchor="start" x="602.5554" y="-53.9" font-family="Arial" font-size="14.00" fill="#666666">[timestamp without time zone]</text>
</g>
<!-- arho.document&#45;&gt;arho.plan -->
<g id="edge2" class="edge">
<title>arho.document:plan_id&#45;&gt;arho.plan:id</title>
<path fill="none" stroke="#000000" d="M797.3866,-1117.1745C958.1353,-1106.8652 899.7671,-854.2098 787,-727 698.5042,-627.17 577.4958,-790.83 489,-691 446.7299,-643.3161 425.2778,-117.5 489,-117.5"/>
<polygon fill="#000000" stroke="#000000" points="796.9951,-1117.1867 786.859,-1113.0022 791.9975,-1117.3434 787,-1117.5 787,-1117.5 787,-1117.5 791.9975,-1117.3434 787.141,-1121.9978 796.9951,-1117.1867 796.9951,-1117.1867"/>
<text text-anchor="start" x="793.993" y="-1127.5" font-family="Arial" font-size="10.00" fill="#000000">FOREIGN KEY (plan_id) REFERENCES arho.plan(id)</text>
</g>
<!-- codes.category_of_publicity -->
<g id="node4" class="node">
<title>codes.category_of_publicity</title>
<polygon fill="#efefef" stroke="transparent" points="902,-477.5 902,-512.5 1265,-512.5 1265,-477.5 902,-477.5"/>
<polygon fill="none" stroke="#000000" points="902,-477.5 902,-512.5 1265,-512.5 1265,-477.5 902,-477.5"/>
<text text-anchor="start" x="908.6839" y="-490.3" font-family="Arial Bold" font-size="18.00" fill="#000000">codes.category_of_publicity</text>
<text text-anchor="start" x="1130.7481" y="-490.3" font-family="Arial" font-size="14.00" fill="#000000">    </text>
<text text-anchor="start" x="1164.9529" y="-490.3" font-family="Arial" font-size="14.00" fill="#666666">[BASE TABLE]</text>
<polygon fill="none" stroke="#000000" points="902,-447.5 902,-477.5 1265,-477.5 1265,-447.5 902,-447.5"/>
<text text-anchor="start" x="909" y="-458.9" font-family="Arial" font-size="14.00" fill="#000000">value    </text>
<text text-anchor="start" x="976.6592" y="-458.9" font-family="Arial" font-size="14.00" fill="#666666">[varchar]</text>
<polygon fill="none" stroke="#000000" points="902,-417.5 902,-447.5 1265,-447.5 1265,-417.5 902,-417.5"/>
<text text-anchor="start" x="909" y="-428.9" font-family="Arial" font-size="14.00" fill="#000000">short_name    </text>
<text text-anchor="start" x="1017.1122" y="-428.9" font-family="Arial" font-size="14.00" fill="#666666">[varchar]</text>
<polygon fill="none" stroke="#000000" points="902,-387.5 902,-417.5 1265,-417.5 1265,-387.5 902,-387.5"/>
<text text-anchor="start" x="909" y="-398.9" font-family="Arial" font-size="14.00" fill="#000000">name    </text>
<text text-anchor="start" x="978.2132" y="-398.9" font-family="Arial" font-size="14.00" fill="#666666">[jsonb]</text>
<polygon fill="none" stroke="#000000" points="902,-357.5 902,-387.5 1265,-387.5 1265,-357.5 902,-357.5"/>
<text text-anchor="start" x="909" y="-368.9" font-family="Arial" font-size="14.00" fill="#000000">description    </text>
<text text-anchor="start" x="1010.8822" y="-368.9" font-family="Arial" font-size="14.00" fill="#666666">[jsonb]</text>
<polygon fill="none" stroke="#000000" points="902,-327.5 902,-357.5 1265,-357.5 1265,-327.5 902,-327.5"/>
<text text-anchor="start" x="909" y="-338.9" font-family="Arial" font-size="14.00" fill="#000000">status    </text>
<text text-anchor="start" x="980.5512" y="-338.9" font-family="Arial" font-size="14.00" fill="#666666">[varchar]</text>
<polygon fill="none" stroke="#000000" points="902,-297.5 902,-327.5 1265,-327.5 1265,-297.5 902,-297.5"/>
<text text-anchor="start" x="909" y="-308.9" font-family="Arial" font-size="14.00" fill="#000000">level    </text>
<text text-anchor="start" x="971.9832" y="-308.9" font-family="Arial" font-size="14.00" fill="#666666">[integer]</text>
<polygon fill="none" stroke="#000000" points="902,-267.5 902,-297.5 1265,-297.5 1265,-267.5 902,-267.5"/>
<text text-anchor="start" x="909" y="-278.9" font-family="Arial" font-size="14.00" fill="#000000">parent_id    </text>
<text text-anchor="start" x="1001.5582" y="-278.9" font-family="Arial" font-size="14.00" fill="#666666">[uuid]</text>
<polygon fill="none" stroke="#000000" points="902,-237.5 902,-267.5 1265,-267.5 1265,-237.5 902,-237.5"/>
<text text-anchor="start" x="909" y="-248.9" font-family="Arial" font-size="14.00" fill="#000000">id    </text>
<text text-anchor="start" x="954.094" y="-248.9" font-family="Arial" font-size="14.00" fill="#666666">[uuid]</text>
<polygon fill="none" stroke="#000000" points="902,-207.5 902,-237.5 1265,-237.5 1265,-207.5 902,-207.5"/>
<text text-anchor="start" x="909" y="-218.9" font-family="Arial" font-size="14.00" fill="#000000">created_at    </text>
<text text-anchor="start" x="1009.3422" y="-218.9" font-family="Arial" font-size="14.00" fill="#666666">[timestamp without time zone]</text>
<polygon fill="none" stroke="#000000" points="902,-177.5 902,-207.5 1265,-207.5 1265,-177.5 902,-177.5"/>
<text text-anchor="start" x="909" y="-188.9" font-family="Arial" font-size="14.00" fill="#000000">modified_at    </text>
<text text-anchor="start" x="1015.5554" y="-188.9" font-family="Arial" font-size="14.00" fill="#666666">[timestamp without time zone]</text>
</g>
<!-- arho.document&#45;&gt;codes.category_of_publicity -->
<g id="edge3" class="edge">
<title>arho.document:category_of_publicity_id&#45;&gt;codes.category_of_publicity:id</title>
<path fill="none" stroke="#000000" d="M797.0893,-1087.2504C959.9249,-1078.9296 824.9955,-864.2247 849,-691 855.7364,-642.3877 852.9232,-252.5 902,-252.5"/>
<polygon fill="#000000" stroke="#000000" points="796.9969,-1087.2526 786.8887,-1083.0014 791.9985,-1087.3763 787,-1087.5 787,-1087.5 787,-1087.5 791.9985,-1087.3763 787.1113,-1091.9986 796.9969,-1087.2526 796.9969,-1087.2526"/>
<text text-anchor="start" x="793.6405" y="-1097.5" font-family="Arial" font-size="10.00" fill="#000000">FOREIGN KEY (category_of_publicity_id) REFERENCES codes.category_of_publicity(id)</text>
</g>
</g>
</svg>
