<?xml version="1.0" encoding="UTF-8" standalone="no"?>
<!DOCTYPE svg PUBLIC "-//W3C//DTD SVG 1.1//EN"
 "http://www.w3.org/Graphics/SVG/1.1/DTD/svg11.dtd">
<!-- Generated by graphviz version 2.40.1 (20161225.0304)
 -->
<!-- Title: codes.type_of_document Pages: 1 -->
<svg width="886pt" height="982pt"
 viewBox="0.00 0.00 886.18 982.00" xmlns="http://www.w3.org/2000/svg" xmlns:xlink="http://www.w3.org/1999/xlink">
<g id="graph0" class="graph" transform="scale(1 1) rotate(0) translate(4 978)">
<title>codes.type_of_document</title>
<polygon fill="#ffffff" stroke="transparent" points="-4,4 -4,-978 882.1826,-978 882.1826,4 -4,4"/>
<!-- codes.type_of_document -->
<g id="node1" class="node">
<title>codes.type_of_document</title>
<polygon fill="#efefef" stroke="transparent" points="161.1826,-345.5 161.1826,-380.5 503.1826,-380.5 503.1826,-345.5 161.1826,-345.5"/>
<polygon fill="none" stroke="#000000" points="161.1826,-345.5 161.1826,-380.5 503.1826,-380.5 503.1826,-345.5 161.1826,-345.5"/>
<text text-anchor="start" x="167.8578" y="-358.3" font-family="Arial Bold" font-size="18.00" fill="#000000">codes.type_of_document</text>
<text text-anchor="start" x="368.9394" y="-358.3" font-family="Arial" font-size="14.00" fill="#000000">    </text>
<text text-anchor="start" x="403.1442" y="-358.3" font-family="Arial" font-size="14.00" fill="#666666">[BASE TABLE]</text>
<polygon fill="none" stroke="#000000" points="161.1826,-315.5 161.1826,-345.5 503.1826,-345.5 503.1826,-315.5 161.1826,-315.5"/>
<text text-anchor="start" x="168.1826" y="-326.9" font-family="Arial" font-size="14.00" fill="#000000">value </text>
<text text-anchor="start" x="205.5276" y="-326.9" font-family="Arial" font-size="14.00" fill="#666666">[varchar]</text>
<polygon fill="none" stroke="#000000" points="161.1826,-285.5 161.1826,-315.5 503.1826,-315.5 503.1826,-285.5 161.1826,-285.5"/>
<text text-anchor="start" x="168.1826" y="-296.9" font-family="Arial" font-size="14.00" fill="#000000">short_name </text>
<text text-anchor="start" x="245.9806" y="-296.9" font-family="Arial" font-size="14.00" fill="#666666">[varchar]</text>
<polygon fill="none" stroke="#000000" points="161.1826,-255.5 161.1826,-285.5 503.1826,-285.5 503.1826,-255.5 161.1826,-255.5"/>
<text text-anchor="start" x="168.1826" y="-266.9" font-family="Arial" font-size="14.00" fill="#000000">name </text>
<text text-anchor="start" x="207.0816" y="-266.9" font-family="Arial" font-size="14.00" fill="#666666">[jsonb]</text>
<polygon fill="none" stroke="#000000" points="161.1826,-225.5 161.1826,-255.5 503.1826,-255.5 503.1826,-225.5 161.1826,-225.5"/>
<text text-anchor="start" x="168.1826" y="-236.9" font-family="Arial" font-size="14.00" fill="#000000">description </text>
<text text-anchor="start" x="239.7506" y="-236.9" font-family="Arial" font-size="14.00" fill="#666666">[jsonb]</text>
<polygon fill="none" stroke="#000000" points="161.1826,-195.5 161.1826,-225.5 503.1826,-225.5 503.1826,-195.5 161.1826,-195.5"/>
<text text-anchor="start" x="168.1826" y="-206.9" font-family="Arial" font-size="14.00" fill="#000000">status </text>
<text text-anchor="start" x="209.4196" y="-206.9" font-family="Arial" font-size="14.00" fill="#666666">[varchar]</text>
<polygon fill="none" stroke="#000000" points="161.1826,-165.5 161.1826,-195.5 503.1826,-195.5 503.1826,-165.5 161.1826,-165.5"/>
<text text-anchor="start" x="168.1826" y="-176.9" font-family="Arial" font-size="14.00" fill="#000000">level </text>
<text text-anchor="start" x="200.8516" y="-176.9" font-family="Arial" font-size="14.00" fill="#666666">[integer]</text>
<polygon fill="none" stroke="#000000" points="161.1826,-135.5 161.1826,-165.5 503.1826,-165.5 503.1826,-135.5 161.1826,-135.5"/>
<text text-anchor="start" x="168.1826" y="-146.9" font-family="Arial" font-size="14.00" fill="#000000">parent_id </text>
<text text-anchor="start" x="230.4266" y="-146.9" font-family="Arial" font-size="14.00" fill="#666666">[uuid]</text>
<polygon fill="none" stroke="#000000" points="161.1826,-105.5 161.1826,-135.5 503.1826,-135.5 503.1826,-105.5 161.1826,-105.5"/>
<text text-anchor="start" x="168.1826" y="-116.9" font-family="Arial" font-size="14.00" fill="#000000">id </text>
<text text-anchor="start" x="182.9624" y="-116.9" font-family="Arial" font-size="14.00" fill="#666666">[uuid]</text>
<polygon fill="none" stroke="#000000" points="161.1826,-75.5 161.1826,-105.5 503.1826,-105.5 503.1826,-75.5 161.1826,-75.5"/>
<text text-anchor="start" x="168.1826" y="-86.9" font-family="Arial" font-size="14.00" fill="#000000">created_at </text>
<text text-anchor="start" x="238.2106" y="-86.9" font-family="Arial" font-size="14.00" fill="#666666">[timestamp without time zone]</text>
<polygon fill="none" stroke="#000000" points="161.1826,-45.5 161.1826,-75.5 503.1826,-75.5 503.1826,-45.5 161.1826,-45.5"/>
<text text-anchor="start" x="168.1826" y="-56.9" font-family="Arial" font-size="14.00" fill="#000000">modified_at </text>
<text text-anchor="start" x="244.4238" y="-56.9" font-family="Arial" font-size="14.00" fill="#666666">[timestamp without time zone]</text>
<polygon fill="none" stroke="#000000" stroke-width="3" points="159.6826,-44.5 159.6826,-382.5 504.6826,-382.5 504.6826,-44.5 159.6826,-44.5"/>
</g>
<!-- codes.type_of_document&#45;&gt;codes.type_of_document -->
<g id="edge1" class="edge">
<title>codes.type_of_document:parent_id&#45;&gt;codes.type_of_document:id</title>
<path fill="none" stroke="#000000" d="M333.4922,-175.9261C341.1591,-342.8585 340.7226,-679 332.1826,-679 323.4639,-679 323.1914,-300.4811 331.3652,-135.754"/>
<polygon fill="#000000" stroke="#000000" points="333.4794,-175.6565 337.4948,-165.4523 333.2397,-170.6622 333,-165.668 333,-165.668 333,-165.668 333.2397,-170.6622 328.5052,-165.8837 333.4794,-175.6565 333.4794,-175.6565"/>
<text text-anchor="start" x="7.2535" y="-175.668" font-family="Arial" font-size="10.00" fill="#000000">FOREIGN KEY (parent_id) REFERENCES codes.type_of_document(id)</text>
</g>
<!-- arho.document -->
<g id="node2" class="node">
<title>arho.document</title>
<polygon fill="#efefef" stroke="transparent" points="172.1826,-895.5 172.1826,-930.5 491.1826,-930.5 491.1826,-895.5 172.1826,-895.5"/>
<polygon fill="none" stroke="#000000" points="172.1826,-895.5 172.1826,-930.5 491.1826,-930.5 491.1826,-895.5 172.1826,-895.5"/>
<text text-anchor="start" x="207.8794" y="-908.3" font-family="Arial Bold" font-size="18.00" fill="#000000">arho.document</text>
<text text-anchor="start" x="327.9178" y="-908.3" font-family="Arial" font-size="14.00" fill="#000000">    </text>
<text text-anchor="start" x="362.1226" y="-908.3" font-family="Arial" font-size="14.00" fill="#666666">[BASE TABLE]</text>
<polygon fill="none" stroke="#000000" points="172.1826,-865.5 172.1826,-895.5 491.1826,-895.5 491.1826,-865.5 172.1826,-865.5"/>
<text text-anchor="start" x="179.1826" y="-876.9" font-family="Arial" font-size="14.00" fill="#000000">type_of_document_id    </text>
<text text-anchor="start" x="347.2176" y="-876.9" font-family="Arial" font-size="14.00" fill="#666666">[uuid]</text>
<polygon fill="none" stroke="#000000" points="172.1826,-835.5 172.1826,-865.5 491.1826,-865.5 491.1826,-835.5 172.1826,-835.5"/>
<text text-anchor="start" x="179.1826" y="-846.9" font-family="Arial" font-size="14.00" fill="#000000">plan_id    </text>
<text text-anchor="start" x="258.5136" y="-846.9" font-family="Arial" font-size="14.00" fill="#666666">[uuid]</text>
<polygon fill="none" stroke="#000000" points="172.1826,-805.5 172.1826,-835.5 491.1826,-835.5 491.1826,-805.5 172.1826,-805.5"/>
<text text-anchor="start" x="179.1826" y="-816.9" font-family="Arial" font-size="14.00" fill="#000000">category_of_publicity_id    </text>
<text text-anchor="start" x="363.5374" y="-816.9" font-family="Arial" font-size="14.00" fill="#666666">[uuid]</text>
<polygon fill="none" stroke="#000000" points="172.1826,-775.5 172.1826,-805.5 491.1826,-805.5 491.1826,-775.5 172.1826,-775.5"/>
<text text-anchor="start" x="179.1826" y="-786.9" font-family="Arial" font-size="14.00" fill="#000000">permanent_document_identifier    </text>
<text text-anchor="start" x="410.2162" y="-786.9" font-family="Arial" font-size="14.00" fill="#666666">[uuid]</text>
<polygon fill="none" stroke="#000000" points="172.1826,-745.5 172.1826,-775.5 491.1826,-775.5 491.1826,-745.5 172.1826,-745.5"/>
<text text-anchor="start" x="179.1826" y="-756.9" font-family="Arial" font-size="14.00" fill="#000000">name    </text>
<text text-anchor="start" x="248.3958" y="-756.9" font-family="Arial" font-size="14.00" fill="#666666">[varchar]</text>
<polygon fill="none" stroke="#000000" points="172.1826,-715.5 172.1826,-745.5 491.1826,-745.5 491.1826,-715.5 172.1826,-715.5"/>
<text text-anchor="start" x="179.1826" y="-726.9" font-family="Arial" font-size="14.00" fill="#000000">personal_details    </text>
<text text-anchor="start" x="315.3018" y="-726.9" font-family="Arial" font-size="14.00" fill="#666666">[varchar]</text>
<polygon fill="none" stroke="#000000" points="172.1826,-685.5 172.1826,-715.5 491.1826,-715.5 491.1826,-685.5 172.1826,-685.5"/>
<text text-anchor="start" x="179.1826" y="-696.9" font-family="Arial" font-size="14.00" fill="#000000">language    </text>
<text text-anchor="start" x="270.9722" y="-696.9" font-family="Arial" font-size="14.00" fill="#666666">[varchar]</text>
<polygon fill="none" stroke="#000000" points="172.1826,-655.5 172.1826,-685.5 491.1826,-685.5 491.1826,-655.5 172.1826,-655.5"/>
<text text-anchor="start" x="179.1826" y="-666.9" font-family="Arial" font-size="14.00" fill="#000000">decision    </text>
<text text-anchor="start" x="264.731" y="-666.9" font-family="Arial" font-size="14.00" fill="#666666">[boolean]</text>
<polygon fill="none" stroke="#000000" points="172.1826,-625.5 172.1826,-655.5 491.1826,-655.5 491.1826,-625.5 172.1826,-625.5"/>
<text text-anchor="start" x="178.8278" y="-636.9" font-family="Arial" font-size="14.00" fill="#000000">decision_date    </text>
<text text-anchor="start" x="299.3972" y="-636.9" font-family="Arial" font-size="14.00" fill="#666666">[timestamp without time zone]</text>
<polygon fill="none" stroke="#000000" points="172.1826,-595.5 172.1826,-625.5 491.1826,-625.5 491.1826,-595.5 172.1826,-595.5"/>
<text text-anchor="start" x="179.1826" y="-606.9" font-family="Arial" font-size="14.00" fill="#000000">url    </text>
<text text-anchor="start" x="228.9372" y="-606.9" font-family="Arial" font-size="14.00" fill="#666666">[varchar]</text>
<polygon fill="none" stroke="#000000" points="172.1826,-565.5 172.1826,-595.5 491.1826,-595.5 491.1826,-565.5 172.1826,-565.5"/>
<text text-anchor="start" x="179.1826" y="-576.9" font-family="Arial" font-size="14.00" fill="#000000">id    </text>
<text text-anchor="start" x="224.2766" y="-576.9" font-family="Arial" font-size="14.00" fill="#666666">[uuid]</text>
<polygon fill="none" stroke="#000000" points="172.1826,-535.5 172.1826,-565.5 491.1826,-565.5 491.1826,-535.5 172.1826,-535.5"/>
<text text-anchor="start" x="179.1826" y="-546.9" font-family="Arial" font-size="14.00" fill="#000000">created_at    </text>
<text text-anchor="start" x="279.5248" y="-546.9" font-family="Arial" font-size="14.00" fill="#666666">[timestamp without time zone]</text>
<polygon fill="none" stroke="#000000" points="172.1826,-505.5 172.1826,-535.5 491.1826,-535.5 491.1826,-505.5 172.1826,-505.5"/>
<text text-anchor="start" x="179.1826" y="-516.9" font-family="Arial" font-size="14.00" fill="#000000">modified_at    </text>
<text text-anchor="start" x="285.738" y="-516.9" font-family="Arial" font-size="14.00" fill="#666666">[timestamp without time zone]</text>
</g>
<!-- arho.document&#45;&gt;codes.type_of_document -->
<g id="edge2" class="edge">
<title>arho.document:type_of_document_id&#45;&gt;codes.type_of_document:id</title>
<path fill="none" stroke="#000000" d="M501.4947,-878.9424C581.5041,-853.7051 550.7074,-529.3715 491.1826,-463 441.9301,-408.0822 210.4352,-481.9178 161.1826,-427 115.7072,-376.2939 93.0715,-120.5 161.1826,-120.5"/>
<polygon fill="#000000" stroke="#000000" points="501.0705,-879.0064 490.5105,-876.0505 496.1265,-879.7532 491.1826,-880.5 491.1826,-880.5 491.1826,-880.5 496.1265,-879.7532 491.8547,-884.9495 501.0705,-879.0064 501.0705,-879.0064"/>
<text text-anchor="start" x="498.4801" y="-890.5" font-family="Arial" font-size="10.00" fill="#000000">FOREIGN KEY (type_of_document_id) REFERENCES codes.type_of_document(id)</text>
</g>
</g>
</svg>
