<?xml version="1.0" encoding="UTF-8" standalone="no"?>
<!DOCTYPE svg PUBLIC "-//W3C//DTD SVG 1.1//EN"
 "http://www.w3.org/Graphics/SVG/1.1/DTD/svg11.dtd">
<!-- Generated by graphviz version 2.40.1 (20161225.0304)
 -->
<!-- Title: codes.type_of_plan_regulation_group Pages: 1 -->
<svg width="1074pt" height="772pt"
 viewBox="0.00 0.00 1074.08 772.00" xmlns="http://www.w3.org/2000/svg" xmlns:xlink="http://www.w3.org/1999/xlink">
<g id="graph0" class="graph" transform="scale(1 1) rotate(0) translate(4 768)">
<title>codes.type_of_plan_regulation_group</title>
<polygon fill="#ffffff" stroke="transparent" points="-4,4 -4,-768 1070.0842,-768 1070.0842,4 -4,4"/>
<!-- codes.type_of_plan_regulation_group -->
<g id="node1" class="node">
<title>codes.type_of_plan_regulation_group</title>
<polygon fill="#efefef" stroke="transparent" points="167.0842,-345.5 167.0842,-380.5 609.0842,-380.5 609.0842,-345.5 167.0842,-345.5"/>
<polygon fill="none" stroke="#000000" points="167.0842,-345.5 167.0842,-380.5 609.0842,-380.5 609.0842,-345.5 167.0842,-345.5"/>
<text text-anchor="start" x="173.741" y="-358.3" font-family="Arial Bold" font-size="18.00" fill="#000000">codes.type_of_plan_regulation_group</text>
<text text-anchor="start" x="474.8594" y="-358.3" font-family="Arial" font-size="14.00" fill="#000000">    </text>
<text text-anchor="start" x="509.0642" y="-358.3" font-family="Arial" font-size="14.00" fill="#666666">[BASE TABLE]</text>
<polygon fill="none" stroke="#000000" points="167.0842,-315.5 167.0842,-345.5 609.0842,-345.5 609.0842,-315.5 167.0842,-315.5"/>
<text text-anchor="start" x="174.0842" y="-326.9" font-family="Arial" font-size="14.00" fill="#000000">value </text>
<text text-anchor="start" x="211.4292" y="-326.9" font-family="Arial" font-size="14.00" fill="#666666">[varchar]</text>
<polygon fill="none" stroke="#000000" points="167.0842,-285.5 167.0842,-315.5 609.0842,-315.5 609.0842,-285.5 167.0842,-285.5"/>
<text text-anchor="start" x="174.0842" y="-296.9" font-family="Arial" font-size="14.00" fill="#000000">short_name </text>
<text text-anchor="start" x="251.8822" y="-296.9" font-family="Arial" font-size="14.00" fill="#666666">[varchar]</text>
<polygon fill="none" stroke="#000000" points="167.0842,-255.5 167.0842,-285.5 609.0842,-285.5 609.0842,-255.5 167.0842,-255.5"/>
<text text-anchor="start" x="174.0842" y="-266.9" font-family="Arial" font-size="14.00" fill="#000000">name </text>
<text text-anchor="start" x="212.9832" y="-266.9" font-family="Arial" font-size="14.00" fill="#666666">[jsonb]</text>
<polygon fill="none" stroke="#000000" points="167.0842,-225.5 167.0842,-255.5 609.0842,-255.5 609.0842,-225.5 167.0842,-225.5"/>
<text text-anchor="start" x="174.0842" y="-236.9" font-family="Arial" font-size="14.00" fill="#000000">description </text>
<text text-anchor="start" x="245.6522" y="-236.9" font-family="Arial" font-size="14.00" fill="#666666">[jsonb]</text>
<polygon fill="none" stroke="#000000" points="167.0842,-195.5 167.0842,-225.5 609.0842,-225.5 609.0842,-195.5 167.0842,-195.5"/>
<text text-anchor="start" x="174.0842" y="-206.9" font-family="Arial" font-size="14.00" fill="#000000">status </text>
<text text-anchor="start" x="215.3212" y="-206.9" font-family="Arial" font-size="14.00" fill="#666666">[varchar]</text>
<polygon fill="none" stroke="#000000" points="167.0842,-165.5 167.0842,-195.5 609.0842,-195.5 609.0842,-165.5 167.0842,-165.5"/>
<text text-anchor="start" x="174.0842" y="-176.9" font-family="Arial" font-size="14.00" fill="#000000">level </text>
<text text-anchor="start" x="206.7532" y="-176.9" font-family="Arial" font-size="14.00" fill="#666666">[integer]</text>
<polygon fill="none" stroke="#000000" points="167.0842,-135.5 167.0842,-165.5 609.0842,-165.5 609.0842,-135.5 167.0842,-135.5"/>
<text text-anchor="start" x="174.0842" y="-146.9" font-family="Arial" font-size="14.00" fill="#000000">parent_id </text>
<text text-anchor="start" x="236.3282" y="-146.9" font-family="Arial" font-size="14.00" fill="#666666">[uuid]</text>
<polygon fill="none" stroke="#000000" points="167.0842,-105.5 167.0842,-135.5 609.0842,-135.5 609.0842,-105.5 167.0842,-105.5"/>
<text text-anchor="start" x="174.0842" y="-116.9" font-family="Arial" font-size="14.00" fill="#000000">id </text>
<text text-anchor="start" x="188.864" y="-116.9" font-family="Arial" font-size="14.00" fill="#666666">[uuid]</text>
<polygon fill="none" stroke="#000000" points="167.0842,-75.5 167.0842,-105.5 609.0842,-105.5 609.0842,-75.5 167.0842,-75.5"/>
<text text-anchor="start" x="174.0842" y="-86.9" font-family="Arial" font-size="14.00" fill="#000000">created_at </text>
<text text-anchor="start" x="244.1122" y="-86.9" font-family="Arial" font-size="14.00" fill="#666666">[timestamp without time zone]</text>
<polygon fill="none" stroke="#000000" points="167.0842,-45.5 167.0842,-75.5 609.0842,-75.5 609.0842,-45.5 167.0842,-45.5"/>
<text text-anchor="start" x="174.0842" y="-56.9" font-family="Arial" font-size="14.00" fill="#000000">modified_at </text>
<text text-anchor="start" x="250.3254" y="-56.9" font-family="Arial" font-size="14.00" fill="#666666">[timestamp without time zone]</text>
<polygon fill="none" stroke="#000000" stroke-width="3" points="165.5842,-44.5 165.5842,-382.5 610.5842,-382.5 610.5842,-44.5 165.5842,-44.5"/>
</g>
<!-- codes.type_of_plan_regulation_group&#45;&gt;codes.type_of_plan_regulation_group -->
<g id="edge1" class="edge">
<title>codes.type_of_plan_regulation_group:parent_id&#45;&gt;codes.type_of_plan_regulation_group:id</title>
<path fill="none" stroke="#000000" d="M389.5313,-175.8449C397.0551,-325.7308 396.5727,-627 388.0842,-627 379.4006,-627 379.0953,-283.7996 387.1683,-135.867"/>
<polygon fill="#000000" stroke="#000000" points="389.5261,-175.7445 393.4938,-165.5216 389.2631,-170.7514 389,-165.7583 389,-165.7583 389,-165.7583 389.2631,-170.7514 384.5062,-165.9951 389.5261,-175.7445 389.5261,-175.7445"/>
<text text-anchor="start" x="7.4655" y="-175.7583" font-family="Arial" font-size="10.00" fill="#000000">FOREIGN KEY (parent_id) REFERENCES codes.type_of_plan_regulation_group(id)</text>
</g>
<!-- arho.plan_regulation_group -->
<g id="node2" class="node">
<title>arho.plan_regulation_group</title>
<polygon fill="#efefef" stroke="transparent" points="207.0842,-685.5 207.0842,-720.5 568.0842,-720.5 568.0842,-685.5 207.0842,-685.5"/>
<polygon fill="none" stroke="#000000" points="207.0842,-685.5 207.0842,-720.5 568.0842,-720.5 568.0842,-685.5 207.0842,-685.5"/>
<text text-anchor="start" x="213.7626" y="-698.3" font-family="Arial Bold" font-size="18.00" fill="#000000">arho.plan_regulation_group</text>
<text text-anchor="start" x="433.8378" y="-698.3" font-family="Arial" font-size="14.00" fill="#000000">    </text>
<text text-anchor="start" x="468.0426" y="-698.3" font-family="Arial" font-size="14.00" fill="#666666">[BASE TABLE]</text>
<polygon fill="none" stroke="#000000" points="207.0842,-655.5 207.0842,-685.5 568.0842,-685.5 568.0842,-655.5 207.0842,-655.5"/>
<text text-anchor="start" x="214.0842" y="-666.9" font-family="Arial" font-size="14.00" fill="#000000">short_name    </text>
<text text-anchor="start" x="322.1964" y="-666.9" font-family="Arial" font-size="14.00" fill="#666666">[varchar]</text>
<polygon fill="none" stroke="#000000" points="207.0842,-625.5 207.0842,-655.5 568.0842,-655.5 568.0842,-625.5 207.0842,-625.5"/>
<text text-anchor="start" x="214.0842" y="-636.9" font-family="Arial" font-size="14.00" fill="#000000">name    </text>
<text text-anchor="start" x="283.2974" y="-636.9" font-family="Arial" font-size="14.00" fill="#666666">[jsonb]</text>
<polygon fill="none" stroke="#000000" points="207.0842,-595.5 207.0842,-625.5 568.0842,-625.5 568.0842,-595.5 207.0842,-595.5"/>
<text text-anchor="start" x="214.0842" y="-606.9" font-family="Arial" font-size="14.00" fill="#000000">type_of_plan_regulation_group_id    </text>
<text text-anchor="start" x="459.9256" y="-606.9" font-family="Arial" font-size="14.00" fill="#666666">[uuid]</text>
<polygon fill="none" stroke="#000000" points="207.0842,-565.5 207.0842,-595.5 568.0842,-595.5 568.0842,-565.5 207.0842,-565.5"/>
<text text-anchor="start" x="214.0842" y="-576.9" font-family="Arial" font-size="14.00" fill="#000000">id    </text>
<text text-anchor="start" x="259.1782" y="-576.9" font-family="Arial" font-size="14.00" fill="#666666">[uuid]</text>
<polygon fill="none" stroke="#000000" points="207.0842,-535.5 207.0842,-565.5 568.0842,-565.5 568.0842,-535.5 207.0842,-535.5"/>
<text text-anchor="start" x="214.0842" y="-546.9" font-family="Arial" font-size="14.00" fill="#000000">created_at    </text>
<text text-anchor="start" x="314.4264" y="-546.9" font-family="Arial" font-size="14.00" fill="#666666">[timestamp without time zone]</text>
<polygon fill="none" stroke="#000000" points="207.0842,-505.5 207.0842,-535.5 568.0842,-535.5 568.0842,-505.5 207.0842,-505.5"/>
<text text-anchor="start" x="214.0842" y="-516.9" font-family="Arial" font-size="14.00" fill="#000000">modified_at    </text>
<text text-anchor="start" x="320.6396" y="-516.9" font-family="Arial" font-size="14.00" fill="#666666">[timestamp without time zone]</text>
</g>
<!-- arho.plan_regulation_group&#45;&gt;codes.type_of_plan_regulation_group -->
<g id="edge2" class="edge">
<title>arho.plan_regulation_group:type_of_plan_regulation_group_id&#45;&gt;codes.type_of_plan_regulation_group:id</title>
<path fill="none" stroke="#000000" d="M578.0703,-609.6352C631.2391,-599.8108 609.8989,-508.7369 568.0842,-463 507.7143,-396.9676 227.454,-493.0324 167.0842,-427 121.126,-376.731 98.973,-120.5 167.0842,-120.5"/>
<polygon fill="#000000" stroke="#000000" points="578.0469,-609.6372 567.6959,-606.0168 573.0655,-610.0686 568.0842,-610.5 568.0842,-610.5 568.0842,-610.5 573.0655,-610.0686 568.4724,-614.9832 578.0469,-609.6372 578.0469,-609.6372"/>
<text text-anchor="start" x="574.8057" y="-620.5" font-family="Arial" font-size="10.00" fill="#000000">FOREIGN KEY (type_of_plan_regulation_group_id) REFERENCES codes.type_of_plan_regulation_group(id)</text>
</g>
</g>
</svg>
