<?xml version="1.0" encoding="UTF-8" standalone="no"?>
<!DOCTYPE svg PUBLIC "-//W3C//DTD SVG 1.1//EN"
 "http://www.w3.org/Graphics/SVG/1.1/DTD/svg11.dtd">
<!-- Generated by graphviz version 2.40.1 (20161225.0304)
 -->
<!-- Title: codes.administrative_region Pages: 1 -->
<svg width="920pt" height="802pt"
 viewBox="0.00 0.00 919.87 802.00" xmlns="http://www.w3.org/2000/svg" xmlns:xlink="http://www.w3.org/1999/xlink">
<g id="graph0" class="graph" transform="scale(1 1) rotate(0) translate(4 798)">
<title>codes.administrative_region</title>
<polygon fill="#ffffff" stroke="transparent" points="-4,4 -4,-798 915.8667,-798 915.8667,4 -4,4"/>
<!-- codes.administrative_region -->
<g id="node1" class="node">
<title>codes.administrative_region</title>
<polygon fill="#efefef" stroke="transparent" points="382,-375.5 382,-410.5 747,-410.5 747,-375.5 382,-375.5"/>
<polygon fill="none" stroke="#000000" points="382,-375.5 382,-410.5 747,-410.5 747,-375.5 382,-375.5"/>
<text text-anchor="start" x="388.6957" y="-388.3" font-family="Arial Bold" font-size="18.00" fill="#000000">codes.administrative_region</text>
<text text-anchor="start" x="612.7363" y="-388.3" font-family="Arial" font-size="14.00" fill="#000000">    </text>
<text text-anchor="start" x="646.9411" y="-388.3" font-family="Arial" font-size="14.00" fill="#666666">[BASE TABLE]</text>
<polygon fill="none" stroke="#000000" points="382,-345.5 382,-375.5 747,-375.5 747,-345.5 382,-345.5"/>
<text text-anchor="start" x="389" y="-356.9" font-family="Arial" font-size="14.00" fill="#000000">geom </text>
<text text-anchor="start" x="427.899" y="-356.9" font-family="Arial" font-size="14.00" fill="#666666">[geometry(MultiPolygon,3067)]</text>
<polygon fill="none" stroke="#000000" points="382,-315.5 382,-345.5 747,-345.5 747,-315.5 382,-315.5"/>
<text text-anchor="start" x="389" y="-326.9" font-family="Arial" font-size="14.00" fill="#000000">value </text>
<text text-anchor="start" x="426.345" y="-326.9" font-family="Arial" font-size="14.00" fill="#666666">[varchar]</text>
<polygon fill="none" stroke="#000000" points="382,-285.5 382,-315.5 747,-315.5 747,-285.5 382,-285.5"/>
<text text-anchor="start" x="389" y="-296.9" font-family="Arial" font-size="14.00" fill="#000000">short_name </text>
<text text-anchor="start" x="466.798" y="-296.9" font-family="Arial" font-size="14.00" fill="#666666">[varchar]</text>
<polygon fill="none" stroke="#000000" points="382,-255.5 382,-285.5 747,-285.5 747,-255.5 382,-255.5"/>
<text text-anchor="start" x="389" y="-266.9" font-family="Arial" font-size="14.00" fill="#000000">name </text>
<text text-anchor="start" x="427.899" y="-266.9" font-family="Arial" font-size="14.00" fill="#666666">[jsonb]</text>
<polygon fill="none" stroke="#000000" points="382,-225.5 382,-255.5 747,-255.5 747,-225.5 382,-225.5"/>
<text text-anchor="start" x="389" y="-236.9" font-family="Arial" font-size="14.00" fill="#000000">description </text>
<text text-anchor="start" x="460.568" y="-236.9" font-family="Arial" font-size="14.00" fill="#666666">[jsonb]</text>
<polygon fill="none" stroke="#000000" points="382,-195.5 382,-225.5 747,-225.5 747,-195.5 382,-195.5"/>
<text text-anchor="start" x="389" y="-206.9" font-family="Arial" font-size="14.00" fill="#000000">status </text>
<text text-anchor="start" x="430.237" y="-206.9" font-family="Arial" font-size="14.00" fill="#666666">[varchar]</text>
<polygon fill="none" stroke="#000000" points="382,-165.5 382,-195.5 747,-195.5 747,-165.5 382,-165.5"/>
<text text-anchor="start" x="389" y="-176.9" font-family="Arial" font-size="14.00" fill="#000000">level </text>
<text text-anchor="start" x="421.669" y="-176.9" font-family="Arial" font-size="14.00" fill="#666666">[integer]</text>
<polygon fill="none" stroke="#000000" points="382,-135.5 382,-165.5 747,-165.5 747,-135.5 382,-135.5"/>
<text text-anchor="start" x="389" y="-146.9" font-family="Arial" font-size="14.00" fill="#000000">parent_id </text>
<text text-anchor="start" x="451.244" y="-146.9" font-family="Arial" font-size="14.00" fill="#666666">[uuid]</text>
<polygon fill="none" stroke="#000000" points="382,-105.5 382,-135.5 747,-135.5 747,-105.5 382,-105.5"/>
<text text-anchor="start" x="389" y="-116.9" font-family="Arial" font-size="14.00" fill="#000000">id </text>
<text text-anchor="start" x="403.7798" y="-116.9" font-family="Arial" font-size="14.00" fill="#666666">[uuid]</text>
<polygon fill="none" stroke="#000000" points="382,-75.5 382,-105.5 747,-105.5 747,-75.5 382,-75.5"/>
<text text-anchor="start" x="389" y="-86.9" font-family="Arial" font-size="14.00" fill="#000000">created_at </text>
<text text-anchor="start" x="459.028" y="-86.9" font-family="Arial" font-size="14.00" fill="#666666">[timestamp without time zone]</text>
<polygon fill="none" stroke="#000000" points="382,-45.5 382,-75.5 747,-75.5 747,-45.5 382,-45.5"/>
<text text-anchor="start" x="389" y="-56.9" font-family="Arial" font-size="14.00" fill="#000000">modified_at </text>
<text text-anchor="start" x="465.2412" y="-56.9" font-family="Arial" font-size="14.00" fill="#666666">[timestamp without time zone]</text>
<polygon fill="none" stroke="#000000" stroke-width="3" points="380,-44.5 380,-412.5 748,-412.5 748,-44.5 380,-44.5"/>
</g>
<!-- codes.administrative_region&#45;&gt;codes.administrative_region -->
<g id="edge1" class="edge">
<title>codes.administrative_region:parent_id&#45;&gt;codes.administrative_region:id</title>
<path fill="none" stroke="#000000" d="M566.3786,-175.8631C573.9738,-334.3546 573.5142,-664 565,-664 556.2988,-664 556.0099,-291.6793 564.1333,-135.7734"/>
<polygon fill="#000000" stroke="#000000" points="566.3687,-175.6638 570.361,-165.4505 566.1177,-170.6701 565.8667,-165.6764 565.8667,-165.6764 565.8667,-165.6764 566.1177,-170.6701 561.3724,-165.9023 566.3687,-175.6638 566.3687,-175.6638"/>
<text text-anchor="start" x="572.7427" y="-175.6764" font-family="Arial" font-size="10.00" fill="#000000">FOREIGN KEY (parent_id) REFERENCES codes.administrative_region(id)</text>
</g>
<!-- arho.organisation -->
<g id="node2" class="node">
<title>arho.organisation</title>
<polygon fill="#efefef" stroke="transparent" points="412,-715.5 412,-750.5 717,-750.5 717,-715.5 412,-715.5"/>
<polygon fill="none" stroke="#000000" points="412,-715.5 412,-750.5 717,-750.5 717,-715.5 412,-715.5"/>
<text text-anchor="start" x="431.1964" y="-728.3" font-family="Arial Bold" font-size="18.00" fill="#000000">arho.organisation</text>
<text text-anchor="start" x="570.2356" y="-728.3" font-family="Arial" font-size="14.00" fill="#000000">    </text>
<text text-anchor="start" x="604.4404" y="-728.3" font-family="Arial" font-size="14.00" fill="#666666">[BASE TABLE]</text>
<polygon fill="none" stroke="#000000" points="412,-685.5 412,-715.5 717,-715.5 717,-685.5 412,-685.5"/>
<text text-anchor="start" x="419" y="-696.9" font-family="Arial" font-size="14.00" fill="#000000">name    </text>
<text text-anchor="start" x="488.2132" y="-696.9" font-family="Arial" font-size="14.00" fill="#666666">[jsonb]</text>
<polygon fill="none" stroke="#000000" points="412,-655.5 412,-685.5 717,-685.5 717,-655.5 412,-655.5"/>
<text text-anchor="start" x="419" y="-666.9" font-family="Arial" font-size="14.00" fill="#000000">business_id    </text>
<text text-anchor="start" x="527.1136" y="-666.9" font-family="Arial" font-size="14.00" fill="#666666">[varchar]</text>
<polygon fill="none" stroke="#000000" points="412,-625.5 412,-655.5 717,-655.5 717,-625.5 412,-625.5"/>
<text text-anchor="start" x="419" y="-636.9" font-family="Arial" font-size="14.00" fill="#000000">administrative_region_id    </text>
<text text-anchor="start" x="604.892" y="-636.9" font-family="Arial" font-size="14.00" fill="#666666">[uuid]</text>
<polygon fill="none" stroke="#000000" points="412,-595.5 412,-625.5 717,-625.5 717,-595.5 412,-595.5"/>
<text text-anchor="start" x="419" y="-606.9" font-family="Arial" font-size="14.00" fill="#000000">id    </text>
<text text-anchor="start" x="464.094" y="-606.9" font-family="Arial" font-size="14.00" fill="#666666">[uuid]</text>
<polygon fill="none" stroke="#000000" points="412,-565.5 412,-595.5 717,-595.5 717,-565.5 412,-565.5"/>
<text text-anchor="start" x="419" y="-576.9" font-family="Arial" font-size="14.00" fill="#000000">created_at    </text>
<text text-anchor="start" x="519.3422" y="-576.9" font-family="Arial" font-size="14.00" fill="#666666">[timestamp without time zone]</text>
<polygon fill="none" stroke="#000000" points="412,-535.5 412,-565.5 717,-565.5 717,-535.5 412,-535.5"/>
<text text-anchor="start" x="418.6522" y="-546.9" font-family="Arial" font-size="14.00" fill="#000000">modified_at    </text>
<text text-anchor="start" x="525.2076" y="-546.9" font-family="Arial" font-size="14.00" fill="#666666">[timestamp without time zone]</text>
</g>
<!-- arho.organisation&#45;&gt;codes.administrative_region -->
<g id="edge2" class="edge">
<title>arho.organisation:administrative_region_id&#45;&gt;codes.administrative_region:id</title>
<path fill="none" stroke="#000000" d="M402.765,-636.0046C351.1077,-585.1802 327.2911,-120.5 382,-120.5"/>
<polygon fill="#000000" stroke="#000000" points="403.0087,-636.1232 410.0304,-644.5461 407.5043,-638.3116 412,-640.5 412,-640.5 412,-640.5 407.5043,-638.3116 413.9696,-636.4539 403.0087,-636.1232 403.0087,-636.1232"/>
<text text-anchor="start" x="6.5425" y="-650.5" font-family="Arial" font-size="10.00" fill="#000000">FOREIGN KEY (administrative_region_id) REFERENCES codes.administrative_region(id)</text>
</g>
</g>
</svg>
