<?xml version="1.0" encoding="UTF-8" standalone="no"?>
<!DOCTYPE svg PUBLIC "-//W3C//DTD SVG 1.1//EN"
 "http://www.w3.org/Graphics/SVG/1.1/DTD/svg11.dtd">
<!-- Generated by graphviz version 2.40.1 (20161225.0304)
 -->
<!-- Title: codes.type_of_additional_information Pages: 1 -->
<svg width="1097pt" height="1282pt"
 viewBox="0.00 0.00 1096.71 1282.00" xmlns="http://www.w3.org/2000/svg" xmlns:xlink="http://www.w3.org/1999/xlink">
<g id="graph0" class="graph" transform="scale(1 1) rotate(0) translate(4 1278)">
<title>codes.type_of_additional_information</title>
<polygon fill="#ffffff" stroke="transparent" points="-4,4 -4,-1278 1092.7056,-1278 1092.7056,4 -4,4"/>
<!-- codes.type_of_additional_information -->
<g id="node1" class="node">
<title>codes.type_of_additional_information</title>
<polygon fill="#efefef" stroke="transparent" points="481,-345.5 481,-380.5 920,-380.5 920,-345.5 481,-345.5"/>
<polygon fill="none" stroke="#000000" points="481,-345.5 481,-380.5 920,-380.5 920,-345.5 481,-345.5"/>
<text text-anchor="start" x="487.6697" y="-358.3" font-family="Arial Bold" font-size="18.00" fill="#000000">codes.type_of_additional_information</text>
<text text-anchor="start" x="785.7623" y="-358.3" font-family="Arial" font-size="14.00" fill="#000000">    </text>
<text text-anchor="start" x="819.9671" y="-358.3" font-family="Arial" font-size="14.00" fill="#666666">[BASE TABLE]</text>
<polygon fill="none" stroke="#000000" points="481,-315.5 481,-345.5 920,-345.5 920,-315.5 481,-315.5"/>
<text text-anchor="start" x="488" y="-326.9" font-family="Arial" font-size="14.00" fill="#000000">value </text>
<text text-anchor="start" x="525.345" y="-326.9" font-family="Arial" font-size="14.00" fill="#666666">[varchar]</text>
<polygon fill="none" stroke="#000000" points="481,-285.5 481,-315.5 920,-315.5 920,-285.5 481,-285.5"/>
<text text-anchor="start" x="488" y="-296.9" font-family="Arial" font-size="14.00" fill="#000000">short_name </text>
<text text-anchor="start" x="565.798" y="-296.9" font-family="Arial" font-size="14.00" fill="#666666">[varchar]</text>
<polygon fill="none" stroke="#000000" points="481,-255.5 481,-285.5 920,-285.5 920,-255.5 481,-255.5"/>
<text text-anchor="start" x="488" y="-266.9" font-family="Arial" font-size="14.00" fill="#000000">name </text>
<text text-anchor="start" x="526.899" y="-266.9" font-family="Arial" font-size="14.00" fill="#666666">[jsonb]</text>
<polygon fill="none" stroke="#000000" points="481,-225.5 481,-255.5 920,-255.5 920,-225.5 481,-225.5"/>
<text text-anchor="start" x="488" y="-236.9" font-family="Arial" font-size="14.00" fill="#000000">description </text>
<text text-anchor="start" x="559.568" y="-236.9" font-family="Arial" font-size="14.00" fill="#666666">[jsonb]</text>
<polygon fill="none" stroke="#000000" points="481,-195.5 481,-225.5 920,-225.5 920,-195.5 481,-195.5"/>
<text text-anchor="start" x="488" y="-206.9" font-family="Arial" font-size="14.00" fill="#000000">status </text>
<text text-anchor="start" x="529.237" y="-206.9" font-family="Arial" font-size="14.00" fill="#666666">[varchar]</text>
<polygon fill="none" stroke="#000000" points="481,-165.5 481,-195.5 920,-195.5 920,-165.5 481,-165.5"/>
<text text-anchor="start" x="488" y="-176.9" font-family="Arial" font-size="14.00" fill="#000000">level </text>
<text text-anchor="start" x="520.669" y="-176.9" font-family="Arial" font-size="14.00" fill="#666666">[integer]</text>
<polygon fill="none" stroke="#000000" points="481,-135.5 481,-165.5 920,-165.5 920,-135.5 481,-135.5"/>
<text text-anchor="start" x="488" y="-146.9" font-family="Arial" font-size="14.00" fill="#000000">parent_id </text>
<text text-anchor="start" x="550.244" y="-146.9" font-family="Arial" font-size="14.00" fill="#666666">[uuid]</text>
<polygon fill="none" stroke="#000000" points="481,-105.5 481,-135.5 920,-135.5 920,-105.5 481,-105.5"/>
<text text-anchor="start" x="488" y="-116.9" font-family="Arial" font-size="14.00" fill="#000000">id </text>
<text text-anchor="start" x="502.7798" y="-116.9" font-family="Arial" font-size="14.00" fill="#666666">[uuid]</text>
<polygon fill="none" stroke="#000000" points="481,-75.5 481,-105.5 920,-105.5 920,-75.5 481,-75.5"/>
<text text-anchor="start" x="488" y="-86.9" font-family="Arial" font-size="14.00" fill="#000000">created_at </text>
<text text-anchor="start" x="558.028" y="-86.9" font-family="Arial" font-size="14.00" fill="#666666">[timestamp without time zone]</text>
<polygon fill="none" stroke="#000000" points="481,-45.5 481,-75.5 920,-75.5 920,-45.5 481,-45.5"/>
<text text-anchor="start" x="488" y="-56.9" font-family="Arial" font-size="14.00" fill="#000000">modified_at </text>
<text text-anchor="start" x="564.2412" y="-56.9" font-family="Arial" font-size="14.00" fill="#666666">[timestamp without time zone]</text>
<polygon fill="none" stroke="#000000" stroke-width="3" points="479,-44.5 479,-382.5 921,-382.5 921,-44.5 479,-44.5"/>
</g>
<!-- codes.type_of_additional_information&#45;&gt;codes.type_of_additional_information -->
<g id="edge1" class="edge">
<title>codes.type_of_additional_information:parent_id&#45;&gt;codes.type_of_additional_information:id</title>
<path fill="none" stroke="#000000" d="M702.1348,-175.6144C709.9826,-367.0693 709.6043,-754 701,-754 692.2417,-754 692.0065,-324.6887 700.2944,-135.5923"/>
<polygon fill="#000000" stroke="#000000" points="702.1308,-175.5196 706.2016,-165.3373 701.9182,-170.5241 701.7056,-165.5286 701.7056,-165.5286 701.7056,-165.5286 701.9182,-170.5241 697.2097,-165.7199 702.1308,-175.5196 702.1308,-175.5196"/>
<text text-anchor="start" x="709.0116" y="-175.5286" font-family="Arial" font-size="10.00" fill="#000000">FOREIGN KEY (parent_id) REFERENCES codes.type_of_additional_information(id)</text>
</g>
<!-- arho.plan_regulation -->
<g id="node2" class="node">
<title>arho.plan_regulation</title>
<polygon fill="#efefef" stroke="transparent" points="530,-1195.5 530,-1230.5 871,-1230.5 871,-1195.5 530,-1195.5"/>
<polygon fill="none" stroke="#000000" points="530,-1195.5 530,-1230.5 871,-1230.5 871,-1195.5 530,-1195.5"/>
<text text-anchor="start" x="554.69" y="-1208.3" font-family="Arial Bold" font-size="18.00" fill="#000000">arho.plan_regulation</text>
<text text-anchor="start" x="718.742" y="-1208.3" font-family="Arial" font-size="14.00" fill="#000000">    </text>
<text text-anchor="start" x="752.9468" y="-1208.3" font-family="Arial" font-size="14.00" fill="#666666">[BASE TABLE]</text>
<polygon fill="none" stroke="#000000" points="530,-1165.5 530,-1195.5 871,-1195.5 871,-1165.5 530,-1165.5"/>
<text text-anchor="start" x="537" y="-1176.9" font-family="Arial" font-size="14.00" fill="#000000">plan_regulation_group_id    </text>
<text text-anchor="start" x="729.1472" y="-1176.9" font-family="Arial" font-size="14.00" fill="#666666">[uuid]</text>
<polygon fill="none" stroke="#000000" points="530,-1135.5 530,-1165.5 871,-1165.5 871,-1135.5 530,-1135.5"/>
<text text-anchor="start" x="537" y="-1146.9" font-family="Arial" font-size="14.00" fill="#000000">type_of_plan_regulation_id    </text>
<text text-anchor="start" x="739.2678" y="-1146.9" font-family="Arial" font-size="14.00" fill="#666666">[uuid]</text>
<polygon fill="none" stroke="#000000" points="530,-1105.5 530,-1135.5 871,-1135.5 871,-1105.5 530,-1105.5"/>
<text text-anchor="start" x="537" y="-1116.9" font-family="Arial" font-size="14.00" fill="#000000">type_of_verbal_plan_regulation_id    </text>
<text text-anchor="start" x="785.1654" y="-1116.9" font-family="Arial" font-size="14.00" fill="#666666">[uuid]</text>
<polygon fill="none" stroke="#000000" points="530,-1075.5 530,-1105.5 871,-1105.5 871,-1075.5 530,-1075.5"/>
<text text-anchor="start" x="537" y="-1086.9" font-family="Arial" font-size="14.00" fill="#000000">plan_theme_id    </text>
<text text-anchor="start" x="663.0126" y="-1086.9" font-family="Arial" font-size="14.00" fill="#666666">[uuid]</text>
<polygon fill="none" stroke="#000000" points="530,-1045.5 530,-1075.5 871,-1075.5 871,-1045.5 530,-1045.5"/>
<text text-anchor="start" x="537" y="-1056.9" font-family="Arial" font-size="14.00" fill="#000000">intended_use_id    </text>
<text text-anchor="start" x="673.9172" y="-1056.9" font-family="Arial" font-size="14.00" fill="#666666">[uuid]</text>
<polygon fill="none" stroke="#000000" points="530,-1015.5 530,-1045.5 871,-1045.5 871,-1015.5 530,-1015.5"/>
<text text-anchor="start" x="537" y="-1026.9" font-family="Arial" font-size="14.00" fill="#000000">existence_id    </text>
<text text-anchor="start" x="649.0042" y="-1026.9" font-family="Arial" font-size="14.00" fill="#666666">[uuid]</text>
<polygon fill="none" stroke="#000000" points="530,-985.5 530,-1015.5 871,-1015.5 871,-985.5 530,-985.5"/>
<text text-anchor="start" x="536.7448" y="-996.9" font-family="Arial" font-size="14.00" fill="#000000">regulation_type_additional_information_id    </text>
<text text-anchor="start" x="830.0196" y="-996.9" font-family="Arial" font-size="14.00" fill="#666666">[uuid]</text>
<polygon fill="none" stroke="#000000" points="530,-955.5 530,-985.5 871,-985.5 871,-955.5 530,-955.5"/>
<text text-anchor="start" x="537" y="-966.9" font-family="Arial" font-size="14.00" fill="#000000">significance_id    </text>
<text text-anchor="start" x="663" y="-966.9" font-family="Arial" font-size="14.00" fill="#666666">[uuid]</text>
<polygon fill="none" stroke="#000000" points="530,-925.5 530,-955.5 871,-955.5 871,-925.5 530,-925.5"/>
<text text-anchor="start" x="537" y="-936.9" font-family="Arial" font-size="14.00" fill="#000000">reservation_id    </text>
<text text-anchor="start" x="659.108" y="-936.9" font-family="Arial" font-size="14.00" fill="#666666">[uuid]</text>
<polygon fill="none" stroke="#000000" points="530,-895.5 530,-925.5 871,-925.5 871,-895.5 530,-895.5"/>
<text text-anchor="start" x="537" y="-906.9" font-family="Arial" font-size="14.00" fill="#000000">development_id    </text>
<text text-anchor="start" x="670.0126" y="-906.9" font-family="Arial" font-size="14.00" fill="#666666">[uuid]</text>
<polygon fill="none" stroke="#000000" points="530,-865.5 530,-895.5 871,-895.5 871,-865.5 530,-865.5"/>
<text text-anchor="start" x="537" y="-876.9" font-family="Arial" font-size="14.00" fill="#000000">disturbance_prevention_id    </text>
<text text-anchor="start" x="735.366" y="-876.9" font-family="Arial" font-size="14.00" fill="#666666">[uuid]</text>
<polygon fill="none" stroke="#000000" points="530,-835.5 530,-865.5 871,-865.5 871,-835.5 530,-835.5"/>
<text text-anchor="start" x="537" y="-846.9" font-family="Arial" font-size="14.00" fill="#000000">construction_control_id    </text>
<text text-anchor="start" x="715.1262" y="-846.9" font-family="Arial" font-size="14.00" fill="#666666">[uuid]</text>
<polygon fill="none" stroke="#000000" points="530,-805.5 530,-835.5 871,-835.5 871,-805.5 530,-805.5"/>
<text text-anchor="start" x="537" y="-816.9" font-family="Arial" font-size="14.00" fill="#000000">numeric_range    </text>
<text text-anchor="start" x="664.554" y="-816.9" font-family="Arial" font-size="14.00" fill="#666666">[numrange]</text>
<polygon fill="none" stroke="#000000" points="530,-775.5 530,-805.5 871,-805.5 871,-775.5 530,-775.5"/>
<text text-anchor="start" x="537" y="-786.9" font-family="Arial" font-size="14.00" fill="#000000">unit    </text>
<text text-anchor="start" x="593.7672" y="-786.9" font-family="Arial" font-size="14.00" fill="#666666">[varchar]</text>
<polygon fill="none" stroke="#000000" points="530,-745.5 530,-775.5 871,-775.5 871,-745.5 530,-745.5"/>
<text text-anchor="start" x="537" y="-756.9" font-family="Arial" font-size="14.00" fill="#000000">text_value    </text>
<text text-anchor="start" x="635.0056" y="-756.9" font-family="Arial" font-size="14.00" fill="#666666">[jsonb]</text>
<polygon fill="none" stroke="#000000" points="530,-715.5 530,-745.5 871,-745.5 871,-715.5 530,-715.5"/>
<text text-anchor="start" x="537" y="-726.9" font-family="Arial" font-size="14.00" fill="#000000">numeric_value    </text>
<text text-anchor="start" x="662.2174" y="-726.9" font-family="Arial" font-size="14.00" fill="#666666">[double precision]</text>
<polygon fill="none" stroke="#000000" points="530,-685.5 530,-715.5 871,-715.5 871,-685.5 530,-685.5"/>
<text text-anchor="start" x="537" y="-696.9" font-family="Arial" font-size="14.00" fill="#000000">ordering    </text>
<text text-anchor="start" x="622.5456" y="-696.9" font-family="Arial" font-size="14.00" fill="#666666">[integer]</text>
<polygon fill="none" stroke="#000000" points="530,-655.5 530,-685.5 871,-685.5 871,-655.5 530,-655.5"/>
<text text-anchor="start" x="537" y="-666.9" font-family="Arial" font-size="14.00" fill="#000000">name    </text>
<text text-anchor="start" x="606.2132" y="-666.9" font-family="Arial" font-size="14.00" fill="#666666">[jsonb]</text>
<polygon fill="none" stroke="#000000" points="530,-625.5 530,-655.5 871,-655.5 871,-625.5 530,-625.5"/>
<text text-anchor="start" x="537" y="-636.9" font-family="Arial" font-size="14.00" fill="#000000">exported_at    </text>
<text text-anchor="start" x="645.1248" y="-636.9" font-family="Arial" font-size="14.00" fill="#666666">[timestamp without time zone]</text>
<polygon fill="none" stroke="#000000" points="530,-595.5 530,-625.5 871,-625.5 871,-595.5 530,-595.5"/>
<text text-anchor="start" x="537" y="-606.9" font-family="Arial" font-size="14.00" fill="#000000">lifecycle_status_id    </text>
<text text-anchor="start" x="684.7812" y="-606.9" font-family="Arial" font-size="14.00" fill="#666666">[uuid]</text>
<polygon fill="none" stroke="#000000" points="530,-565.5 530,-595.5 871,-595.5 871,-565.5 530,-565.5"/>
<text text-anchor="start" x="537" y="-576.9" font-family="Arial" font-size="14.00" fill="#000000">id    </text>
<text text-anchor="start" x="582.094" y="-576.9" font-family="Arial" font-size="14.00" fill="#666666">[uuid]</text>
<polygon fill="none" stroke="#000000" points="530,-535.5 530,-565.5 871,-565.5 871,-535.5 530,-535.5"/>
<text text-anchor="start" x="537" y="-546.9" font-family="Arial" font-size="14.00" fill="#000000">created_at    </text>
<text text-anchor="start" x="637.3422" y="-546.9" font-family="Arial" font-size="14.00" fill="#666666">[timestamp without time zone]</text>
<polygon fill="none" stroke="#000000" points="530,-505.5 530,-535.5 871,-535.5 871,-505.5 530,-505.5"/>
<text text-anchor="start" x="537" y="-516.9" font-family="Arial" font-size="14.00" fill="#000000">modified_at    </text>
<text text-anchor="start" x="643.5554" y="-516.9" font-family="Arial" font-size="14.00" fill="#666666">[timestamp without time zone]</text>
</g>
<!-- arho.plan_regulation&#45;&gt;codes.type_of_additional_information -->
<g id="edge2" class="edge">
<title>arho.plan_regulation:construction_control_id&#45;&gt;codes.type_of_additional_information:id</title>
<path fill="none" stroke="#000000" d="M520.1668,-846.9165C444.906,-791.8453 403.0407,-120.5 481,-120.5"/>
<polygon fill="#000000" stroke="#000000" points="520.6044,-847.076 528.4592,-854.728 525.3022,-848.788 530,-850.5 530,-850.5 530,-850.5 525.3022,-848.788 531.5408,-846.272 520.6044,-847.076 520.6044,-847.076"/>
<text text-anchor="start" x="88.746" y="-860.5" font-family="Arial" font-size="10.00" fill="#000000">FOREIGN KEY (construction_control_id) REFERENCES codes.type_of_additional_information(id)</text>
</g>
<!-- arho.plan_regulation&#45;&gt;codes.type_of_additional_information -->
<g id="edge3" class="edge">
<title>arho.plan_regulation:development_id&#45;&gt;codes.type_of_additional_information:id</title>
<path fill="none" stroke="#000000" d="M520.375,-907.317C438.6054,-852.9551 396.3172,-120.5 481,-120.5"/>
<polygon fill="#000000" stroke="#000000" points="520.5057,-907.3602 528.5871,-914.7724 525.2528,-908.9301 530,-910.5 530,-910.5 530,-910.5 525.2528,-908.9301 531.4129,-906.2276 520.5057,-907.3602 520.5057,-907.3602"/>
<text text-anchor="start" x="120.858" y="-920.5" font-family="Arial" font-size="10.00" fill="#000000">FOREIGN KEY (development_id) REFERENCES codes.type_of_additional_information(id)</text>
</g>
<!-- arho.plan_regulation&#45;&gt;codes.type_of_additional_information -->
<g id="edge4" class="edge">
<title>arho.plan_regulation:disturbance_prevention_id&#45;&gt;codes.type_of_additional_information:id</title>
<path fill="none" stroke="#000000" d="M520.2525,-877.1116C441.756,-822.2847 399.6857,-120.5 481,-120.5"/>
<polygon fill="#000000" stroke="#000000" points="520.5544,-877.2165 528.5224,-884.7505 525.2772,-878.8582 530,-880.5 530,-880.5 530,-880.5 525.2772,-878.8582 531.4776,-876.2495 520.5544,-877.2165 520.5544,-877.2165"/>
<text text-anchor="start" x="74.5175" y="-890.5" font-family="Arial" font-size="10.00" fill="#000000">FOREIGN KEY (disturbance_prevention_id) REFERENCES codes.type_of_additional_information(id)</text>
</g>
<!-- arho.plan_regulation&#45;&gt;codes.type_of_additional_information -->
<g id="edge5" class="edge">
<title>arho.plan_regulation:existence_id&#45;&gt;codes.type_of_additional_information:id</title>
<path fill="none" stroke="#000000" d="M520.3765,-1027.7257C425.7403,-972.7927 383.0056,-120.5 481,-120.5"/>
<polygon fill="#000000" stroke="#000000" points="520.3913,-1027.7299 528.7534,-1034.8239 525.1957,-1029.1149 530,-1030.5 530,-1030.5 530,-1030.5 525.1957,-1029.1149 531.2466,-1026.1761 520.3913,-1027.7299 520.3913,-1027.7299"/>
<text text-anchor="start" x="136.361" y="-1040.5" font-family="Arial" font-size="10.00" fill="#000000">FOREIGN KEY (existence_id) REFERENCES codes.type_of_additional_information(id)</text>
</g>
<!-- arho.plan_regulation&#45;&gt;codes.type_of_additional_information -->
<g id="edge6" class="edge">
<title>arho.plan_regulation:intended_use_id&#45;&gt;codes.type_of_additional_information:id</title>
<path fill="none" stroke="#000000" d="M520.3609,-1057.8035C422.5012,-1002.668 379.6821,-120.5 481,-120.5"/>
<polygon fill="#000000" stroke="#000000" points="520.3697,-1057.8059 528.7876,-1064.8336 525.1849,-1059.1529 530,-1060.5 530,-1060.5 530,-1060.5 525.1849,-1059.1529 531.2124,-1056.1664 520.3697,-1057.8059 520.3697,-1057.8059"/>
<text text-anchor="start" x="118.4635" y="-1070.5" font-family="Arial" font-size="10.00" fill="#000000">FOREIGN KEY (intended_use_id) REFERENCES codes.type_of_additional_information(id)</text>
</g>
<!-- arho.plan_regulation&#45;&gt;codes.type_of_additional_information -->
<g id="edge7" class="edge">
<title>arho.plan_regulation:regulation_type_additional_information_id&#45;&gt;codes.type_of_additional_information:id</title>
<path fill="none" stroke="#000000" d="M520.4107,-997.654C428.9788,-943.0327 386.3223,-120.5 481,-120.5"/>
<polygon fill="#000000" stroke="#000000" points="520.4133,-997.6547 528.7196,-1004.814 525.2067,-999.0773 530,-1000.5 530,-1000.5 530,-1000.5 525.2067,-999.0773 531.2804,-996.186 520.4133,-997.6547 520.4133,-997.6547"/>
<text text-anchor="start" x="6.6215" y="-1010.5" font-family="Arial" font-size="10.00" fill="#000000">FOREIGN KEY (regulation_type_additional_information_id) REFERENCES codes.type_of_additional_information(id)</text>
</g>
<!-- arho.plan_regulation&#45;&gt;codes.type_of_additional_information -->
<g id="edge8" class="edge">
<title>arho.plan_regulation:reservation_id&#45;&gt;codes.type_of_additional_information:id</title>
<path fill="none" stroke="#000000" d="M520.2763,-937.3656C435.3685,-882.3128 393.0243,-120.5 481,-120.5"/>
<polygon fill="#000000" stroke="#000000" points="520.4822,-937.432 528.6194,-944.783 525.2411,-938.966 530,-940.5 530,-940.5 530,-940.5 525.2411,-938.966 531.3806,-936.217 520.4822,-937.432 520.4822,-937.432"/>
<text text-anchor="start" x="128.7525" y="-950.5" font-family="Arial" font-size="10.00" fill="#000000">FOREIGN KEY (reservation_id) REFERENCES codes.type_of_additional_information(id)</text>
</g>
<!-- arho.plan_regulation&#45;&gt;codes.type_of_additional_information -->
<g id="edge9" class="edge">
<title>arho.plan_regulation:significance_id&#45;&gt;codes.type_of_additional_information:id</title>
<path fill="none" stroke="#000000" d="M520.1959,-967.4222C432.1309,-911.7849 389.7246,-120.5 481,-120.5"/>
<polygon fill="#000000" stroke="#000000" points="520.4591,-967.5047 528.6521,-974.7934 525.2295,-969.0024 530,-970.5 530,-970.5 530,-970.5 525.2295,-969.0024 531.3479,-966.2066 520.4591,-967.5047 520.4591,-967.5047"/>
<text text-anchor="start" x="126.3625" y="-980.5" font-family="Arial" font-size="10.00" fill="#000000">FOREIGN KEY (significance_id) REFERENCES codes.type_of_additional_information(id)</text>
</g>
</g>
</svg>
