<?xml version="1.0" encoding="UTF-8" standalone="no"?>
<!DOCTYPE svg PUBLIC "-//W3C//DTD SVG 1.1//EN"
 "http://www.w3.org/Graphics/SVG/1.1/DTD/svg11.dtd">
<!-- Generated by graphviz version 2.40.1 (20161225.0304)
 -->
<!-- Title: codes.type_of_underground Pages: 1 -->
<svg width="2176pt" height="1042pt"
 viewBox="0.00 0.00 2176.00 1042.00" xmlns="http://www.w3.org/2000/svg" xmlns:xlink="http://www.w3.org/1999/xlink">
<g id="graph0" class="graph" transform="scale(1 1) rotate(0) translate(4 1038)">
<title>codes.type_of_underground</title>
<polygon fill="#ffffff" stroke="transparent" points="-4,4 -4,-1038 2172,-1038 2172,4 -4,4"/>
<!-- codes.type_of_underground -->
<g id="node1" class="node">
<title>codes.type_of_underground</title>
<polygon fill="#efefef" stroke="transparent" points="905,-345.5 905,-380.5 1270,-380.5 1270,-345.5 905,-345.5"/>
<polygon fill="none" stroke="#000000" points="905,-345.5 905,-380.5 1270,-380.5 1270,-345.5 905,-345.5"/>
<text text-anchor="start" x="911.6678" y="-358.3" font-family="Arial Bold" font-size="18.00" fill="#000000">codes.type_of_underground</text>
<text text-anchor="start" x="1135.7642" y="-358.3" font-family="Arial" font-size="14.00" fill="#000000">    </text>
<text text-anchor="start" x="1169.969" y="-358.3" font-family="Arial" font-size="14.00" fill="#666666">[BASE TABLE]</text>
<polygon fill="none" stroke="#000000" points="905,-315.5 905,-345.5 1270,-345.5 1270,-315.5 905,-315.5"/>
<text text-anchor="start" x="912" y="-326.9" font-family="Arial" font-size="14.00" fill="#000000">value </text>
<text text-anchor="start" x="949.345" y="-326.9" font-family="Arial" font-size="14.00" fill="#666666">[varchar]</text>
<polygon fill="none" stroke="#000000" points="905,-285.5 905,-315.5 1270,-315.5 1270,-285.5 905,-285.5"/>
<text text-anchor="start" x="912" y="-296.9" font-family="Arial" font-size="14.00" fill="#000000">short_name </text>
<text text-anchor="start" x="989.798" y="-296.9" font-family="Arial" font-size="14.00" fill="#666666">[varchar]</text>
<polygon fill="none" stroke="#000000" points="905,-255.5 905,-285.5 1270,-285.5 1270,-255.5 905,-255.5"/>
<text text-anchor="start" x="912" y="-266.9" font-family="Arial" font-size="14.00" fill="#000000">name </text>
<text text-anchor="start" x="950.899" y="-266.9" font-family="Arial" font-size="14.00" fill="#666666">[jsonb]</text>
<polygon fill="none" stroke="#000000" points="905,-225.5 905,-255.5 1270,-255.5 1270,-225.5 905,-225.5"/>
<text text-anchor="start" x="912" y="-236.9" font-family="Arial" font-size="14.00" fill="#000000">description </text>
<text text-anchor="start" x="983.568" y="-236.9" font-family="Arial" font-size="14.00" fill="#666666">[jsonb]</text>
<polygon fill="none" stroke="#000000" points="905,-195.5 905,-225.5 1270,-225.5 1270,-195.5 905,-195.5"/>
<text text-anchor="start" x="912" y="-206.9" font-family="Arial" font-size="14.00" fill="#000000">status </text>
<text text-anchor="start" x="953.237" y="-206.9" font-family="Arial" font-size="14.00" fill="#666666">[varchar]</text>
<polygon fill="none" stroke="#000000" points="905,-165.5 905,-195.5 1270,-195.5 1270,-165.5 905,-165.5"/>
<text text-anchor="start" x="912" y="-176.9" font-family="Arial" font-size="14.00" fill="#000000">level </text>
<text text-anchor="start" x="944.669" y="-176.9" font-family="Arial" font-size="14.00" fill="#666666">[integer]</text>
<polygon fill="none" stroke="#000000" points="905,-135.5 905,-165.5 1270,-165.5 1270,-135.5 905,-135.5"/>
<text text-anchor="start" x="912" y="-146.9" font-family="Arial" font-size="14.00" fill="#000000">parent_id </text>
<text text-anchor="start" x="974.244" y="-146.9" font-family="Arial" font-size="14.00" fill="#666666">[uuid]</text>
<polygon fill="none" stroke="#000000" points="905,-105.5 905,-135.5 1270,-135.5 1270,-105.5 905,-105.5"/>
<text text-anchor="start" x="912" y="-116.9" font-family="Arial" font-size="14.00" fill="#000000">id </text>
<text text-anchor="start" x="926.7798" y="-116.9" font-family="Arial" font-size="14.00" fill="#666666">[uuid]</text>
<polygon fill="none" stroke="#000000" points="905,-75.5 905,-105.5 1270,-105.5 1270,-75.5 905,-75.5"/>
<text text-anchor="start" x="912" y="-86.9" font-family="Arial" font-size="14.00" fill="#000000">created_at </text>
<text text-anchor="start" x="982.028" y="-86.9" font-family="Arial" font-size="14.00" fill="#666666">[timestamp without time zone]</text>
<polygon fill="none" stroke="#000000" points="905,-45.5 905,-75.5 1270,-75.5 1270,-45.5 905,-45.5"/>
<text text-anchor="start" x="912" y="-56.9" font-family="Arial" font-size="14.00" fill="#000000">modified_at </text>
<text text-anchor="start" x="988.2412" y="-56.9" font-family="Arial" font-size="14.00" fill="#666666">[timestamp without time zone]</text>
<polygon fill="none" stroke="#000000" stroke-width="3" points="903,-44.5 903,-382.5 1271,-382.5 1271,-44.5 903,-44.5"/>
</g>
<!-- codes.type_of_underground&#45;&gt;codes.type_of_underground -->
<g id="edge1" class="edge">
<title>codes.type_of_underground:parent_id&#45;&gt;codes.type_of_underground:id</title>
<path fill="none" stroke="#000000" d="M1089.2634,-175.6963C1096.9782,-347.4685 1096.5571,-694 1088,-694 1079.2725,-694 1079.0082,-305.3139 1087.2074,-135.724"/>
<polygon fill="#000000" stroke="#000000" points="1089.2605,-175.6322 1093.2877,-165.4326 1089.0266,-170.6377 1088.7926,-165.6431 1088.7926,-165.6431 1088.7926,-165.6431 1089.0266,-170.6377 1084.2976,-165.8537 1089.2605,-175.6322 1089.2605,-175.6322"/>
<text text-anchor="start" x="1095.6531" y="-175.6431" font-family="Arial" font-size="10.00" fill="#000000">FOREIGN KEY (parent_id) REFERENCES codes.type_of_underground(id)</text>
</g>
<!-- hame.land_use_area -->
<g id="node2" class="node">
<title>hame.land_use_area</title>
<polygon fill="#efefef" stroke="transparent" points="102,-955.5 102,-990.5 412,-990.5 412,-955.5 102,-955.5"/>
<polygon fill="none" stroke="#000000" points="102,-955.5 102,-990.5 412,-990.5 412,-955.5 102,-955.5"/>
<text text-anchor="start" x="108.6853" y="-968.3" font-family="Arial Bold" font-size="18.00" fill="#000000">hame.land_use_area</text>
<text text-anchor="start" x="277.7467" y="-968.3" font-family="Arial" font-size="14.00" fill="#000000">    </text>
<text text-anchor="start" x="311.9515" y="-968.3" font-family="Arial" font-size="14.00" fill="#666666">[BASE TABLE]</text>
<polygon fill="none" stroke="#000000" points="102,-925.5 102,-955.5 412,-955.5 412,-925.5 102,-925.5"/>
<text text-anchor="start" x="109" y="-936.9" font-family="Arial" font-size="14.00" fill="#000000">geom    </text>
<text text-anchor="start" x="178.2132" y="-936.9" font-family="Arial" font-size="14.00" fill="#666666">[geometry(MultiPolygon,3067)]</text>
<polygon fill="none" stroke="#000000" points="102,-895.5 102,-925.5 412,-925.5 412,-895.5 102,-895.5"/>
<text text-anchor="start" x="109" y="-906.9" font-family="Arial" font-size="14.00" fill="#000000">name    </text>
<text text-anchor="start" x="178.2132" y="-906.9" font-family="Arial" font-size="14.00" fill="#666666">[jsonb]</text>
<polygon fill="none" stroke="#000000" points="102,-865.5 102,-895.5 412,-895.5 412,-865.5 102,-865.5"/>
<text text-anchor="start" x="109" y="-876.9" font-family="Arial" font-size="14.00" fill="#000000">source_data_object    </text>
<text text-anchor="start" x="265.3618" y="-876.9" font-family="Arial" font-size="14.00" fill="#666666">[varchar]</text>
<polygon fill="none" stroke="#000000" points="102,-835.5 102,-865.5 412,-865.5 412,-835.5 102,-835.5"/>
<text text-anchor="start" x="109" y="-846.9" font-family="Arial" font-size="14.00" fill="#000000">height_range    </text>
<text text-anchor="start" x="224.906" y="-846.9" font-family="Arial" font-size="14.00" fill="#666666">[numrange]</text>
<polygon fill="none" stroke="#000000" points="102,-805.5 102,-835.5 412,-835.5 412,-805.5 102,-805.5"/>
<text text-anchor="start" x="109" y="-816.9" font-family="Arial" font-size="14.00" fill="#000000">height_unit    </text>
<text text-anchor="start" x="211.6774" y="-816.9" font-family="Arial" font-size="14.00" fill="#666666">[varchar]</text>
<polygon fill="none" stroke="#000000" points="102,-775.5 102,-805.5 412,-805.5 412,-775.5 102,-775.5"/>
<text text-anchor="start" x="109" y="-786.9" font-family="Arial" font-size="14.00" fill="#000000">ordering    </text>
<text text-anchor="start" x="194.5456" y="-786.9" font-family="Arial" font-size="14.00" fill="#666666">[integer]</text>
<polygon fill="none" stroke="#000000" points="102,-745.5 102,-775.5 412,-775.5 412,-745.5 102,-745.5"/>
<text text-anchor="start" x="109" y="-756.9" font-family="Arial" font-size="14.00" fill="#000000">type_of_underground_id    </text>
<text text-anchor="start" x="294.9354" y="-756.9" font-family="Arial" font-size="14.00" fill="#666666">[uuid]</text>
<polygon fill="none" stroke="#000000" points="102,-715.5 102,-745.5 412,-745.5 412,-715.5 102,-715.5"/>
<text text-anchor="start" x="109" y="-726.9" font-family="Arial" font-size="14.00" fill="#000000">plan_id    </text>
<text text-anchor="start" x="188.331" y="-726.9" font-family="Arial" font-size="14.00" fill="#666666">[uuid]</text>
<polygon fill="none" stroke="#000000" points="102,-685.5 102,-715.5 412,-715.5 412,-685.5 102,-685.5"/>
<text text-anchor="start" x="109" y="-696.9" font-family="Arial" font-size="14.00" fill="#000000">plan_regulation_group_id    </text>
<text text-anchor="start" x="301.1472" y="-696.9" font-family="Arial" font-size="14.00" fill="#666666">[uuid]</text>
<polygon fill="none" stroke="#000000" points="102,-655.5 102,-685.5 412,-685.5 412,-655.5 102,-655.5"/>
<text text-anchor="start" x="109" y="-666.9" font-family="Arial" font-size="14.00" fill="#000000">exported_at    </text>
<text text-anchor="start" x="217.1248" y="-666.9" font-family="Arial" font-size="14.00" fill="#666666">[timestamp without time zone]</text>
<polygon fill="none" stroke="#000000" points="102,-625.5 102,-655.5 412,-655.5 412,-625.5 102,-625.5"/>
<text text-anchor="start" x="109" y="-636.9" font-family="Arial" font-size="14.00" fill="#000000">lifecycle_status_id    </text>
<text text-anchor="start" x="256.7812" y="-636.9" font-family="Arial" font-size="14.00" fill="#666666">[uuid]</text>
<polygon fill="none" stroke="#000000" points="102,-595.5 102,-625.5 412,-625.5 412,-595.5 102,-595.5"/>
<text text-anchor="start" x="109" y="-606.9" font-family="Arial" font-size="14.00" fill="#000000">id    </text>
<text text-anchor="start" x="154.094" y="-606.9" font-family="Arial" font-size="14.00" fill="#666666">[uuid]</text>
<polygon fill="none" stroke="#000000" points="102,-565.5 102,-595.5 412,-595.5 412,-565.5 102,-565.5"/>
<text text-anchor="start" x="109" y="-576.9" font-family="Arial" font-size="14.00" fill="#000000">created_at    </text>
<text text-anchor="start" x="209.3422" y="-576.9" font-family="Arial" font-size="14.00" fill="#666666">[timestamp without time zone]</text>
<polygon fill="none" stroke="#000000" points="102,-535.5 102,-565.5 412,-565.5 412,-535.5 102,-535.5"/>
<text text-anchor="start" x="109" y="-546.9" font-family="Arial" font-size="14.00" fill="#000000">modified_at    </text>
<text text-anchor="start" x="215.5554" y="-546.9" font-family="Arial" font-size="14.00" fill="#666666">[timestamp without time zone]</text>
<polygon fill="none" stroke="#000000" points="102,-505.5 102,-535.5 412,-535.5 412,-505.5 102,-505.5"/>
<text text-anchor="start" x="109" y="-516.9" font-family="Arial" font-size="14.00" fill="#000000">description    </text>
<text text-anchor="start" x="210.8822" y="-516.9" font-family="Arial" font-size="14.00" fill="#666666">[jsonb]</text>
</g>
<!-- hame.land_use_area&#45;&gt;codes.type_of_underground -->
<g id="edge2" class="edge">
<title>hame.land_use_area:type_of_underground_id&#45;&gt;codes.type_of_underground:id</title>
<path fill="none" stroke="#000000" d="M421.9954,-758.4158C473.9275,-734.7961 431.2864,-517.3585 464,-463 591.9649,-250.3674 656.8315,-120.5 905,-120.5"/>
<polygon fill="#000000" stroke="#000000" points="421.7895,-758.4587 411.0814,-756.0947 416.8947,-759.4793 412,-760.5 412,-760.5 412,-760.5 416.8947,-759.4793 412.9186,-764.9053 421.7895,-758.4587 421.7895,-758.4587"/>
<text text-anchor="start" x="6.5115" y="-770.5" font-family="Arial" font-size="10.00" fill="#000000">FOREIGN KEY (type_of_underground_id) REFERENCES codes.type_of_underground(id)</text>
</g>
<!-- hame.land_use_point -->
<g id="node3" class="node">
<title>hame.land_use_point</title>
<polygon fill="#efefef" stroke="transparent" points="517,-955.5 517,-990.5 830,-990.5 830,-955.5 517,-955.5"/>
<polygon fill="none" stroke="#000000" points="517,-955.5 517,-990.5 830,-990.5 830,-955.5 517,-955.5"/>
<text text-anchor="start" x="523.6832" y="-968.3" font-family="Arial Bold" font-size="18.00" fill="#000000">hame.land_use_point</text>
<text text-anchor="start" x="695.7488" y="-968.3" font-family="Arial" font-size="14.00" fill="#000000">    </text>
<text text-anchor="start" x="729.9536" y="-968.3" font-family="Arial" font-size="14.00" fill="#666666">[BASE TABLE]</text>
<polygon fill="none" stroke="#000000" points="517,-925.5 517,-955.5 830,-955.5 830,-925.5 517,-925.5"/>
<text text-anchor="start" x="524" y="-936.9" font-family="Arial" font-size="14.00" fill="#000000">geom    </text>
<text text-anchor="start" x="593.2132" y="-936.9" font-family="Arial" font-size="14.00" fill="#666666">[geometry(MultiPoint,3067)]</text>
<polygon fill="none" stroke="#000000" points="517,-895.5 517,-925.5 830,-925.5 830,-895.5 517,-895.5"/>
<text text-anchor="start" x="524" y="-906.9" font-family="Arial" font-size="14.00" fill="#000000">name    </text>
<text text-anchor="start" x="593.2132" y="-906.9" font-family="Arial" font-size="14.00" fill="#666666">[jsonb]</text>
<polygon fill="none" stroke="#000000" points="517,-865.5 517,-895.5 830,-895.5 830,-865.5 517,-865.5"/>
<text text-anchor="start" x="524" y="-876.9" font-family="Arial" font-size="14.00" fill="#000000">source_data_object    </text>
<text text-anchor="start" x="680.3618" y="-876.9" font-family="Arial" font-size="14.00" fill="#666666">[varchar]</text>
<polygon fill="none" stroke="#000000" points="517,-835.5 517,-865.5 830,-865.5 830,-835.5 517,-835.5"/>
<text text-anchor="start" x="524" y="-846.9" font-family="Arial" font-size="14.00" fill="#000000">height_range    </text>
<text text-anchor="start" x="639.906" y="-846.9" font-family="Arial" font-size="14.00" fill="#666666">[numrange]</text>
<polygon fill="none" stroke="#000000" points="517,-805.5 517,-835.5 830,-835.5 830,-805.5 517,-805.5"/>
<text text-anchor="start" x="524" y="-816.9" font-family="Arial" font-size="14.00" fill="#000000">height_unit    </text>
<text text-anchor="start" x="626.6774" y="-816.9" font-family="Arial" font-size="14.00" fill="#666666">[varchar]</text>
<polygon fill="none" stroke="#000000" points="517,-775.5 517,-805.5 830,-805.5 830,-775.5 517,-775.5"/>
<text text-anchor="start" x="524" y="-786.9" font-family="Arial" font-size="14.00" fill="#000000">ordering    </text>
<text text-anchor="start" x="609.5456" y="-786.9" font-family="Arial" font-size="14.00" fill="#666666">[integer]</text>
<polygon fill="none" stroke="#000000" points="517,-745.5 517,-775.5 830,-775.5 830,-745.5 517,-745.5"/>
<text text-anchor="start" x="524" y="-756.9" font-family="Arial" font-size="14.00" fill="#000000">type_of_underground_id    </text>
<text text-anchor="start" x="709.9354" y="-756.9" font-family="Arial" font-size="14.00" fill="#666666">[uuid]</text>
<polygon fill="none" stroke="#000000" points="517,-715.5 517,-745.5 830,-745.5 830,-715.5 517,-715.5"/>
<text text-anchor="start" x="524" y="-726.9" font-family="Arial" font-size="14.00" fill="#000000">plan_id    </text>
<text text-anchor="start" x="603.331" y="-726.9" font-family="Arial" font-size="14.00" fill="#666666">[uuid]</text>
<polygon fill="none" stroke="#000000" points="517,-685.5 517,-715.5 830,-715.5 830,-685.5 517,-685.5"/>
<text text-anchor="start" x="524" y="-696.9" font-family="Arial" font-size="14.00" fill="#000000">plan_regulation_group_id    </text>
<text text-anchor="start" x="716.1472" y="-696.9" font-family="Arial" font-size="14.00" fill="#666666">[uuid]</text>
<polygon fill="none" stroke="#000000" points="517,-655.5 517,-685.5 830,-685.5 830,-655.5 517,-655.5"/>
<text text-anchor="start" x="524" y="-666.9" font-family="Arial" font-size="14.00" fill="#000000">exported_at    </text>
<text text-anchor="start" x="632.1248" y="-666.9" font-family="Arial" font-size="14.00" fill="#666666">[timestamp without time zone]</text>
<polygon fill="none" stroke="#000000" points="517,-625.5 517,-655.5 830,-655.5 830,-625.5 517,-625.5"/>
<text text-anchor="start" x="524" y="-636.9" font-family="Arial" font-size="14.00" fill="#000000">lifecycle_status_id    </text>
<text text-anchor="start" x="671.7812" y="-636.9" font-family="Arial" font-size="14.00" fill="#666666">[uuid]</text>
<polygon fill="none" stroke="#000000" points="517,-595.5 517,-625.5 830,-625.5 830,-595.5 517,-595.5"/>
<text text-anchor="start" x="524" y="-606.9" font-family="Arial" font-size="14.00" fill="#000000">id    </text>
<text text-anchor="start" x="569.094" y="-606.9" font-family="Arial" font-size="14.00" fill="#666666">[uuid]</text>
<polygon fill="none" stroke="#000000" points="517,-565.5 517,-595.5 830,-595.5 830,-565.5 517,-565.5"/>
<text text-anchor="start" x="524" y="-576.9" font-family="Arial" font-size="14.00" fill="#000000">created_at    </text>
<text text-anchor="start" x="624.3422" y="-576.9" font-family="Arial" font-size="14.00" fill="#666666">[timestamp without time zone]</text>
<polygon fill="none" stroke="#000000" points="517,-535.5 517,-565.5 830,-565.5 830,-535.5 517,-535.5"/>
<text text-anchor="start" x="524" y="-546.9" font-family="Arial" font-size="14.00" fill="#000000">modified_at    </text>
<text text-anchor="start" x="630.5554" y="-546.9" font-family="Arial" font-size="14.00" fill="#666666">[timestamp without time zone]</text>
<polygon fill="none" stroke="#000000" points="517,-505.5 517,-535.5 830,-535.5 830,-505.5 517,-505.5"/>
<text text-anchor="start" x="524" y="-516.9" font-family="Arial" font-size="14.00" fill="#000000">description    </text>
<text text-anchor="start" x="625.8822" y="-516.9" font-family="Arial" font-size="14.00" fill="#666666">[jsonb]</text>
</g>
<!-- hame.land_use_point&#45;&gt;codes.type_of_underground -->
<g id="edge3" class="edge">
<title>hame.land_use_point:type_of_underground_id&#45;&gt;codes.type_of_underground:id</title>
<path fill="none" stroke="#000000" d="M839.1757,-756.4131C895.5116,-701.9063 836.7584,-120.5 905,-120.5"/>
<polygon fill="#000000" stroke="#000000" points="839.1349,-756.4312 828.1691,-756.3893 834.5674,-758.4656 830,-760.5 830,-760.5 830,-760.5 834.5674,-758.4656 831.8309,-764.6107 839.1349,-756.4312 839.1349,-756.4312"/>
<text text-anchor="start" x="424.5115" y="-770.5" font-family="Arial" font-size="10.00" fill="#000000">FOREIGN KEY (type_of_underground_id) REFERENCES codes.type_of_underground(id)</text>
</g>
<!-- hame.line -->
<g id="node4" class="node">
<title>hame.line</title>
<polygon fill="#efefef" stroke="transparent" points="934,-955.5 934,-990.5 1241,-990.5 1241,-955.5 934,-955.5"/>
<polygon fill="none" stroke="#000000" points="934,-955.5 934,-990.5 1241,-990.5 1241,-955.5 934,-955.5"/>
<text text-anchor="start" x="984.7091" y="-968.3" font-family="Arial Bold" font-size="18.00" fill="#000000">hame.line</text>
<text text-anchor="start" x="1062.7229" y="-968.3" font-family="Arial" font-size="14.00" fill="#000000">    </text>
<text text-anchor="start" x="1096.9277" y="-968.3" font-family="Arial" font-size="14.00" fill="#666666">[BASE TABLE]</text>
<polygon fill="none" stroke="#000000" points="934,-925.5 934,-955.5 1241,-955.5 1241,-925.5 934,-925.5"/>
<text text-anchor="start" x="941" y="-936.9" font-family="Arial" font-size="14.00" fill="#000000">geom    </text>
<text text-anchor="start" x="1010.2132" y="-936.9" font-family="Arial" font-size="14.00" fill="#666666">[geometry(MultiLineString,3067)]</text>
<polygon fill="none" stroke="#000000" points="934,-895.5 934,-925.5 1241,-925.5 1241,-895.5 934,-895.5"/>
<text text-anchor="start" x="941" y="-906.9" font-family="Arial" font-size="14.00" fill="#000000">name    </text>
<text text-anchor="start" x="1010.2132" y="-906.9" font-family="Arial" font-size="14.00" fill="#666666">[jsonb]</text>
<polygon fill="none" stroke="#000000" points="934,-865.5 934,-895.5 1241,-895.5 1241,-865.5 934,-865.5"/>
<text text-anchor="start" x="941" y="-876.9" font-family="Arial" font-size="14.00" fill="#000000">source_data_object    </text>
<text text-anchor="start" x="1097.3618" y="-876.9" font-family="Arial" font-size="14.00" fill="#666666">[varchar]</text>
<polygon fill="none" stroke="#000000" points="934,-835.5 934,-865.5 1241,-865.5 1241,-835.5 934,-835.5"/>
<text text-anchor="start" x="941" y="-846.9" font-family="Arial" font-size="14.00" fill="#000000">height_range    </text>
<text text-anchor="start" x="1056.906" y="-846.9" font-family="Arial" font-size="14.00" fill="#666666">[numrange]</text>
<polygon fill="none" stroke="#000000" points="934,-805.5 934,-835.5 1241,-835.5 1241,-805.5 934,-805.5"/>
<text text-anchor="start" x="941" y="-816.9" font-family="Arial" font-size="14.00" fill="#000000">height_unit    </text>
<text text-anchor="start" x="1043.6774" y="-816.9" font-family="Arial" font-size="14.00" fill="#666666">[varchar]</text>
<polygon fill="none" stroke="#000000" points="934,-775.5 934,-805.5 1241,-805.5 1241,-775.5 934,-775.5"/>
<text text-anchor="start" x="941" y="-786.9" font-family="Arial" font-size="14.00" fill="#000000">ordering    </text>
<text text-anchor="start" x="1026.5456" y="-786.9" font-family="Arial" font-size="14.00" fill="#666666">[integer]</text>
<polygon fill="none" stroke="#000000" points="934,-745.5 934,-775.5 1241,-775.5 1241,-745.5 934,-745.5"/>
<text text-anchor="start" x="941" y="-756.9" font-family="Arial" font-size="14.00" fill="#000000">type_of_underground_id    </text>
<text text-anchor="start" x="1126.9354" y="-756.9" font-family="Arial" font-size="14.00" fill="#666666">[uuid]</text>
<polygon fill="none" stroke="#000000" points="934,-715.5 934,-745.5 1241,-745.5 1241,-715.5 934,-715.5"/>
<text text-anchor="start" x="941" y="-726.9" font-family="Arial" font-size="14.00" fill="#000000">plan_id    </text>
<text text-anchor="start" x="1020.331" y="-726.9" font-family="Arial" font-size="14.00" fill="#666666">[uuid]</text>
<polygon fill="none" stroke="#000000" points="934,-685.5 934,-715.5 1241,-715.5 1241,-685.5 934,-685.5"/>
<text text-anchor="start" x="941" y="-696.9" font-family="Arial" font-size="14.00" fill="#000000">plan_regulation_group_id    </text>
<text text-anchor="start" x="1133.1472" y="-696.9" font-family="Arial" font-size="14.00" fill="#666666">[uuid]</text>
<polygon fill="none" stroke="#000000" points="934,-655.5 934,-685.5 1241,-685.5 1241,-655.5 934,-655.5"/>
<text text-anchor="start" x="940.8675" y="-666.9" font-family="Arial" font-size="14.00" fill="#000000">exported_at    </text>
<text text-anchor="start" x="1048.9923" y="-666.9" font-family="Arial" font-size="14.00" fill="#666666">[timestamp without time zone]</text>
<polygon fill="none" stroke="#000000" points="934,-625.5 934,-655.5 1241,-655.5 1241,-625.5 934,-625.5"/>
<text text-anchor="start" x="941" y="-636.9" font-family="Arial" font-size="14.00" fill="#000000">lifecycle_status_id    </text>
<text text-anchor="start" x="1088.7812" y="-636.9" font-family="Arial" font-size="14.00" fill="#666666">[uuid]</text>
<polygon fill="none" stroke="#000000" points="934,-595.5 934,-625.5 1241,-625.5 1241,-595.5 934,-595.5"/>
<text text-anchor="start" x="941" y="-606.9" font-family="Arial" font-size="14.00" fill="#000000">id    </text>
<text text-anchor="start" x="986.094" y="-606.9" font-family="Arial" font-size="14.00" fill="#666666">[uuid]</text>
<polygon fill="none" stroke="#000000" points="934,-565.5 934,-595.5 1241,-595.5 1241,-565.5 934,-565.5"/>
<text text-anchor="start" x="941" y="-576.9" font-family="Arial" font-size="14.00" fill="#000000">created_at    </text>
<text text-anchor="start" x="1041.3422" y="-576.9" font-family="Arial" font-size="14.00" fill="#666666">[timestamp without time zone]</text>
<polygon fill="none" stroke="#000000" points="934,-535.5 934,-565.5 1241,-565.5 1241,-535.5 934,-535.5"/>
<text text-anchor="start" x="941" y="-546.9" font-family="Arial" font-size="14.00" fill="#000000">modified_at    </text>
<text text-anchor="start" x="1047.5554" y="-546.9" font-family="Arial" font-size="14.00" fill="#666666">[timestamp without time zone]</text>
<polygon fill="none" stroke="#000000" points="934,-505.5 934,-535.5 1241,-535.5 1241,-505.5 934,-505.5"/>
<text text-anchor="start" x="941" y="-516.9" font-family="Arial" font-size="14.00" fill="#000000">description    </text>
<text text-anchor="start" x="1042.8822" y="-516.9" font-family="Arial" font-size="14.00" fill="#666666">[jsonb]</text>
</g>
<!-- hame.line&#45;&gt;codes.type_of_underground -->
<g id="edge4" class="edge">
<title>hame.line:type_of_underground_id&#45;&gt;codes.type_of_underground:id</title>
<path fill="none" stroke="#000000" d="M927.2156,-752.8666C894.938,-680.6587 871.702,-120.5 905,-120.5"/>
<polygon fill="#000000" stroke="#000000" points="927.3568,-753.0255 930.6365,-763.4894 930.6784,-756.7627 934,-760.5 934,-760.5 934,-760.5 930.6784,-756.7627 937.3635,-757.5106 927.3568,-753.0255 927.3568,-753.0255"/>
<text text-anchor="start" x="631.5115" y="-744.5" font-family="Arial" font-size="10.00" fill="#000000">FOREIGN KEY (type_of_underground_id) REFERENCES codes.type_of_underground(id)</text>
</g>
<!-- hame.other_area -->
<g id="node5" class="node">
<title>hame.other_area</title>
<polygon fill="#efefef" stroke="transparent" points="1345,-955.5 1345,-990.5 1652,-990.5 1652,-955.5 1345,-955.5"/>
<polygon fill="none" stroke="#000000" points="1345,-955.5 1345,-990.5 1652,-990.5 1652,-955.5 1345,-955.5"/>
<text text-anchor="start" x="1366.1945" y="-968.3" font-family="Arial Bold" font-size="18.00" fill="#000000">hame.other_area</text>
<text text-anchor="start" x="1503.2375" y="-968.3" font-family="Arial" font-size="14.00" fill="#000000">    </text>
<text text-anchor="start" x="1537.4423" y="-968.3" font-family="Arial" font-size="14.00" fill="#666666">[BASE TABLE]</text>
<polygon fill="none" stroke="#000000" points="1345,-925.5 1345,-955.5 1652,-955.5 1652,-925.5 1345,-925.5"/>
<text text-anchor="start" x="1352" y="-936.9" font-family="Arial" font-size="14.00" fill="#000000">geom    </text>
<text text-anchor="start" x="1421.2132" y="-936.9" font-family="Arial" font-size="14.00" fill="#666666">[geometry(MultiPolygon,3067)]</text>
<polygon fill="none" stroke="#000000" points="1345,-895.5 1345,-925.5 1652,-925.5 1652,-895.5 1345,-895.5"/>
<text text-anchor="start" x="1352" y="-906.9" font-family="Arial" font-size="14.00" fill="#000000">name    </text>
<text text-anchor="start" x="1421.2132" y="-906.9" font-family="Arial" font-size="14.00" fill="#666666">[jsonb]</text>
<polygon fill="none" stroke="#000000" points="1345,-865.5 1345,-895.5 1652,-895.5 1652,-865.5 1345,-865.5"/>
<text text-anchor="start" x="1352" y="-876.9" font-family="Arial" font-size="14.00" fill="#000000">source_data_object    </text>
<text text-anchor="start" x="1508.3618" y="-876.9" font-family="Arial" font-size="14.00" fill="#666666">[varchar]</text>
<polygon fill="none" stroke="#000000" points="1345,-835.5 1345,-865.5 1652,-865.5 1652,-835.5 1345,-835.5"/>
<text text-anchor="start" x="1352" y="-846.9" font-family="Arial" font-size="14.00" fill="#000000">height_range    </text>
<text text-anchor="start" x="1467.906" y="-846.9" font-family="Arial" font-size="14.00" fill="#666666">[numrange]</text>
<polygon fill="none" stroke="#000000" points="1345,-805.5 1345,-835.5 1652,-835.5 1652,-805.5 1345,-805.5"/>
<text text-anchor="start" x="1352" y="-816.9" font-family="Arial" font-size="14.00" fill="#000000">height_unit    </text>
<text text-anchor="start" x="1454.6774" y="-816.9" font-family="Arial" font-size="14.00" fill="#666666">[varchar]</text>
<polygon fill="none" stroke="#000000" points="1345,-775.5 1345,-805.5 1652,-805.5 1652,-775.5 1345,-775.5"/>
<text text-anchor="start" x="1352" y="-786.9" font-family="Arial" font-size="14.00" fill="#000000">ordering    </text>
<text text-anchor="start" x="1437.5456" y="-786.9" font-family="Arial" font-size="14.00" fill="#666666">[integer]</text>
<polygon fill="none" stroke="#000000" points="1345,-745.5 1345,-775.5 1652,-775.5 1652,-745.5 1345,-745.5"/>
<text text-anchor="start" x="1352" y="-756.9" font-family="Arial" font-size="14.00" fill="#000000">type_of_underground_id    </text>
<text text-anchor="start" x="1537.9354" y="-756.9" font-family="Arial" font-size="14.00" fill="#666666">[uuid]</text>
<polygon fill="none" stroke="#000000" points="1345,-715.5 1345,-745.5 1652,-745.5 1652,-715.5 1345,-715.5"/>
<text text-anchor="start" x="1352" y="-726.9" font-family="Arial" font-size="14.00" fill="#000000">plan_id    </text>
<text text-anchor="start" x="1431.331" y="-726.9" font-family="Arial" font-size="14.00" fill="#666666">[uuid]</text>
<polygon fill="none" stroke="#000000" points="1345,-685.5 1345,-715.5 1652,-715.5 1652,-685.5 1345,-685.5"/>
<text text-anchor="start" x="1352" y="-696.9" font-family="Arial" font-size="14.00" fill="#000000">plan_regulation_group_id    </text>
<text text-anchor="start" x="1544.1472" y="-696.9" font-family="Arial" font-size="14.00" fill="#666666">[uuid]</text>
<polygon fill="none" stroke="#000000" points="1345,-655.5 1345,-685.5 1652,-685.5 1652,-655.5 1345,-655.5"/>
<text text-anchor="start" x="1351.8675" y="-666.9" font-family="Arial" font-size="14.00" fill="#000000">exported_at    </text>
<text text-anchor="start" x="1459.9923" y="-666.9" font-family="Arial" font-size="14.00" fill="#666666">[timestamp without time zone]</text>
<polygon fill="none" stroke="#000000" points="1345,-625.5 1345,-655.5 1652,-655.5 1652,-625.5 1345,-625.5"/>
<text text-anchor="start" x="1352" y="-636.9" font-family="Arial" font-size="14.00" fill="#000000">lifecycle_status_id    </text>
<text text-anchor="start" x="1499.7812" y="-636.9" font-family="Arial" font-size="14.00" fill="#666666">[uuid]</text>
<polygon fill="none" stroke="#000000" points="1345,-595.5 1345,-625.5 1652,-625.5 1652,-595.5 1345,-595.5"/>
<text text-anchor="start" x="1352" y="-606.9" font-family="Arial" font-size="14.00" fill="#000000">id    </text>
<text text-anchor="start" x="1397.094" y="-606.9" font-family="Arial" font-size="14.00" fill="#666666">[uuid]</text>
<polygon fill="none" stroke="#000000" points="1345,-565.5 1345,-595.5 1652,-595.5 1652,-565.5 1345,-565.5"/>
<text text-anchor="start" x="1352" y="-576.9" font-family="Arial" font-size="14.00" fill="#000000">created_at    </text>
<text text-anchor="start" x="1452.3422" y="-576.9" font-family="Arial" font-size="14.00" fill="#666666">[timestamp without time zone]</text>
<polygon fill="none" stroke="#000000" points="1345,-535.5 1345,-565.5 1652,-565.5 1652,-535.5 1345,-535.5"/>
<text text-anchor="start" x="1352" y="-546.9" font-family="Arial" font-size="14.00" fill="#000000">modified_at    </text>
<text text-anchor="start" x="1458.5554" y="-546.9" font-family="Arial" font-size="14.00" fill="#666666">[timestamp without time zone]</text>
<polygon fill="none" stroke="#000000" points="1345,-505.5 1345,-535.5 1652,-535.5 1652,-505.5 1345,-505.5"/>
<text text-anchor="start" x="1352" y="-516.9" font-family="Arial" font-size="14.00" fill="#000000">description    </text>
<text text-anchor="start" x="1453.8822" y="-516.9" font-family="Arial" font-size="14.00" fill="#666666">[jsonb]</text>
</g>
<!-- hame.other_area&#45;&gt;codes.type_of_underground -->
<g id="edge5" class="edge">
<title>hame.other_area:type_of_underground_id&#45;&gt;codes.type_of_underground:id</title>
<path fill="none" stroke="#000000" d="M1335.8243,-756.4131C1279.4884,-701.9063 1338.2416,-120.5 1270,-120.5"/>
<polygon fill="#000000" stroke="#000000" points="1335.8651,-756.4312 1343.1691,-764.6107 1340.4326,-758.4656 1345,-760.5 1345,-760.5 1345,-760.5 1340.4326,-758.4656 1346.8309,-756.3893 1335.8651,-756.4312 1335.8651,-756.4312"/>
<text text-anchor="start" x="1145.5115" y="-744.5" font-family="Arial" font-size="10.00" fill="#000000">FOREIGN KEY (type_of_underground_id) REFERENCES codes.type_of_underground(id)</text>
</g>
<!-- hame.other_point -->
<g id="node6" class="node">
<title>hame.other_point</title>
<polygon fill="#efefef" stroke="transparent" points="1756,-955.5 1756,-990.5 2063,-990.5 2063,-955.5 1756,-955.5"/>
<polygon fill="none" stroke="#000000" points="1756,-955.5 1756,-990.5 2063,-990.5 2063,-955.5 1756,-955.5"/>
<text text-anchor="start" x="1775.6924" y="-968.3" font-family="Arial Bold" font-size="18.00" fill="#000000">hame.other_point</text>
<text text-anchor="start" x="1915.7396" y="-968.3" font-family="Arial" font-size="14.00" fill="#000000">    </text>
<text text-anchor="start" x="1949.9444" y="-968.3" font-family="Arial" font-size="14.00" fill="#666666">[BASE TABLE]</text>
<polygon fill="none" stroke="#000000" points="1756,-925.5 1756,-955.5 2063,-955.5 2063,-925.5 1756,-925.5"/>
<text text-anchor="start" x="1763" y="-936.9" font-family="Arial" font-size="14.00" fill="#000000">geom    </text>
<text text-anchor="start" x="1832.2132" y="-936.9" font-family="Arial" font-size="14.00" fill="#666666">[geometry(MultiPoint,3067)]</text>
<polygon fill="none" stroke="#000000" points="1756,-895.5 1756,-925.5 2063,-925.5 2063,-895.5 1756,-895.5"/>
<text text-anchor="start" x="1763" y="-906.9" font-family="Arial" font-size="14.00" fill="#000000">name    </text>
<text text-anchor="start" x="1832.2132" y="-906.9" font-family="Arial" font-size="14.00" fill="#666666">[jsonb]</text>
<polygon fill="none" stroke="#000000" points="1756,-865.5 1756,-895.5 2063,-895.5 2063,-865.5 1756,-865.5"/>
<text text-anchor="start" x="1763" y="-876.9" font-family="Arial" font-size="14.00" fill="#000000">source_data_object    </text>
<text text-anchor="start" x="1919.3618" y="-876.9" font-family="Arial" font-size="14.00" fill="#666666">[varchar]</text>
<polygon fill="none" stroke="#000000" points="1756,-835.5 1756,-865.5 2063,-865.5 2063,-835.5 1756,-835.5"/>
<text text-anchor="start" x="1763" y="-846.9" font-family="Arial" font-size="14.00" fill="#000000">height_range    </text>
<text text-anchor="start" x="1878.906" y="-846.9" font-family="Arial" font-size="14.00" fill="#666666">[numrange]</text>
<polygon fill="none" stroke="#000000" points="1756,-805.5 1756,-835.5 2063,-835.5 2063,-805.5 1756,-805.5"/>
<text text-anchor="start" x="1763" y="-816.9" font-family="Arial" font-size="14.00" fill="#000000">height_unit    </text>
<text text-anchor="start" x="1865.6774" y="-816.9" font-family="Arial" font-size="14.00" fill="#666666">[varchar]</text>
<polygon fill="none" stroke="#000000" points="1756,-775.5 1756,-805.5 2063,-805.5 2063,-775.5 1756,-775.5"/>
<text text-anchor="start" x="1763" y="-786.9" font-family="Arial" font-size="14.00" fill="#000000">ordering    </text>
<text text-anchor="start" x="1848.5456" y="-786.9" font-family="Arial" font-size="14.00" fill="#666666">[integer]</text>
<polygon fill="none" stroke="#000000" points="1756,-745.5 1756,-775.5 2063,-775.5 2063,-745.5 1756,-745.5"/>
<text text-anchor="start" x="1763" y="-756.9" font-family="Arial" font-size="14.00" fill="#000000">type_of_underground_id    </text>
<text text-anchor="start" x="1948.9354" y="-756.9" font-family="Arial" font-size="14.00" fill="#666666">[uuid]</text>
<polygon fill="none" stroke="#000000" points="1756,-715.5 1756,-745.5 2063,-745.5 2063,-715.5 1756,-715.5"/>
<text text-anchor="start" x="1763" y="-726.9" font-family="Arial" font-size="14.00" fill="#000000">plan_id    </text>
<text text-anchor="start" x="1842.331" y="-726.9" font-family="Arial" font-size="14.00" fill="#666666">[uuid]</text>
<polygon fill="none" stroke="#000000" points="1756,-685.5 1756,-715.5 2063,-715.5 2063,-685.5 1756,-685.5"/>
<text text-anchor="start" x="1763" y="-696.9" font-family="Arial" font-size="14.00" fill="#000000">plan_regulation_group_id    </text>
<text text-anchor="start" x="1955.1472" y="-696.9" font-family="Arial" font-size="14.00" fill="#666666">[uuid]</text>
<polygon fill="none" stroke="#000000" points="1756,-655.5 1756,-685.5 2063,-685.5 2063,-655.5 1756,-655.5"/>
<text text-anchor="start" x="1762.8675" y="-666.9" font-family="Arial" font-size="14.00" fill="#000000">exported_at    </text>
<text text-anchor="start" x="1870.9923" y="-666.9" font-family="Arial" font-size="14.00" fill="#666666">[timestamp without time zone]</text>
<polygon fill="none" stroke="#000000" points="1756,-625.5 1756,-655.5 2063,-655.5 2063,-625.5 1756,-625.5"/>
<text text-anchor="start" x="1763" y="-636.9" font-family="Arial" font-size="14.00" fill="#000000">lifecycle_status_id    </text>
<text text-anchor="start" x="1910.7812" y="-636.9" font-family="Arial" font-size="14.00" fill="#666666">[uuid]</text>
<polygon fill="none" stroke="#000000" points="1756,-595.5 1756,-625.5 2063,-625.5 2063,-595.5 1756,-595.5"/>
<text text-anchor="start" x="1763" y="-606.9" font-family="Arial" font-size="14.00" fill="#000000">id    </text>
<text text-anchor="start" x="1808.094" y="-606.9" font-family="Arial" font-size="14.00" fill="#666666">[uuid]</text>
<polygon fill="none" stroke="#000000" points="1756,-565.5 1756,-595.5 2063,-595.5 2063,-565.5 1756,-565.5"/>
<text text-anchor="start" x="1763" y="-576.9" font-family="Arial" font-size="14.00" fill="#000000">created_at    </text>
<text text-anchor="start" x="1863.3422" y="-576.9" font-family="Arial" font-size="14.00" fill="#666666">[timestamp without time zone]</text>
<polygon fill="none" stroke="#000000" points="1756,-535.5 1756,-565.5 2063,-565.5 2063,-535.5 1756,-535.5"/>
<text text-anchor="start" x="1763" y="-546.9" font-family="Arial" font-size="14.00" fill="#000000">modified_at    </text>
<text text-anchor="start" x="1869.5554" y="-546.9" font-family="Arial" font-size="14.00" fill="#666666">[timestamp without time zone]</text>
<polygon fill="none" stroke="#000000" points="1756,-505.5 1756,-535.5 2063,-535.5 2063,-505.5 1756,-505.5"/>
<text text-anchor="start" x="1763" y="-516.9" font-family="Arial" font-size="14.00" fill="#000000">description    </text>
<text text-anchor="start" x="1864.8822" y="-516.9" font-family="Arial" font-size="14.00" fill="#666666">[jsonb]</text>
</g>
<!-- hame.other_point&#45;&gt;codes.type_of_underground -->
<g id="edge6" class="edge">
<title>hame.other_point:type_of_underground_id&#45;&gt;codes.type_of_underground:id</title>
<path fill="none" stroke="#000000" d="M1746.0027,-758.4169C1694.0494,-734.81 1736.5023,-517.4852 1704,-463 1578.1168,-251.976 1515.7188,-120.5 1270,-120.5"/>
<polygon fill="#000000" stroke="#000000" points="1746.2102,-758.4601 1755.0821,-764.9054 1751.1051,-759.4801 1756,-760.5 1756,-760.5 1756,-760.5 1751.1051,-759.4801 1756.9179,-756.0946 1746.2102,-758.4601 1746.2102,-758.4601"/>
<text text-anchor="start" x="1762.5115" y="-770.5" font-family="Arial" font-size="10.00" fill="#000000">FOREIGN KEY (type_of_underground_id) REFERENCES codes.type_of_underground(id)</text>
</g>
</g>
</svg>
