<?xml version="1.0" encoding="UTF-8" standalone="no"?>
<!DOCTYPE svg PUBLIC "-//W3C//DTD SVG 1.1//EN"
 "http://www.w3.org/Graphics/SVG/1.1/DTD/svg11.dtd">
<!-- Generated by graphviz version 2.40.1 (20161225.0304)
 -->
<!-- Title: codes.type_of_decision_maker Pages: 1 -->
<svg width="609pt" height="648pt"
 viewBox="0.00 0.00 609.39 648.00" xmlns="http://www.w3.org/2000/svg" xmlns:xlink="http://www.w3.org/1999/xlink">
<g id="graph0" class="graph" transform="scale(1 1) rotate(0) translate(4 644)">
<title>codes.type_of_decision_maker</title>
<polygon fill="#ffffff" stroke="transparent" points="-4,4 -4,-644 605.3913,-644 605.3913,4 -4,4"/>
<!-- codes.type_of_decision_maker -->
<g id="node1" class="node">
<title>codes.type_of_decision_maker</title>
<polygon fill="#efefef" stroke="transparent" points="46.5,-345.5 46.5,-380.5 435.5,-380.5 435.5,-345.5 46.5,-345.5"/>
<polygon fill="none" stroke="#000000" points="46.5,-345.5 46.5,-380.5 435.5,-380.5 435.5,-345.5 46.5,-345.5"/>
<text text-anchor="start" x="53.1798" y="-358.3" font-family="Arial Bold" font-size="18.00" fill="#000000">codes.type_of_decision_maker</text>
<text text-anchor="start" x="301.2522" y="-358.3" font-family="Arial" font-size="14.00" fill="#000000">    </text>
<text text-anchor="start" x="335.457" y="-358.3" font-family="Arial" font-size="14.00" fill="#666666">[BASE TABLE]</text>
<polygon fill="none" stroke="#000000" points="46.5,-315.5 46.5,-345.5 435.5,-345.5 435.5,-315.5 46.5,-315.5"/>
<text text-anchor="start" x="53.5" y="-326.9" font-family="Arial" font-size="14.00" fill="#000000">value </text>
<text text-anchor="start" x="90.845" y="-326.9" font-family="Arial" font-size="14.00" fill="#666666">[varchar]</text>
<polygon fill="none" stroke="#000000" points="46.5,-285.5 46.5,-315.5 435.5,-315.5 435.5,-285.5 46.5,-285.5"/>
<text text-anchor="start" x="53.5" y="-296.9" font-family="Arial" font-size="14.00" fill="#000000">short_name </text>
<text text-anchor="start" x="131.298" y="-296.9" font-family="Arial" font-size="14.00" fill="#666666">[varchar]</text>
<polygon fill="none" stroke="#000000" points="46.5,-255.5 46.5,-285.5 435.5,-285.5 435.5,-255.5 46.5,-255.5"/>
<text text-anchor="start" x="53.5" y="-266.9" font-family="Arial" font-size="14.00" fill="#000000">name </text>
<text text-anchor="start" x="92.399" y="-266.9" font-family="Arial" font-size="14.00" fill="#666666">[jsonb]</text>
<polygon fill="none" stroke="#000000" points="46.5,-225.5 46.5,-255.5 435.5,-255.5 435.5,-225.5 46.5,-225.5"/>
<text text-anchor="start" x="53.5" y="-236.9" font-family="Arial" font-size="14.00" fill="#000000">description </text>
<text text-anchor="start" x="125.068" y="-236.9" font-family="Arial" font-size="14.00" fill="#666666">[jsonb]</text>
<polygon fill="none" stroke="#000000" points="46.5,-195.5 46.5,-225.5 435.5,-225.5 435.5,-195.5 46.5,-195.5"/>
<text text-anchor="start" x="53.5" y="-206.9" font-family="Arial" font-size="14.00" fill="#000000">status </text>
<text text-anchor="start" x="94.737" y="-206.9" font-family="Arial" font-size="14.00" fill="#666666">[varchar]</text>
<polygon fill="none" stroke="#000000" points="46.5,-165.5 46.5,-195.5 435.5,-195.5 435.5,-165.5 46.5,-165.5"/>
<text text-anchor="start" x="53.5" y="-176.9" font-family="Arial" font-size="14.00" fill="#000000">level </text>
<text text-anchor="start" x="86.169" y="-176.9" font-family="Arial" font-size="14.00" fill="#666666">[integer]</text>
<polygon fill="none" stroke="#000000" points="46.5,-135.5 46.5,-165.5 435.5,-165.5 435.5,-135.5 46.5,-135.5"/>
<text text-anchor="start" x="53.5" y="-146.9" font-family="Arial" font-size="14.00" fill="#000000">parent_id </text>
<text text-anchor="start" x="115.744" y="-146.9" font-family="Arial" font-size="14.00" fill="#666666">[uuid]</text>
<polygon fill="none" stroke="#000000" points="46.5,-105.5 46.5,-135.5 435.5,-135.5 435.5,-105.5 46.5,-105.5"/>
<text text-anchor="start" x="53.5" y="-116.9" font-family="Arial" font-size="14.00" fill="#000000">id </text>
<text text-anchor="start" x="68.2798" y="-116.9" font-family="Arial" font-size="14.00" fill="#666666">[uuid]</text>
<polygon fill="none" stroke="#000000" points="46.5,-75.5 46.5,-105.5 435.5,-105.5 435.5,-75.5 46.5,-75.5"/>
<text text-anchor="start" x="53.5" y="-86.9" font-family="Arial" font-size="14.00" fill="#000000">created_at </text>
<text text-anchor="start" x="123.528" y="-86.9" font-family="Arial" font-size="14.00" fill="#666666">[timestamp without time zone]</text>
<polygon fill="none" stroke="#000000" points="46.5,-45.5 46.5,-75.5 435.5,-75.5 435.5,-45.5 46.5,-45.5"/>
<text text-anchor="start" x="53.5" y="-56.9" font-family="Arial" font-size="14.00" fill="#000000">modified_at </text>
<text text-anchor="start" x="129.7412" y="-56.9" font-family="Arial" font-size="14.00" fill="#666666">[timestamp without time zone]</text>
<polygon fill="none" stroke="#000000" stroke-width="3" points="44.5,-44.5 44.5,-382.5 436.5,-382.5 436.5,-44.5 44.5,-44.5"/>
</g>
<!-- codes.type_of_decision_maker&#45;&gt;codes.type_of_decision_maker -->
<g id="edge1" class="edge">
<title>codes.type_of_decision_maker:parent_id&#45;&gt;codes.type_of_decision_maker:id</title>
<path fill="none" stroke="#000000" d="M242.9243,-176.1549C250.4719,-330.3954 249.9971,-640 241.5,-640 232.8076,-640 232.5105,-288.0201 240.6087,-135.8774"/>
<polygon fill="#000000" stroke="#000000" points="242.9042,-175.7615 246.8854,-165.5438 242.6477,-170.7681 242.3913,-165.7746 242.3913,-165.7746 242.3913,-165.7746 242.6477,-170.7681 237.8972,-166.0054 242.9042,-175.7615 242.9042,-175.7615"/>
<text text-anchor="start" x="249.5918" y="-175.7746" font-family="Arial" font-size="10.00" fill="#000000">FOREIGN KEY (parent_id) REFERENCES codes.type_of_decision_maker(id)</text>
</g>
</g>
</svg>
