<?xml version="1.0" encoding="UTF-8" standalone="no"?>
<!DOCTYPE svg PUBLIC "-//W3C//DTD SVG 1.1//EN"
 "http://www.w3.org/Graphics/SVG/1.1/DTD/svg11.dtd">
<!-- Generated by graphviz version 2.40.1 (20161225.0304)
 -->
<!-- Title: codes.type_of_document Pages: 1 -->
<svg width="886pt" height="952pt"
 viewBox="0.00 0.00 886.16 952.00" xmlns="http://www.w3.org/2000/svg" xmlns:xlink="http://www.w3.org/1999/xlink">
<g id="graph0" class="graph" transform="scale(1 1) rotate(0) translate(4 948)">
<title>codes.type_of_document</title>
<polygon fill="#ffffff" stroke="transparent" points="-4,4 -4,-948 882.1579,-948 882.1579,4 -4,4"/>
<!-- codes.type_of_document -->
<g id="node1" class="node">
<title>codes.type_of_document</title>
<polygon fill="#efefef" stroke="transparent" points="161.1579,-345.5 161.1579,-380.5 503.1579,-380.5 503.1579,-345.5 161.1579,-345.5"/>
<polygon fill="none" stroke="#000000" points="161.1579,-345.5 161.1579,-380.5 503.1579,-380.5 503.1579,-345.5 161.1579,-345.5"/>
<text text-anchor="start" x="167.8331" y="-358.3" font-family="Arial Bold" font-size="18.00" fill="#000000">codes.type_of_document</text>
<text text-anchor="start" x="368.9147" y="-358.3" font-family="Arial" font-size="14.00" fill="#000000">    </text>
<text text-anchor="start" x="403.1195" y="-358.3" font-family="Arial" font-size="14.00" fill="#666666">[BASE TABLE]</text>
<polygon fill="none" stroke="#000000" points="161.1579,-315.5 161.1579,-345.5 503.1579,-345.5 503.1579,-315.5 161.1579,-315.5"/>
<text text-anchor="start" x="168.1579" y="-326.9" font-family="Arial" font-size="14.00" fill="#000000">value </text>
<text text-anchor="start" x="205.5029" y="-326.9" font-family="Arial" font-size="14.00" fill="#666666">[varchar]</text>
<polygon fill="none" stroke="#000000" points="161.1579,-285.5 161.1579,-315.5 503.1579,-315.5 503.1579,-285.5 161.1579,-285.5"/>
<text text-anchor="start" x="168.1579" y="-296.9" font-family="Arial" font-size="14.00" fill="#000000">short_name </text>
<text text-anchor="start" x="245.9559" y="-296.9" font-family="Arial" font-size="14.00" fill="#666666">[varchar]</text>
<polygon fill="none" stroke="#000000" points="161.1579,-255.5 161.1579,-285.5 503.1579,-285.5 503.1579,-255.5 161.1579,-255.5"/>
<text text-anchor="start" x="168.1579" y="-266.9" font-family="Arial" font-size="14.00" fill="#000000">name </text>
<text text-anchor="start" x="207.0569" y="-266.9" font-family="Arial" font-size="14.00" fill="#666666">[jsonb]</text>
<polygon fill="none" stroke="#000000" points="161.1579,-225.5 161.1579,-255.5 503.1579,-255.5 503.1579,-225.5 161.1579,-225.5"/>
<text text-anchor="start" x="168.1579" y="-236.9" font-family="Arial" font-size="14.00" fill="#000000">description </text>
<text text-anchor="start" x="239.7259" y="-236.9" font-family="Arial" font-size="14.00" fill="#666666">[jsonb]</text>
<polygon fill="none" stroke="#000000" points="161.1579,-195.5 161.1579,-225.5 503.1579,-225.5 503.1579,-195.5 161.1579,-195.5"/>
<text text-anchor="start" x="168.1579" y="-206.9" font-family="Arial" font-size="14.00" fill="#000000">status </text>
<text text-anchor="start" x="209.3949" y="-206.9" font-family="Arial" font-size="14.00" fill="#666666">[varchar]</text>
<polygon fill="none" stroke="#000000" points="161.1579,-165.5 161.1579,-195.5 503.1579,-195.5 503.1579,-165.5 161.1579,-165.5"/>
<text text-anchor="start" x="168.1579" y="-176.9" font-family="Arial" font-size="14.00" fill="#000000">level </text>
<text text-anchor="start" x="200.8269" y="-176.9" font-family="Arial" font-size="14.00" fill="#666666">[integer]</text>
<polygon fill="none" stroke="#000000" points="161.1579,-135.5 161.1579,-165.5 503.1579,-165.5 503.1579,-135.5 161.1579,-135.5"/>
<text text-anchor="start" x="168.1579" y="-146.9" font-family="Arial" font-size="14.00" fill="#000000">parent_id </text>
<text text-anchor="start" x="230.4019" y="-146.9" font-family="Arial" font-size="14.00" fill="#666666">[uuid]</text>
<polygon fill="none" stroke="#000000" points="161.1579,-105.5 161.1579,-135.5 503.1579,-135.5 503.1579,-105.5 161.1579,-105.5"/>
<text text-anchor="start" x="168.1579" y="-116.9" font-family="Arial" font-size="14.00" fill="#000000">id </text>
<text text-anchor="start" x="182.9377" y="-116.9" font-family="Arial" font-size="14.00" fill="#666666">[uuid]</text>
<polygon fill="none" stroke="#000000" points="161.1579,-75.5 161.1579,-105.5 503.1579,-105.5 503.1579,-75.5 161.1579,-75.5"/>
<text text-anchor="start" x="168.1579" y="-86.9" font-family="Arial" font-size="14.00" fill="#000000">created_at </text>
<text text-anchor="start" x="238.1859" y="-86.9" font-family="Arial" font-size="14.00" fill="#666666">[timestamp without time zone]</text>
<polygon fill="none" stroke="#000000" points="161.1579,-45.5 161.1579,-75.5 503.1579,-75.5 503.1579,-45.5 161.1579,-45.5"/>
<text text-anchor="start" x="168.1579" y="-56.9" font-family="Arial" font-size="14.00" fill="#000000">modified_at </text>
<text text-anchor="start" x="244.3991" y="-56.9" font-family="Arial" font-size="14.00" fill="#666666">[timestamp without time zone]</text>
<polygon fill="none" stroke="#000000" stroke-width="3" points="159.6579,-44.5 159.6579,-382.5 504.6579,-382.5 504.6579,-44.5 159.6579,-44.5"/>
</g>
<!-- codes.type_of_document&#45;&gt;codes.type_of_document -->
<g id="edge1" class="edge">
<title>codes.type_of_document:parent_id&#45;&gt;codes.type_of_document:id</title>
<path fill="none" stroke="#000000" d="M333.4907,-176.0489C341.1335,-340.7292 340.6893,-672 332.1579,-672 323.4392,-672 323.1667,-297.8607 331.3405,-135.5287"/>
<polygon fill="#000000" stroke="#000000" points="333.4844,-175.917 337.4947,-165.7108 333.2422,-170.9229 333,-165.9288 333,-165.9288 333,-165.9288 333.2422,-170.9229 328.5053,-166.1468 333.4844,-175.917 333.4844,-175.917"/>
<text text-anchor="start" x="7.2535" y="-175.9288" font-family="Arial" font-size="10.00" fill="#000000">FOREIGN KEY (parent_id) REFERENCES codes.type_of_document(id)</text>
</g>
<!-- hame.document -->
<g id="node2" class="node">
<title>hame.document</title>
<polygon fill="#efefef" stroke="transparent" points="172.1579,-865.5 172.1579,-900.5 491.1579,-900.5 491.1579,-865.5 172.1579,-865.5"/>
<polygon fill="none" stroke="#000000" points="172.1579,-865.5 172.1579,-900.5 491.1579,-900.5 491.1579,-865.5 172.1579,-865.5"/>
<text text-anchor="start" x="203.3547" y="-878.3" font-family="Arial Bold" font-size="18.00" fill="#000000">hame.document</text>
<text text-anchor="start" x="332.3931" y="-878.3" font-family="Arial" font-size="14.00" fill="#000000">    </text>
<text text-anchor="start" x="366.5979" y="-878.3" font-family="Arial" font-size="14.00" fill="#666666">[BASE TABLE]</text>
<polygon fill="none" stroke="#000000" points="172.1579,-835.5 172.1579,-865.5 491.1579,-865.5 491.1579,-835.5 172.1579,-835.5"/>
<text text-anchor="start" x="179.1579" y="-846.9" font-family="Arial" font-size="14.00" fill="#000000">type_of_document_id    </text>
<text text-anchor="start" x="347.1929" y="-846.9" font-family="Arial" font-size="14.00" fill="#666666">[uuid]</text>
<polygon fill="none" stroke="#000000" points="172.1579,-805.5 172.1579,-835.5 491.1579,-835.5 491.1579,-805.5 172.1579,-805.5"/>
<text text-anchor="start" x="179.1579" y="-816.9" font-family="Arial" font-size="14.00" fill="#000000">name    </text>
<text text-anchor="start" x="248.3711" y="-816.9" font-family="Arial" font-size="14.00" fill="#666666">[varchar]</text>
<polygon fill="none" stroke="#000000" points="172.1579,-775.5 172.1579,-805.5 491.1579,-805.5 491.1579,-775.5 172.1579,-775.5"/>
<text text-anchor="start" x="179.1579" y="-786.9" font-family="Arial" font-size="14.00" fill="#000000">personal_details    </text>
<text text-anchor="start" x="315.2771" y="-786.9" font-family="Arial" font-size="14.00" fill="#666666">[varchar]</text>
<polygon fill="none" stroke="#000000" points="172.1579,-745.5 172.1579,-775.5 491.1579,-775.5 491.1579,-745.5 172.1579,-745.5"/>
<text text-anchor="start" x="179.1579" y="-756.9" font-family="Arial" font-size="14.00" fill="#000000">publicity    </text>
<text text-anchor="start" x="263.9209" y="-756.9" font-family="Arial" font-size="14.00" fill="#666666">[varchar(11)]</text>
<polygon fill="none" stroke="#000000" points="172.1579,-715.5 172.1579,-745.5 491.1579,-745.5 491.1579,-715.5 172.1579,-715.5"/>
<text text-anchor="start" x="179.1579" y="-726.9" font-family="Arial" font-size="14.00" fill="#000000">language    </text>
<text text-anchor="start" x="270.9475" y="-726.9" font-family="Arial" font-size="14.00" fill="#666666">[varchar]</text>
<polygon fill="none" stroke="#000000" points="172.1579,-685.5 172.1579,-715.5 491.1579,-715.5 491.1579,-685.5 172.1579,-685.5"/>
<text text-anchor="start" x="179.1579" y="-696.9" font-family="Arial" font-size="14.00" fill="#000000">decision    </text>
<text text-anchor="start" x="264.7063" y="-696.9" font-family="Arial" font-size="14.00" fill="#666666">[boolean]</text>
<polygon fill="none" stroke="#000000" points="172.1579,-655.5 172.1579,-685.5 491.1579,-685.5 491.1579,-655.5 172.1579,-655.5"/>
<text text-anchor="start" x="178.8031" y="-666.9" font-family="Arial" font-size="14.00" fill="#000000">decision_date    </text>
<text text-anchor="start" x="299.3725" y="-666.9" font-family="Arial" font-size="14.00" fill="#666666">[timestamp without time zone]</text>
<polygon fill="none" stroke="#000000" points="172.1579,-625.5 172.1579,-655.5 491.1579,-655.5 491.1579,-625.5 172.1579,-625.5"/>
<text text-anchor="start" x="179.1579" y="-636.9" font-family="Arial" font-size="14.00" fill="#000000">id    </text>
<text text-anchor="start" x="224.2519" y="-636.9" font-family="Arial" font-size="14.00" fill="#666666">[uuid]</text>
<polygon fill="none" stroke="#000000" points="172.1579,-595.5 172.1579,-625.5 491.1579,-625.5 491.1579,-595.5 172.1579,-595.5"/>
<text text-anchor="start" x="179.1579" y="-606.9" font-family="Arial" font-size="14.00" fill="#000000">created_at    </text>
<text text-anchor="start" x="279.5001" y="-606.9" font-family="Arial" font-size="14.00" fill="#666666">[timestamp without time zone]</text>
<polygon fill="none" stroke="#000000" points="172.1579,-565.5 172.1579,-595.5 491.1579,-595.5 491.1579,-565.5 172.1579,-565.5"/>
<text text-anchor="start" x="179.1579" y="-576.9" font-family="Arial" font-size="14.00" fill="#000000">modified_at    </text>
<text text-anchor="start" x="285.7133" y="-576.9" font-family="Arial" font-size="14.00" fill="#666666">[timestamp without time zone]</text>
<polygon fill="none" stroke="#000000" points="172.1579,-535.5 172.1579,-565.5 491.1579,-565.5 491.1579,-535.5 172.1579,-535.5"/>
<text text-anchor="start" x="179.1579" y="-546.9" font-family="Arial" font-size="14.00" fill="#000000">plan_id    </text>
<text text-anchor="start" x="258.4889" y="-546.9" font-family="Arial" font-size="14.00" fill="#666666">[uuid]</text>
<polygon fill="none" stroke="#000000" points="172.1579,-505.5 172.1579,-535.5 491.1579,-535.5 491.1579,-505.5 172.1579,-505.5"/>
<text text-anchor="start" x="179.1579" y="-516.9" font-family="Arial" font-size="14.00" fill="#000000">permanent_document_identifier    </text>
<text text-anchor="start" x="410.1915" y="-516.9" font-family="Arial" font-size="14.00" fill="#666666">[uuid]</text>
</g>
<!-- hame.document&#45;&gt;codes.type_of_document -->
<g id="edge2" class="edge">
<title>hame.document:type_of_document_id&#45;&gt;codes.type_of_document:id</title>
<path fill="none" stroke="#000000" d="M501.1805,-848.9081C574.8729,-824.4078 546.2932,-524.4771 491.1579,-463 441.9054,-408.0822 210.4105,-481.9178 161.1579,-427 115.6825,-376.2939 93.0468,-120.5 161.1579,-120.5"/>
<polygon fill="#000000" stroke="#000000" points="501.0341,-848.9313 490.452,-846.0557 496.096,-849.7156 491.1579,-850.5 491.1579,-850.5 491.1579,-850.5 496.096,-849.7156 491.8639,-854.9443 501.0341,-848.9313 501.0341,-848.9313"/>
<text text-anchor="start" x="498.4554" y="-860.5" font-family="Arial" font-size="10.00" fill="#000000">FOREIGN KEY (type_of_document_id) REFERENCES codes.type_of_document(id)</text>
</g>
</g>
</svg>
