<?xml version="1.0" encoding="UTF-8" standalone="no"?>
<!DOCTYPE svg PUBLIC "-//W3C//DTD SVG 1.1//EN"
 "http://www.w3.org/Graphics/SVG/1.1/DTD/svg11.dtd">
<!-- Generated by graphviz version 2.40.1 (20161225.0304)
 -->
<!-- Title: codes.category_of_publicity Pages: 1 -->
<svg width="924pt" height="982pt"
 viewBox="0.00 0.00 923.82 982.00" xmlns="http://www.w3.org/2000/svg" xmlns:xlink="http://www.w3.org/1999/xlink">
<g id="graph0" class="graph" transform="scale(1 1) rotate(0) translate(4 978)">
<title>codes.category_of_publicity</title>
<polygon fill="#ffffff" stroke="transparent" points="-4,4 -4,-978 919.8174,-978 919.8174,4 -4,4"/>
<!-- codes.category_of_publicity -->
<g id="node1" class="node">
<title>codes.category_of_publicity</title>
<polygon fill="#efefef" stroke="transparent" points="388,-345.5 388,-380.5 751,-380.5 751,-345.5 388,-345.5"/>
<polygon fill="none" stroke="#000000" points="388,-345.5 388,-380.5 751,-380.5 751,-345.5 388,-345.5"/>
<text text-anchor="start" x="394.6839" y="-358.3" font-family="Arial Bold" font-size="18.00" fill="#000000">codes.category_of_publicity</text>
<text text-anchor="start" x="616.7481" y="-358.3" font-family="Arial" font-size="14.00" fill="#000000">    </text>
<text text-anchor="start" x="650.9529" y="-358.3" font-family="Arial" font-size="14.00" fill="#666666">[BASE TABLE]</text>
<polygon fill="none" stroke="#000000" points="388,-315.5 388,-345.5 751,-345.5 751,-315.5 388,-315.5"/>
<text text-anchor="start" x="395" y="-326.9" font-family="Arial" font-size="14.00" fill="#000000">value </text>
<text text-anchor="start" x="432.345" y="-326.9" font-family="Arial" font-size="14.00" fill="#666666">[varchar]</text>
<polygon fill="none" stroke="#000000" points="388,-285.5 388,-315.5 751,-315.5 751,-285.5 388,-285.5"/>
<text text-anchor="start" x="395" y="-296.9" font-family="Arial" font-size="14.00" fill="#000000">short_name </text>
<text text-anchor="start" x="472.798" y="-296.9" font-family="Arial" font-size="14.00" fill="#666666">[varchar]</text>
<polygon fill="none" stroke="#000000" points="388,-255.5 388,-285.5 751,-285.5 751,-255.5 388,-255.5"/>
<text text-anchor="start" x="395" y="-266.9" font-family="Arial" font-size="14.00" fill="#000000">name </text>
<text text-anchor="start" x="433.899" y="-266.9" font-family="Arial" font-size="14.00" fill="#666666">[jsonb]</text>
<polygon fill="none" stroke="#000000" points="388,-225.5 388,-255.5 751,-255.5 751,-225.5 388,-225.5"/>
<text text-anchor="start" x="395" y="-236.9" font-family="Arial" font-size="14.00" fill="#000000">description </text>
<text text-anchor="start" x="466.568" y="-236.9" font-family="Arial" font-size="14.00" fill="#666666">[jsonb]</text>
<polygon fill="none" stroke="#000000" points="388,-195.5 388,-225.5 751,-225.5 751,-195.5 388,-195.5"/>
<text text-anchor="start" x="395" y="-206.9" font-family="Arial" font-size="14.00" fill="#000000">status </text>
<text text-anchor="start" x="436.237" y="-206.9" font-family="Arial" font-size="14.00" fill="#666666">[varchar]</text>
<polygon fill="none" stroke="#000000" points="388,-165.5 388,-195.5 751,-195.5 751,-165.5 388,-165.5"/>
<text text-anchor="start" x="395" y="-176.9" font-family="Arial" font-size="14.00" fill="#000000">level </text>
<text text-anchor="start" x="427.669" y="-176.9" font-family="Arial" font-size="14.00" fill="#666666">[integer]</text>
<polygon fill="none" stroke="#000000" points="388,-135.5 388,-165.5 751,-165.5 751,-135.5 388,-135.5"/>
<text text-anchor="start" x="395" y="-146.9" font-family="Arial" font-size="14.00" fill="#000000">parent_id </text>
<text text-anchor="start" x="457.244" y="-146.9" font-family="Arial" font-size="14.00" fill="#666666">[uuid]</text>
<polygon fill="none" stroke="#000000" points="388,-105.5 388,-135.5 751,-135.5 751,-105.5 388,-105.5"/>
<text text-anchor="start" x="395" y="-116.9" font-family="Arial" font-size="14.00" fill="#000000">id </text>
<text text-anchor="start" x="409.7798" y="-116.9" font-family="Arial" font-size="14.00" fill="#666666">[uuid]</text>
<polygon fill="none" stroke="#000000" points="388,-75.5 388,-105.5 751,-105.5 751,-75.5 388,-75.5"/>
<text text-anchor="start" x="395" y="-86.9" font-family="Arial" font-size="14.00" fill="#000000">created_at </text>
<text text-anchor="start" x="465.028" y="-86.9" font-family="Arial" font-size="14.00" fill="#666666">[timestamp without time zone]</text>
<polygon fill="none" stroke="#000000" points="388,-45.5 388,-75.5 751,-75.5 751,-45.5 388,-45.5"/>
<text text-anchor="start" x="395" y="-56.9" font-family="Arial" font-size="14.00" fill="#000000">modified_at </text>
<text text-anchor="start" x="471.2412" y="-56.9" font-family="Arial" font-size="14.00" fill="#666666">[timestamp without time zone]</text>
<polygon fill="none" stroke="#000000" stroke-width="3" points="386,-44.5 386,-382.5 752,-382.5 752,-44.5 386,-44.5"/>
</g>
<!-- codes.category_of_publicity&#45;&gt;codes.category_of_publicity -->
<g id="edge1" class="edge">
<title>codes.category_of_publicity:parent_id&#45;&gt;codes.category_of_publicity:id</title>
<path fill="none" stroke="#000000" d="M571.3096,-175.9261C578.9765,-342.8585 578.5399,-679 570,-679 561.2813,-679 561.0088,-300.4811 569.1826,-135.754"/>
<polygon fill="#000000" stroke="#000000" points="571.2968,-175.6565 575.3122,-165.4523 571.0571,-170.6622 570.8174,-165.668 570.8174,-165.668 570.8174,-165.668 571.0571,-170.6622 566.3226,-165.8837 571.2968,-175.6565 571.2968,-175.6565"/>
<text text-anchor="start" x="578.2424" y="-175.668" font-family="Arial" font-size="10.00" fill="#000000">FOREIGN KEY (parent_id) REFERENCES codes.category_of_publicity(id)</text>
</g>
<!-- arho.document -->
<g id="node2" class="node">
<title>arho.document</title>
<polygon fill="#efefef" stroke="transparent" points="410,-895.5 410,-930.5 729,-930.5 729,-895.5 410,-895.5"/>
<polygon fill="none" stroke="#000000" points="410,-895.5 410,-930.5 729,-930.5 729,-895.5 410,-895.5"/>
<text text-anchor="start" x="445.6968" y="-908.3" font-family="Arial Bold" font-size="18.00" fill="#000000">arho.document</text>
<text text-anchor="start" x="565.7352" y="-908.3" font-family="Arial" font-size="14.00" fill="#000000">    </text>
<text text-anchor="start" x="599.94" y="-908.3" font-family="Arial" font-size="14.00" fill="#666666">[BASE TABLE]</text>
<polygon fill="none" stroke="#000000" points="410,-865.5 410,-895.5 729,-895.5 729,-865.5 410,-865.5"/>
<text text-anchor="start" x="417" y="-876.9" font-family="Arial" font-size="14.00" fill="#000000">type_of_document_id    </text>
<text text-anchor="start" x="585.035" y="-876.9" font-family="Arial" font-size="14.00" fill="#666666">[uuid]</text>
<polygon fill="none" stroke="#000000" points="410,-835.5 410,-865.5 729,-865.5 729,-835.5 410,-835.5"/>
<text text-anchor="start" x="417" y="-846.9" font-family="Arial" font-size="14.00" fill="#000000">plan_id    </text>
<text text-anchor="start" x="496.331" y="-846.9" font-family="Arial" font-size="14.00" fill="#666666">[uuid]</text>
<polygon fill="none" stroke="#000000" points="410,-805.5 410,-835.5 729,-835.5 729,-805.5 410,-805.5"/>
<text text-anchor="start" x="417" y="-816.9" font-family="Arial" font-size="14.00" fill="#000000">category_of_publicity_id    </text>
<text text-anchor="start" x="601.3548" y="-816.9" font-family="Arial" font-size="14.00" fill="#666666">[uuid]</text>
<polygon fill="none" stroke="#000000" points="410,-775.5 410,-805.5 729,-805.5 729,-775.5 410,-775.5"/>
<text text-anchor="start" x="417" y="-786.9" font-family="Arial" font-size="14.00" fill="#000000">permanent_document_identifier    </text>
<text text-anchor="start" x="648.0336" y="-786.9" font-family="Arial" font-size="14.00" fill="#666666">[uuid]</text>
<polygon fill="none" stroke="#000000" points="410,-745.5 410,-775.5 729,-775.5 729,-745.5 410,-745.5"/>
<text text-anchor="start" x="417" y="-756.9" font-family="Arial" font-size="14.00" fill="#000000">name    </text>
<text text-anchor="start" x="486.2132" y="-756.9" font-family="Arial" font-size="14.00" fill="#666666">[varchar]</text>
<polygon fill="none" stroke="#000000" points="410,-715.5 410,-745.5 729,-745.5 729,-715.5 410,-715.5"/>
<text text-anchor="start" x="417" y="-726.9" font-family="Arial" font-size="14.00" fill="#000000">personal_details    </text>
<text text-anchor="start" x="553.1192" y="-726.9" font-family="Arial" font-size="14.00" fill="#666666">[varchar]</text>
<polygon fill="none" stroke="#000000" points="410,-685.5 410,-715.5 729,-715.5 729,-685.5 410,-685.5"/>
<text text-anchor="start" x="417" y="-696.9" font-family="Arial" font-size="14.00" fill="#000000">language    </text>
<text text-anchor="start" x="508.7896" y="-696.9" font-family="Arial" font-size="14.00" fill="#666666">[varchar]</text>
<polygon fill="none" stroke="#000000" points="410,-655.5 410,-685.5 729,-685.5 729,-655.5 410,-655.5"/>
<text text-anchor="start" x="417" y="-666.9" font-family="Arial" font-size="14.00" fill="#000000">decision    </text>
<text text-anchor="start" x="502.5484" y="-666.9" font-family="Arial" font-size="14.00" fill="#666666">[boolean]</text>
<polygon fill="none" stroke="#000000" points="410,-625.5 410,-655.5 729,-655.5 729,-625.5 410,-625.5"/>
<text text-anchor="start" x="416.6452" y="-636.9" font-family="Arial" font-size="14.00" fill="#000000">decision_date    </text>
<text text-anchor="start" x="537.2146" y="-636.9" font-family="Arial" font-size="14.00" fill="#666666">[timestamp without time zone]</text>
<polygon fill="none" stroke="#000000" points="410,-595.5 410,-625.5 729,-625.5 729,-595.5 410,-595.5"/>
<text text-anchor="start" x="417" y="-606.9" font-family="Arial" font-size="14.00" fill="#000000">url    </text>
<text text-anchor="start" x="466.7546" y="-606.9" font-family="Arial" font-size="14.00" fill="#666666">[varchar]</text>
<polygon fill="none" stroke="#000000" points="410,-565.5 410,-595.5 729,-595.5 729,-565.5 410,-565.5"/>
<text text-anchor="start" x="417" y="-576.9" font-family="Arial" font-size="14.00" fill="#000000">id    </text>
<text text-anchor="start" x="462.094" y="-576.9" font-family="Arial" font-size="14.00" fill="#666666">[uuid]</text>
<polygon fill="none" stroke="#000000" points="410,-535.5 410,-565.5 729,-565.5 729,-535.5 410,-535.5"/>
<text text-anchor="start" x="417" y="-546.9" font-family="Arial" font-size="14.00" fill="#000000">created_at    </text>
<text text-anchor="start" x="517.3422" y="-546.9" font-family="Arial" font-size="14.00" fill="#666666">[timestamp without time zone]</text>
<polygon fill="none" stroke="#000000" points="410,-505.5 410,-535.5 729,-535.5 729,-505.5 410,-505.5"/>
<text text-anchor="start" x="417" y="-516.9" font-family="Arial" font-size="14.00" fill="#000000">modified_at    </text>
<text text-anchor="start" x="523.5554" y="-516.9" font-family="Arial" font-size="14.00" fill="#666666">[timestamp without time zone]</text>
</g>
<!-- arho.document&#45;&gt;codes.category_of_publicity -->
<g id="edge2" class="edge">
<title>arho.document:category_of_publicity_id&#45;&gt;codes.category_of_publicity:id</title>
<path fill="none" stroke="#000000" d="M400.2817,-816.7338C330.4775,-761.6362 313.5275,-120.5 388,-120.5"/>
<polygon fill="#000000" stroke="#000000" points="400.6757,-816.8864 408.3739,-824.6959 405.3378,-818.6932 410,-820.5 410,-820.5 410,-820.5 405.3378,-818.6932 411.6261,-816.3041 400.6757,-816.8864 400.6757,-816.8864"/>
<text text-anchor="start" x="6.6405" y="-830.5" font-family="Arial" font-size="10.00" fill="#000000">FOREIGN KEY (category_of_publicity_id) REFERENCES codes.category_of_publicity(id)</text>
</g>
</g>
</svg>
