<?xml version="1.0" encoding="UTF-8" standalone="no"?>
<!DOCTYPE svg PUBLIC "-//W3C//DTD SVG 1.1//EN"
 "http://www.w3.org/Graphics/SVG/1.1/DTD/svg11.dtd">
<!-- Generated by graphviz version 2.40.1 (20161225.0304)
 -->
<!-- Title: codes.type_of_processing_event Pages: 1 -->
<svg width="622pt" height="648pt"
 viewBox="0.00 0.00 622.11 648.00" xmlns="http://www.w3.org/2000/svg" xmlns:xlink="http://www.w3.org/1999/xlink">
<g id="graph0" class="graph" transform="scale(1 1) rotate(0) translate(4 644)">
<title>codes.type_of_processing_event</title>
<polygon fill="#ffffff" stroke="transparent" points="-4,4 -4,-644 618.1087,-644 618.1087,4 -4,4"/>
<!-- codes.type_of_processing_event -->
<g id="node1" class="node">
<title>codes.type_of_processing_event</title>
<polygon fill="#efefef" stroke="transparent" points="164.1087,-345.5 164.1087,-380.5 568.1087,-380.5 568.1087,-345.5 164.1087,-345.5"/>
<polygon fill="none" stroke="#000000" points="164.1087,-345.5 164.1087,-380.5 568.1087,-380.5 568.1087,-345.5 164.1087,-345.5"/>
<text text-anchor="start" x="170.7744" y="-358.3" font-family="Arial Bold" font-size="18.00" fill="#000000">codes.type_of_processing_event</text>
<text text-anchor="start" x="433.875" y="-358.3" font-family="Arial" font-size="14.00" fill="#000000">    </text>
<text text-anchor="start" x="468.0798" y="-358.3" font-family="Arial" font-size="14.00" fill="#666666">[BASE TABLE]</text>
<polygon fill="none" stroke="#000000" points="164.1087,-315.5 164.1087,-345.5 568.1087,-345.5 568.1087,-315.5 164.1087,-315.5"/>
<text text-anchor="start" x="171.1087" y="-326.9" font-family="Arial" font-size="14.00" fill="#000000">value </text>
<text text-anchor="start" x="208.4537" y="-326.9" font-family="Arial" font-size="14.00" fill="#666666">[varchar]</text>
<polygon fill="none" stroke="#000000" points="164.1087,-285.5 164.1087,-315.5 568.1087,-315.5 568.1087,-285.5 164.1087,-285.5"/>
<text text-anchor="start" x="171.1087" y="-296.9" font-family="Arial" font-size="14.00" fill="#000000">short_name </text>
<text text-anchor="start" x="248.9067" y="-296.9" font-family="Arial" font-size="14.00" fill="#666666">[varchar]</text>
<polygon fill="none" stroke="#000000" points="164.1087,-255.5 164.1087,-285.5 568.1087,-285.5 568.1087,-255.5 164.1087,-255.5"/>
<text text-anchor="start" x="171.1087" y="-266.9" font-family="Arial" font-size="14.00" fill="#000000">name </text>
<text text-anchor="start" x="210.0077" y="-266.9" font-family="Arial" font-size="14.00" fill="#666666">[jsonb]</text>
<polygon fill="none" stroke="#000000" points="164.1087,-225.5 164.1087,-255.5 568.1087,-255.5 568.1087,-225.5 164.1087,-225.5"/>
<text text-anchor="start" x="171.1087" y="-236.9" font-family="Arial" font-size="14.00" fill="#000000">description </text>
<text text-anchor="start" x="242.6767" y="-236.9" font-family="Arial" font-size="14.00" fill="#666666">[jsonb]</text>
<polygon fill="none" stroke="#000000" points="164.1087,-195.5 164.1087,-225.5 568.1087,-225.5 568.1087,-195.5 164.1087,-195.5"/>
<text text-anchor="start" x="171.1087" y="-206.9" font-family="Arial" font-size="14.00" fill="#000000">status </text>
<text text-anchor="start" x="212.3457" y="-206.9" font-family="Arial" font-size="14.00" fill="#666666">[varchar]</text>
<polygon fill="none" stroke="#000000" points="164.1087,-165.5 164.1087,-195.5 568.1087,-195.5 568.1087,-165.5 164.1087,-165.5"/>
<text text-anchor="start" x="171.1087" y="-176.9" font-family="Arial" font-size="14.00" fill="#000000">level </text>
<text text-anchor="start" x="203.7777" y="-176.9" font-family="Arial" font-size="14.00" fill="#666666">[integer]</text>
<polygon fill="none" stroke="#000000" points="164.1087,-135.5 164.1087,-165.5 568.1087,-165.5 568.1087,-135.5 164.1087,-135.5"/>
<text text-anchor="start" x="171.1087" y="-146.9" font-family="Arial" font-size="14.00" fill="#000000">parent_id </text>
<text text-anchor="start" x="233.3527" y="-146.9" font-family="Arial" font-size="14.00" fill="#666666">[uuid]</text>
<polygon fill="none" stroke="#000000" points="164.1087,-105.5 164.1087,-135.5 568.1087,-135.5 568.1087,-105.5 164.1087,-105.5"/>
<text text-anchor="start" x="171.1087" y="-116.9" font-family="Arial" font-size="14.00" fill="#000000">id </text>
<text text-anchor="start" x="185.8885" y="-116.9" font-family="Arial" font-size="14.00" fill="#666666">[uuid]</text>
<polygon fill="none" stroke="#000000" points="164.1087,-75.5 164.1087,-105.5 568.1087,-105.5 568.1087,-75.5 164.1087,-75.5"/>
<text text-anchor="start" x="171.1087" y="-86.9" font-family="Arial" font-size="14.00" fill="#000000">created_at </text>
<text text-anchor="start" x="241.1367" y="-86.9" font-family="Arial" font-size="14.00" fill="#666666">[timestamp without time zone]</text>
<polygon fill="none" stroke="#000000" points="164.1087,-45.5 164.1087,-75.5 568.1087,-75.5 568.1087,-45.5 164.1087,-45.5"/>
<text text-anchor="start" x="171.1087" y="-56.9" font-family="Arial" font-size="14.00" fill="#000000">modified_at </text>
<text text-anchor="start" x="247.3499" y="-56.9" font-family="Arial" font-size="14.00" fill="#666666">[timestamp without time zone]</text>
<polygon fill="none" stroke="#000000" stroke-width="3" points="162.6087,-44.5 162.6087,-382.5 569.6087,-382.5 569.6087,-44.5 162.6087,-44.5"/>
</g>
<!-- codes.type_of_processing_event&#45;&gt;codes.type_of_processing_event -->
<g id="edge1" class="edge">
<title>codes.type_of_processing_event:parent_id&#45;&gt;codes.type_of_processing_event:id</title>
<path fill="none" stroke="#000000" d="M367.533,-176.1549C375.0806,-330.3954 374.6058,-640 366.1087,-640 357.4163,-640 357.1192,-288.0201 365.2174,-135.8774"/>
<polygon fill="#000000" stroke="#000000" points="367.5129,-175.7615 371.4941,-165.5438 367.2564,-170.7681 367,-165.7746 367,-165.7746 367,-165.7746 367.2564,-170.7681 362.5059,-166.0054 367.5129,-175.7615 367.5129,-175.7615"/>
<text text-anchor="start" x="7.026" y="-175.7746" font-family="Arial" font-size="10.00" fill="#000000">FOREIGN KEY (parent_id) REFERENCES codes.type_of_processing_event(id)</text>
</g>
</g>
</svg>
