<?xml version="1.0" encoding="UTF-8" standalone="no"?>
<!DOCTYPE svg PUBLIC "-//W3C//DTD SVG 1.1//EN"
 "http://www.w3.org/Graphics/SVG/1.1/DTD/svg11.dtd">
<!-- Generated by graphviz version 2.40.1 (20161225.0304)
 -->
<!-- Title: codes.plan_theme Pages: 1 -->
<svg width="862pt" height="1282pt"
 viewBox="0.00 0.00 862.00 1282.00" xmlns="http://www.w3.org/2000/svg" xmlns:xlink="http://www.w3.org/1999/xlink">
<g id="graph0" class="graph" transform="scale(1 1) rotate(0) translate(4 1278)">
<title>codes.plan_theme</title>
<polygon fill="#ffffff" stroke="transparent" points="-4,4 -4,-1278 858,-1278 858,4 -4,4"/>
<!-- codes.plan_theme -->
<g id="node1" class="node">
<title>codes.plan_theme</title>
<polygon fill="#efefef" stroke="transparent" points="288.5,-345.5 288.5,-380.5 576.5,-380.5 576.5,-345.5 288.5,-345.5"/>
<polygon fill="none" stroke="#000000" points="288.5,-345.5 288.5,-380.5 576.5,-380.5 576.5,-345.5 288.5,-345.5"/>
<text text-anchor="start" x="295.1896" y="-358.3" font-family="Arial Bold" font-size="18.00" fill="#000000">codes.plan_theme</text>
<text text-anchor="start" x="442.2424" y="-358.3" font-family="Arial" font-size="14.00" fill="#000000">    </text>
<text text-anchor="start" x="476.4472" y="-358.3" font-family="Arial" font-size="14.00" fill="#666666">[BASE TABLE]</text>
<polygon fill="none" stroke="#000000" points="288.5,-315.5 288.5,-345.5 576.5,-345.5 576.5,-315.5 288.5,-315.5"/>
<text text-anchor="start" x="295.5" y="-326.9" font-family="Arial" font-size="14.00" fill="#000000">value </text>
<text text-anchor="start" x="332.845" y="-326.9" font-family="Arial" font-size="14.00" fill="#666666">[varchar]</text>
<polygon fill="none" stroke="#000000" points="288.5,-285.5 288.5,-315.5 576.5,-315.5 576.5,-285.5 288.5,-285.5"/>
<text text-anchor="start" x="295.5" y="-296.9" font-family="Arial" font-size="14.00" fill="#000000">short_name </text>
<text text-anchor="start" x="373.298" y="-296.9" font-family="Arial" font-size="14.00" fill="#666666">[varchar]</text>
<polygon fill="none" stroke="#000000" points="288.5,-255.5 288.5,-285.5 576.5,-285.5 576.5,-255.5 288.5,-255.5"/>
<text text-anchor="start" x="295.5" y="-266.9" font-family="Arial" font-size="14.00" fill="#000000">name </text>
<text text-anchor="start" x="334.399" y="-266.9" font-family="Arial" font-size="14.00" fill="#666666">[jsonb]</text>
<polygon fill="none" stroke="#000000" points="288.5,-225.5 288.5,-255.5 576.5,-255.5 576.5,-225.5 288.5,-225.5"/>
<text text-anchor="start" x="295.5" y="-236.9" font-family="Arial" font-size="14.00" fill="#000000">description </text>
<text text-anchor="start" x="367.068" y="-236.9" font-family="Arial" font-size="14.00" fill="#666666">[jsonb]</text>
<polygon fill="none" stroke="#000000" points="288.5,-195.5 288.5,-225.5 576.5,-225.5 576.5,-195.5 288.5,-195.5"/>
<text text-anchor="start" x="295.5" y="-206.9" font-family="Arial" font-size="14.00" fill="#000000">status </text>
<text text-anchor="start" x="336.737" y="-206.9" font-family="Arial" font-size="14.00" fill="#666666">[varchar]</text>
<polygon fill="none" stroke="#000000" points="288.5,-165.5 288.5,-195.5 576.5,-195.5 576.5,-165.5 288.5,-165.5"/>
<text text-anchor="start" x="295.5" y="-176.9" font-family="Arial" font-size="14.00" fill="#000000">level </text>
<text text-anchor="start" x="328.169" y="-176.9" font-family="Arial" font-size="14.00" fill="#666666">[integer]</text>
<polygon fill="none" stroke="#000000" points="288.5,-135.5 288.5,-165.5 576.5,-165.5 576.5,-135.5 288.5,-135.5"/>
<text text-anchor="start" x="295.5" y="-146.9" font-family="Arial" font-size="14.00" fill="#000000">parent_id </text>
<text text-anchor="start" x="357.744" y="-146.9" font-family="Arial" font-size="14.00" fill="#666666">[uuid]</text>
<polygon fill="none" stroke="#000000" points="288.5,-105.5 288.5,-135.5 576.5,-135.5 576.5,-105.5 288.5,-105.5"/>
<text text-anchor="start" x="295.5" y="-116.9" font-family="Arial" font-size="14.00" fill="#000000">id </text>
<text text-anchor="start" x="310.2798" y="-116.9" font-family="Arial" font-size="14.00" fill="#666666">[uuid]</text>
<polygon fill="none" stroke="#000000" points="288.5,-75.5 288.5,-105.5 576.5,-105.5 576.5,-75.5 288.5,-75.5"/>
<text text-anchor="start" x="295.5" y="-86.9" font-family="Arial" font-size="14.00" fill="#000000">created_at </text>
<text text-anchor="start" x="365.528" y="-86.9" font-family="Arial" font-size="14.00" fill="#666666">[timestamp without time zone]</text>
<polygon fill="none" stroke="#000000" points="288.5,-45.5 288.5,-75.5 576.5,-75.5 576.5,-45.5 288.5,-45.5"/>
<text text-anchor="start" x="295.5" y="-56.9" font-family="Arial" font-size="14.00" fill="#000000">modified_at </text>
<text text-anchor="start" x="371.7412" y="-56.9" font-family="Arial" font-size="14.00" fill="#666666">[timestamp without time zone]</text>
<polygon fill="none" stroke="#000000" stroke-width="3" points="287,-44.5 287,-382.5 578,-382.5 578,-44.5 287,-44.5"/>
</g>
<!-- codes.plan_theme&#45;&gt;codes.plan_theme -->
<g id="edge1" class="edge">
<title>codes.plan_theme:parent_id&#45;&gt;codes.plan_theme:id</title>
<path fill="none" stroke="#000000" d="M433.6348,-175.6144C441.4826,-367.0693 441.1043,-754 432.5,-754 423.7417,-754 423.5065,-324.6887 431.7944,-135.5923"/>
<polygon fill="#000000" stroke="#000000" points="433.6308,-175.5196 437.7016,-165.3373 433.4182,-170.5241 433.2056,-165.5286 433.2056,-165.5286 433.2056,-165.5286 433.4182,-170.5241 428.7097,-165.7199 433.6308,-175.5196 433.6308,-175.5196"/>
<text text-anchor="start" x="137.4671" y="-175.5286" font-family="Arial" font-size="10.00" fill="#000000">FOREIGN KEY (parent_id) REFERENCES codes.plan_theme(id)</text>
</g>
<!-- hame.plan_regulation -->
<g id="node2" class="node">
<title>hame.plan_regulation</title>
<polygon fill="#efefef" stroke="transparent" points="43.5,-1195.5 43.5,-1230.5 384.5,-1230.5 384.5,-1195.5 43.5,-1195.5"/>
<polygon fill="none" stroke="#000000" points="43.5,-1195.5 43.5,-1230.5 384.5,-1230.5 384.5,-1195.5 43.5,-1195.5"/>
<text text-anchor="start" x="63.69" y="-1208.3" font-family="Arial Bold" font-size="18.00" fill="#000000">hame.plan_regulation</text>
<text text-anchor="start" x="236.742" y="-1208.3" font-family="Arial" font-size="14.00" fill="#000000">    </text>
<text text-anchor="start" x="270.9468" y="-1208.3" font-family="Arial" font-size="14.00" fill="#666666">[BASE TABLE]</text>
<polygon fill="none" stroke="#000000" points="43.5,-1165.5 43.5,-1195.5 384.5,-1195.5 384.5,-1165.5 43.5,-1165.5"/>
<text text-anchor="start" x="50.5" y="-1176.9" font-family="Arial" font-size="14.00" fill="#000000">plan_regulation_group_id    </text>
<text text-anchor="start" x="242.6472" y="-1176.9" font-family="Arial" font-size="14.00" fill="#666666">[uuid]</text>
<polygon fill="none" stroke="#000000" points="43.5,-1135.5 43.5,-1165.5 384.5,-1165.5 384.5,-1135.5 43.5,-1135.5"/>
<text text-anchor="start" x="50.5" y="-1146.9" font-family="Arial" font-size="14.00" fill="#000000">type_of_plan_regulation_id    </text>
<text text-anchor="start" x="252.7678" y="-1146.9" font-family="Arial" font-size="14.00" fill="#666666">[uuid]</text>
<polygon fill="none" stroke="#000000" points="43.5,-1105.5 43.5,-1135.5 384.5,-1135.5 384.5,-1105.5 43.5,-1105.5"/>
<text text-anchor="start" x="50.5" y="-1116.9" font-family="Arial" font-size="14.00" fill="#000000">type_of_verbal_plan_regulation_id    </text>
<text text-anchor="start" x="298.6654" y="-1116.9" font-family="Arial" font-size="14.00" fill="#666666">[uuid]</text>
<polygon fill="none" stroke="#000000" points="43.5,-1075.5 43.5,-1105.5 384.5,-1105.5 384.5,-1075.5 43.5,-1075.5"/>
<text text-anchor="start" x="50.5" y="-1086.9" font-family="Arial" font-size="14.00" fill="#000000">numeric_range    </text>
<text text-anchor="start" x="178.054" y="-1086.9" font-family="Arial" font-size="14.00" fill="#666666">[numrange]</text>
<polygon fill="none" stroke="#000000" points="43.5,-1045.5 43.5,-1075.5 384.5,-1075.5 384.5,-1045.5 43.5,-1045.5"/>
<text text-anchor="start" x="50.5" y="-1056.9" font-family="Arial" font-size="14.00" fill="#000000">unit    </text>
<text text-anchor="start" x="107.2672" y="-1056.9" font-family="Arial" font-size="14.00" fill="#666666">[varchar]</text>
<polygon fill="none" stroke="#000000" points="43.5,-1015.5 43.5,-1045.5 384.5,-1045.5 384.5,-1015.5 43.5,-1015.5"/>
<text text-anchor="start" x="50.5" y="-1026.9" font-family="Arial" font-size="14.00" fill="#000000">text_value    </text>
<text text-anchor="start" x="148.5056" y="-1026.9" font-family="Arial" font-size="14.00" fill="#666666">[jsonb]</text>
<polygon fill="none" stroke="#000000" points="43.5,-985.5 43.5,-1015.5 384.5,-1015.5 384.5,-985.5 43.5,-985.5"/>
<text text-anchor="start" x="50.5" y="-996.9" font-family="Arial" font-size="14.00" fill="#000000">numeric_value    </text>
<text text-anchor="start" x="175.7174" y="-996.9" font-family="Arial" font-size="14.00" fill="#666666">[double precision]</text>
<polygon fill="none" stroke="#000000" points="43.5,-955.5 43.5,-985.5 384.5,-985.5 384.5,-955.5 43.5,-955.5"/>
<text text-anchor="start" x="50.5" y="-966.9" font-family="Arial" font-size="14.00" fill="#000000">exported_at    </text>
<text text-anchor="start" x="158.6248" y="-966.9" font-family="Arial" font-size="14.00" fill="#666666">[timestamp without time zone]</text>
<polygon fill="none" stroke="#000000" points="43.5,-925.5 43.5,-955.5 384.5,-955.5 384.5,-925.5 43.5,-925.5"/>
<text text-anchor="start" x="50.5" y="-936.9" font-family="Arial" font-size="14.00" fill="#000000">lifecycle_status_id    </text>
<text text-anchor="start" x="198.2812" y="-936.9" font-family="Arial" font-size="14.00" fill="#666666">[uuid]</text>
<polygon fill="none" stroke="#000000" points="43.5,-895.5 43.5,-925.5 384.5,-925.5 384.5,-895.5 43.5,-895.5"/>
<text text-anchor="start" x="50.5" y="-906.9" font-family="Arial" font-size="14.00" fill="#000000">id    </text>
<text text-anchor="start" x="95.594" y="-906.9" font-family="Arial" font-size="14.00" fill="#666666">[uuid]</text>
<polygon fill="none" stroke="#000000" points="43.5,-865.5 43.5,-895.5 384.5,-895.5 384.5,-865.5 43.5,-865.5"/>
<text text-anchor="start" x="50.5" y="-876.9" font-family="Arial" font-size="14.00" fill="#000000">created_at    </text>
<text text-anchor="start" x="150.8422" y="-876.9" font-family="Arial" font-size="14.00" fill="#666666">[timestamp without time zone]</text>
<polygon fill="none" stroke="#000000" points="43.5,-835.5 43.5,-865.5 384.5,-865.5 384.5,-835.5 43.5,-835.5"/>
<text text-anchor="start" x="50.5" y="-846.9" font-family="Arial" font-size="14.00" fill="#000000">modified_at    </text>
<text text-anchor="start" x="157.0554" y="-846.9" font-family="Arial" font-size="14.00" fill="#666666">[timestamp without time zone]</text>
<polygon fill="none" stroke="#000000" points="43.5,-805.5 43.5,-835.5 384.5,-835.5 384.5,-805.5 43.5,-805.5"/>
<text text-anchor="start" x="50.5" y="-816.9" font-family="Arial" font-size="14.00" fill="#000000">ordering    </text>
<text text-anchor="start" x="136.0456" y="-816.9" font-family="Arial" font-size="14.00" fill="#666666">[integer]</text>
<polygon fill="none" stroke="#000000" points="43.5,-775.5 43.5,-805.5 384.5,-805.5 384.5,-775.5 43.5,-775.5"/>
<text text-anchor="start" x="50.5" y="-786.9" font-family="Arial" font-size="14.00" fill="#000000">name    </text>
<text text-anchor="start" x="119.7132" y="-786.9" font-family="Arial" font-size="14.00" fill="#666666">[jsonb]</text>
<polygon fill="none" stroke="#000000" points="43.5,-745.5 43.5,-775.5 384.5,-775.5 384.5,-745.5 43.5,-745.5"/>
<text text-anchor="start" x="50.5" y="-756.9" font-family="Arial" font-size="14.00" fill="#000000">intended_use_id    </text>
<text text-anchor="start" x="187.4172" y="-756.9" font-family="Arial" font-size="14.00" fill="#666666">[uuid]</text>
<polygon fill="none" stroke="#000000" points="43.5,-715.5 43.5,-745.5 384.5,-745.5 384.5,-715.5 43.5,-715.5"/>
<text text-anchor="start" x="50.5" y="-726.9" font-family="Arial" font-size="14.00" fill="#000000">existence_id    </text>
<text text-anchor="start" x="162.5042" y="-726.9" font-family="Arial" font-size="14.00" fill="#666666">[uuid]</text>
<polygon fill="none" stroke="#000000" points="43.5,-685.5 43.5,-715.5 384.5,-715.5 384.5,-685.5 43.5,-685.5"/>
<text text-anchor="start" x="50.2448" y="-696.9" font-family="Arial" font-size="14.00" fill="#000000">regulation_type_additional_information_id    </text>
<text text-anchor="start" x="343.5196" y="-696.9" font-family="Arial" font-size="14.00" fill="#666666">[uuid]</text>
<polygon fill="none" stroke="#000000" points="43.5,-655.5 43.5,-685.5 384.5,-685.5 384.5,-655.5 43.5,-655.5"/>
<text text-anchor="start" x="50.5" y="-666.9" font-family="Arial" font-size="14.00" fill="#000000">significance_id    </text>
<text text-anchor="start" x="176.5" y="-666.9" font-family="Arial" font-size="14.00" fill="#666666">[uuid]</text>
<polygon fill="none" stroke="#000000" points="43.5,-625.5 43.5,-655.5 384.5,-655.5 384.5,-625.5 43.5,-625.5"/>
<text text-anchor="start" x="50.5" y="-636.9" font-family="Arial" font-size="14.00" fill="#000000">reservation_id    </text>
<text text-anchor="start" x="172.608" y="-636.9" font-family="Arial" font-size="14.00" fill="#666666">[uuid]</text>
<polygon fill="none" stroke="#000000" points="43.5,-595.5 43.5,-625.5 384.5,-625.5 384.5,-595.5 43.5,-595.5"/>
<text text-anchor="start" x="50.5" y="-606.9" font-family="Arial" font-size="14.00" fill="#000000">development_id    </text>
<text text-anchor="start" x="183.5126" y="-606.9" font-family="Arial" font-size="14.00" fill="#666666">[uuid]</text>
<polygon fill="none" stroke="#000000" points="43.5,-565.5 43.5,-595.5 384.5,-595.5 384.5,-565.5 43.5,-565.5"/>
<text text-anchor="start" x="50.5" y="-576.9" font-family="Arial" font-size="14.00" fill="#000000">disturbance_prevention_id    </text>
<text text-anchor="start" x="248.866" y="-576.9" font-family="Arial" font-size="14.00" fill="#666666">[uuid]</text>
<polygon fill="none" stroke="#000000" points="43.5,-535.5 43.5,-565.5 384.5,-565.5 384.5,-535.5 43.5,-535.5"/>
<text text-anchor="start" x="50.5" y="-546.9" font-family="Arial" font-size="14.00" fill="#000000">construction_control_id    </text>
<text text-anchor="start" x="228.6262" y="-546.9" font-family="Arial" font-size="14.00" fill="#666666">[uuid]</text>
<polygon fill="none" stroke="#000000" points="43.5,-505.5 43.5,-535.5 384.5,-535.5 384.5,-505.5 43.5,-505.5"/>
<text text-anchor="start" x="50.5" y="-516.9" font-family="Arial" font-size="14.00" fill="#000000">plan_theme_id    </text>
<text text-anchor="start" x="176.5126" y="-516.9" font-family="Arial" font-size="14.00" fill="#666666">[uuid]</text>
</g>
<!-- hame.plan_regulation&#45;&gt;codes.plan_theme -->
<g id="edge2" class="edge">
<title>hame.plan_regulation:plan_theme_id&#45;&gt;codes.plan_theme:id</title>
<path fill="none" stroke="#000000" d="M394.2721,-517.7826C406.3507,-508.942 396.6682,-480.5587 384.5,-463 358.5447,-425.5465 314.4553,-464.4535 288.5,-427 210.9085,-315.0355 152.2778,-120.5 288.5,-120.5"/>
<polygon fill="#000000" stroke="#000000" points="394.1344,-517.8208 383.2944,-516.1645 389.3172,-519.1604 384.5,-520.5 384.5,-520.5 384.5,-520.5 389.3172,-519.1604 385.7056,-524.8355 394.1344,-517.8208 394.1344,-517.8208"/>
<text text-anchor="start" x="391.8135" y="-530.5" font-family="Arial" font-size="10.00" fill="#000000">FOREIGN KEY (plan_theme_id) REFERENCES codes.plan_theme(id)</text>
</g>
<!-- hame.plan_proposition -->
<g id="node3" class="node">
<title>hame.plan_proposition</title>
<polygon fill="#efefef" stroke="transparent" points="488.5,-1000.5 488.5,-1035.5 811.5,-1035.5 811.5,-1000.5 488.5,-1000.5"/>
<polygon fill="none" stroke="#000000" points="488.5,-1000.5 488.5,-1035.5 811.5,-1035.5 811.5,-1000.5 488.5,-1000.5"/>
<text text-anchor="start" x="495.19" y="-1013.3" font-family="Arial Bold" font-size="18.00" fill="#000000">hame.plan_proposition</text>
<text text-anchor="start" x="677.242" y="-1013.3" font-family="Arial" font-size="14.00" fill="#000000">    </text>
<text text-anchor="start" x="711.4468" y="-1013.3" font-family="Arial" font-size="14.00" fill="#666666">[BASE TABLE]</text>
<polygon fill="none" stroke="#000000" points="488.5,-970.5 488.5,-1000.5 811.5,-1000.5 811.5,-970.5 488.5,-970.5"/>
<text text-anchor="start" x="495.5" y="-981.9" font-family="Arial" font-size="14.00" fill="#000000">plan_regulation_group_id    </text>
<text text-anchor="start" x="687.6472" y="-981.9" font-family="Arial" font-size="14.00" fill="#666666">[uuid]</text>
<polygon fill="none" stroke="#000000" points="488.5,-940.5 488.5,-970.5 811.5,-970.5 811.5,-940.5 488.5,-940.5"/>
<text text-anchor="start" x="495.5" y="-951.9" font-family="Arial" font-size="14.00" fill="#000000">text_value    </text>
<text text-anchor="start" x="593.5056" y="-951.9" font-family="Arial" font-size="14.00" fill="#666666">[jsonb]</text>
<polygon fill="none" stroke="#000000" points="488.5,-910.5 488.5,-940.5 811.5,-940.5 811.5,-910.5 488.5,-910.5"/>
<text text-anchor="start" x="495.5" y="-921.9" font-family="Arial" font-size="14.00" fill="#000000">ordering    </text>
<text text-anchor="start" x="581.0456" y="-921.9" font-family="Arial" font-size="14.00" fill="#666666">[integer]</text>
<polygon fill="none" stroke="#000000" points="488.5,-880.5 488.5,-910.5 811.5,-910.5 811.5,-880.5 488.5,-880.5"/>
<text text-anchor="start" x="495.5" y="-891.9" font-family="Arial" font-size="14.00" fill="#000000">exported_at    </text>
<text text-anchor="start" x="603.6248" y="-891.9" font-family="Arial" font-size="14.00" fill="#666666">[timestamp without time zone]</text>
<polygon fill="none" stroke="#000000" points="488.5,-850.5 488.5,-880.5 811.5,-880.5 811.5,-850.5 488.5,-850.5"/>
<text text-anchor="start" x="495.5" y="-861.9" font-family="Arial" font-size="14.00" fill="#000000">lifecycle_status_id    </text>
<text text-anchor="start" x="643.2812" y="-861.9" font-family="Arial" font-size="14.00" fill="#666666">[uuid]</text>
<polygon fill="none" stroke="#000000" points="488.5,-820.5 488.5,-850.5 811.5,-850.5 811.5,-820.5 488.5,-820.5"/>
<text text-anchor="start" x="495.5" y="-831.9" font-family="Arial" font-size="14.00" fill="#000000">id    </text>
<text text-anchor="start" x="540.594" y="-831.9" font-family="Arial" font-size="14.00" fill="#666666">[uuid]</text>
<polygon fill="none" stroke="#000000" points="488.5,-790.5 488.5,-820.5 811.5,-820.5 811.5,-790.5 488.5,-790.5"/>
<text text-anchor="start" x="495.5" y="-801.9" font-family="Arial" font-size="14.00" fill="#000000">created_at    </text>
<text text-anchor="start" x="595.8422" y="-801.9" font-family="Arial" font-size="14.00" fill="#666666">[timestamp without time zone]</text>
<polygon fill="none" stroke="#000000" points="488.5,-760.5 488.5,-790.5 811.5,-790.5 811.5,-760.5 488.5,-760.5"/>
<text text-anchor="start" x="495.5" y="-771.9" font-family="Arial" font-size="14.00" fill="#000000">modified_at    </text>
<text text-anchor="start" x="602.0554" y="-771.9" font-family="Arial" font-size="14.00" fill="#666666">[timestamp without time zone]</text>
<polygon fill="none" stroke="#000000" points="488.5,-730.5 488.5,-760.5 811.5,-760.5 811.5,-730.5 488.5,-730.5"/>
<text text-anchor="start" x="495.5" y="-741.9" font-family="Arial" font-size="14.00" fill="#000000">name    </text>
<text text-anchor="start" x="564.7132" y="-741.9" font-family="Arial" font-size="14.00" fill="#666666">[jsonb]</text>
<polygon fill="none" stroke="#000000" points="488.5,-700.5 488.5,-730.5 811.5,-730.5 811.5,-700.5 488.5,-700.5"/>
<text text-anchor="start" x="495.5" y="-711.9" font-family="Arial" font-size="14.00" fill="#000000">plan_theme_id    </text>
<text text-anchor="start" x="621.5126" y="-711.9" font-family="Arial" font-size="14.00" fill="#666666">[uuid]</text>
</g>
<!-- hame.plan_proposition&#45;&gt;codes.plan_theme -->
<g id="edge3" class="edge">
<title>hame.plan_proposition:plan_theme_id&#45;&gt;codes.plan_theme:id</title>
<path fill="none" stroke="#000000" d="M478.8624,-712.5946C469.9398,-704.1018 484.7059,-678.6173 488.5,-658 508.3839,-549.9502 556.6161,-535.0498 576.5,-427 601.1544,-293.0274 712.7222,-120.5 576.5,-120.5"/>
<polygon fill="#000000" stroke="#000000" points="478.9256,-712.6136 487.2011,-719.8085 483.7128,-714.0568 488.5,-715.5 488.5,-715.5 488.5,-715.5 483.7128,-714.0568 489.7989,-711.1915 478.9256,-712.6136 478.9256,-712.6136"/>
<text text-anchor="start" x="495.8135" y="-725.5" font-family="Arial" font-size="10.00" fill="#000000">FOREIGN KEY (plan_theme_id) REFERENCES codes.plan_theme(id)</text>
</g>
</g>
</svg>
