<?xml version="1.0" encoding="UTF-8" standalone="no"?>
<!DOCTYPE svg PUBLIC "-//W3C//DTD SVG 1.1//EN"
 "http://www.w3.org/Graphics/SVG/1.1/DTD/svg11.dtd">
<!-- Generated by graphviz version 2.40.1 (20161225.0304)
 -->
<!-- Title: codes.type_of_verbal_plan_regulation Pages: 1 -->
<svg width="1071pt" height="1282pt"
 viewBox="0.00 0.00 1070.71 1282.00" xmlns="http://www.w3.org/2000/svg" xmlns:xlink="http://www.w3.org/1999/xlink">
<g id="graph0" class="graph" transform="scale(1 1) rotate(0) translate(4 1278)">
<title>codes.type_of_verbal_plan_regulation</title>
<polygon fill="#ffffff" stroke="transparent" points="-4,4 -4,-1278 1066.7056,-1278 1066.7056,4 -4,4"/>
<!-- codes.type_of_verbal_plan_regulation -->
<g id="node1" class="node">
<title>codes.type_of_verbal_plan_regulation</title>
<polygon fill="#efefef" stroke="transparent" points="449,-345.5 449,-380.5 894,-380.5 894,-345.5 449,-345.5"/>
<polygon fill="none" stroke="#000000" points="449,-345.5 449,-380.5 894,-380.5 894,-345.5 449,-345.5"/>
<text text-anchor="start" x="455.6628" y="-358.3" font-family="Arial Bold" font-size="18.00" fill="#000000">codes.type_of_verbal_plan_regulation</text>
<text text-anchor="start" x="759.7692" y="-358.3" font-family="Arial" font-size="14.00" fill="#000000">    </text>
<text text-anchor="start" x="793.974" y="-358.3" font-family="Arial" font-size="14.00" fill="#666666">[BASE TABLE]</text>
<polygon fill="none" stroke="#000000" points="449,-315.5 449,-345.5 894,-345.5 894,-315.5 449,-315.5"/>
<text text-anchor="start" x="456" y="-326.9" font-family="Arial" font-size="14.00" fill="#000000">value </text>
<text text-anchor="start" x="493.345" y="-326.9" font-family="Arial" font-size="14.00" fill="#666666">[varchar]</text>
<polygon fill="none" stroke="#000000" points="449,-285.5 449,-315.5 894,-315.5 894,-285.5 449,-285.5"/>
<text text-anchor="start" x="456" y="-296.9" font-family="Arial" font-size="14.00" fill="#000000">short_name </text>
<text text-anchor="start" x="533.798" y="-296.9" font-family="Arial" font-size="14.00" fill="#666666">[varchar]</text>
<polygon fill="none" stroke="#000000" points="449,-255.5 449,-285.5 894,-285.5 894,-255.5 449,-255.5"/>
<text text-anchor="start" x="456" y="-266.9" font-family="Arial" font-size="14.00" fill="#000000">name </text>
<text text-anchor="start" x="494.899" y="-266.9" font-family="Arial" font-size="14.00" fill="#666666">[jsonb]</text>
<polygon fill="none" stroke="#000000" points="449,-225.5 449,-255.5 894,-255.5 894,-225.5 449,-225.5"/>
<text text-anchor="start" x="456" y="-236.9" font-family="Arial" font-size="14.00" fill="#000000">description </text>
<text text-anchor="start" x="527.568" y="-236.9" font-family="Arial" font-size="14.00" fill="#666666">[jsonb]</text>
<polygon fill="none" stroke="#000000" points="449,-195.5 449,-225.5 894,-225.5 894,-195.5 449,-195.5"/>
<text text-anchor="start" x="456" y="-206.9" font-family="Arial" font-size="14.00" fill="#000000">status </text>
<text text-anchor="start" x="497.237" y="-206.9" font-family="Arial" font-size="14.00" fill="#666666">[varchar]</text>
<polygon fill="none" stroke="#000000" points="449,-165.5 449,-195.5 894,-195.5 894,-165.5 449,-165.5"/>
<text text-anchor="start" x="456" y="-176.9" font-family="Arial" font-size="14.00" fill="#000000">level </text>
<text text-anchor="start" x="488.669" y="-176.9" font-family="Arial" font-size="14.00" fill="#666666">[integer]</text>
<polygon fill="none" stroke="#000000" points="449,-135.5 449,-165.5 894,-165.5 894,-135.5 449,-135.5"/>
<text text-anchor="start" x="456" y="-146.9" font-family="Arial" font-size="14.00" fill="#000000">parent_id </text>
<text text-anchor="start" x="518.244" y="-146.9" font-family="Arial" font-size="14.00" fill="#666666">[uuid]</text>
<polygon fill="none" stroke="#000000" points="449,-105.5 449,-135.5 894,-135.5 894,-105.5 449,-105.5"/>
<text text-anchor="start" x="456" y="-116.9" font-family="Arial" font-size="14.00" fill="#000000">id </text>
<text text-anchor="start" x="470.7798" y="-116.9" font-family="Arial" font-size="14.00" fill="#666666">[uuid]</text>
<polygon fill="none" stroke="#000000" points="449,-75.5 449,-105.5 894,-105.5 894,-75.5 449,-75.5"/>
<text text-anchor="start" x="456" y="-86.9" font-family="Arial" font-size="14.00" fill="#000000">created_at </text>
<text text-anchor="start" x="526.028" y="-86.9" font-family="Arial" font-size="14.00" fill="#666666">[timestamp without time zone]</text>
<polygon fill="none" stroke="#000000" points="449,-45.5 449,-75.5 894,-75.5 894,-45.5 449,-45.5"/>
<text text-anchor="start" x="456" y="-56.9" font-family="Arial" font-size="14.00" fill="#000000">modified_at </text>
<text text-anchor="start" x="532.2412" y="-56.9" font-family="Arial" font-size="14.00" fill="#666666">[timestamp without time zone]</text>
<polygon fill="none" stroke="#000000" stroke-width="3" points="447,-44.5 447,-382.5 895,-382.5 895,-44.5 447,-44.5"/>
</g>
<!-- codes.type_of_verbal_plan_regulation&#45;&gt;codes.type_of_verbal_plan_regulation -->
<g id="edge1" class="edge">
<title>codes.type_of_verbal_plan_regulation:parent_id&#45;&gt;codes.type_of_verbal_plan_regulation:id</title>
<path fill="none" stroke="#000000" d="M673.1348,-175.6144C680.9826,-367.0693 680.6043,-754 672,-754 663.2417,-754 663.0065,-324.6887 671.2944,-135.5923"/>
<polygon fill="#000000" stroke="#000000" points="673.1308,-175.5196 677.2016,-165.3373 672.9182,-170.5241 672.7056,-165.5286 672.7056,-165.5286 672.7056,-165.5286 672.9182,-170.5241 668.2097,-165.7199 673.1308,-175.5196 673.1308,-175.5196"/>
<text text-anchor="start" x="679.3411" y="-175.5286" font-family="Arial" font-size="10.00" fill="#000000">FOREIGN KEY (parent_id) REFERENCES codes.type_of_verbal_plan_regulation(id)</text>
</g>
<!-- hame.plan_regulation -->
<g id="node2" class="node">
<title>hame.plan_regulation</title>
<polygon fill="#efefef" stroke="transparent" points="501,-1195.5 501,-1230.5 842,-1230.5 842,-1195.5 501,-1195.5"/>
<polygon fill="none" stroke="#000000" points="501,-1195.5 501,-1230.5 842,-1230.5 842,-1195.5 501,-1195.5"/>
<text text-anchor="start" x="521.19" y="-1208.3" font-family="Arial Bold" font-size="18.00" fill="#000000">hame.plan_regulation</text>
<text text-anchor="start" x="694.242" y="-1208.3" font-family="Arial" font-size="14.00" fill="#000000">    </text>
<text text-anchor="start" x="728.4468" y="-1208.3" font-family="Arial" font-size="14.00" fill="#666666">[BASE TABLE]</text>
<polygon fill="none" stroke="#000000" points="501,-1165.5 501,-1195.5 842,-1195.5 842,-1165.5 501,-1165.5"/>
<text text-anchor="start" x="508" y="-1176.9" font-family="Arial" font-size="14.00" fill="#000000">plan_regulation_group_id    </text>
<text text-anchor="start" x="700.1472" y="-1176.9" font-family="Arial" font-size="14.00" fill="#666666">[uuid]</text>
<polygon fill="none" stroke="#000000" points="501,-1135.5 501,-1165.5 842,-1165.5 842,-1135.5 501,-1135.5"/>
<text text-anchor="start" x="508" y="-1146.9" font-family="Arial" font-size="14.00" fill="#000000">type_of_plan_regulation_id    </text>
<text text-anchor="start" x="710.2678" y="-1146.9" font-family="Arial" font-size="14.00" fill="#666666">[uuid]</text>
<polygon fill="none" stroke="#000000" points="501,-1105.5 501,-1135.5 842,-1135.5 842,-1105.5 501,-1105.5"/>
<text text-anchor="start" x="508" y="-1116.9" font-family="Arial" font-size="14.00" fill="#000000">type_of_verbal_plan_regulation_id    </text>
<text text-anchor="start" x="756.1654" y="-1116.9" font-family="Arial" font-size="14.00" fill="#666666">[uuid]</text>
<polygon fill="none" stroke="#000000" points="501,-1075.5 501,-1105.5 842,-1105.5 842,-1075.5 501,-1075.5"/>
<text text-anchor="start" x="508" y="-1086.9" font-family="Arial" font-size="14.00" fill="#000000">numeric_range    </text>
<text text-anchor="start" x="635.554" y="-1086.9" font-family="Arial" font-size="14.00" fill="#666666">[numrange]</text>
<polygon fill="none" stroke="#000000" points="501,-1045.5 501,-1075.5 842,-1075.5 842,-1045.5 501,-1045.5"/>
<text text-anchor="start" x="508" y="-1056.9" font-family="Arial" font-size="14.00" fill="#000000">unit    </text>
<text text-anchor="start" x="564.7672" y="-1056.9" font-family="Arial" font-size="14.00" fill="#666666">[varchar]</text>
<polygon fill="none" stroke="#000000" points="501,-1015.5 501,-1045.5 842,-1045.5 842,-1015.5 501,-1015.5"/>
<text text-anchor="start" x="508" y="-1026.9" font-family="Arial" font-size="14.00" fill="#000000">text_value    </text>
<text text-anchor="start" x="606.0056" y="-1026.9" font-family="Arial" font-size="14.00" fill="#666666">[jsonb]</text>
<polygon fill="none" stroke="#000000" points="501,-985.5 501,-1015.5 842,-1015.5 842,-985.5 501,-985.5"/>
<text text-anchor="start" x="508" y="-996.9" font-family="Arial" font-size="14.00" fill="#000000">numeric_value    </text>
<text text-anchor="start" x="633.2174" y="-996.9" font-family="Arial" font-size="14.00" fill="#666666">[double precision]</text>
<polygon fill="none" stroke="#000000" points="501,-955.5 501,-985.5 842,-985.5 842,-955.5 501,-955.5"/>
<text text-anchor="start" x="508" y="-966.9" font-family="Arial" font-size="14.00" fill="#000000">exported_at    </text>
<text text-anchor="start" x="616.1248" y="-966.9" font-family="Arial" font-size="14.00" fill="#666666">[timestamp without time zone]</text>
<polygon fill="none" stroke="#000000" points="501,-925.5 501,-955.5 842,-955.5 842,-925.5 501,-925.5"/>
<text text-anchor="start" x="508" y="-936.9" font-family="Arial" font-size="14.00" fill="#000000">lifecycle_status_id    </text>
<text text-anchor="start" x="655.7812" y="-936.9" font-family="Arial" font-size="14.00" fill="#666666">[uuid]</text>
<polygon fill="none" stroke="#000000" points="501,-895.5 501,-925.5 842,-925.5 842,-895.5 501,-895.5"/>
<text text-anchor="start" x="508" y="-906.9" font-family="Arial" font-size="14.00" fill="#000000">id    </text>
<text text-anchor="start" x="553.094" y="-906.9" font-family="Arial" font-size="14.00" fill="#666666">[uuid]</text>
<polygon fill="none" stroke="#000000" points="501,-865.5 501,-895.5 842,-895.5 842,-865.5 501,-865.5"/>
<text text-anchor="start" x="508" y="-876.9" font-family="Arial" font-size="14.00" fill="#000000">created_at    </text>
<text text-anchor="start" x="608.3422" y="-876.9" font-family="Arial" font-size="14.00" fill="#666666">[timestamp without time zone]</text>
<polygon fill="none" stroke="#000000" points="501,-835.5 501,-865.5 842,-865.5 842,-835.5 501,-835.5"/>
<text text-anchor="start" x="508" y="-846.9" font-family="Arial" font-size="14.00" fill="#000000">modified_at    </text>
<text text-anchor="start" x="614.5554" y="-846.9" font-family="Arial" font-size="14.00" fill="#666666">[timestamp without time zone]</text>
<polygon fill="none" stroke="#000000" points="501,-805.5 501,-835.5 842,-835.5 842,-805.5 501,-805.5"/>
<text text-anchor="start" x="508" y="-816.9" font-family="Arial" font-size="14.00" fill="#000000">ordering    </text>
<text text-anchor="start" x="593.5456" y="-816.9" font-family="Arial" font-size="14.00" fill="#666666">[integer]</text>
<polygon fill="none" stroke="#000000" points="501,-775.5 501,-805.5 842,-805.5 842,-775.5 501,-775.5"/>
<text text-anchor="start" x="508" y="-786.9" font-family="Arial" font-size="14.00" fill="#000000">name    </text>
<text text-anchor="start" x="577.2132" y="-786.9" font-family="Arial" font-size="14.00" fill="#666666">[jsonb]</text>
<polygon fill="none" stroke="#000000" points="501,-745.5 501,-775.5 842,-775.5 842,-745.5 501,-745.5"/>
<text text-anchor="start" x="508" y="-756.9" font-family="Arial" font-size="14.00" fill="#000000">intended_use_id    </text>
<text text-anchor="start" x="644.9172" y="-756.9" font-family="Arial" font-size="14.00" fill="#666666">[uuid]</text>
<polygon fill="none" stroke="#000000" points="501,-715.5 501,-745.5 842,-745.5 842,-715.5 501,-715.5"/>
<text text-anchor="start" x="508" y="-726.9" font-family="Arial" font-size="14.00" fill="#000000">existence_id    </text>
<text text-anchor="start" x="620.0042" y="-726.9" font-family="Arial" font-size="14.00" fill="#666666">[uuid]</text>
<polygon fill="none" stroke="#000000" points="501,-685.5 501,-715.5 842,-715.5 842,-685.5 501,-685.5"/>
<text text-anchor="start" x="507.7448" y="-696.9" font-family="Arial" font-size="14.00" fill="#000000">regulation_type_additional_information_id    </text>
<text text-anchor="start" x="801.0196" y="-696.9" font-family="Arial" font-size="14.00" fill="#666666">[uuid]</text>
<polygon fill="none" stroke="#000000" points="501,-655.5 501,-685.5 842,-685.5 842,-655.5 501,-655.5"/>
<text text-anchor="start" x="508" y="-666.9" font-family="Arial" font-size="14.00" fill="#000000">significance_id    </text>
<text text-anchor="start" x="634" y="-666.9" font-family="Arial" font-size="14.00" fill="#666666">[uuid]</text>
<polygon fill="none" stroke="#000000" points="501,-625.5 501,-655.5 842,-655.5 842,-625.5 501,-625.5"/>
<text text-anchor="start" x="508" y="-636.9" font-family="Arial" font-size="14.00" fill="#000000">reservation_id    </text>
<text text-anchor="start" x="630.108" y="-636.9" font-family="Arial" font-size="14.00" fill="#666666">[uuid]</text>
<polygon fill="none" stroke="#000000" points="501,-595.5 501,-625.5 842,-625.5 842,-595.5 501,-595.5"/>
<text text-anchor="start" x="508" y="-606.9" font-family="Arial" font-size="14.00" fill="#000000">development_id    </text>
<text text-anchor="start" x="641.0126" y="-606.9" font-family="Arial" font-size="14.00" fill="#666666">[uuid]</text>
<polygon fill="none" stroke="#000000" points="501,-565.5 501,-595.5 842,-595.5 842,-565.5 501,-565.5"/>
<text text-anchor="start" x="508" y="-576.9" font-family="Arial" font-size="14.00" fill="#000000">disturbance_prevention_id    </text>
<text text-anchor="start" x="706.366" y="-576.9" font-family="Arial" font-size="14.00" fill="#666666">[uuid]</text>
<polygon fill="none" stroke="#000000" points="501,-535.5 501,-565.5 842,-565.5 842,-535.5 501,-535.5"/>
<text text-anchor="start" x="508" y="-546.9" font-family="Arial" font-size="14.00" fill="#000000">construction_control_id    </text>
<text text-anchor="start" x="686.1262" y="-546.9" font-family="Arial" font-size="14.00" fill="#666666">[uuid]</text>
<polygon fill="none" stroke="#000000" points="501,-505.5 501,-535.5 842,-535.5 842,-505.5 501,-505.5"/>
<text text-anchor="start" x="508" y="-516.9" font-family="Arial" font-size="14.00" fill="#000000">plan_theme_id    </text>
<text text-anchor="start" x="634.0126" y="-516.9" font-family="Arial" font-size="14.00" fill="#666666">[uuid]</text>
</g>
<!-- hame.plan_regulation&#45;&gt;codes.type_of_verbal_plan_regulation -->
<g id="edge2" class="edge">
<title>hame.plan_regulation:type_of_verbal_plan_regulation_id&#45;&gt;codes.type_of_verbal_plan_regulation:id</title>
<path fill="none" stroke="#000000" d="M491.061,-1117.806C386.74,-1060.8696 341.107,-120.5 449,-120.5"/>
<polygon fill="#000000" stroke="#000000" points="491.3483,-1117.8838 499.8227,-1124.8433 496.1741,-1119.1919 501,-1120.5 501,-1120.5 501,-1120.5 496.1741,-1119.1919 502.1773,-1116.1567 491.3483,-1117.8838 491.3483,-1117.8838"/>
<text text-anchor="start" x="7.0615" y="-1130.5" font-family="Arial" font-size="10.00" fill="#000000">FOREIGN KEY (type_of_verbal_plan_regulation_id) REFERENCES codes.type_of_verbal_plan_regulation(id)</text>
</g>
</g>
</svg>
