<?xml version="1.0" encoding="UTF-8" standalone="no"?>
<!DOCTYPE svg PUBLIC "-//W3C//DTD SVG 1.1//EN"
 "http://www.w3.org/Graphics/SVG/1.1/DTD/svg11.dtd">
<!-- Generated by graphviz version 2.40.1 (20161225.0304)
 -->
<!-- Title: codes.administrative_region Pages: 1 -->
<svg width="650pt" height="772pt"
 viewBox="0.00 0.00 649.50 772.00" xmlns="http://www.w3.org/2000/svg" xmlns:xlink="http://www.w3.org/1999/xlink">
<g id="graph0" class="graph" transform="scale(1 1) rotate(0) translate(4 768)">
<title>codes.administrative_region</title>
<polygon fill="#ffffff" stroke="transparent" points="-4,4 -4,-768 645.5,-768 645.5,4 -4,4"/>
<!-- codes.administrative_region -->
<g id="node1" class="node">
<title>codes.administrative_region</title>
<polygon fill="#efefef" stroke="transparent" points="46.5,-345.5 46.5,-380.5 411.5,-380.5 411.5,-345.5 46.5,-345.5"/>
<polygon fill="none" stroke="#000000" points="46.5,-345.5 46.5,-380.5 411.5,-380.5 411.5,-345.5 46.5,-345.5"/>
<text text-anchor="start" x="53.1957" y="-358.3" font-family="Arial Bold" font-size="18.00" fill="#000000">codes.administrative_region</text>
<text text-anchor="start" x="277.2363" y="-358.3" font-family="Arial" font-size="14.00" fill="#000000">    </text>
<text text-anchor="start" x="311.4411" y="-358.3" font-family="Arial" font-size="14.00" fill="#666666">[BASE TABLE]</text>
<polygon fill="none" stroke="#000000" points="46.5,-315.5 46.5,-345.5 411.5,-345.5 411.5,-315.5 46.5,-315.5"/>
<text text-anchor="start" x="53.5" y="-326.9" font-family="Arial" font-size="14.00" fill="#000000">value </text>
<text text-anchor="start" x="90.845" y="-326.9" font-family="Arial" font-size="14.00" fill="#666666">[varchar]</text>
<polygon fill="none" stroke="#000000" points="46.5,-285.5 46.5,-315.5 411.5,-315.5 411.5,-285.5 46.5,-285.5"/>
<text text-anchor="start" x="53.5" y="-296.9" font-family="Arial" font-size="14.00" fill="#000000">short_name </text>
<text text-anchor="start" x="131.298" y="-296.9" font-family="Arial" font-size="14.00" fill="#666666">[varchar]</text>
<polygon fill="none" stroke="#000000" points="46.5,-255.5 46.5,-285.5 411.5,-285.5 411.5,-255.5 46.5,-255.5"/>
<text text-anchor="start" x="53.5" y="-266.9" font-family="Arial" font-size="14.00" fill="#000000">name </text>
<text text-anchor="start" x="92.399" y="-266.9" font-family="Arial" font-size="14.00" fill="#666666">[jsonb]</text>
<polygon fill="none" stroke="#000000" points="46.5,-225.5 46.5,-255.5 411.5,-255.5 411.5,-225.5 46.5,-225.5"/>
<text text-anchor="start" x="53.5" y="-236.9" font-family="Arial" font-size="14.00" fill="#000000">description </text>
<text text-anchor="start" x="125.068" y="-236.9" font-family="Arial" font-size="14.00" fill="#666666">[jsonb]</text>
<polygon fill="none" stroke="#000000" points="46.5,-195.5 46.5,-225.5 411.5,-225.5 411.5,-195.5 46.5,-195.5"/>
<text text-anchor="start" x="53.5" y="-206.9" font-family="Arial" font-size="14.00" fill="#000000">status </text>
<text text-anchor="start" x="94.737" y="-206.9" font-family="Arial" font-size="14.00" fill="#666666">[varchar]</text>
<polygon fill="none" stroke="#000000" points="46.5,-165.5 46.5,-195.5 411.5,-195.5 411.5,-165.5 46.5,-165.5"/>
<text text-anchor="start" x="53.5" y="-176.9" font-family="Arial" font-size="14.00" fill="#000000">level </text>
<text text-anchor="start" x="86.169" y="-176.9" font-family="Arial" font-size="14.00" fill="#666666">[integer]</text>
<polygon fill="none" stroke="#000000" points="46.5,-135.5 46.5,-165.5 411.5,-165.5 411.5,-135.5 46.5,-135.5"/>
<text text-anchor="start" x="53.5" y="-146.9" font-family="Arial" font-size="14.00" fill="#000000">parent_id </text>
<text text-anchor="start" x="115.744" y="-146.9" font-family="Arial" font-size="14.00" fill="#666666">[uuid]</text>
<polygon fill="none" stroke="#000000" points="46.5,-105.5 46.5,-135.5 411.5,-135.5 411.5,-105.5 46.5,-105.5"/>
<text text-anchor="start" x="53.5" y="-116.9" font-family="Arial" font-size="14.00" fill="#000000">id </text>
<text text-anchor="start" x="68.2798" y="-116.9" font-family="Arial" font-size="14.00" fill="#666666">[uuid]</text>
<polygon fill="none" stroke="#000000" points="46.5,-75.5 46.5,-105.5 411.5,-105.5 411.5,-75.5 46.5,-75.5"/>
<text text-anchor="start" x="53.5" y="-86.9" font-family="Arial" font-size="14.00" fill="#000000">created_at </text>
<text text-anchor="start" x="123.528" y="-86.9" font-family="Arial" font-size="14.00" fill="#666666">[timestamp without time zone]</text>
<polygon fill="none" stroke="#000000" points="46.5,-45.5 46.5,-75.5 411.5,-75.5 411.5,-45.5 46.5,-45.5"/>
<text text-anchor="start" x="53.5" y="-56.9" font-family="Arial" font-size="14.00" fill="#000000">modified_at </text>
<text text-anchor="start" x="129.7412" y="-56.9" font-family="Arial" font-size="14.00" fill="#666666">[timestamp without time zone]</text>
<polygon fill="none" stroke="#000000" stroke-width="3" points="44.5,-44.5 44.5,-382.5 412.5,-382.5 412.5,-44.5 44.5,-44.5"/>
</g>
<!-- codes.administrative_region&#45;&gt;codes.administrative_region -->
<g id="edge1" class="edge">
<title>codes.administrative_region:parent_id&#45;&gt;codes.administrative_region:id</title>
<path fill="none" stroke="#000000" d="M230.9472,-175.8449C238.4709,-325.7308 237.9886,-627 229.5,-627 220.8164,-627 220.5111,-283.7996 228.5842,-135.867"/>
<polygon fill="#000000" stroke="#000000" points="230.942,-175.7445 234.9096,-165.5216 230.6789,-170.7514 230.4158,-165.7583 230.4158,-165.7583 230.4158,-165.7583 230.6789,-170.7514 225.9221,-165.9951 230.942,-175.7445 230.942,-175.7445"/>
<text text-anchor="start" x="237.2918" y="-175.7583" font-family="Arial" font-size="10.00" fill="#000000">FOREIGN KEY (parent_id) REFERENCES codes.administrative_region(id)</text>
</g>
<!-- hame.organisation -->
<g id="node2" class="node">
<title>hame.organisation</title>
<polygon fill="#efefef" stroke="transparent" points="76.5,-685.5 76.5,-720.5 381.5,-720.5 381.5,-685.5 76.5,-685.5"/>
<polygon fill="none" stroke="#000000" points="76.5,-685.5 76.5,-720.5 381.5,-720.5 381.5,-685.5 76.5,-685.5"/>
<text text-anchor="start" x="91.1964" y="-698.3" font-family="Arial Bold" font-size="18.00" fill="#000000">hame.organisation</text>
<text text-anchor="start" x="239.2356" y="-698.3" font-family="Arial" font-size="14.00" fill="#000000">    </text>
<text text-anchor="start" x="273.4404" y="-698.3" font-family="Arial" font-size="14.00" fill="#666666">[BASE TABLE]</text>
<polygon fill="none" stroke="#000000" points="76.5,-655.5 76.5,-685.5 381.5,-685.5 381.5,-655.5 76.5,-655.5"/>
<text text-anchor="start" x="83.5" y="-666.9" font-family="Arial" font-size="14.00" fill="#000000">name    </text>
<text text-anchor="start" x="152.7132" y="-666.9" font-family="Arial" font-size="14.00" fill="#666666">[jsonb]</text>
<polygon fill="none" stroke="#000000" points="76.5,-625.5 76.5,-655.5 381.5,-655.5 381.5,-625.5 76.5,-625.5"/>
<text text-anchor="start" x="83.5" y="-636.9" font-family="Arial" font-size="14.00" fill="#000000">business_id    </text>
<text text-anchor="start" x="191.6136" y="-636.9" font-family="Arial" font-size="14.00" fill="#666666">[varchar]</text>
<polygon fill="none" stroke="#000000" points="76.5,-595.5 76.5,-625.5 381.5,-625.5 381.5,-595.5 76.5,-595.5"/>
<text text-anchor="start" x="83.5" y="-606.9" font-family="Arial" font-size="14.00" fill="#000000">id    </text>
<text text-anchor="start" x="128.594" y="-606.9" font-family="Arial" font-size="14.00" fill="#666666">[uuid]</text>
<polygon fill="none" stroke="#000000" points="76.5,-565.5 76.5,-595.5 381.5,-595.5 381.5,-565.5 76.5,-565.5"/>
<text text-anchor="start" x="83.5" y="-576.9" font-family="Arial" font-size="14.00" fill="#000000">created_at    </text>
<text text-anchor="start" x="183.8422" y="-576.9" font-family="Arial" font-size="14.00" fill="#666666">[timestamp without time zone]</text>
<polygon fill="none" stroke="#000000" points="76.5,-535.5 76.5,-565.5 381.5,-565.5 381.5,-535.5 76.5,-535.5"/>
<text text-anchor="start" x="83.1522" y="-546.9" font-family="Arial" font-size="14.00" fill="#000000">modified_at    </text>
<text text-anchor="start" x="189.7076" y="-546.9" font-family="Arial" font-size="14.00" fill="#666666">[timestamp without time zone]</text>
<polygon fill="none" stroke="#000000" points="76.5,-505.5 76.5,-535.5 381.5,-535.5 381.5,-505.5 76.5,-505.5"/>
<text text-anchor="start" x="83.5" y="-516.9" font-family="Arial" font-size="14.00" fill="#000000">administrative_region_id    </text>
<text text-anchor="start" x="269.392" y="-516.9" font-family="Arial" font-size="14.00" fill="#666666">[uuid]</text>
</g>
<!-- hame.organisation&#45;&gt;codes.administrative_region -->
<g id="edge2" class="edge">
<title>hame.organisation:administrative_region_id&#45;&gt;codes.administrative_region:id</title>
<path fill="none" stroke="#000000" d="M228.8374,-495.4575C218.6277,-423.6158 93.2088,-497.8612 46.5,-427 9.0148,-370.1319 -21.6111,-120.5 46.5,-120.5"/>
<polygon fill="#000000" stroke="#000000" points="228.8416,-495.5217 225.0098,-505.7963 229.1708,-500.5108 229.5,-505.5 229.5,-505.5 229.5,-505.5 229.1708,-500.5108 233.9902,-505.2037 228.8416,-495.5217 228.8416,-495.5217"/>
<text text-anchor="start" x="236.0425" y="-515.5" font-family="Arial" font-size="10.00" fill="#000000">FOREIGN KEY (administrative_region_id) REFERENCES codes.administrative_region(id)</text>
</g>
</g>
</svg>
