<?xml version="1.0" encoding="UTF-8" standalone="no"?>
<!DOCTYPE svg PUBLIC "-//W3C//DTD SVG 1.1//EN"
 "http://www.w3.org/Graphics/SVG/1.1/DTD/svg11.dtd">
<!-- Generated by graphviz version 2.40.1 (20161225.0304)
 -->
<!-- Title: codes.type_of_plan_regulation Pages: 1 -->
<svg width="970pt" height="1282pt"
 viewBox="0.00 0.00 970.29 1282.00" xmlns="http://www.w3.org/2000/svg" xmlns:xlink="http://www.w3.org/1999/xlink">
<g id="graph0" class="graph" transform="scale(1 1) rotate(0) translate(4 1278)">
<title>codes.type_of_plan_regulation</title>
<polygon fill="#ffffff" stroke="transparent" points="-4,4 -4,-1278 966.2944,-1278 966.2944,4 -4,4"/>
<!-- codes.type_of_plan_regulation -->
<g id="node1" class="node">
<title>codes.type_of_plan_regulation</title>
<polygon fill="#efefef" stroke="transparent" points="163.2944,-345.5 163.2944,-380.5 549.2944,-380.5 549.2944,-345.5 163.2944,-345.5"/>
<polygon fill="none" stroke="#000000" points="163.2944,-345.5 163.2944,-380.5 549.2944,-380.5 549.2944,-345.5 163.2944,-345.5"/>
<text text-anchor="start" x="169.9628" y="-358.3" font-family="Arial Bold" font-size="18.00" fill="#000000">codes.type_of_plan_regulation</text>
<text text-anchor="start" x="415.058" y="-358.3" font-family="Arial" font-size="14.00" fill="#000000">    </text>
<text text-anchor="start" x="449.2628" y="-358.3" font-family="Arial" font-size="14.00" fill="#666666">[BASE TABLE]</text>
<polygon fill="none" stroke="#000000" points="163.2944,-315.5 163.2944,-345.5 549.2944,-345.5 549.2944,-315.5 163.2944,-315.5"/>
<text text-anchor="start" x="170.2944" y="-326.9" font-family="Arial" font-size="14.00" fill="#000000">value </text>
<text text-anchor="start" x="207.6394" y="-326.9" font-family="Arial" font-size="14.00" fill="#666666">[varchar]</text>
<polygon fill="none" stroke="#000000" points="163.2944,-285.5 163.2944,-315.5 549.2944,-315.5 549.2944,-285.5 163.2944,-285.5"/>
<text text-anchor="start" x="170.2944" y="-296.9" font-family="Arial" font-size="14.00" fill="#000000">short_name </text>
<text text-anchor="start" x="248.0924" y="-296.9" font-family="Arial" font-size="14.00" fill="#666666">[varchar]</text>
<polygon fill="none" stroke="#000000" points="163.2944,-255.5 163.2944,-285.5 549.2944,-285.5 549.2944,-255.5 163.2944,-255.5"/>
<text text-anchor="start" x="170.2944" y="-266.9" font-family="Arial" font-size="14.00" fill="#000000">name </text>
<text text-anchor="start" x="209.1934" y="-266.9" font-family="Arial" font-size="14.00" fill="#666666">[jsonb]</text>
<polygon fill="none" stroke="#000000" points="163.2944,-225.5 163.2944,-255.5 549.2944,-255.5 549.2944,-225.5 163.2944,-225.5"/>
<text text-anchor="start" x="170.2944" y="-236.9" font-family="Arial" font-size="14.00" fill="#000000">description </text>
<text text-anchor="start" x="241.8624" y="-236.9" font-family="Arial" font-size="14.00" fill="#666666">[jsonb]</text>
<polygon fill="none" stroke="#000000" points="163.2944,-195.5 163.2944,-225.5 549.2944,-225.5 549.2944,-195.5 163.2944,-195.5"/>
<text text-anchor="start" x="170.2944" y="-206.9" font-family="Arial" font-size="14.00" fill="#000000">status </text>
<text text-anchor="start" x="211.5314" y="-206.9" font-family="Arial" font-size="14.00" fill="#666666">[varchar]</text>
<polygon fill="none" stroke="#000000" points="163.2944,-165.5 163.2944,-195.5 549.2944,-195.5 549.2944,-165.5 163.2944,-165.5"/>
<text text-anchor="start" x="170.2944" y="-176.9" font-family="Arial" font-size="14.00" fill="#000000">level </text>
<text text-anchor="start" x="202.9634" y="-176.9" font-family="Arial" font-size="14.00" fill="#666666">[integer]</text>
<polygon fill="none" stroke="#000000" points="163.2944,-135.5 163.2944,-165.5 549.2944,-165.5 549.2944,-135.5 163.2944,-135.5"/>
<text text-anchor="start" x="170.2944" y="-146.9" font-family="Arial" font-size="14.00" fill="#000000">parent_id </text>
<text text-anchor="start" x="232.5384" y="-146.9" font-family="Arial" font-size="14.00" fill="#666666">[uuid]</text>
<polygon fill="none" stroke="#000000" points="163.2944,-105.5 163.2944,-135.5 549.2944,-135.5 549.2944,-105.5 163.2944,-105.5"/>
<text text-anchor="start" x="170.2944" y="-116.9" font-family="Arial" font-size="14.00" fill="#000000">id </text>
<text text-anchor="start" x="185.0742" y="-116.9" font-family="Arial" font-size="14.00" fill="#666666">[uuid]</text>
<polygon fill="none" stroke="#000000" points="163.2944,-75.5 163.2944,-105.5 549.2944,-105.5 549.2944,-75.5 163.2944,-75.5"/>
<text text-anchor="start" x="170.2944" y="-86.9" font-family="Arial" font-size="14.00" fill="#000000">created_at </text>
<text text-anchor="start" x="240.3224" y="-86.9" font-family="Arial" font-size="14.00" fill="#666666">[timestamp without time zone]</text>
<polygon fill="none" stroke="#000000" points="163.2944,-45.5 163.2944,-75.5 549.2944,-75.5 549.2944,-45.5 163.2944,-45.5"/>
<text text-anchor="start" x="170.2944" y="-56.9" font-family="Arial" font-size="14.00" fill="#000000">modified_at </text>
<text text-anchor="start" x="246.5356" y="-56.9" font-family="Arial" font-size="14.00" fill="#666666">[timestamp without time zone]</text>
<polygon fill="none" stroke="#000000" stroke-width="3" points="161.7944,-44.5 161.7944,-382.5 550.7944,-382.5 550.7944,-44.5 161.7944,-44.5"/>
</g>
<!-- codes.type_of_plan_regulation&#45;&gt;codes.type_of_plan_regulation -->
<g id="edge1" class="edge">
<title>codes.type_of_plan_regulation:parent_id&#45;&gt;codes.type_of_plan_regulation:id</title>
<path fill="none" stroke="#000000" d="M357.4292,-175.6144C365.277,-367.0693 364.8987,-754 356.2944,-754 347.5361,-754 347.3009,-324.6887 355.5888,-135.5923"/>
<polygon fill="#000000" stroke="#000000" points="357.4252,-175.5196 361.4959,-165.3373 357.2126,-170.5241 357,-165.5286 357,-165.5286 357,-165.5286 357.2126,-170.5241 352.5041,-165.7199 357.4252,-175.5196 357.4252,-175.5196"/>
<text text-anchor="start" x="7.0275" y="-175.5286" font-family="Arial" font-size="10.00" fill="#000000">FOREIGN KEY (parent_id) REFERENCES codes.type_of_plan_regulation(id)</text>
</g>
<!-- hame.plan_regulation -->
<g id="node2" class="node">
<title>hame.plan_regulation</title>
<polygon fill="#efefef" stroke="transparent" points="185.2944,-1195.5 185.2944,-1230.5 526.2944,-1230.5 526.2944,-1195.5 185.2944,-1195.5"/>
<polygon fill="none" stroke="#000000" points="185.2944,-1195.5 185.2944,-1230.5 526.2944,-1230.5 526.2944,-1195.5 185.2944,-1195.5"/>
<text text-anchor="start" x="205.4844" y="-1208.3" font-family="Arial Bold" font-size="18.00" fill="#000000">hame.plan_regulation</text>
<text text-anchor="start" x="378.5364" y="-1208.3" font-family="Arial" font-size="14.00" fill="#000000">    </text>
<text text-anchor="start" x="412.7412" y="-1208.3" font-family="Arial" font-size="14.00" fill="#666666">[BASE TABLE]</text>
<polygon fill="none" stroke="#000000" points="185.2944,-1165.5 185.2944,-1195.5 526.2944,-1195.5 526.2944,-1165.5 185.2944,-1165.5"/>
<text text-anchor="start" x="192.2944" y="-1176.9" font-family="Arial" font-size="14.00" fill="#000000">plan_regulation_group_id    </text>
<text text-anchor="start" x="384.4416" y="-1176.9" font-family="Arial" font-size="14.00" fill="#666666">[uuid]</text>
<polygon fill="none" stroke="#000000" points="185.2944,-1135.5 185.2944,-1165.5 526.2944,-1165.5 526.2944,-1135.5 185.2944,-1135.5"/>
<text text-anchor="start" x="192.2944" y="-1146.9" font-family="Arial" font-size="14.00" fill="#000000">type_of_plan_regulation_id    </text>
<text text-anchor="start" x="394.5622" y="-1146.9" font-family="Arial" font-size="14.00" fill="#666666">[uuid]</text>
<polygon fill="none" stroke="#000000" points="185.2944,-1105.5 185.2944,-1135.5 526.2944,-1135.5 526.2944,-1105.5 185.2944,-1105.5"/>
<text text-anchor="start" x="192.2944" y="-1116.9" font-family="Arial" font-size="14.00" fill="#000000">type_of_verbal_plan_regulation_id    </text>
<text text-anchor="start" x="440.4598" y="-1116.9" font-family="Arial" font-size="14.00" fill="#666666">[uuid]</text>
<polygon fill="none" stroke="#000000" points="185.2944,-1075.5 185.2944,-1105.5 526.2944,-1105.5 526.2944,-1075.5 185.2944,-1075.5"/>
<text text-anchor="start" x="192.2944" y="-1086.9" font-family="Arial" font-size="14.00" fill="#000000">numeric_range    </text>
<text text-anchor="start" x="319.8484" y="-1086.9" font-family="Arial" font-size="14.00" fill="#666666">[numrange]</text>
<polygon fill="none" stroke="#000000" points="185.2944,-1045.5 185.2944,-1075.5 526.2944,-1075.5 526.2944,-1045.5 185.2944,-1045.5"/>
<text text-anchor="start" x="192.2944" y="-1056.9" font-family="Arial" font-size="14.00" fill="#000000">unit    </text>
<text text-anchor="start" x="249.0616" y="-1056.9" font-family="Arial" font-size="14.00" fill="#666666">[varchar]</text>
<polygon fill="none" stroke="#000000" points="185.2944,-1015.5 185.2944,-1045.5 526.2944,-1045.5 526.2944,-1015.5 185.2944,-1015.5"/>
<text text-anchor="start" x="192.2944" y="-1026.9" font-family="Arial" font-size="14.00" fill="#000000">text_value    </text>
<text text-anchor="start" x="290.3" y="-1026.9" font-family="Arial" font-size="14.00" fill="#666666">[jsonb]</text>
<polygon fill="none" stroke="#000000" points="185.2944,-985.5 185.2944,-1015.5 526.2944,-1015.5 526.2944,-985.5 185.2944,-985.5"/>
<text text-anchor="start" x="192.2944" y="-996.9" font-family="Arial" font-size="14.00" fill="#000000">numeric_value    </text>
<text text-anchor="start" x="317.5118" y="-996.9" font-family="Arial" font-size="14.00" fill="#666666">[double precision]</text>
<polygon fill="none" stroke="#000000" points="185.2944,-955.5 185.2944,-985.5 526.2944,-985.5 526.2944,-955.5 185.2944,-955.5"/>
<text text-anchor="start" x="192.2944" y="-966.9" font-family="Arial" font-size="14.00" fill="#000000">exported_at    </text>
<text text-anchor="start" x="300.4192" y="-966.9" font-family="Arial" font-size="14.00" fill="#666666">[timestamp without time zone]</text>
<polygon fill="none" stroke="#000000" points="185.2944,-925.5 185.2944,-955.5 526.2944,-955.5 526.2944,-925.5 185.2944,-925.5"/>
<text text-anchor="start" x="192.2944" y="-936.9" font-family="Arial" font-size="14.00" fill="#000000">lifecycle_status_id    </text>
<text text-anchor="start" x="340.0756" y="-936.9" font-family="Arial" font-size="14.00" fill="#666666">[uuid]</text>
<polygon fill="none" stroke="#000000" points="185.2944,-895.5 185.2944,-925.5 526.2944,-925.5 526.2944,-895.5 185.2944,-895.5"/>
<text text-anchor="start" x="192.2944" y="-906.9" font-family="Arial" font-size="14.00" fill="#000000">id    </text>
<text text-anchor="start" x="237.3884" y="-906.9" font-family="Arial" font-size="14.00" fill="#666666">[uuid]</text>
<polygon fill="none" stroke="#000000" points="185.2944,-865.5 185.2944,-895.5 526.2944,-895.5 526.2944,-865.5 185.2944,-865.5"/>
<text text-anchor="start" x="192.2944" y="-876.9" font-family="Arial" font-size="14.00" fill="#000000">created_at    </text>
<text text-anchor="start" x="292.6366" y="-876.9" font-family="Arial" font-size="14.00" fill="#666666">[timestamp without time zone]</text>
<polygon fill="none" stroke="#000000" points="185.2944,-835.5 185.2944,-865.5 526.2944,-865.5 526.2944,-835.5 185.2944,-835.5"/>
<text text-anchor="start" x="192.2944" y="-846.9" font-family="Arial" font-size="14.00" fill="#000000">modified_at    </text>
<text text-anchor="start" x="298.8498" y="-846.9" font-family="Arial" font-size="14.00" fill="#666666">[timestamp without time zone]</text>
<polygon fill="none" stroke="#000000" points="185.2944,-805.5 185.2944,-835.5 526.2944,-835.5 526.2944,-805.5 185.2944,-805.5"/>
<text text-anchor="start" x="192.2944" y="-816.9" font-family="Arial" font-size="14.00" fill="#000000">ordering    </text>
<text text-anchor="start" x="277.84" y="-816.9" font-family="Arial" font-size="14.00" fill="#666666">[integer]</text>
<polygon fill="none" stroke="#000000" points="185.2944,-775.5 185.2944,-805.5 526.2944,-805.5 526.2944,-775.5 185.2944,-775.5"/>
<text text-anchor="start" x="192.2944" y="-786.9" font-family="Arial" font-size="14.00" fill="#000000">name    </text>
<text text-anchor="start" x="261.5076" y="-786.9" font-family="Arial" font-size="14.00" fill="#666666">[jsonb]</text>
<polygon fill="none" stroke="#000000" points="185.2944,-745.5 185.2944,-775.5 526.2944,-775.5 526.2944,-745.5 185.2944,-745.5"/>
<text text-anchor="start" x="192.2944" y="-756.9" font-family="Arial" font-size="14.00" fill="#000000">intended_use_id    </text>
<text text-anchor="start" x="329.2116" y="-756.9" font-family="Arial" font-size="14.00" fill="#666666">[uuid]</text>
<polygon fill="none" stroke="#000000" points="185.2944,-715.5 185.2944,-745.5 526.2944,-745.5 526.2944,-715.5 185.2944,-715.5"/>
<text text-anchor="start" x="192.2944" y="-726.9" font-family="Arial" font-size="14.00" fill="#000000">existence_id    </text>
<text text-anchor="start" x="304.2986" y="-726.9" font-family="Arial" font-size="14.00" fill="#666666">[uuid]</text>
<polygon fill="none" stroke="#000000" points="185.2944,-685.5 185.2944,-715.5 526.2944,-715.5 526.2944,-685.5 185.2944,-685.5"/>
<text text-anchor="start" x="192.0392" y="-696.9" font-family="Arial" font-size="14.00" fill="#000000">regulation_type_additional_information_id    </text>
<text text-anchor="start" x="485.314" y="-696.9" font-family="Arial" font-size="14.00" fill="#666666">[uuid]</text>
<polygon fill="none" stroke="#000000" points="185.2944,-655.5 185.2944,-685.5 526.2944,-685.5 526.2944,-655.5 185.2944,-655.5"/>
<text text-anchor="start" x="192.2944" y="-666.9" font-family="Arial" font-size="14.00" fill="#000000">significance_id    </text>
<text text-anchor="start" x="318.2944" y="-666.9" font-family="Arial" font-size="14.00" fill="#666666">[uuid]</text>
<polygon fill="none" stroke="#000000" points="185.2944,-625.5 185.2944,-655.5 526.2944,-655.5 526.2944,-625.5 185.2944,-625.5"/>
<text text-anchor="start" x="192.2944" y="-636.9" font-family="Arial" font-size="14.00" fill="#000000">reservation_id    </text>
<text text-anchor="start" x="314.4024" y="-636.9" font-family="Arial" font-size="14.00" fill="#666666">[uuid]</text>
<polygon fill="none" stroke="#000000" points="185.2944,-595.5 185.2944,-625.5 526.2944,-625.5 526.2944,-595.5 185.2944,-595.5"/>
<text text-anchor="start" x="192.2944" y="-606.9" font-family="Arial" font-size="14.00" fill="#000000">development_id    </text>
<text text-anchor="start" x="325.307" y="-606.9" font-family="Arial" font-size="14.00" fill="#666666">[uuid]</text>
<polygon fill="none" stroke="#000000" points="185.2944,-565.5 185.2944,-595.5 526.2944,-595.5 526.2944,-565.5 185.2944,-565.5"/>
<text text-anchor="start" x="192.2944" y="-576.9" font-family="Arial" font-size="14.00" fill="#000000">disturbance_prevention_id    </text>
<text text-anchor="start" x="390.6604" y="-576.9" font-family="Arial" font-size="14.00" fill="#666666">[uuid]</text>
<polygon fill="none" stroke="#000000" points="185.2944,-535.5 185.2944,-565.5 526.2944,-565.5 526.2944,-535.5 185.2944,-535.5"/>
<text text-anchor="start" x="192.2944" y="-546.9" font-family="Arial" font-size="14.00" fill="#000000">construction_control_id    </text>
<text text-anchor="start" x="370.4206" y="-546.9" font-family="Arial" font-size="14.00" fill="#666666">[uuid]</text>
<polygon fill="none" stroke="#000000" points="185.2944,-505.5 185.2944,-535.5 526.2944,-535.5 526.2944,-505.5 185.2944,-505.5"/>
<text text-anchor="start" x="192.2944" y="-516.9" font-family="Arial" font-size="14.00" fill="#000000">plan_theme_id    </text>
<text text-anchor="start" x="318.307" y="-516.9" font-family="Arial" font-size="14.00" fill="#666666">[uuid]</text>
</g>
<!-- hame.plan_regulation&#45;&gt;codes.type_of_plan_regulation -->
<g id="edge2" class="edge">
<title>hame.plan_regulation:type_of_plan_regulation_id&#45;&gt;codes.type_of_plan_regulation:id</title>
<path fill="none" stroke="#000000" d="M535.9813,-1146.7899C600.3746,-1094.978 575.2713,-517.0744 526.2944,-463 471.8765,-402.9183 217.7123,-487.0817 163.2944,-427 117.5708,-376.5175 95.1833,-120.5 163.2944,-120.5"/>
<polygon fill="#000000" stroke="#000000" points="535.6329,-1146.9233 524.6849,-1146.2977 530.9636,-1148.7117 526.2944,-1150.5 526.2944,-1150.5 526.2944,-1150.5 530.9636,-1148.7117 527.9039,-1154.7023 535.6329,-1146.9233 535.6329,-1146.9233"/>
<text text-anchor="start" x="533.1399" y="-1160.5" font-family="Arial" font-size="10.00" fill="#000000">FOREIGN KEY (type_of_plan_regulation_id) REFERENCES codes.type_of_plan_regulation(id)</text>
</g>
</g>
</svg>
