<?xml version="1.0" encoding="UTF-8" standalone="no"?>
<!DOCTYPE svg PUBLIC "-//W3C//DTD SVG 1.1//EN"
 "http://www.w3.org/Graphics/SVG/1.1/DTD/svg11.dtd">
<!-- Generated by graphviz version 2.40.1 (20161225.0304)
 -->
<!-- Title: codes.plan_theme Pages: 1 -->
<svg width="854pt" height="1282pt"
 viewBox="0.00 0.00 853.50 1282.00" xmlns="http://www.w3.org/2000/svg" xmlns:xlink="http://www.w3.org/1999/xlink">
<g id="graph0" class="graph" transform="scale(1 1) rotate(0) translate(4 1278)">
<title>codes.plan_theme</title>
<polygon fill="#ffffff" stroke="transparent" points="-4,4 -4,-1278 849.5,-1278 849.5,4 -4,4"/>
<!-- codes.plan_theme -->
<g id="node1" class="node">
<title>codes.plan_theme</title>
<polygon fill="#efefef" stroke="transparent" points="272,-345.5 272,-380.5 560,-380.5 560,-345.5 272,-345.5"/>
<polygon fill="none" stroke="#000000" points="272,-345.5 272,-380.5 560,-380.5 560,-345.5 272,-345.5"/>
<text text-anchor="start" x="278.6896" y="-358.3" font-family="Arial Bold" font-size="18.00" fill="#000000">codes.plan_theme</text>
<text text-anchor="start" x="425.7424" y="-358.3" font-family="Arial" font-size="14.00" fill="#000000">    </text>
<text text-anchor="start" x="459.9472" y="-358.3" font-family="Arial" font-size="14.00" fill="#666666">[BASE TABLE]</text>
<polygon fill="none" stroke="#000000" points="272,-315.5 272,-345.5 560,-345.5 560,-315.5 272,-315.5"/>
<text text-anchor="start" x="279" y="-326.9" font-family="Arial" font-size="14.00" fill="#000000">value </text>
<text text-anchor="start" x="316.345" y="-326.9" font-family="Arial" font-size="14.00" fill="#666666">[varchar]</text>
<polygon fill="none" stroke="#000000" points="272,-285.5 272,-315.5 560,-315.5 560,-285.5 272,-285.5"/>
<text text-anchor="start" x="279" y="-296.9" font-family="Arial" font-size="14.00" fill="#000000">short_name </text>
<text text-anchor="start" x="356.798" y="-296.9" font-family="Arial" font-size="14.00" fill="#666666">[varchar]</text>
<polygon fill="none" stroke="#000000" points="272,-255.5 272,-285.5 560,-285.5 560,-255.5 272,-255.5"/>
<text text-anchor="start" x="279" y="-266.9" font-family="Arial" font-size="14.00" fill="#000000">name </text>
<text text-anchor="start" x="317.899" y="-266.9" font-family="Arial" font-size="14.00" fill="#666666">[jsonb]</text>
<polygon fill="none" stroke="#000000" points="272,-225.5 272,-255.5 560,-255.5 560,-225.5 272,-225.5"/>
<text text-anchor="start" x="279" y="-236.9" font-family="Arial" font-size="14.00" fill="#000000">description </text>
<text text-anchor="start" x="350.568" y="-236.9" font-family="Arial" font-size="14.00" fill="#666666">[jsonb]</text>
<polygon fill="none" stroke="#000000" points="272,-195.5 272,-225.5 560,-225.5 560,-195.5 272,-195.5"/>
<text text-anchor="start" x="279" y="-206.9" font-family="Arial" font-size="14.00" fill="#000000">status </text>
<text text-anchor="start" x="320.237" y="-206.9" font-family="Arial" font-size="14.00" fill="#666666">[varchar]</text>
<polygon fill="none" stroke="#000000" points="272,-165.5 272,-195.5 560,-195.5 560,-165.5 272,-165.5"/>
<text text-anchor="start" x="279" y="-176.9" font-family="Arial" font-size="14.00" fill="#000000">level </text>
<text text-anchor="start" x="311.669" y="-176.9" font-family="Arial" font-size="14.00" fill="#666666">[integer]</text>
<polygon fill="none" stroke="#000000" points="272,-135.5 272,-165.5 560,-165.5 560,-135.5 272,-135.5"/>
<text text-anchor="start" x="279" y="-146.9" font-family="Arial" font-size="14.00" fill="#000000">parent_id </text>
<text text-anchor="start" x="341.244" y="-146.9" font-family="Arial" font-size="14.00" fill="#666666">[uuid]</text>
<polygon fill="none" stroke="#000000" points="272,-105.5 272,-135.5 560,-135.5 560,-105.5 272,-105.5"/>
<text text-anchor="start" x="279" y="-116.9" font-family="Arial" font-size="14.00" fill="#000000">id </text>
<text text-anchor="start" x="293.7798" y="-116.9" font-family="Arial" font-size="14.00" fill="#666666">[uuid]</text>
<polygon fill="none" stroke="#000000" points="272,-75.5 272,-105.5 560,-105.5 560,-75.5 272,-75.5"/>
<text text-anchor="start" x="279" y="-86.9" font-family="Arial" font-size="14.00" fill="#000000">created_at </text>
<text text-anchor="start" x="349.028" y="-86.9" font-family="Arial" font-size="14.00" fill="#666666">[timestamp without time zone]</text>
<polygon fill="none" stroke="#000000" points="272,-45.5 272,-75.5 560,-75.5 560,-45.5 272,-45.5"/>
<text text-anchor="start" x="279" y="-56.9" font-family="Arial" font-size="14.00" fill="#000000">modified_at </text>
<text text-anchor="start" x="355.2412" y="-56.9" font-family="Arial" font-size="14.00" fill="#666666">[timestamp without time zone]</text>
<polygon fill="none" stroke="#000000" stroke-width="3" points="270.5,-44.5 270.5,-382.5 561.5,-382.5 561.5,-44.5 270.5,-44.5"/>
</g>
<!-- codes.plan_theme&#45;&gt;codes.plan_theme -->
<g id="edge1" class="edge">
<title>codes.plan_theme:parent_id&#45;&gt;codes.plan_theme:id</title>
<path fill="none" stroke="#000000" d="M417.1348,-175.6144C424.9826,-367.0693 424.6043,-754 416,-754 407.2417,-754 407.0065,-324.6887 415.2944,-135.5923"/>
<polygon fill="#000000" stroke="#000000" points="417.1308,-175.5196 421.2016,-165.3373 416.9182,-170.5241 416.7056,-165.5286 416.7056,-165.5286 416.7056,-165.5286 416.9182,-170.5241 412.2097,-165.7199 417.1308,-175.5196 417.1308,-175.5196"/>
<text text-anchor="start" x="120.9671" y="-175.5286" font-family="Arial" font-size="10.00" fill="#000000">FOREIGN KEY (parent_id) REFERENCES codes.plan_theme(id)</text>
</g>
<!-- arho.plan_proposition -->
<g id="node2" class="node">
<title>arho.plan_proposition</title>
<polygon fill="#efefef" stroke="transparent" points="43,-1000.5 43,-1035.5 357,-1035.5 357,-1000.5 43,-1000.5"/>
<polygon fill="none" stroke="#000000" points="43,-1000.5 43,-1035.5 357,-1035.5 357,-1000.5 43,-1000.5"/>
<text text-anchor="start" x="49.69" y="-1013.3" font-family="Arial Bold" font-size="18.00" fill="#000000">arho.plan_proposition</text>
<text text-anchor="start" x="222.742" y="-1013.3" font-family="Arial" font-size="14.00" fill="#000000">    </text>
<text text-anchor="start" x="256.9468" y="-1013.3" font-family="Arial" font-size="14.00" fill="#666666">[BASE TABLE]</text>
<polygon fill="none" stroke="#000000" points="43,-970.5 43,-1000.5 357,-1000.5 357,-970.5 43,-970.5"/>
<text text-anchor="start" x="50" y="-981.9" font-family="Arial" font-size="14.00" fill="#000000">plan_regulation_group_id    </text>
<text text-anchor="start" x="242.1472" y="-981.9" font-family="Arial" font-size="14.00" fill="#666666">[uuid]</text>
<polygon fill="none" stroke="#000000" points="43,-940.5 43,-970.5 357,-970.5 357,-940.5 43,-940.5"/>
<text text-anchor="start" x="50" y="-951.9" font-family="Arial" font-size="14.00" fill="#000000">plan_theme_id    </text>
<text text-anchor="start" x="176.0126" y="-951.9" font-family="Arial" font-size="14.00" fill="#666666">[uuid]</text>
<polygon fill="none" stroke="#000000" points="43,-910.5 43,-940.5 357,-940.5 357,-910.5 43,-910.5"/>
<text text-anchor="start" x="50" y="-921.9" font-family="Arial" font-size="14.00" fill="#000000">text_value    </text>
<text text-anchor="start" x="148.0056" y="-921.9" font-family="Arial" font-size="14.00" fill="#666666">[jsonb]</text>
<polygon fill="none" stroke="#000000" points="43,-880.5 43,-910.5 357,-910.5 357,-880.5 43,-880.5"/>
<text text-anchor="start" x="50" y="-891.9" font-family="Arial" font-size="14.00" fill="#000000">ordering    </text>
<text text-anchor="start" x="135.5456" y="-891.9" font-family="Arial" font-size="14.00" fill="#666666">[integer]</text>
<polygon fill="none" stroke="#000000" points="43,-850.5 43,-880.5 357,-880.5 357,-850.5 43,-850.5"/>
<text text-anchor="start" x="50" y="-861.9" font-family="Arial" font-size="14.00" fill="#000000">name    </text>
<text text-anchor="start" x="119.2132" y="-861.9" font-family="Arial" font-size="14.00" fill="#666666">[jsonb]</text>
<polygon fill="none" stroke="#000000" points="43,-820.5 43,-850.5 357,-850.5 357,-820.5 43,-820.5"/>
<text text-anchor="start" x="50" y="-831.9" font-family="Arial" font-size="14.00" fill="#000000">exported_at    </text>
<text text-anchor="start" x="158.1248" y="-831.9" font-family="Arial" font-size="14.00" fill="#666666">[timestamp without time zone]</text>
<polygon fill="none" stroke="#000000" points="43,-790.5 43,-820.5 357,-820.5 357,-790.5 43,-790.5"/>
<text text-anchor="start" x="50" y="-801.9" font-family="Arial" font-size="14.00" fill="#000000">lifecycle_status_id    </text>
<text text-anchor="start" x="197.7812" y="-801.9" font-family="Arial" font-size="14.00" fill="#666666">[uuid]</text>
<polygon fill="none" stroke="#000000" points="43,-760.5 43,-790.5 357,-790.5 357,-760.5 43,-760.5"/>
<text text-anchor="start" x="50" y="-771.9" font-family="Arial" font-size="14.00" fill="#000000">id    </text>
<text text-anchor="start" x="95.094" y="-771.9" font-family="Arial" font-size="14.00" fill="#666666">[uuid]</text>
<polygon fill="none" stroke="#000000" points="43,-730.5 43,-760.5 357,-760.5 357,-730.5 43,-730.5"/>
<text text-anchor="start" x="50" y="-741.9" font-family="Arial" font-size="14.00" fill="#000000">created_at    </text>
<text text-anchor="start" x="150.3422" y="-741.9" font-family="Arial" font-size="14.00" fill="#666666">[timestamp without time zone]</text>
<polygon fill="none" stroke="#000000" points="43,-700.5 43,-730.5 357,-730.5 357,-700.5 43,-700.5"/>
<text text-anchor="start" x="50" y="-711.9" font-family="Arial" font-size="14.00" fill="#000000">modified_at    </text>
<text text-anchor="start" x="156.5554" y="-711.9" font-family="Arial" font-size="14.00" fill="#666666">[timestamp without time zone]</text>
</g>
<!-- arho.plan_proposition&#45;&gt;codes.plan_theme -->
<g id="edge2" class="edge">
<title>arho.plan_proposition:plan_theme_id&#45;&gt;codes.plan_theme:id</title>
<path fill="none" stroke="#000000" d="M367.1025,-953.3358C417.0731,-929.7087 367.938,-719.3999 357,-658 314.5824,-419.8912 30.1425,-120.5 272,-120.5"/>
<polygon fill="#000000" stroke="#000000" points="366.7781,-953.4052 356.0573,-951.0998 361.8891,-954.4526 357,-955.5 357,-955.5 357,-955.5 361.8891,-954.4526 357.9427,-959.9002 366.7781,-953.4052 366.7781,-953.4052"/>
<text text-anchor="start" x="364.3135" y="-965.5" font-family="Arial" font-size="10.00" fill="#000000">FOREIGN KEY (plan_theme_id) REFERENCES codes.plan_theme(id)</text>
</g>
<!-- arho.plan_regulation -->
<g id="node3" class="node">
<title>arho.plan_regulation</title>
<polygon fill="#efefef" stroke="transparent" points="462,-1195.5 462,-1230.5 803,-1230.5 803,-1195.5 462,-1195.5"/>
<polygon fill="none" stroke="#000000" points="462,-1195.5 462,-1230.5 803,-1230.5 803,-1195.5 462,-1195.5"/>
<text text-anchor="start" x="486.69" y="-1208.3" font-family="Arial Bold" font-size="18.00" fill="#000000">arho.plan_regulation</text>
<text text-anchor="start" x="650.742" y="-1208.3" font-family="Arial" font-size="14.00" fill="#000000">    </text>
<text text-anchor="start" x="684.9468" y="-1208.3" font-family="Arial" font-size="14.00" fill="#666666">[BASE TABLE]</text>
<polygon fill="none" stroke="#000000" points="462,-1165.5 462,-1195.5 803,-1195.5 803,-1165.5 462,-1165.5"/>
<text text-anchor="start" x="469" y="-1176.9" font-family="Arial" font-size="14.00" fill="#000000">plan_regulation_group_id    </text>
<text text-anchor="start" x="661.1472" y="-1176.9" font-family="Arial" font-size="14.00" fill="#666666">[uuid]</text>
<polygon fill="none" stroke="#000000" points="462,-1135.5 462,-1165.5 803,-1165.5 803,-1135.5 462,-1135.5"/>
<text text-anchor="start" x="469" y="-1146.9" font-family="Arial" font-size="14.00" fill="#000000">type_of_plan_regulation_id    </text>
<text text-anchor="start" x="671.2678" y="-1146.9" font-family="Arial" font-size="14.00" fill="#666666">[uuid]</text>
<polygon fill="none" stroke="#000000" points="462,-1105.5 462,-1135.5 803,-1135.5 803,-1105.5 462,-1105.5"/>
<text text-anchor="start" x="469" y="-1116.9" font-family="Arial" font-size="14.00" fill="#000000">type_of_verbal_plan_regulation_id    </text>
<text text-anchor="start" x="717.1654" y="-1116.9" font-family="Arial" font-size="14.00" fill="#666666">[uuid]</text>
<polygon fill="none" stroke="#000000" points="462,-1075.5 462,-1105.5 803,-1105.5 803,-1075.5 462,-1075.5"/>
<text text-anchor="start" x="469" y="-1086.9" font-family="Arial" font-size="14.00" fill="#000000">plan_theme_id    </text>
<text text-anchor="start" x="595.0126" y="-1086.9" font-family="Arial" font-size="14.00" fill="#666666">[uuid]</text>
<polygon fill="none" stroke="#000000" points="462,-1045.5 462,-1075.5 803,-1075.5 803,-1045.5 462,-1045.5"/>
<text text-anchor="start" x="469" y="-1056.9" font-family="Arial" font-size="14.00" fill="#000000">intended_use_id    </text>
<text text-anchor="start" x="605.9172" y="-1056.9" font-family="Arial" font-size="14.00" fill="#666666">[uuid]</text>
<polygon fill="none" stroke="#000000" points="462,-1015.5 462,-1045.5 803,-1045.5 803,-1015.5 462,-1015.5"/>
<text text-anchor="start" x="469" y="-1026.9" font-family="Arial" font-size="14.00" fill="#000000">existence_id    </text>
<text text-anchor="start" x="581.0042" y="-1026.9" font-family="Arial" font-size="14.00" fill="#666666">[uuid]</text>
<polygon fill="none" stroke="#000000" points="462,-985.5 462,-1015.5 803,-1015.5 803,-985.5 462,-985.5"/>
<text text-anchor="start" x="468.7448" y="-996.9" font-family="Arial" font-size="14.00" fill="#000000">regulation_type_additional_information_id    </text>
<text text-anchor="start" x="762.0196" y="-996.9" font-family="Arial" font-size="14.00" fill="#666666">[uuid]</text>
<polygon fill="none" stroke="#000000" points="462,-955.5 462,-985.5 803,-985.5 803,-955.5 462,-955.5"/>
<text text-anchor="start" x="469" y="-966.9" font-family="Arial" font-size="14.00" fill="#000000">significance_id    </text>
<text text-anchor="start" x="595" y="-966.9" font-family="Arial" font-size="14.00" fill="#666666">[uuid]</text>
<polygon fill="none" stroke="#000000" points="462,-925.5 462,-955.5 803,-955.5 803,-925.5 462,-925.5"/>
<text text-anchor="start" x="469" y="-936.9" font-family="Arial" font-size="14.00" fill="#000000">reservation_id    </text>
<text text-anchor="start" x="591.108" y="-936.9" font-family="Arial" font-size="14.00" fill="#666666">[uuid]</text>
<polygon fill="none" stroke="#000000" points="462,-895.5 462,-925.5 803,-925.5 803,-895.5 462,-895.5"/>
<text text-anchor="start" x="469" y="-906.9" font-family="Arial" font-size="14.00" fill="#000000">development_id    </text>
<text text-anchor="start" x="602.0126" y="-906.9" font-family="Arial" font-size="14.00" fill="#666666">[uuid]</text>
<polygon fill="none" stroke="#000000" points="462,-865.5 462,-895.5 803,-895.5 803,-865.5 462,-865.5"/>
<text text-anchor="start" x="469" y="-876.9" font-family="Arial" font-size="14.00" fill="#000000">disturbance_prevention_id    </text>
<text text-anchor="start" x="667.366" y="-876.9" font-family="Arial" font-size="14.00" fill="#666666">[uuid]</text>
<polygon fill="none" stroke="#000000" points="462,-835.5 462,-865.5 803,-865.5 803,-835.5 462,-835.5"/>
<text text-anchor="start" x="469" y="-846.9" font-family="Arial" font-size="14.00" fill="#000000">construction_control_id    </text>
<text text-anchor="start" x="647.1262" y="-846.9" font-family="Arial" font-size="14.00" fill="#666666">[uuid]</text>
<polygon fill="none" stroke="#000000" points="462,-805.5 462,-835.5 803,-835.5 803,-805.5 462,-805.5"/>
<text text-anchor="start" x="469" y="-816.9" font-family="Arial" font-size="14.00" fill="#000000">numeric_range    </text>
<text text-anchor="start" x="596.554" y="-816.9" font-family="Arial" font-size="14.00" fill="#666666">[numrange]</text>
<polygon fill="none" stroke="#000000" points="462,-775.5 462,-805.5 803,-805.5 803,-775.5 462,-775.5"/>
<text text-anchor="start" x="469" y="-786.9" font-family="Arial" font-size="14.00" fill="#000000">unit    </text>
<text text-anchor="start" x="525.7672" y="-786.9" font-family="Arial" font-size="14.00" fill="#666666">[varchar]</text>
<polygon fill="none" stroke="#000000" points="462,-745.5 462,-775.5 803,-775.5 803,-745.5 462,-745.5"/>
<text text-anchor="start" x="469" y="-756.9" font-family="Arial" font-size="14.00" fill="#000000">text_value    </text>
<text text-anchor="start" x="567.0056" y="-756.9" font-family="Arial" font-size="14.00" fill="#666666">[jsonb]</text>
<polygon fill="none" stroke="#000000" points="462,-715.5 462,-745.5 803,-745.5 803,-715.5 462,-715.5"/>
<text text-anchor="start" x="469" y="-726.9" font-family="Arial" font-size="14.00" fill="#000000">numeric_value    </text>
<text text-anchor="start" x="594.2174" y="-726.9" font-family="Arial" font-size="14.00" fill="#666666">[double precision]</text>
<polygon fill="none" stroke="#000000" points="462,-685.5 462,-715.5 803,-715.5 803,-685.5 462,-685.5"/>
<text text-anchor="start" x="469" y="-696.9" font-family="Arial" font-size="14.00" fill="#000000">ordering    </text>
<text text-anchor="start" x="554.5456" y="-696.9" font-family="Arial" font-size="14.00" fill="#666666">[integer]</text>
<polygon fill="none" stroke="#000000" points="462,-655.5 462,-685.5 803,-685.5 803,-655.5 462,-655.5"/>
<text text-anchor="start" x="469" y="-666.9" font-family="Arial" font-size="14.00" fill="#000000">name    </text>
<text text-anchor="start" x="538.2132" y="-666.9" font-family="Arial" font-size="14.00" fill="#666666">[jsonb]</text>
<polygon fill="none" stroke="#000000" points="462,-625.5 462,-655.5 803,-655.5 803,-625.5 462,-625.5"/>
<text text-anchor="start" x="469" y="-636.9" font-family="Arial" font-size="14.00" fill="#000000">exported_at    </text>
<text text-anchor="start" x="577.1248" y="-636.9" font-family="Arial" font-size="14.00" fill="#666666">[timestamp without time zone]</text>
<polygon fill="none" stroke="#000000" points="462,-595.5 462,-625.5 803,-625.5 803,-595.5 462,-595.5"/>
<text text-anchor="start" x="469" y="-606.9" font-family="Arial" font-size="14.00" fill="#000000">lifecycle_status_id    </text>
<text text-anchor="start" x="616.7812" y="-606.9" font-family="Arial" font-size="14.00" fill="#666666">[uuid]</text>
<polygon fill="none" stroke="#000000" points="462,-565.5 462,-595.5 803,-595.5 803,-565.5 462,-565.5"/>
<text text-anchor="start" x="469" y="-576.9" font-family="Arial" font-size="14.00" fill="#000000">id    </text>
<text text-anchor="start" x="514.094" y="-576.9" font-family="Arial" font-size="14.00" fill="#666666">[uuid]</text>
<polygon fill="none" stroke="#000000" points="462,-535.5 462,-565.5 803,-565.5 803,-535.5 462,-535.5"/>
<text text-anchor="start" x="469" y="-546.9" font-family="Arial" font-size="14.00" fill="#000000">created_at    </text>
<text text-anchor="start" x="569.3422" y="-546.9" font-family="Arial" font-size="14.00" fill="#666666">[timestamp without time zone]</text>
<polygon fill="none" stroke="#000000" points="462,-505.5 462,-535.5 803,-535.5 803,-505.5 462,-505.5"/>
<text text-anchor="start" x="469" y="-516.9" font-family="Arial" font-size="14.00" fill="#000000">modified_at    </text>
<text text-anchor="start" x="575.5554" y="-516.9" font-family="Arial" font-size="14.00" fill="#666666">[timestamp without time zone]</text>
</g>
<!-- arho.plan_regulation&#45;&gt;codes.plan_theme -->
<g id="edge3" class="edge">
<title>arho.plan_regulation:plan_theme_id&#45;&gt;codes.plan_theme:id</title>
<path fill="none" stroke="#000000" d="M452.4883,-1086.5468C395.2136,-1036.0274 424.0426,-517.381 462,-463 488.5581,-424.9506 533.4419,-465.0494 560,-427 637.9676,-315.2971 696.2222,-120.5 560,-120.5"/>
<polygon fill="#000000" stroke="#000000" points="452.7658,-1086.6621 460.2729,-1094.6554 457.3829,-1088.581 462,-1090.5 462,-1090.5 462,-1090.5 457.3829,-1088.581 463.7271,-1086.3446 452.7658,-1086.6621 452.7658,-1086.6621"/>
<text text-anchor="start" x="142.3135" y="-1100.5" font-family="Arial" font-size="10.00" fill="#000000">FOREIGN KEY (plan_theme_id) REFERENCES codes.plan_theme(id)</text>
</g>
</g>
</svg>
