<?xml version="1.0" encoding="UTF-8" standalone="no"?>
<!DOCTYPE svg PUBLIC "-//W3C//DTD SVG 1.1//EN"
 "http://www.w3.org/Graphics/SVG/1.1/DTD/svg11.dtd">
<!-- Generated by graphviz version 2.40.1 (20161225.0304)
 -->
<!-- Title: codes.name_of_plan_case_decision Pages: 1 -->
<svg width="652pt" height="648pt"
 viewBox="0.00 0.00 652.11 648.00" xmlns="http://www.w3.org/2000/svg" xmlns:xlink="http://www.w3.org/1999/xlink">
<g id="graph0" class="graph" transform="scale(1 1) rotate(0) translate(4 644)">
<title>codes.name_of_plan_case_decision</title>
<polygon fill="#ffffff" stroke="transparent" points="-4,4 -4,-644 648.1087,-644 648.1087,4 -4,4"/>
<!-- codes.name_of_plan_case_decision -->
<g id="node1" class="node">
<title>codes.name_of_plan_case_decision</title>
<polygon fill="#efefef" stroke="transparent" points="166.1087,-345.5 166.1087,-380.5 598.1087,-380.5 598.1087,-345.5 166.1087,-345.5"/>
<polygon fill="none" stroke="#000000" points="166.1087,-345.5 166.1087,-380.5 598.1087,-380.5 598.1087,-345.5 166.1087,-345.5"/>
<text text-anchor="start" x="172.7731" y="-358.3" font-family="Arial Bold" font-size="18.00" fill="#000000">codes.name_of_plan_case_decision</text>
<text text-anchor="start" x="463.8763" y="-358.3" font-family="Arial" font-size="14.00" fill="#000000">    </text>
<text text-anchor="start" x="498.0811" y="-358.3" font-family="Arial" font-size="14.00" fill="#666666">[BASE TABLE]</text>
<polygon fill="none" stroke="#000000" points="166.1087,-315.5 166.1087,-345.5 598.1087,-345.5 598.1087,-315.5 166.1087,-315.5"/>
<text text-anchor="start" x="173.1087" y="-326.9" font-family="Arial" font-size="14.00" fill="#000000">value </text>
<text text-anchor="start" x="210.4537" y="-326.9" font-family="Arial" font-size="14.00" fill="#666666">[varchar]</text>
<polygon fill="none" stroke="#000000" points="166.1087,-285.5 166.1087,-315.5 598.1087,-315.5 598.1087,-285.5 166.1087,-285.5"/>
<text text-anchor="start" x="173.1087" y="-296.9" font-family="Arial" font-size="14.00" fill="#000000">short_name </text>
<text text-anchor="start" x="250.9067" y="-296.9" font-family="Arial" font-size="14.00" fill="#666666">[varchar]</text>
<polygon fill="none" stroke="#000000" points="166.1087,-255.5 166.1087,-285.5 598.1087,-285.5 598.1087,-255.5 166.1087,-255.5"/>
<text text-anchor="start" x="173.1087" y="-266.9" font-family="Arial" font-size="14.00" fill="#000000">name </text>
<text text-anchor="start" x="212.0077" y="-266.9" font-family="Arial" font-size="14.00" fill="#666666">[jsonb]</text>
<polygon fill="none" stroke="#000000" points="166.1087,-225.5 166.1087,-255.5 598.1087,-255.5 598.1087,-225.5 166.1087,-225.5"/>
<text text-anchor="start" x="173.1087" y="-236.9" font-family="Arial" font-size="14.00" fill="#000000">description </text>
<text text-anchor="start" x="244.6767" y="-236.9" font-family="Arial" font-size="14.00" fill="#666666">[jsonb]</text>
<polygon fill="none" stroke="#000000" points="166.1087,-195.5 166.1087,-225.5 598.1087,-225.5 598.1087,-195.5 166.1087,-195.5"/>
<text text-anchor="start" x="173.1087" y="-206.9" font-family="Arial" font-size="14.00" fill="#000000">status </text>
<text text-anchor="start" x="214.3457" y="-206.9" font-family="Arial" font-size="14.00" fill="#666666">[varchar]</text>
<polygon fill="none" stroke="#000000" points="166.1087,-165.5 166.1087,-195.5 598.1087,-195.5 598.1087,-165.5 166.1087,-165.5"/>
<text text-anchor="start" x="173.1087" y="-176.9" font-family="Arial" font-size="14.00" fill="#000000">level </text>
<text text-anchor="start" x="205.7777" y="-176.9" font-family="Arial" font-size="14.00" fill="#666666">[integer]</text>
<polygon fill="none" stroke="#000000" points="166.1087,-135.5 166.1087,-165.5 598.1087,-165.5 598.1087,-135.5 166.1087,-135.5"/>
<text text-anchor="start" x="173.1087" y="-146.9" font-family="Arial" font-size="14.00" fill="#000000">parent_id </text>
<text text-anchor="start" x="235.3527" y="-146.9" font-family="Arial" font-size="14.00" fill="#666666">[uuid]</text>
<polygon fill="none" stroke="#000000" points="166.1087,-105.5 166.1087,-135.5 598.1087,-135.5 598.1087,-105.5 166.1087,-105.5"/>
<text text-anchor="start" x="173.1087" y="-116.9" font-family="Arial" font-size="14.00" fill="#000000">id </text>
<text text-anchor="start" x="187.8885" y="-116.9" font-family="Arial" font-size="14.00" fill="#666666">[uuid]</text>
<polygon fill="none" stroke="#000000" points="166.1087,-75.5 166.1087,-105.5 598.1087,-105.5 598.1087,-75.5 166.1087,-75.5"/>
<text text-anchor="start" x="173.1087" y="-86.9" font-family="Arial" font-size="14.00" fill="#000000">created_at </text>
<text text-anchor="start" x="243.1367" y="-86.9" font-family="Arial" font-size="14.00" fill="#666666">[timestamp without time zone]</text>
<polygon fill="none" stroke="#000000" points="166.1087,-45.5 166.1087,-75.5 598.1087,-75.5 598.1087,-45.5 166.1087,-45.5"/>
<text text-anchor="start" x="173.1087" y="-56.9" font-family="Arial" font-size="14.00" fill="#000000">modified_at </text>
<text text-anchor="start" x="249.3499" y="-56.9" font-family="Arial" font-size="14.00" fill="#666666">[timestamp without time zone]</text>
<polygon fill="none" stroke="#000000" stroke-width="3" points="164.6087,-44.5 164.6087,-382.5 599.6087,-382.5 599.6087,-44.5 164.6087,-44.5"/>
</g>
<!-- codes.name_of_plan_case_decision&#45;&gt;codes.name_of_plan_case_decision -->
<g id="edge1" class="edge">
<title>codes.name_of_plan_case_decision:parent_id&#45;&gt;codes.name_of_plan_case_decision:id</title>
<path fill="none" stroke="#000000" d="M383.533,-176.1549C391.0806,-330.3954 390.6058,-640 382.1087,-640 373.4163,-640 373.1192,-288.0201 381.2174,-135.8774"/>
<polygon fill="#000000" stroke="#000000" points="383.5129,-175.7615 387.4941,-165.5438 383.2564,-170.7681 383,-165.7746 383,-165.7746 383,-165.7746 383.2564,-170.7681 378.5059,-166.0054 383.5129,-175.7615 383.5129,-175.7615"/>
<text text-anchor="start" x="7.2475" y="-175.7746" font-family="Arial" font-size="10.00" fill="#000000">FOREIGN KEY (parent_id) REFERENCES codes.name_of_plan_case_decision(id)</text>
</g>
</g>
</svg>
