<?xml version="1.0" encoding="UTF-8" standalone="no"?>
<!DOCTYPE svg PUBLIC "-//W3C//DTD SVG 1.1//EN"
 "http://www.w3.org/Graphics/SVG/1.1/DTD/svg11.dtd">
<!-- Generated by graphviz version 2.40.1 (20161225.0304)
 -->
<!-- Title: codes.type_of_plan_regulation_group Pages: 1 -->
<svg width="773pt" height="772pt"
 viewBox="0.00 0.00 773.00 772.00" xmlns="http://www.w3.org/2000/svg" xmlns:xlink="http://www.w3.org/1999/xlink">
<g id="graph0" class="graph" transform="scale(1 1) rotate(0) translate(4 768)">
<title>codes.type_of_plan_regulation_group</title>
<polygon fill="#ffffff" stroke="transparent" points="-4,4 -4,-768 769,-768 769,4 -4,4"/>
<!-- codes.type_of_plan_regulation_group -->
<g id="node1" class="node">
<title>codes.type_of_plan_regulation_group</title>
<polygon fill="#efefef" stroke="transparent" points="277,-345.5 277,-380.5 719,-380.5 719,-345.5 277,-345.5"/>
<polygon fill="none" stroke="#000000" points="277,-345.5 277,-380.5 719,-380.5 719,-345.5 277,-345.5"/>
<text text-anchor="start" x="283.6568" y="-358.3" font-family="Arial Bold" font-size="18.00" fill="#000000">codes.type_of_plan_regulation_group</text>
<text text-anchor="start" x="584.7752" y="-358.3" font-family="Arial" font-size="14.00" fill="#000000">    </text>
<text text-anchor="start" x="618.98" y="-358.3" font-family="Arial" font-size="14.00" fill="#666666">[BASE TABLE]</text>
<polygon fill="none" stroke="#000000" points="277,-315.5 277,-345.5 719,-345.5 719,-315.5 277,-315.5"/>
<text text-anchor="start" x="284" y="-326.9" font-family="Arial" font-size="14.00" fill="#000000">value </text>
<text text-anchor="start" x="321.345" y="-326.9" font-family="Arial" font-size="14.00" fill="#666666">[varchar]</text>
<polygon fill="none" stroke="#000000" points="277,-285.5 277,-315.5 719,-315.5 719,-285.5 277,-285.5"/>
<text text-anchor="start" x="284" y="-296.9" font-family="Arial" font-size="14.00" fill="#000000">short_name </text>
<text text-anchor="start" x="361.798" y="-296.9" font-family="Arial" font-size="14.00" fill="#666666">[varchar]</text>
<polygon fill="none" stroke="#000000" points="277,-255.5 277,-285.5 719,-285.5 719,-255.5 277,-255.5"/>
<text text-anchor="start" x="284" y="-266.9" font-family="Arial" font-size="14.00" fill="#000000">name </text>
<text text-anchor="start" x="322.899" y="-266.9" font-family="Arial" font-size="14.00" fill="#666666">[jsonb]</text>
<polygon fill="none" stroke="#000000" points="277,-225.5 277,-255.5 719,-255.5 719,-225.5 277,-225.5"/>
<text text-anchor="start" x="284" y="-236.9" font-family="Arial" font-size="14.00" fill="#000000">description </text>
<text text-anchor="start" x="355.568" y="-236.9" font-family="Arial" font-size="14.00" fill="#666666">[jsonb]</text>
<polygon fill="none" stroke="#000000" points="277,-195.5 277,-225.5 719,-225.5 719,-195.5 277,-195.5"/>
<text text-anchor="start" x="284" y="-206.9" font-family="Arial" font-size="14.00" fill="#000000">status </text>
<text text-anchor="start" x="325.237" y="-206.9" font-family="Arial" font-size="14.00" fill="#666666">[varchar]</text>
<polygon fill="none" stroke="#000000" points="277,-165.5 277,-195.5 719,-195.5 719,-165.5 277,-165.5"/>
<text text-anchor="start" x="284" y="-176.9" font-family="Arial" font-size="14.00" fill="#000000">level </text>
<text text-anchor="start" x="316.669" y="-176.9" font-family="Arial" font-size="14.00" fill="#666666">[integer]</text>
<polygon fill="none" stroke="#000000" points="277,-135.5 277,-165.5 719,-165.5 719,-135.5 277,-135.5"/>
<text text-anchor="start" x="284" y="-146.9" font-family="Arial" font-size="14.00" fill="#000000">parent_id </text>
<text text-anchor="start" x="346.244" y="-146.9" font-family="Arial" font-size="14.00" fill="#666666">[uuid]</text>
<polygon fill="none" stroke="#000000" points="277,-105.5 277,-135.5 719,-135.5 719,-105.5 277,-105.5"/>
<text text-anchor="start" x="284" y="-116.9" font-family="Arial" font-size="14.00" fill="#000000">id </text>
<text text-anchor="start" x="298.7798" y="-116.9" font-family="Arial" font-size="14.00" fill="#666666">[uuid]</text>
<polygon fill="none" stroke="#000000" points="277,-75.5 277,-105.5 719,-105.5 719,-75.5 277,-75.5"/>
<text text-anchor="start" x="284" y="-86.9" font-family="Arial" font-size="14.00" fill="#000000">created_at </text>
<text text-anchor="start" x="354.028" y="-86.9" font-family="Arial" font-size="14.00" fill="#666666">[timestamp without time zone]</text>
<polygon fill="none" stroke="#000000" points="277,-45.5 277,-75.5 719,-75.5 719,-45.5 277,-45.5"/>
<text text-anchor="start" x="284" y="-56.9" font-family="Arial" font-size="14.00" fill="#000000">modified_at </text>
<text text-anchor="start" x="360.2412" y="-56.9" font-family="Arial" font-size="14.00" fill="#666666">[timestamp without time zone]</text>
<polygon fill="none" stroke="#000000" stroke-width="3" points="275.5,-44.5 275.5,-382.5 720.5,-382.5 720.5,-44.5 275.5,-44.5"/>
</g>
<!-- codes.type_of_plan_regulation_group&#45;&gt;codes.type_of_plan_regulation_group -->
<g id="edge1" class="edge">
<title>codes.type_of_plan_regulation_group:parent_id&#45;&gt;codes.type_of_plan_regulation_group:id</title>
<path fill="none" stroke="#000000" d="M499.4472,-175.8449C506.9709,-325.7308 506.4886,-627 498,-627 489.3164,-627 489.0111,-283.7996 497.0842,-135.867"/>
<polygon fill="#000000" stroke="#000000" points="499.442,-175.7445 503.4096,-165.5216 499.1789,-170.7514 498.9158,-165.7583 498.9158,-165.7583 498.9158,-165.7583 499.1789,-170.7514 494.4221,-165.9951 499.442,-175.7445 499.442,-175.7445"/>
<text text-anchor="start" x="117.3813" y="-175.7583" font-family="Arial" font-size="10.00" fill="#000000">FOREIGN KEY (parent_id) REFERENCES codes.type_of_plan_regulation_group(id)</text>
</g>
<!-- hame.plan_regulation_group -->
<g id="node2" class="node">
<title>hame.plan_regulation_group</title>
<polygon fill="#efefef" stroke="transparent" points="313,-685.5 313,-720.5 683,-720.5 683,-685.5 313,-685.5"/>
<polygon fill="none" stroke="#000000" points="313,-685.5 313,-720.5 683,-720.5 683,-685.5 313,-685.5"/>
<text text-anchor="start" x="319.6784" y="-698.3" font-family="Arial Bold" font-size="18.00" fill="#000000">hame.plan_regulation_group</text>
<text text-anchor="start" x="548.7536" y="-698.3" font-family="Arial" font-size="14.00" fill="#000000">    </text>
<text text-anchor="start" x="582.9584" y="-698.3" font-family="Arial" font-size="14.00" fill="#666666">[BASE TABLE]</text>
<polygon fill="none" stroke="#000000" points="313,-655.5 313,-685.5 683,-685.5 683,-655.5 313,-655.5"/>
<text text-anchor="start" x="320" y="-666.9" font-family="Arial" font-size="14.00" fill="#000000">short_name    </text>
<text text-anchor="start" x="428.1122" y="-666.9" font-family="Arial" font-size="14.00" fill="#666666">[varchar]</text>
<polygon fill="none" stroke="#000000" points="313,-625.5 313,-655.5 683,-655.5 683,-625.5 313,-625.5"/>
<text text-anchor="start" x="320" y="-636.9" font-family="Arial" font-size="14.00" fill="#000000">name    </text>
<text text-anchor="start" x="389.2132" y="-636.9" font-family="Arial" font-size="14.00" fill="#666666">[jsonb]</text>
<polygon fill="none" stroke="#000000" points="313,-595.5 313,-625.5 683,-625.5 683,-595.5 313,-595.5"/>
<text text-anchor="start" x="320" y="-606.9" font-family="Arial" font-size="14.00" fill="#000000">id    </text>
<text text-anchor="start" x="365.094" y="-606.9" font-family="Arial" font-size="14.00" fill="#666666">[uuid]</text>
<polygon fill="none" stroke="#000000" points="313,-565.5 313,-595.5 683,-595.5 683,-565.5 313,-565.5"/>
<text text-anchor="start" x="320" y="-576.9" font-family="Arial" font-size="14.00" fill="#000000">created_at    </text>
<text text-anchor="start" x="420.3422" y="-576.9" font-family="Arial" font-size="14.00" fill="#666666">[timestamp without time zone]</text>
<polygon fill="none" stroke="#000000" points="313,-535.5 313,-565.5 683,-565.5 683,-535.5 313,-535.5"/>
<text text-anchor="start" x="320" y="-546.9" font-family="Arial" font-size="14.00" fill="#000000">modified_at    </text>
<text text-anchor="start" x="426.5554" y="-546.9" font-family="Arial" font-size="14.00" fill="#666666">[timestamp without time zone]</text>
<polygon fill="none" stroke="#000000" points="313,-505.5 313,-535.5 683,-535.5 683,-505.5 313,-505.5"/>
<text text-anchor="start" x="320" y="-516.9" font-family="Arial" font-size="14.00" fill="#000000">type_of_plan_regulation_group_id    </text>
<text text-anchor="start" x="565.8414" y="-516.9" font-family="Arial" font-size="14.00" fill="#666666">[uuid]</text>
</g>
<!-- hame.plan_regulation_group&#45;&gt;codes.type_of_plan_regulation_group -->
<g id="edge2" class="edge">
<title>hame.plan_regulation_group:type_of_plan_regulation_group_id&#45;&gt;codes.type_of_plan_regulation_group:id</title>
<path fill="none" stroke="#000000" d="M498.5852,-495.2863C509.1875,-408.8198 660.9961,-509.1576 719,-427 758.2832,-371.3587 787.1111,-120.5 719,-120.5"/>
<polygon fill="#000000" stroke="#000000" points="498.5721,-495.5164 493.5074,-505.2426 498.286,-500.5082 498,-505.5 498,-505.5 498,-505.5 498.286,-500.5082 502.4926,-505.7574 498.5721,-495.5164 498.5721,-495.5164"/>
<text text-anchor="start" x="6.7215" y="-515.5" font-family="Arial" font-size="10.00" fill="#000000">FOREIGN KEY (type_of_plan_regulation_group_id) REFERENCES codes.type_of_plan_regulation_group(id)</text>
</g>
</g>
</svg>
