<?xml version="1.0" encoding="UTF-8" standalone="no"?>
<!DOCTYPE svg PUBLIC "-//W3C//DTD SVG 1.1//EN"
 "http://www.w3.org/Graphics/SVG/1.1/DTD/svg11.dtd">
<!-- Generated by graphviz version 2.40.1 (20161225.0304)
 -->
<!-- Title: codes.type_of_underground Pages: 1 -->
<svg width="2169pt" height="1042pt"
 viewBox="0.00 0.00 2169.00 1042.00" xmlns="http://www.w3.org/2000/svg" xmlns:xlink="http://www.w3.org/1999/xlink">
<g id="graph0" class="graph" transform="scale(1 1) rotate(0) translate(4 1038)">
<title>codes.type_of_underground</title>
<polygon fill="#ffffff" stroke="transparent" points="-4,4 -4,-1038 2165,-1038 2165,4 -4,4"/>
<!-- codes.type_of_underground -->
<g id="node1" class="node">
<title>codes.type_of_underground</title>
<polygon fill="#efefef" stroke="transparent" points="898,-345.5 898,-380.5 1263,-380.5 1263,-345.5 898,-345.5"/>
<polygon fill="none" stroke="#000000" points="898,-345.5 898,-380.5 1263,-380.5 1263,-345.5 898,-345.5"/>
<text text-anchor="start" x="904.6678" y="-358.3" font-family="Arial Bold" font-size="18.00" fill="#000000">codes.type_of_underground</text>
<text text-anchor="start" x="1128.7642" y="-358.3" font-family="Arial" font-size="14.00" fill="#000000">    </text>
<text text-anchor="start" x="1162.969" y="-358.3" font-family="Arial" font-size="14.00" fill="#666666">[BASE TABLE]</text>
<polygon fill="none" stroke="#000000" points="898,-315.5 898,-345.5 1263,-345.5 1263,-315.5 898,-315.5"/>
<text text-anchor="start" x="905" y="-326.9" font-family="Arial" font-size="14.00" fill="#000000">value </text>
<text text-anchor="start" x="942.345" y="-326.9" font-family="Arial" font-size="14.00" fill="#666666">[varchar]</text>
<polygon fill="none" stroke="#000000" points="898,-285.5 898,-315.5 1263,-315.5 1263,-285.5 898,-285.5"/>
<text text-anchor="start" x="905" y="-296.9" font-family="Arial" font-size="14.00" fill="#000000">short_name </text>
<text text-anchor="start" x="982.798" y="-296.9" font-family="Arial" font-size="14.00" fill="#666666">[varchar]</text>
<polygon fill="none" stroke="#000000" points="898,-255.5 898,-285.5 1263,-285.5 1263,-255.5 898,-255.5"/>
<text text-anchor="start" x="905" y="-266.9" font-family="Arial" font-size="14.00" fill="#000000">name </text>
<text text-anchor="start" x="943.899" y="-266.9" font-family="Arial" font-size="14.00" fill="#666666">[jsonb]</text>
<polygon fill="none" stroke="#000000" points="898,-225.5 898,-255.5 1263,-255.5 1263,-225.5 898,-225.5"/>
<text text-anchor="start" x="905" y="-236.9" font-family="Arial" font-size="14.00" fill="#000000">description </text>
<text text-anchor="start" x="976.568" y="-236.9" font-family="Arial" font-size="14.00" fill="#666666">[jsonb]</text>
<polygon fill="none" stroke="#000000" points="898,-195.5 898,-225.5 1263,-225.5 1263,-195.5 898,-195.5"/>
<text text-anchor="start" x="905" y="-206.9" font-family="Arial" font-size="14.00" fill="#000000">status </text>
<text text-anchor="start" x="946.237" y="-206.9" font-family="Arial" font-size="14.00" fill="#666666">[varchar]</text>
<polygon fill="none" stroke="#000000" points="898,-165.5 898,-195.5 1263,-195.5 1263,-165.5 898,-165.5"/>
<text text-anchor="start" x="905" y="-176.9" font-family="Arial" font-size="14.00" fill="#000000">level </text>
<text text-anchor="start" x="937.669" y="-176.9" font-family="Arial" font-size="14.00" fill="#666666">[integer]</text>
<polygon fill="none" stroke="#000000" points="898,-135.5 898,-165.5 1263,-165.5 1263,-135.5 898,-135.5"/>
<text text-anchor="start" x="905" y="-146.9" font-family="Arial" font-size="14.00" fill="#000000">parent_id </text>
<text text-anchor="start" x="967.244" y="-146.9" font-family="Arial" font-size="14.00" fill="#666666">[uuid]</text>
<polygon fill="none" stroke="#000000" points="898,-105.5 898,-135.5 1263,-135.5 1263,-105.5 898,-105.5"/>
<text text-anchor="start" x="905" y="-116.9" font-family="Arial" font-size="14.00" fill="#000000">id </text>
<text text-anchor="start" x="919.7798" y="-116.9" font-family="Arial" font-size="14.00" fill="#666666">[uuid]</text>
<polygon fill="none" stroke="#000000" points="898,-75.5 898,-105.5 1263,-105.5 1263,-75.5 898,-75.5"/>
<text text-anchor="start" x="905" y="-86.9" font-family="Arial" font-size="14.00" fill="#000000">created_at </text>
<text text-anchor="start" x="975.028" y="-86.9" font-family="Arial" font-size="14.00" fill="#666666">[timestamp without time zone]</text>
<polygon fill="none" stroke="#000000" points="898,-45.5 898,-75.5 1263,-75.5 1263,-45.5 898,-45.5"/>
<text text-anchor="start" x="905" y="-56.9" font-family="Arial" font-size="14.00" fill="#000000">modified_at </text>
<text text-anchor="start" x="981.2412" y="-56.9" font-family="Arial" font-size="14.00" fill="#666666">[timestamp without time zone]</text>
<polygon fill="none" stroke="#000000" stroke-width="3" points="896,-44.5 896,-382.5 1264,-382.5 1264,-44.5 896,-44.5"/>
</g>
<!-- codes.type_of_underground&#45;&gt;codes.type_of_underground -->
<g id="edge1" class="edge">
<title>codes.type_of_underground:parent_id&#45;&gt;codes.type_of_underground:id</title>
<path fill="none" stroke="#000000" d="M1082.2634,-175.6963C1089.9782,-347.4685 1089.5571,-694 1081,-694 1072.2725,-694 1072.0082,-305.3139 1080.2074,-135.724"/>
<polygon fill="#000000" stroke="#000000" points="1082.2605,-175.6322 1086.2877,-165.4326 1082.0266,-170.6377 1081.7926,-165.6431 1081.7926,-165.6431 1081.7926,-165.6431 1082.0266,-170.6377 1077.2976,-165.8537 1082.2605,-175.6322 1082.2605,-175.6322"/>
<text text-anchor="start" x="1088.6531" y="-175.6431" font-family="Arial" font-size="10.00" fill="#000000">FOREIGN KEY (parent_id) REFERENCES codes.type_of_underground(id)</text>
</g>
<!-- arho.land_use_area -->
<g id="node2" class="node">
<title>arho.land_use_area</title>
<polygon fill="#efefef" stroke="transparent" points="105,-955.5 105,-990.5 412,-990.5 412,-955.5 105,-955.5"/>
<polygon fill="none" stroke="#000000" points="105,-955.5 105,-990.5 412,-990.5 412,-955.5 105,-955.5"/>
<text text-anchor="start" x="114.6853" y="-968.3" font-family="Arial Bold" font-size="18.00" fill="#000000">arho.land_use_area</text>
<text text-anchor="start" x="274.7467" y="-968.3" font-family="Arial" font-size="14.00" fill="#000000">    </text>
<text text-anchor="start" x="308.9515" y="-968.3" font-family="Arial" font-size="14.00" fill="#666666">[BASE TABLE]</text>
<polygon fill="none" stroke="#000000" points="105,-925.5 105,-955.5 412,-955.5 412,-925.5 105,-925.5"/>
<text text-anchor="start" x="112" y="-936.9" font-family="Arial" font-size="14.00" fill="#000000">geom    </text>
<text text-anchor="start" x="181.2132" y="-936.9" font-family="Arial" font-size="14.00" fill="#666666">[geometry(MultiPolygon,3067)]</text>
<polygon fill="none" stroke="#000000" points="105,-895.5 105,-925.5 412,-925.5 412,-895.5 105,-895.5"/>
<text text-anchor="start" x="112" y="-906.9" font-family="Arial" font-size="14.00" fill="#000000">description    </text>
<text text-anchor="start" x="213.8822" y="-906.9" font-family="Arial" font-size="14.00" fill="#666666">[jsonb]</text>
<polygon fill="none" stroke="#000000" points="105,-865.5 105,-895.5 412,-895.5 412,-865.5 105,-865.5"/>
<text text-anchor="start" x="112" y="-876.9" font-family="Arial" font-size="14.00" fill="#000000">source_data_object    </text>
<text text-anchor="start" x="268.3618" y="-876.9" font-family="Arial" font-size="14.00" fill="#666666">[varchar]</text>
<polygon fill="none" stroke="#000000" points="105,-835.5 105,-865.5 412,-865.5 412,-835.5 105,-835.5"/>
<text text-anchor="start" x="112" y="-846.9" font-family="Arial" font-size="14.00" fill="#000000">height_range    </text>
<text text-anchor="start" x="227.906" y="-846.9" font-family="Arial" font-size="14.00" fill="#666666">[numrange]</text>
<polygon fill="none" stroke="#000000" points="105,-805.5 105,-835.5 412,-835.5 412,-805.5 105,-805.5"/>
<text text-anchor="start" x="112" y="-816.9" font-family="Arial" font-size="14.00" fill="#000000">height_unit    </text>
<text text-anchor="start" x="214.6774" y="-816.9" font-family="Arial" font-size="14.00" fill="#666666">[varchar]</text>
<polygon fill="none" stroke="#000000" points="105,-775.5 105,-805.5 412,-805.5 412,-775.5 105,-775.5"/>
<text text-anchor="start" x="112" y="-786.9" font-family="Arial" font-size="14.00" fill="#000000">ordering    </text>
<text text-anchor="start" x="197.5456" y="-786.9" font-family="Arial" font-size="14.00" fill="#666666">[integer]</text>
<polygon fill="none" stroke="#000000" points="105,-745.5 105,-775.5 412,-775.5 412,-745.5 105,-745.5"/>
<text text-anchor="start" x="112" y="-756.9" font-family="Arial" font-size="14.00" fill="#000000">type_of_underground_id    </text>
<text text-anchor="start" x="297.9354" y="-756.9" font-family="Arial" font-size="14.00" fill="#666666">[uuid]</text>
<polygon fill="none" stroke="#000000" points="105,-715.5 105,-745.5 412,-745.5 412,-715.5 105,-715.5"/>
<text text-anchor="start" x="112" y="-726.9" font-family="Arial" font-size="14.00" fill="#000000">plan_id    </text>
<text text-anchor="start" x="191.331" y="-726.9" font-family="Arial" font-size="14.00" fill="#666666">[uuid]</text>
<polygon fill="none" stroke="#000000" points="105,-685.5 105,-715.5 412,-715.5 412,-685.5 105,-685.5"/>
<text text-anchor="start" x="112" y="-696.9" font-family="Arial" font-size="14.00" fill="#000000">plan_regulation_group_id    </text>
<text text-anchor="start" x="304.1472" y="-696.9" font-family="Arial" font-size="14.00" fill="#666666">[uuid]</text>
<polygon fill="none" stroke="#000000" points="105,-655.5 105,-685.5 412,-685.5 412,-655.5 105,-655.5"/>
<text text-anchor="start" x="112" y="-666.9" font-family="Arial" font-size="14.00" fill="#000000">name    </text>
<text text-anchor="start" x="181.2132" y="-666.9" font-family="Arial" font-size="14.00" fill="#666666">[jsonb]</text>
<polygon fill="none" stroke="#000000" points="105,-625.5 105,-655.5 412,-655.5 412,-625.5 105,-625.5"/>
<text text-anchor="start" x="111.8675" y="-636.9" font-family="Arial" font-size="14.00" fill="#000000">exported_at    </text>
<text text-anchor="start" x="219.9923" y="-636.9" font-family="Arial" font-size="14.00" fill="#666666">[timestamp without time zone]</text>
<polygon fill="none" stroke="#000000" points="105,-595.5 105,-625.5 412,-625.5 412,-595.5 105,-595.5"/>
<text text-anchor="start" x="112" y="-606.9" font-family="Arial" font-size="14.00" fill="#000000">lifecycle_status_id    </text>
<text text-anchor="start" x="259.7812" y="-606.9" font-family="Arial" font-size="14.00" fill="#666666">[uuid]</text>
<polygon fill="none" stroke="#000000" points="105,-565.5 105,-595.5 412,-595.5 412,-565.5 105,-565.5"/>
<text text-anchor="start" x="112" y="-576.9" font-family="Arial" font-size="14.00" fill="#000000">id    </text>
<text text-anchor="start" x="157.094" y="-576.9" font-family="Arial" font-size="14.00" fill="#666666">[uuid]</text>
<polygon fill="none" stroke="#000000" points="105,-535.5 105,-565.5 412,-565.5 412,-535.5 105,-535.5"/>
<text text-anchor="start" x="112" y="-546.9" font-family="Arial" font-size="14.00" fill="#000000">created_at    </text>
<text text-anchor="start" x="212.3422" y="-546.9" font-family="Arial" font-size="14.00" fill="#666666">[timestamp without time zone]</text>
<polygon fill="none" stroke="#000000" points="105,-505.5 105,-535.5 412,-535.5 412,-505.5 105,-505.5"/>
<text text-anchor="start" x="112" y="-516.9" font-family="Arial" font-size="14.00" fill="#000000">modified_at    </text>
<text text-anchor="start" x="218.5554" y="-516.9" font-family="Arial" font-size="14.00" fill="#666666">[timestamp without time zone]</text>
</g>
<!-- arho.land_use_area&#45;&gt;codes.type_of_underground -->
<g id="edge2" class="edge">
<title>arho.land_use_area:type_of_underground_id&#45;&gt;codes.type_of_underground:id</title>
<path fill="none" stroke="#000000" d="M421.9838,-758.417C473.8188,-734.8104 430.5745,-517.4892 463,-463 588.8354,-251.5411 651.9322,-120.5 898,-120.5"/>
<polygon fill="#000000" stroke="#000000" points="421.7892,-758.4575 411.0809,-756.0949 416.8946,-759.4788 412,-760.5 412,-760.5 412,-760.5 416.8946,-759.4788 412.9191,-764.9051 421.7892,-758.4575 421.7892,-758.4575"/>
<text text-anchor="start" x="6.5115" y="-770.5" font-family="Arial" font-size="10.00" fill="#000000">FOREIGN KEY (type_of_underground_id) REFERENCES codes.type_of_underground(id)</text>
</g>
<!-- arho.land_use_point -->
<g id="node3" class="node">
<title>arho.land_use_point</title>
<polygon fill="#efefef" stroke="transparent" points="516,-955.5 516,-990.5 823,-990.5 823,-955.5 516,-955.5"/>
<polygon fill="none" stroke="#000000" points="516,-955.5 516,-990.5 823,-990.5 823,-955.5 516,-955.5"/>
<text text-anchor="start" x="524.1832" y="-968.3" font-family="Arial Bold" font-size="18.00" fill="#000000">arho.land_use_point</text>
<text text-anchor="start" x="687.2488" y="-968.3" font-family="Arial" font-size="14.00" fill="#000000">    </text>
<text text-anchor="start" x="721.4536" y="-968.3" font-family="Arial" font-size="14.00" fill="#666666">[BASE TABLE]</text>
<polygon fill="none" stroke="#000000" points="516,-925.5 516,-955.5 823,-955.5 823,-925.5 516,-925.5"/>
<text text-anchor="start" x="523" y="-936.9" font-family="Arial" font-size="14.00" fill="#000000">geom    </text>
<text text-anchor="start" x="592.2132" y="-936.9" font-family="Arial" font-size="14.00" fill="#666666">[geometry(MultiPoint,3067)]</text>
<polygon fill="none" stroke="#000000" points="516,-895.5 516,-925.5 823,-925.5 823,-895.5 516,-895.5"/>
<text text-anchor="start" x="523" y="-906.9" font-family="Arial" font-size="14.00" fill="#000000">description    </text>
<text text-anchor="start" x="624.8822" y="-906.9" font-family="Arial" font-size="14.00" fill="#666666">[jsonb]</text>
<polygon fill="none" stroke="#000000" points="516,-865.5 516,-895.5 823,-895.5 823,-865.5 516,-865.5"/>
<text text-anchor="start" x="523" y="-876.9" font-family="Arial" font-size="14.00" fill="#000000">source_data_object    </text>
<text text-anchor="start" x="679.3618" y="-876.9" font-family="Arial" font-size="14.00" fill="#666666">[varchar]</text>
<polygon fill="none" stroke="#000000" points="516,-835.5 516,-865.5 823,-865.5 823,-835.5 516,-835.5"/>
<text text-anchor="start" x="523" y="-846.9" font-family="Arial" font-size="14.00" fill="#000000">height_range    </text>
<text text-anchor="start" x="638.906" y="-846.9" font-family="Arial" font-size="14.00" fill="#666666">[numrange]</text>
<polygon fill="none" stroke="#000000" points="516,-805.5 516,-835.5 823,-835.5 823,-805.5 516,-805.5"/>
<text text-anchor="start" x="523" y="-816.9" font-family="Arial" font-size="14.00" fill="#000000">height_unit    </text>
<text text-anchor="start" x="625.6774" y="-816.9" font-family="Arial" font-size="14.00" fill="#666666">[varchar]</text>
<polygon fill="none" stroke="#000000" points="516,-775.5 516,-805.5 823,-805.5 823,-775.5 516,-775.5"/>
<text text-anchor="start" x="523" y="-786.9" font-family="Arial" font-size="14.00" fill="#000000">ordering    </text>
<text text-anchor="start" x="608.5456" y="-786.9" font-family="Arial" font-size="14.00" fill="#666666">[integer]</text>
<polygon fill="none" stroke="#000000" points="516,-745.5 516,-775.5 823,-775.5 823,-745.5 516,-745.5"/>
<text text-anchor="start" x="523" y="-756.9" font-family="Arial" font-size="14.00" fill="#000000">type_of_underground_id    </text>
<text text-anchor="start" x="708.9354" y="-756.9" font-family="Arial" font-size="14.00" fill="#666666">[uuid]</text>
<polygon fill="none" stroke="#000000" points="516,-715.5 516,-745.5 823,-745.5 823,-715.5 516,-715.5"/>
<text text-anchor="start" x="523" y="-726.9" font-family="Arial" font-size="14.00" fill="#000000">plan_id    </text>
<text text-anchor="start" x="602.331" y="-726.9" font-family="Arial" font-size="14.00" fill="#666666">[uuid]</text>
<polygon fill="none" stroke="#000000" points="516,-685.5 516,-715.5 823,-715.5 823,-685.5 516,-685.5"/>
<text text-anchor="start" x="523" y="-696.9" font-family="Arial" font-size="14.00" fill="#000000">plan_regulation_group_id    </text>
<text text-anchor="start" x="715.1472" y="-696.9" font-family="Arial" font-size="14.00" fill="#666666">[uuid]</text>
<polygon fill="none" stroke="#000000" points="516,-655.5 516,-685.5 823,-685.5 823,-655.5 516,-655.5"/>
<text text-anchor="start" x="523" y="-666.9" font-family="Arial" font-size="14.00" fill="#000000">name    </text>
<text text-anchor="start" x="592.2132" y="-666.9" font-family="Arial" font-size="14.00" fill="#666666">[jsonb]</text>
<polygon fill="none" stroke="#000000" points="516,-625.5 516,-655.5 823,-655.5 823,-625.5 516,-625.5"/>
<text text-anchor="start" x="522.8675" y="-636.9" font-family="Arial" font-size="14.00" fill="#000000">exported_at    </text>
<text text-anchor="start" x="630.9923" y="-636.9" font-family="Arial" font-size="14.00" fill="#666666">[timestamp without time zone]</text>
<polygon fill="none" stroke="#000000" points="516,-595.5 516,-625.5 823,-625.5 823,-595.5 516,-595.5"/>
<text text-anchor="start" x="523" y="-606.9" font-family="Arial" font-size="14.00" fill="#000000">lifecycle_status_id    </text>
<text text-anchor="start" x="670.7812" y="-606.9" font-family="Arial" font-size="14.00" fill="#666666">[uuid]</text>
<polygon fill="none" stroke="#000000" points="516,-565.5 516,-595.5 823,-595.5 823,-565.5 516,-565.5"/>
<text text-anchor="start" x="523" y="-576.9" font-family="Arial" font-size="14.00" fill="#000000">id    </text>
<text text-anchor="start" x="568.094" y="-576.9" font-family="Arial" font-size="14.00" fill="#666666">[uuid]</text>
<polygon fill="none" stroke="#000000" points="516,-535.5 516,-565.5 823,-565.5 823,-535.5 516,-535.5"/>
<text text-anchor="start" x="523" y="-546.9" font-family="Arial" font-size="14.00" fill="#000000">created_at    </text>
<text text-anchor="start" x="623.3422" y="-546.9" font-family="Arial" font-size="14.00" fill="#666666">[timestamp without time zone]</text>
<polygon fill="none" stroke="#000000" points="516,-505.5 516,-535.5 823,-535.5 823,-505.5 516,-505.5"/>
<text text-anchor="start" x="523" y="-516.9" font-family="Arial" font-size="14.00" fill="#000000">modified_at    </text>
<text text-anchor="start" x="629.5554" y="-516.9" font-family="Arial" font-size="14.00" fill="#666666">[timestamp without time zone]</text>
</g>
<!-- arho.land_use_point&#45;&gt;codes.type_of_underground -->
<g id="edge3" class="edge">
<title>arho.land_use_point:type_of_underground_id&#45;&gt;codes.type_of_underground:id</title>
<path fill="none" stroke="#000000" d="M832.1757,-756.4131C888.5116,-701.9063 829.7584,-120.5 898,-120.5"/>
<polygon fill="#000000" stroke="#000000" points="832.1349,-756.4312 821.1691,-756.3893 827.5674,-758.4656 823,-760.5 823,-760.5 823,-760.5 827.5674,-758.4656 824.8309,-764.6107 832.1349,-756.4312 832.1349,-756.4312"/>
<text text-anchor="start" x="829.5115" y="-770.5" font-family="Arial" font-size="10.00" fill="#000000">FOREIGN KEY (type_of_underground_id) REFERENCES codes.type_of_underground(id)</text>
</g>
<!-- arho.line -->
<g id="node4" class="node">
<title>arho.line</title>
<polygon fill="#efefef" stroke="transparent" points="927,-955.5 927,-990.5 1234,-990.5 1234,-955.5 927,-955.5"/>
<polygon fill="none" stroke="#000000" points="927,-955.5 927,-990.5 1234,-990.5 1234,-955.5 927,-955.5"/>
<text text-anchor="start" x="982.2091" y="-968.3" font-family="Arial Bold" font-size="18.00" fill="#000000">arho.line</text>
<text text-anchor="start" x="1051.2229" y="-968.3" font-family="Arial" font-size="14.00" fill="#000000">    </text>
<text text-anchor="start" x="1085.4277" y="-968.3" font-family="Arial" font-size="14.00" fill="#666666">[BASE TABLE]</text>
<polygon fill="none" stroke="#000000" points="927,-925.5 927,-955.5 1234,-955.5 1234,-925.5 927,-925.5"/>
<text text-anchor="start" x="934" y="-936.9" font-family="Arial" font-size="14.00" fill="#000000">geom    </text>
<text text-anchor="start" x="1003.2132" y="-936.9" font-family="Arial" font-size="14.00" fill="#666666">[geometry(MultiLineString,3067)]</text>
<polygon fill="none" stroke="#000000" points="927,-895.5 927,-925.5 1234,-925.5 1234,-895.5 927,-895.5"/>
<text text-anchor="start" x="934" y="-906.9" font-family="Arial" font-size="14.00" fill="#000000">description    </text>
<text text-anchor="start" x="1035.8822" y="-906.9" font-family="Arial" font-size="14.00" fill="#666666">[jsonb]</text>
<polygon fill="none" stroke="#000000" points="927,-865.5 927,-895.5 1234,-895.5 1234,-865.5 927,-865.5"/>
<text text-anchor="start" x="934" y="-876.9" font-family="Arial" font-size="14.00" fill="#000000">source_data_object    </text>
<text text-anchor="start" x="1090.3618" y="-876.9" font-family="Arial" font-size="14.00" fill="#666666">[varchar]</text>
<polygon fill="none" stroke="#000000" points="927,-835.5 927,-865.5 1234,-865.5 1234,-835.5 927,-835.5"/>
<text text-anchor="start" x="934" y="-846.9" font-family="Arial" font-size="14.00" fill="#000000">height_range    </text>
<text text-anchor="start" x="1049.906" y="-846.9" font-family="Arial" font-size="14.00" fill="#666666">[numrange]</text>
<polygon fill="none" stroke="#000000" points="927,-805.5 927,-835.5 1234,-835.5 1234,-805.5 927,-805.5"/>
<text text-anchor="start" x="934" y="-816.9" font-family="Arial" font-size="14.00" fill="#000000">height_unit    </text>
<text text-anchor="start" x="1036.6774" y="-816.9" font-family="Arial" font-size="14.00" fill="#666666">[varchar]</text>
<polygon fill="none" stroke="#000000" points="927,-775.5 927,-805.5 1234,-805.5 1234,-775.5 927,-775.5"/>
<text text-anchor="start" x="934" y="-786.9" font-family="Arial" font-size="14.00" fill="#000000">ordering    </text>
<text text-anchor="start" x="1019.5456" y="-786.9" font-family="Arial" font-size="14.00" fill="#666666">[integer]</text>
<polygon fill="none" stroke="#000000" points="927,-745.5 927,-775.5 1234,-775.5 1234,-745.5 927,-745.5"/>
<text text-anchor="start" x="934" y="-756.9" font-family="Arial" font-size="14.00" fill="#000000">type_of_underground_id    </text>
<text text-anchor="start" x="1119.9354" y="-756.9" font-family="Arial" font-size="14.00" fill="#666666">[uuid]</text>
<polygon fill="none" stroke="#000000" points="927,-715.5 927,-745.5 1234,-745.5 1234,-715.5 927,-715.5"/>
<text text-anchor="start" x="934" y="-726.9" font-family="Arial" font-size="14.00" fill="#000000">plan_id    </text>
<text text-anchor="start" x="1013.331" y="-726.9" font-family="Arial" font-size="14.00" fill="#666666">[uuid]</text>
<polygon fill="none" stroke="#000000" points="927,-685.5 927,-715.5 1234,-715.5 1234,-685.5 927,-685.5"/>
<text text-anchor="start" x="934" y="-696.9" font-family="Arial" font-size="14.00" fill="#000000">plan_regulation_group_id    </text>
<text text-anchor="start" x="1126.1472" y="-696.9" font-family="Arial" font-size="14.00" fill="#666666">[uuid]</text>
<polygon fill="none" stroke="#000000" points="927,-655.5 927,-685.5 1234,-685.5 1234,-655.5 927,-655.5"/>
<text text-anchor="start" x="934" y="-666.9" font-family="Arial" font-size="14.00" fill="#000000">name    </text>
<text text-anchor="start" x="1003.2132" y="-666.9" font-family="Arial" font-size="14.00" fill="#666666">[jsonb]</text>
<polygon fill="none" stroke="#000000" points="927,-625.5 927,-655.5 1234,-655.5 1234,-625.5 927,-625.5"/>
<text text-anchor="start" x="933.8675" y="-636.9" font-family="Arial" font-size="14.00" fill="#000000">exported_at    </text>
<text text-anchor="start" x="1041.9923" y="-636.9" font-family="Arial" font-size="14.00" fill="#666666">[timestamp without time zone]</text>
<polygon fill="none" stroke="#000000" points="927,-595.5 927,-625.5 1234,-625.5 1234,-595.5 927,-595.5"/>
<text text-anchor="start" x="934" y="-606.9" font-family="Arial" font-size="14.00" fill="#000000">lifecycle_status_id    </text>
<text text-anchor="start" x="1081.7812" y="-606.9" font-family="Arial" font-size="14.00" fill="#666666">[uuid]</text>
<polygon fill="none" stroke="#000000" points="927,-565.5 927,-595.5 1234,-595.5 1234,-565.5 927,-565.5"/>
<text text-anchor="start" x="934" y="-576.9" font-family="Arial" font-size="14.00" fill="#000000">id    </text>
<text text-anchor="start" x="979.094" y="-576.9" font-family="Arial" font-size="14.00" fill="#666666">[uuid]</text>
<polygon fill="none" stroke="#000000" points="927,-535.5 927,-565.5 1234,-565.5 1234,-535.5 927,-535.5"/>
<text text-anchor="start" x="934" y="-546.9" font-family="Arial" font-size="14.00" fill="#000000">created_at    </text>
<text text-anchor="start" x="1034.3422" y="-546.9" font-family="Arial" font-size="14.00" fill="#666666">[timestamp without time zone]</text>
<polygon fill="none" stroke="#000000" points="927,-505.5 927,-535.5 1234,-535.5 1234,-505.5 927,-505.5"/>
<text text-anchor="start" x="934" y="-516.9" font-family="Arial" font-size="14.00" fill="#000000">modified_at    </text>
<text text-anchor="start" x="1040.5554" y="-516.9" font-family="Arial" font-size="14.00" fill="#666666">[timestamp without time zone]</text>
</g>
<!-- arho.line&#45;&gt;codes.type_of_underground -->
<g id="edge4" class="edge">
<title>arho.line:type_of_underground_id&#45;&gt;codes.type_of_underground:id</title>
<path fill="none" stroke="#000000" d="M920.2156,-752.8666C887.938,-680.6587 864.702,-120.5 898,-120.5"/>
<polygon fill="#000000" stroke="#000000" points="920.3568,-753.0255 923.6365,-763.4894 923.6784,-756.7627 927,-760.5 927,-760.5 927,-760.5 923.6784,-756.7627 930.3635,-757.5106 920.3568,-753.0255 920.3568,-753.0255"/>
<text text-anchor="start" x="624.5115" y="-744.5" font-family="Arial" font-size="10.00" fill="#000000">FOREIGN KEY (type_of_underground_id) REFERENCES codes.type_of_underground(id)</text>
</g>
<!-- arho.other_area -->
<g id="node5" class="node">
<title>arho.other_area</title>
<polygon fill="#efefef" stroke="transparent" points="1338,-955.5 1338,-990.5 1645,-990.5 1645,-955.5 1338,-955.5"/>
<polygon fill="none" stroke="#000000" points="1338,-955.5 1338,-990.5 1645,-990.5 1645,-955.5 1338,-955.5"/>
<text text-anchor="start" x="1363.6945" y="-968.3" font-family="Arial Bold" font-size="18.00" fill="#000000">arho.other_area</text>
<text text-anchor="start" x="1491.7375" y="-968.3" font-family="Arial" font-size="14.00" fill="#000000">    </text>
<text text-anchor="start" x="1525.9423" y="-968.3" font-family="Arial" font-size="14.00" fill="#666666">[BASE TABLE]</text>
<polygon fill="none" stroke="#000000" points="1338,-925.5 1338,-955.5 1645,-955.5 1645,-925.5 1338,-925.5"/>
<text text-anchor="start" x="1345" y="-936.9" font-family="Arial" font-size="14.00" fill="#000000">geom    </text>
<text text-anchor="start" x="1414.2132" y="-936.9" font-family="Arial" font-size="14.00" fill="#666666">[geometry(MultiPolygon,3067)]</text>
<polygon fill="none" stroke="#000000" points="1338,-895.5 1338,-925.5 1645,-925.5 1645,-895.5 1338,-895.5"/>
<text text-anchor="start" x="1345" y="-906.9" font-family="Arial" font-size="14.00" fill="#000000">description    </text>
<text text-anchor="start" x="1446.8822" y="-906.9" font-family="Arial" font-size="14.00" fill="#666666">[jsonb]</text>
<polygon fill="none" stroke="#000000" points="1338,-865.5 1338,-895.5 1645,-895.5 1645,-865.5 1338,-865.5"/>
<text text-anchor="start" x="1345" y="-876.9" font-family="Arial" font-size="14.00" fill="#000000">source_data_object    </text>
<text text-anchor="start" x="1501.3618" y="-876.9" font-family="Arial" font-size="14.00" fill="#666666">[varchar]</text>
<polygon fill="none" stroke="#000000" points="1338,-835.5 1338,-865.5 1645,-865.5 1645,-835.5 1338,-835.5"/>
<text text-anchor="start" x="1345" y="-846.9" font-family="Arial" font-size="14.00" fill="#000000">height_range    </text>
<text text-anchor="start" x="1460.906" y="-846.9" font-family="Arial" font-size="14.00" fill="#666666">[numrange]</text>
<polygon fill="none" stroke="#000000" points="1338,-805.5 1338,-835.5 1645,-835.5 1645,-805.5 1338,-805.5"/>
<text text-anchor="start" x="1345" y="-816.9" font-family="Arial" font-size="14.00" fill="#000000">height_unit    </text>
<text text-anchor="start" x="1447.6774" y="-816.9" font-family="Arial" font-size="14.00" fill="#666666">[varchar]</text>
<polygon fill="none" stroke="#000000" points="1338,-775.5 1338,-805.5 1645,-805.5 1645,-775.5 1338,-775.5"/>
<text text-anchor="start" x="1345" y="-786.9" font-family="Arial" font-size="14.00" fill="#000000">ordering    </text>
<text text-anchor="start" x="1430.5456" y="-786.9" font-family="Arial" font-size="14.00" fill="#666666">[integer]</text>
<polygon fill="none" stroke="#000000" points="1338,-745.5 1338,-775.5 1645,-775.5 1645,-745.5 1338,-745.5"/>
<text text-anchor="start" x="1345" y="-756.9" font-family="Arial" font-size="14.00" fill="#000000">type_of_underground_id    </text>
<text text-anchor="start" x="1530.9354" y="-756.9" font-family="Arial" font-size="14.00" fill="#666666">[uuid]</text>
<polygon fill="none" stroke="#000000" points="1338,-715.5 1338,-745.5 1645,-745.5 1645,-715.5 1338,-715.5"/>
<text text-anchor="start" x="1345" y="-726.9" font-family="Arial" font-size="14.00" fill="#000000">plan_id    </text>
<text text-anchor="start" x="1424.331" y="-726.9" font-family="Arial" font-size="14.00" fill="#666666">[uuid]</text>
<polygon fill="none" stroke="#000000" points="1338,-685.5 1338,-715.5 1645,-715.5 1645,-685.5 1338,-685.5"/>
<text text-anchor="start" x="1345" y="-696.9" font-family="Arial" font-size="14.00" fill="#000000">plan_regulation_group_id    </text>
<text text-anchor="start" x="1537.1472" y="-696.9" font-family="Arial" font-size="14.00" fill="#666666">[uuid]</text>
<polygon fill="none" stroke="#000000" points="1338,-655.5 1338,-685.5 1645,-685.5 1645,-655.5 1338,-655.5"/>
<text text-anchor="start" x="1345" y="-666.9" font-family="Arial" font-size="14.00" fill="#000000">name    </text>
<text text-anchor="start" x="1414.2132" y="-666.9" font-family="Arial" font-size="14.00" fill="#666666">[jsonb]</text>
<polygon fill="none" stroke="#000000" points="1338,-625.5 1338,-655.5 1645,-655.5 1645,-625.5 1338,-625.5"/>
<text text-anchor="start" x="1344.8675" y="-636.9" font-family="Arial" font-size="14.00" fill="#000000">exported_at    </text>
<text text-anchor="start" x="1452.9923" y="-636.9" font-family="Arial" font-size="14.00" fill="#666666">[timestamp without time zone]</text>
<polygon fill="none" stroke="#000000" points="1338,-595.5 1338,-625.5 1645,-625.5 1645,-595.5 1338,-595.5"/>
<text text-anchor="start" x="1345" y="-606.9" font-family="Arial" font-size="14.00" fill="#000000">lifecycle_status_id    </text>
<text text-anchor="start" x="1492.7812" y="-606.9" font-family="Arial" font-size="14.00" fill="#666666">[uuid]</text>
<polygon fill="none" stroke="#000000" points="1338,-565.5 1338,-595.5 1645,-595.5 1645,-565.5 1338,-565.5"/>
<text text-anchor="start" x="1345" y="-576.9" font-family="Arial" font-size="14.00" fill="#000000">id    </text>
<text text-anchor="start" x="1390.094" y="-576.9" font-family="Arial" font-size="14.00" fill="#666666">[uuid]</text>
<polygon fill="none" stroke="#000000" points="1338,-535.5 1338,-565.5 1645,-565.5 1645,-535.5 1338,-535.5"/>
<text text-anchor="start" x="1345" y="-546.9" font-family="Arial" font-size="14.00" fill="#000000">created_at    </text>
<text text-anchor="start" x="1445.3422" y="-546.9" font-family="Arial" font-size="14.00" fill="#666666">[timestamp without time zone]</text>
<polygon fill="none" stroke="#000000" points="1338,-505.5 1338,-535.5 1645,-535.5 1645,-505.5 1338,-505.5"/>
<text text-anchor="start" x="1345" y="-516.9" font-family="Arial" font-size="14.00" fill="#000000">modified_at    </text>
<text text-anchor="start" x="1451.5554" y="-516.9" font-family="Arial" font-size="14.00" fill="#666666">[timestamp without time zone]</text>
</g>
<!-- arho.other_area&#45;&gt;codes.type_of_underground -->
<g id="edge5" class="edge">
<title>arho.other_area:type_of_underground_id&#45;&gt;codes.type_of_underground:id</title>
<path fill="none" stroke="#000000" d="M1328.8243,-756.4131C1272.4884,-701.9063 1331.2416,-120.5 1263,-120.5"/>
<polygon fill="#000000" stroke="#000000" points="1328.8651,-756.4312 1336.1691,-764.6107 1333.4326,-758.4656 1338,-760.5 1338,-760.5 1338,-760.5 1333.4326,-758.4656 1339.8309,-756.3893 1328.8651,-756.4312 1328.8651,-756.4312"/>
<text text-anchor="start" x="1138.5115" y="-744.5" font-family="Arial" font-size="10.00" fill="#000000">FOREIGN KEY (type_of_underground_id) REFERENCES codes.type_of_underground(id)</text>
</g>
<!-- arho.other_point -->
<g id="node6" class="node">
<title>arho.other_point</title>
<polygon fill="#efefef" stroke="transparent" points="1749,-955.5 1749,-990.5 2056,-990.5 2056,-955.5 1749,-955.5"/>
<polygon fill="none" stroke="#000000" points="1749,-955.5 1749,-990.5 2056,-990.5 2056,-955.5 1749,-955.5"/>
<text text-anchor="start" x="1773.1924" y="-968.3" font-family="Arial Bold" font-size="18.00" fill="#000000">arho.other_point</text>
<text text-anchor="start" x="1904.2396" y="-968.3" font-family="Arial" font-size="14.00" fill="#000000">    </text>
<text text-anchor="start" x="1938.4444" y="-968.3" font-family="Arial" font-size="14.00" fill="#666666">[BASE TABLE]</text>
<polygon fill="none" stroke="#000000" points="1749,-925.5 1749,-955.5 2056,-955.5 2056,-925.5 1749,-925.5"/>
<text text-anchor="start" x="1756" y="-936.9" font-family="Arial" font-size="14.00" fill="#000000">geom    </text>
<text text-anchor="start" x="1825.2132" y="-936.9" font-family="Arial" font-size="14.00" fill="#666666">[geometry(MultiPoint,3067)]</text>
<polygon fill="none" stroke="#000000" points="1749,-895.5 1749,-925.5 2056,-925.5 2056,-895.5 1749,-895.5"/>
<text text-anchor="start" x="1756" y="-906.9" font-family="Arial" font-size="14.00" fill="#000000">description    </text>
<text text-anchor="start" x="1857.8822" y="-906.9" font-family="Arial" font-size="14.00" fill="#666666">[jsonb]</text>
<polygon fill="none" stroke="#000000" points="1749,-865.5 1749,-895.5 2056,-895.5 2056,-865.5 1749,-865.5"/>
<text text-anchor="start" x="1756" y="-876.9" font-family="Arial" font-size="14.00" fill="#000000">source_data_object    </text>
<text text-anchor="start" x="1912.3618" y="-876.9" font-family="Arial" font-size="14.00" fill="#666666">[varchar]</text>
<polygon fill="none" stroke="#000000" points="1749,-835.5 1749,-865.5 2056,-865.5 2056,-835.5 1749,-835.5"/>
<text text-anchor="start" x="1756" y="-846.9" font-family="Arial" font-size="14.00" fill="#000000">height_range    </text>
<text text-anchor="start" x="1871.906" y="-846.9" font-family="Arial" font-size="14.00" fill="#666666">[numrange]</text>
<polygon fill="none" stroke="#000000" points="1749,-805.5 1749,-835.5 2056,-835.5 2056,-805.5 1749,-805.5"/>
<text text-anchor="start" x="1756" y="-816.9" font-family="Arial" font-size="14.00" fill="#000000">height_unit    </text>
<text text-anchor="start" x="1858.6774" y="-816.9" font-family="Arial" font-size="14.00" fill="#666666">[varchar]</text>
<polygon fill="none" stroke="#000000" points="1749,-775.5 1749,-805.5 2056,-805.5 2056,-775.5 1749,-775.5"/>
<text text-anchor="start" x="1756" y="-786.9" font-family="Arial" font-size="14.00" fill="#000000">ordering    </text>
<text text-anchor="start" x="1841.5456" y="-786.9" font-family="Arial" font-size="14.00" fill="#666666">[integer]</text>
<polygon fill="none" stroke="#000000" points="1749,-745.5 1749,-775.5 2056,-775.5 2056,-745.5 1749,-745.5"/>
<text text-anchor="start" x="1756" y="-756.9" font-family="Arial" font-size="14.00" fill="#000000">type_of_underground_id    </text>
<text text-anchor="start" x="1941.9354" y="-756.9" font-family="Arial" font-size="14.00" fill="#666666">[uuid]</text>
<polygon fill="none" stroke="#000000" points="1749,-715.5 1749,-745.5 2056,-745.5 2056,-715.5 1749,-715.5"/>
<text text-anchor="start" x="1756" y="-726.9" font-family="Arial" font-size="14.00" fill="#000000">plan_id    </text>
<text text-anchor="start" x="1835.331" y="-726.9" font-family="Arial" font-size="14.00" fill="#666666">[uuid]</text>
<polygon fill="none" stroke="#000000" points="1749,-685.5 1749,-715.5 2056,-715.5 2056,-685.5 1749,-685.5"/>
<text text-anchor="start" x="1756" y="-696.9" font-family="Arial" font-size="14.00" fill="#000000">plan_regulation_group_id    </text>
<text text-anchor="start" x="1948.1472" y="-696.9" font-family="Arial" font-size="14.00" fill="#666666">[uuid]</text>
<polygon fill="none" stroke="#000000" points="1749,-655.5 1749,-685.5 2056,-685.5 2056,-655.5 1749,-655.5"/>
<text text-anchor="start" x="1756" y="-666.9" font-family="Arial" font-size="14.00" fill="#000000">name    </text>
<text text-anchor="start" x="1825.2132" y="-666.9" font-family="Arial" font-size="14.00" fill="#666666">[jsonb]</text>
<polygon fill="none" stroke="#000000" points="1749,-625.5 1749,-655.5 2056,-655.5 2056,-625.5 1749,-625.5"/>
<text text-anchor="start" x="1755.8675" y="-636.9" font-family="Arial" font-size="14.00" fill="#000000">exported_at    </text>
<text text-anchor="start" x="1863.9923" y="-636.9" font-family="Arial" font-size="14.00" fill="#666666">[timestamp without time zone]</text>
<polygon fill="none" stroke="#000000" points="1749,-595.5 1749,-625.5 2056,-625.5 2056,-595.5 1749,-595.5"/>
<text text-anchor="start" x="1756" y="-606.9" font-family="Arial" font-size="14.00" fill="#000000">lifecycle_status_id    </text>
<text text-anchor="start" x="1903.7812" y="-606.9" font-family="Arial" font-size="14.00" fill="#666666">[uuid]</text>
<polygon fill="none" stroke="#000000" points="1749,-565.5 1749,-595.5 2056,-595.5 2056,-565.5 1749,-565.5"/>
<text text-anchor="start" x="1756" y="-576.9" font-family="Arial" font-size="14.00" fill="#000000">id    </text>
<text text-anchor="start" x="1801.094" y="-576.9" font-family="Arial" font-size="14.00" fill="#666666">[uuid]</text>
<polygon fill="none" stroke="#000000" points="1749,-535.5 1749,-565.5 2056,-565.5 2056,-535.5 1749,-535.5"/>
<text text-anchor="start" x="1756" y="-546.9" font-family="Arial" font-size="14.00" fill="#000000">created_at    </text>
<text text-anchor="start" x="1856.3422" y="-546.9" font-family="Arial" font-size="14.00" fill="#666666">[timestamp without time zone]</text>
<polygon fill="none" stroke="#000000" points="1749,-505.5 1749,-535.5 2056,-535.5 2056,-505.5 1749,-505.5"/>
<text text-anchor="start" x="1756" y="-516.9" font-family="Arial" font-size="14.00" fill="#000000">modified_at    </text>
<text text-anchor="start" x="1862.5554" y="-516.9" font-family="Arial" font-size="14.00" fill="#666666">[timestamp without time zone]</text>
</g>
<!-- arho.other_point&#45;&gt;codes.type_of_underground -->
<g id="edge6" class="edge">
<title>arho.other_point:type_of_underground_id&#45;&gt;codes.type_of_underground:id</title>
<path fill="none" stroke="#000000" d="M1739.0027,-758.4169C1687.0494,-734.81 1729.5023,-517.4852 1697,-463 1571.1168,-251.976 1508.7188,-120.5 1263,-120.5"/>
<polygon fill="#000000" stroke="#000000" points="1739.2102,-758.4601 1748.0821,-764.9054 1744.1051,-759.4801 1749,-760.5 1749,-760.5 1749,-760.5 1744.1051,-759.4801 1749.9179,-756.0946 1739.2102,-758.4601 1739.2102,-758.4601"/>
<text text-anchor="start" x="1755.5115" y="-770.5" font-family="Arial" font-size="10.00" fill="#000000">FOREIGN KEY (type_of_underground_id) REFERENCES codes.type_of_underground(id)</text>
</g>
</g>
</svg>
