<?xml version="1.0" encoding="UTF-8" standalone="no"?>
<!DOCTYPE svg PUBLIC "-//W3C//DTD SVG 1.1//EN"
 "http://www.w3.org/Graphics/SVG/1.1/DTD/svg11.dtd">
<!-- Generated by graphviz version 2.40.1 (20161225.0304)
 -->
<!-- Title: codes.type_of_source_data Pages: 1 -->
<svg width="930pt" height="832pt"
 viewBox="0.00 0.00 930.11 832.00" xmlns="http://www.w3.org/2000/svg" xmlns:xlink="http://www.w3.org/1999/xlink">
<g id="graph0" class="graph" transform="scale(1 1) rotate(0) translate(4 828)">
<title>codes.type_of_source_data</title>
<polygon fill="#ffffff" stroke="transparent" points="-4,4 -4,-828 926.1087,-828 926.1087,4 -4,4"/>
<!-- codes.type_of_source_data -->
<g id="node1" class="node">
<title>codes.type_of_source_data</title>
<polygon fill="#efefef" stroke="transparent" points="162.1087,-345.5 162.1087,-380.5 524.1087,-380.5 524.1087,-345.5 162.1087,-345.5"/>
<polygon fill="none" stroke="#000000" points="162.1087,-345.5 162.1087,-380.5 524.1087,-380.5 524.1087,-345.5 162.1087,-345.5"/>
<text text-anchor="start" x="168.7777" y="-358.3" font-family="Arial Bold" font-size="18.00" fill="#000000">codes.type_of_source_data</text>
<text text-anchor="start" x="389.8717" y="-358.3" font-family="Arial" font-size="14.00" fill="#000000">    </text>
<text text-anchor="start" x="424.0765" y="-358.3" font-family="Arial" font-size="14.00" fill="#666666">[BASE TABLE]</text>
<polygon fill="none" stroke="#000000" points="162.1087,-315.5 162.1087,-345.5 524.1087,-345.5 524.1087,-315.5 162.1087,-315.5"/>
<text text-anchor="start" x="169.1087" y="-326.9" font-family="Arial" font-size="14.00" fill="#000000">value </text>
<text text-anchor="start" x="206.4537" y="-326.9" font-family="Arial" font-size="14.00" fill="#666666">[varchar]</text>
<polygon fill="none" stroke="#000000" points="162.1087,-285.5 162.1087,-315.5 524.1087,-315.5 524.1087,-285.5 162.1087,-285.5"/>
<text text-anchor="start" x="169.1087" y="-296.9" font-family="Arial" font-size="14.00" fill="#000000">short_name </text>
<text text-anchor="start" x="246.9067" y="-296.9" font-family="Arial" font-size="14.00" fill="#666666">[varchar]</text>
<polygon fill="none" stroke="#000000" points="162.1087,-255.5 162.1087,-285.5 524.1087,-285.5 524.1087,-255.5 162.1087,-255.5"/>
<text text-anchor="start" x="169.1087" y="-266.9" font-family="Arial" font-size="14.00" fill="#000000">name </text>
<text text-anchor="start" x="208.0077" y="-266.9" font-family="Arial" font-size="14.00" fill="#666666">[jsonb]</text>
<polygon fill="none" stroke="#000000" points="162.1087,-225.5 162.1087,-255.5 524.1087,-255.5 524.1087,-225.5 162.1087,-225.5"/>
<text text-anchor="start" x="169.1087" y="-236.9" font-family="Arial" font-size="14.00" fill="#000000">description </text>
<text text-anchor="start" x="240.6767" y="-236.9" font-family="Arial" font-size="14.00" fill="#666666">[jsonb]</text>
<polygon fill="none" stroke="#000000" points="162.1087,-195.5 162.1087,-225.5 524.1087,-225.5 524.1087,-195.5 162.1087,-195.5"/>
<text text-anchor="start" x="169.1087" y="-206.9" font-family="Arial" font-size="14.00" fill="#000000">status </text>
<text text-anchor="start" x="210.3457" y="-206.9" font-family="Arial" font-size="14.00" fill="#666666">[varchar]</text>
<polygon fill="none" stroke="#000000" points="162.1087,-165.5 162.1087,-195.5 524.1087,-195.5 524.1087,-165.5 162.1087,-165.5"/>
<text text-anchor="start" x="169.1087" y="-176.9" font-family="Arial" font-size="14.00" fill="#000000">level </text>
<text text-anchor="start" x="201.7777" y="-176.9" font-family="Arial" font-size="14.00" fill="#666666">[integer]</text>
<polygon fill="none" stroke="#000000" points="162.1087,-135.5 162.1087,-165.5 524.1087,-165.5 524.1087,-135.5 162.1087,-135.5"/>
<text text-anchor="start" x="169.1087" y="-146.9" font-family="Arial" font-size="14.00" fill="#000000">parent_id </text>
<text text-anchor="start" x="231.3527" y="-146.9" font-family="Arial" font-size="14.00" fill="#666666">[uuid]</text>
<polygon fill="none" stroke="#000000" points="162.1087,-105.5 162.1087,-135.5 524.1087,-135.5 524.1087,-105.5 162.1087,-105.5"/>
<text text-anchor="start" x="169.1087" y="-116.9" font-family="Arial" font-size="14.00" fill="#000000">id </text>
<text text-anchor="start" x="183.8885" y="-116.9" font-family="Arial" font-size="14.00" fill="#666666">[uuid]</text>
<polygon fill="none" stroke="#000000" points="162.1087,-75.5 162.1087,-105.5 524.1087,-105.5 524.1087,-75.5 162.1087,-75.5"/>
<text text-anchor="start" x="169.1087" y="-86.9" font-family="Arial" font-size="14.00" fill="#000000">created_at </text>
<text text-anchor="start" x="239.1367" y="-86.9" font-family="Arial" font-size="14.00" fill="#666666">[timestamp without time zone]</text>
<polygon fill="none" stroke="#000000" points="162.1087,-45.5 162.1087,-75.5 524.1087,-75.5 524.1087,-45.5 162.1087,-45.5"/>
<text text-anchor="start" x="169.1087" y="-56.9" font-family="Arial" font-size="14.00" fill="#000000">modified_at </text>
<text text-anchor="start" x="245.3499" y="-56.9" font-family="Arial" font-size="14.00" fill="#666666">[timestamp without time zone]</text>
<polygon fill="none" stroke="#000000" stroke-width="3" points="160.6087,-44.5 160.6087,-382.5 525.6087,-382.5 525.6087,-44.5 160.6087,-44.5"/>
</g>
<!-- codes.type_of_source_data&#45;&gt;codes.type_of_source_data -->
<g id="edge1" class="edge">
<title>codes.type_of_source_data:parent_id&#45;&gt;codes.type_of_source_data:id</title>
<path fill="none" stroke="#000000" d="M344.533,-176.2725C352.0806,-331.2069 351.6058,-642 343.1087,-642 334.4163,-642 334.1192,-288.7764 342.2174,-135.948"/>
<polygon fill="#000000" stroke="#000000" points="344.5106,-175.8322 348.4941,-165.6155 344.2553,-170.8387 344,-165.8452 344,-165.8452 344,-165.8452 344.2553,-170.8387 339.5059,-166.075 344.5106,-175.8322 344.5106,-175.8322"/>
<text text-anchor="start" x="6.6945" y="-175.8452" font-family="Arial" font-size="10.00" fill="#000000">FOREIGN KEY (parent_id) REFERENCES codes.type_of_source_data(id)</text>
</g>
<!-- hame.source_data -->
<g id="node2" class="node">
<title>hame.source_data</title>
<polygon fill="#efefef" stroke="transparent" points="172.1087,-745.5 172.1087,-780.5 513.1087,-780.5 513.1087,-745.5 172.1087,-745.5"/>
<polygon fill="none" stroke="#000000" points="172.1087,-745.5 172.1087,-780.5 513.1087,-780.5 513.1087,-745.5 172.1087,-745.5"/>
<text text-anchor="start" x="204.2993" y="-758.3" font-family="Arial Bold" font-size="18.00" fill="#000000">hame.source_data</text>
<text text-anchor="start" x="353.3501" y="-758.3" font-family="Arial" font-size="14.00" fill="#000000">    </text>
<text text-anchor="start" x="387.5549" y="-758.3" font-family="Arial" font-size="14.00" fill="#666666">[BASE TABLE]</text>
<polygon fill="none" stroke="#000000" points="172.1087,-715.5 172.1087,-745.5 513.1087,-745.5 513.1087,-715.5 172.1087,-715.5"/>
<text text-anchor="start" x="179.1087" y="-726.9" font-family="Arial" font-size="14.00" fill="#000000">type_of_source_data_id    </text>
<text text-anchor="start" x="362.7089" y="-726.9" font-family="Arial" font-size="14.00" fill="#666666">[uuid]</text>
<polygon fill="none" stroke="#000000" points="172.1087,-685.5 172.1087,-715.5 513.1087,-715.5 513.1087,-685.5 172.1087,-685.5"/>
<text text-anchor="start" x="179.1087" y="-696.9" font-family="Arial" font-size="14.00" fill="#000000">name    </text>
<text text-anchor="start" x="248.3219" y="-696.9" font-family="Arial" font-size="14.00" fill="#666666">[jsonb]</text>
<polygon fill="none" stroke="#000000" points="172.1087,-655.5 172.1087,-685.5 513.1087,-685.5 513.1087,-655.5 172.1087,-655.5"/>
<text text-anchor="start" x="179.1087" y="-666.9" font-family="Arial" font-size="14.00" fill="#000000">additional_information_uri    </text>
<text text-anchor="start" x="373.5631" y="-666.9" font-family="Arial" font-size="14.00" fill="#666666">[varchar]</text>
<polygon fill="none" stroke="#000000" points="172.1087,-625.5 172.1087,-655.5 513.1087,-655.5 513.1087,-625.5 172.1087,-625.5"/>
<text text-anchor="start" x="179.1087" y="-636.9" font-family="Arial" font-size="14.00" fill="#000000">id    </text>
<text text-anchor="start" x="224.2027" y="-636.9" font-family="Arial" font-size="14.00" fill="#666666">[uuid]</text>
<polygon fill="none" stroke="#000000" points="172.1087,-595.5 172.1087,-625.5 513.1087,-625.5 513.1087,-595.5 172.1087,-595.5"/>
<text text-anchor="start" x="179.1087" y="-606.9" font-family="Arial" font-size="14.00" fill="#000000">created_at    </text>
<text text-anchor="start" x="279.4509" y="-606.9" font-family="Arial" font-size="14.00" fill="#666666">[timestamp without time zone]</text>
<polygon fill="none" stroke="#000000" points="172.1087,-565.5 172.1087,-595.5 513.1087,-595.5 513.1087,-565.5 172.1087,-565.5"/>
<text text-anchor="start" x="179.1087" y="-576.9" font-family="Arial" font-size="14.00" fill="#000000">modified_at    </text>
<text text-anchor="start" x="285.6641" y="-576.9" font-family="Arial" font-size="14.00" fill="#666666">[timestamp without time zone]</text>
<polygon fill="none" stroke="#000000" points="172.1087,-535.5 172.1087,-565.5 513.1087,-565.5 513.1087,-535.5 172.1087,-535.5"/>
<text text-anchor="start" x="178.857" y="-546.9" font-family="Arial" font-size="14.00" fill="#000000">detachment_date    </text>
<text text-anchor="start" x="321.2202" y="-546.9" font-family="Arial" font-size="14.00" fill="#666666">[timestamp without time zone]</text>
<polygon fill="none" stroke="#000000" points="172.1087,-505.5 172.1087,-535.5 513.1087,-535.5 513.1087,-505.5 172.1087,-505.5"/>
<text text-anchor="start" x="179.1087" y="-516.9" font-family="Arial" font-size="14.00" fill="#000000">plan_id    </text>
<text text-anchor="start" x="258.4397" y="-516.9" font-family="Arial" font-size="14.00" fill="#666666">[uuid]</text>
</g>
<!-- hame.source_data&#45;&gt;codes.type_of_source_data -->
<g id="edge2" class="edge">
<title>hame.source_data:type_of_source_data_id&#45;&gt;codes.type_of_source_data:id</title>
<path fill="none" stroke="#000000" d="M523.0498,-728.1327C570.104,-704.1079 550.5286,-504.4541 513.1087,-463 460.5695,-404.7966 214.6479,-485.2034 162.1087,-427 116.4699,-376.4409 93.9976,-120.5 162.1087,-120.5"/>
<polygon fill="#000000" stroke="#000000" points="522.8367,-728.1834 512.0662,-726.1224 517.9727,-729.3417 513.1087,-730.5 513.1087,-730.5 513.1087,-730.5 517.9727,-729.3417 514.1511,-734.8776 522.8367,-728.1834 522.8367,-728.1834"/>
<text text-anchor="start" x="520.2882" y="-740.5" font-family="Arial" font-size="10.00" fill="#000000">FOREIGN KEY (type_of_source_data_id) REFERENCES codes.type_of_source_data(id)</text>
</g>
</g>
</svg>
