<?xml version="1.0" encoding="UTF-8" standalone="no"?>
<!DOCTYPE svg PUBLIC "-//W3C//DTD SVG 1.1//EN"
 "http://www.w3.org/Graphics/SVG/1.1/DTD/svg11.dtd">
<!-- Generated by graphviz version 2.40.1 (20161225.0304)
 -->
<!-- Title: hame.organisation Pages: 1 -->
<svg width="904pt" height="1469pt"
 viewBox="0.00 0.00 904.00 1469.00" xmlns="http://www.w3.org/2000/svg" xmlns:xlink="http://www.w3.org/1999/xlink">
<g id="graph0" class="graph" transform="scale(1 1) rotate(0) translate(4 1465)">
<title>hame.organisation</title>
<polygon fill="#ffffff" stroke="transparent" points="-4,4 -4,-1465 900,-1465 900,4 -4,4"/>
<!-- hame.organisation -->
<g id="node1" class="node">
<title>hame.organisation</title>
<polygon fill="#efefef" stroke="transparent" points="339,-682.5 339,-717.5 628,-717.5 628,-682.5 339,-682.5"/>
<polygon fill="none" stroke="#000000" points="339,-682.5 339,-717.5 628,-717.5 628,-682.5 339,-682.5"/>
<text text-anchor="start" x="345.6964" y="-695.3" font-family="Arial Bold" font-size="18.00" fill="#000000">hame.organisation</text>
<text text-anchor="start" x="493.7356" y="-695.3" font-family="Arial" font-size="14.00" fill="#000000">    </text>
<text text-anchor="start" x="527.9404" y="-695.3" font-family="Arial" font-size="14.00" fill="#666666">[BASE TABLE]</text>
<polygon fill="none" stroke="#000000" points="339,-652.5 339,-682.5 628,-682.5 628,-652.5 339,-652.5"/>
<text text-anchor="start" x="346" y="-663.9" font-family="Arial" font-size="14.00" fill="#000000">name </text>
<text text-anchor="start" x="384.899" y="-663.9" font-family="Arial" font-size="14.00" fill="#666666">[jsonb]</text>
<polygon fill="none" stroke="#000000" points="339,-622.5 339,-652.5 628,-652.5 628,-622.5 339,-622.5"/>
<text text-anchor="start" x="346" y="-633.9" font-family="Arial" font-size="14.00" fill="#000000">business_id </text>
<text text-anchor="start" x="423.7994" y="-633.9" font-family="Arial" font-size="14.00" fill="#666666">[varchar]</text>
<polygon fill="none" stroke="#000000" points="339,-592.5 339,-622.5 628,-622.5 628,-592.5 339,-592.5"/>
<text text-anchor="start" x="346" y="-603.9" font-family="Arial" font-size="14.00" fill="#000000">id </text>
<text text-anchor="start" x="360.7798" y="-603.9" font-family="Arial" font-size="14.00" fill="#666666">[uuid]</text>
<polygon fill="none" stroke="#000000" points="339,-562.5 339,-592.5 628,-592.5 628,-562.5 339,-562.5"/>
<text text-anchor="start" x="346" y="-573.9" font-family="Arial" font-size="14.00" fill="#000000">created_at </text>
<text text-anchor="start" x="416.028" y="-573.9" font-family="Arial" font-size="14.00" fill="#666666">[timestamp without time zone]</text>
<polygon fill="none" stroke="#000000" points="339,-532.5 339,-562.5 628,-562.5 628,-532.5 339,-532.5"/>
<text text-anchor="start" x="346" y="-543.9" font-family="Arial" font-size="14.00" fill="#000000">modified_at </text>
<text text-anchor="start" x="422.2412" y="-543.9" font-family="Arial" font-size="14.00" fill="#666666">[timestamp without time zone]</text>
<polygon fill="none" stroke="#000000" points="339,-502.5 339,-532.5 628,-532.5 628,-502.5 339,-502.5"/>
<text text-anchor="start" x="346" y="-513.9" font-family="Arial" font-size="14.00" fill="#000000">administrative_region_id </text>
<text text-anchor="start" x="501.5778" y="-513.9" font-family="Arial" font-size="14.00" fill="#666666">[uuid]</text>
<polygon fill="none" stroke="#000000" stroke-width="3" points="337,-501.5 337,-719.5 629,-719.5 629,-501.5 337,-501.5"/>
</g>
<!-- codes.administrative_region -->
<g id="node3" class="node">
<title>codes.administrative_region</title>
<polygon fill="#efefef" stroke="transparent" points="301,-342.5 301,-377.5 666,-377.5 666,-342.5 301,-342.5"/>
<polygon fill="none" stroke="#000000" points="301,-342.5 301,-377.5 666,-377.5 666,-342.5 301,-342.5"/>
<text text-anchor="start" x="307.6957" y="-355.3" font-family="Arial Bold" font-size="18.00" fill="#000000">codes.administrative_region</text>
<text text-anchor="start" x="531.7363" y="-355.3" font-family="Arial" font-size="14.00" fill="#000000">    </text>
<text text-anchor="start" x="565.9411" y="-355.3" font-family="Arial" font-size="14.00" fill="#666666">[BASE TABLE]</text>
<polygon fill="none" stroke="#000000" points="301,-312.5 301,-342.5 666,-342.5 666,-312.5 301,-312.5"/>
<text text-anchor="start" x="308" y="-323.9" font-family="Arial" font-size="14.00" fill="#000000">value    </text>
<text text-anchor="start" x="375.6592" y="-323.9" font-family="Arial" font-size="14.00" fill="#666666">[varchar]</text>
<polygon fill="none" stroke="#000000" points="301,-282.5 301,-312.5 666,-312.5 666,-282.5 301,-282.5"/>
<text text-anchor="start" x="308" y="-293.9" font-family="Arial" font-size="14.00" fill="#000000">short_name    </text>
<text text-anchor="start" x="416.1122" y="-293.9" font-family="Arial" font-size="14.00" fill="#666666">[varchar]</text>
<polygon fill="none" stroke="#000000" points="301,-252.5 301,-282.5 666,-282.5 666,-252.5 301,-252.5"/>
<text text-anchor="start" x="308" y="-263.9" font-family="Arial" font-size="14.00" fill="#000000">name    </text>
<text text-anchor="start" x="377.2132" y="-263.9" font-family="Arial" font-size="14.00" fill="#666666">[jsonb]</text>
<polygon fill="none" stroke="#000000" points="301,-222.5 301,-252.5 666,-252.5 666,-222.5 301,-222.5"/>
<text text-anchor="start" x="308" y="-233.9" font-family="Arial" font-size="14.00" fill="#000000">description    </text>
<text text-anchor="start" x="409.8822" y="-233.9" font-family="Arial" font-size="14.00" fill="#666666">[jsonb]</text>
<polygon fill="none" stroke="#000000" points="301,-192.5 301,-222.5 666,-222.5 666,-192.5 301,-192.5"/>
<text text-anchor="start" x="308" y="-203.9" font-family="Arial" font-size="14.00" fill="#000000">status    </text>
<text text-anchor="start" x="379.5512" y="-203.9" font-family="Arial" font-size="14.00" fill="#666666">[varchar]</text>
<polygon fill="none" stroke="#000000" points="301,-162.5 301,-192.5 666,-192.5 666,-162.5 301,-162.5"/>
<text text-anchor="start" x="308" y="-173.9" font-family="Arial" font-size="14.00" fill="#000000">level    </text>
<text text-anchor="start" x="370.9832" y="-173.9" font-family="Arial" font-size="14.00" fill="#666666">[integer]</text>
<polygon fill="none" stroke="#000000" points="301,-132.5 301,-162.5 666,-162.5 666,-132.5 301,-132.5"/>
<text text-anchor="start" x="308" y="-143.9" font-family="Arial" font-size="14.00" fill="#000000">parent_id    </text>
<text text-anchor="start" x="400.5582" y="-143.9" font-family="Arial" font-size="14.00" fill="#666666">[uuid]</text>
<polygon fill="none" stroke="#000000" points="301,-102.5 301,-132.5 666,-132.5 666,-102.5 301,-102.5"/>
<text text-anchor="start" x="308" y="-113.9" font-family="Arial" font-size="14.00" fill="#000000">id    </text>
<text text-anchor="start" x="353.094" y="-113.9" font-family="Arial" font-size="14.00" fill="#666666">[uuid]</text>
<polygon fill="none" stroke="#000000" points="301,-72.5 301,-102.5 666,-102.5 666,-72.5 301,-72.5"/>
<text text-anchor="start" x="308" y="-83.9" font-family="Arial" font-size="14.00" fill="#000000">created_at    </text>
<text text-anchor="start" x="408.3422" y="-83.9" font-family="Arial" font-size="14.00" fill="#666666">[timestamp without time zone]</text>
<polygon fill="none" stroke="#000000" points="301,-42.5 301,-72.5 666,-72.5 666,-42.5 301,-42.5"/>
<text text-anchor="start" x="308" y="-53.9" font-family="Arial" font-size="14.00" fill="#000000">modified_at    </text>
<text text-anchor="start" x="414.5554" y="-53.9" font-family="Arial" font-size="14.00" fill="#666666">[timestamp without time zone]</text>
</g>
<!-- hame.organisation&#45;&gt;codes.administrative_region -->
<g id="edge2" class="edge">
<title>hame.organisation:administrative_region_id&#45;&gt;codes.administrative_region:id</title>
<path fill="none" stroke="#000000" d="M483.3364,-492.3862C473.1105,-419.9451 347.499,-492.6105 301,-421 264.2701,-364.4344 233.5556,-117.5 301,-117.5"/>
<polygon fill="#000000" stroke="#000000" points="483.3451,-492.5215 479.5097,-502.7947 483.6726,-497.5107 484,-502.5 484,-502.5 484,-502.5 483.6726,-497.5107 488.4903,-502.2053 483.3451,-492.5215 483.3451,-492.5215"/>
<text text-anchor="start" x="490.5425" y="-512.5" font-family="Arial" font-size="10.00" fill="#000000">FOREIGN KEY (administrative_region_id) REFERENCES codes.administrative_region(id)</text>
</g>
<!-- hame.plan -->
<g id="node2" class="node">
<title>hame.plan</title>
<polygon fill="#efefef" stroke="transparent" points="330,-1382.5 330,-1417.5 638,-1417.5 638,-1382.5 330,-1382.5"/>
<polygon fill="none" stroke="#000000" points="330,-1382.5 330,-1417.5 638,-1417.5 638,-1382.5 330,-1382.5"/>
<text text-anchor="start" x="378.2031" y="-1395.3" font-family="Arial Bold" font-size="18.00" fill="#000000">hame.plan</text>
<text text-anchor="start" x="462.2289" y="-1395.3" font-family="Arial" font-size="14.00" fill="#000000">    </text>
<text text-anchor="start" x="496.4337" y="-1395.3" font-family="Arial" font-size="14.00" fill="#666666">[BASE TABLE]</text>
<polygon fill="none" stroke="#000000" points="330,-1352.5 330,-1382.5 638,-1382.5 638,-1352.5 330,-1352.5"/>
<text text-anchor="start" x="337" y="-1363.9" font-family="Arial" font-size="14.00" fill="#000000">name    </text>
<text text-anchor="start" x="406.2132" y="-1363.9" font-family="Arial" font-size="14.00" fill="#666666">[jsonb]</text>
<polygon fill="none" stroke="#000000" points="330,-1322.5 330,-1352.5 638,-1352.5 638,-1322.5 330,-1322.5"/>
<text text-anchor="start" x="337" y="-1333.9" font-family="Arial" font-size="14.00" fill="#000000">id    </text>
<text text-anchor="start" x="382.094" y="-1333.9" font-family="Arial" font-size="14.00" fill="#666666">[uuid]</text>
<polygon fill="none" stroke="#000000" points="330,-1292.5 330,-1322.5 638,-1322.5 638,-1292.5 330,-1292.5"/>
<text text-anchor="start" x="337" y="-1303.9" font-family="Arial" font-size="14.00" fill="#000000">created_at    </text>
<text text-anchor="start" x="437.3422" y="-1303.9" font-family="Arial" font-size="14.00" fill="#666666">[timestamp without time zone]</text>
<polygon fill="none" stroke="#000000" points="330,-1262.5 330,-1292.5 638,-1292.5 638,-1262.5 330,-1262.5"/>
<text text-anchor="start" x="337" y="-1273.9" font-family="Arial" font-size="14.00" fill="#000000">modified_at    </text>
<text text-anchor="start" x="443.5554" y="-1273.9" font-family="Arial" font-size="14.00" fill="#666666">[timestamp without time zone]</text>
<polygon fill="none" stroke="#000000" points="330,-1232.5 330,-1262.5 638,-1262.5 638,-1232.5 330,-1232.5"/>
<text text-anchor="start" x="337" y="-1243.9" font-family="Arial" font-size="14.00" fill="#000000">exported_at    </text>
<text text-anchor="start" x="445.1248" y="-1243.9" font-family="Arial" font-size="14.00" fill="#666666">[timestamp without time zone]</text>
<polygon fill="none" stroke="#000000" points="330,-1202.5 330,-1232.5 638,-1232.5 638,-1202.5 330,-1202.5"/>
<text text-anchor="start" x="337" y="-1213.9" font-family="Arial" font-size="14.00" fill="#000000">geom    </text>
<text text-anchor="start" x="406.2132" y="-1213.9" font-family="Arial" font-size="14.00" fill="#666666">[geometry(MultiPolygon,3067)]</text>
<polygon fill="none" stroke="#000000" points="330,-1172.5 330,-1202.5 638,-1202.5 638,-1172.5 330,-1172.5"/>
<text text-anchor="start" x="337" y="-1183.9" font-family="Arial" font-size="14.00" fill="#000000">lifecycle_status_id    </text>
<text text-anchor="start" x="484.7812" y="-1183.9" font-family="Arial" font-size="14.00" fill="#666666">[uuid]</text>
<polygon fill="none" stroke="#000000" points="330,-1142.5 330,-1172.5 638,-1172.5 638,-1142.5 330,-1142.5"/>
<text text-anchor="start" x="337" y="-1153.9" font-family="Arial" font-size="14.00" fill="#000000">organisation_id    </text>
<text text-anchor="start" x="466.1192" y="-1153.9" font-family="Arial" font-size="14.00" fill="#666666">[uuid]</text>
<polygon fill="none" stroke="#000000" points="330,-1112.5 330,-1142.5 638,-1142.5 638,-1112.5 330,-1112.5"/>
<text text-anchor="start" x="337" y="-1123.9" font-family="Arial" font-size="14.00" fill="#000000">plan_regulation_group_id    </text>
<text text-anchor="start" x="529.1472" y="-1123.9" font-family="Arial" font-size="14.00" fill="#666666">[uuid]</text>
<polygon fill="none" stroke="#000000" points="330,-1082.5 330,-1112.5 638,-1112.5 638,-1082.5 330,-1082.5"/>
<text text-anchor="start" x="337" y="-1093.9" font-family="Arial" font-size="14.00" fill="#000000">plan_type_id    </text>
<text text-anchor="start" x="450.5694" y="-1093.9" font-family="Arial" font-size="14.00" fill="#666666">[uuid]</text>
<polygon fill="none" stroke="#000000" points="330,-1052.5 330,-1082.5 638,-1082.5 638,-1052.5 330,-1052.5"/>
<text text-anchor="start" x="337" y="-1063.9" font-family="Arial" font-size="14.00" fill="#000000">permanent_plan_identifier    </text>
<text text-anchor="start" x="533.0238" y="-1063.9" font-family="Arial" font-size="14.00" fill="#666666">[varchar]</text>
<polygon fill="none" stroke="#000000" points="330,-1022.5 330,-1052.5 638,-1052.5 638,-1022.5 330,-1022.5"/>
<text text-anchor="start" x="337" y="-1033.9" font-family="Arial" font-size="14.00" fill="#000000">producers_plan_identifier    </text>
<text text-anchor="start" x="528.3506" y="-1033.9" font-family="Arial" font-size="14.00" fill="#666666">[varchar]</text>
<polygon fill="none" stroke="#000000" points="330,-992.5 330,-1022.5 638,-1022.5 638,-992.5 330,-992.5"/>
<text text-anchor="start" x="337" y="-1003.9" font-family="Arial" font-size="14.00" fill="#000000">description    </text>
<text text-anchor="start" x="438.8822" y="-1003.9" font-family="Arial" font-size="14.00" fill="#666666">[jsonb]</text>
<polygon fill="none" stroke="#000000" points="330,-962.5 330,-992.5 638,-992.5 638,-962.5 330,-962.5"/>
<text text-anchor="start" x="337" y="-973.9" font-family="Arial" font-size="14.00" fill="#000000">scale    </text>
<text text-anchor="start" x="403.8766" y="-973.9" font-family="Arial" font-size="14.00" fill="#666666">[integer]</text>
<polygon fill="none" stroke="#000000" points="330,-932.5 330,-962.5 638,-962.5 638,-932.5 330,-932.5"/>
<text text-anchor="start" x="337" y="-943.9" font-family="Arial" font-size="14.00" fill="#000000">matter_management_identifier    </text>
<text text-anchor="start" x="561.0196" y="-943.9" font-family="Arial" font-size="14.00" fill="#666666">[varchar]</text>
<polygon fill="none" stroke="#000000" points="330,-902.5 330,-932.5 638,-932.5 638,-902.5 330,-902.5"/>
<text text-anchor="start" x="337" y="-913.9" font-family="Arial" font-size="14.00" fill="#000000">record_number    </text>
<text text-anchor="start" x="466.108" y="-913.9" font-family="Arial" font-size="14.00" fill="#666666">[varchar]</text>
<polygon fill="none" stroke="#000000" points="330,-872.5 330,-902.5 638,-902.5 638,-872.5 330,-872.5"/>
<text text-anchor="start" x="336.5912" y="-883.9" font-family="Arial" font-size="14.00" fill="#000000">validated_at    </text>
<text text-anchor="start" x="446.2686" y="-883.9" font-family="Arial" font-size="14.00" fill="#666666">[timestamp without time zone]</text>
<polygon fill="none" stroke="#000000" points="330,-842.5 330,-872.5 638,-872.5 638,-842.5 330,-842.5"/>
<text text-anchor="start" x="337" y="-853.9" font-family="Arial" font-size="14.00" fill="#000000">validation_errors    </text>
<text text-anchor="start" x="474.6578" y="-853.9" font-family="Arial" font-size="14.00" fill="#666666">[jsonb]</text>
</g>
<!-- hame.plan&#45;&gt;hame.organisation -->
<g id="edge1" class="edge">
<title>hame.plan:organisation_id&#45;&gt;hame.organisation:id</title>
<path fill="none" stroke="#000000" d="M319.9292,-1155.7443C253.0108,-1131.2035 279.6679,-856.7784 330,-800 418.4958,-700.17 539.5042,-863.83 628,-764 674.1397,-711.9509 697.5556,-607.5 628,-607.5"/>
<polygon fill="#000000" stroke="#000000" points="320.1486,-1155.7824 329.2271,-1161.9331 325.0743,-1156.6412 330,-1157.5 330,-1157.5 330,-1157.5 325.0743,-1156.6412 330.7729,-1153.0669 320.1486,-1155.7824 320.1486,-1155.7824"/>
<text text-anchor="start" x="6.93" y="-1167.5" font-family="Arial" font-size="10.00" fill="#000000">FOREIGN KEY (organisation_id) REFERENCES hame.organisation(id)</text>
</g>
</g>
</svg>
