<?xml version="1.0" encoding="UTF-8" standalone="no"?>
<!DOCTYPE svg PUBLIC "-//W3C//DTD SVG 1.1//EN"
 "http://www.w3.org/Graphics/SVG/1.1/DTD/svg11.dtd">
<!-- Generated by graphviz version 2.40.1 (20161225.0304)
 -->
<!-- Title: hame.land_use_point Pages: 1 -->
<svg width="1766pt" height="1859pt"
 viewBox="0.00 0.00 1765.50 1859.00" xmlns="http://www.w3.org/2000/svg" xmlns:xlink="http://www.w3.org/1999/xlink">
<g id="graph0" class="graph" transform="scale(1 1) rotate(0) translate(4 1855)">
<title>hame.land_use_point</title>
<polygon fill="#ffffff" stroke="transparent" points="-4,4 -4,-1855 1761.5,-1855 1761.5,4 -4,4"/>
<!-- hame.land_use_point -->
<g id="node1" class="node">
<title>hame.land_use_point</title>
<polygon fill="#efefef" stroke="transparent" points="730.5,-1192.5 730.5,-1227.5 1043.5,-1227.5 1043.5,-1192.5 730.5,-1192.5"/>
<polygon fill="none" stroke="#000000" points="730.5,-1192.5 730.5,-1227.5 1043.5,-1227.5 1043.5,-1192.5 730.5,-1192.5"/>
<text text-anchor="start" x="737.1832" y="-1205.3" font-family="Arial Bold" font-size="18.00" fill="#000000">hame.land_use_point</text>
<text text-anchor="start" x="909.2488" y="-1205.3" font-family="Arial" font-size="14.00" fill="#000000">    </text>
<text text-anchor="start" x="943.4536" y="-1205.3" font-family="Arial" font-size="14.00" fill="#666666">[BASE TABLE]</text>
<polygon fill="none" stroke="#000000" points="730.5,-1162.5 730.5,-1192.5 1043.5,-1192.5 1043.5,-1162.5 730.5,-1162.5"/>
<text text-anchor="start" x="737.5" y="-1173.9" font-family="Arial" font-size="14.00" fill="#000000">geom </text>
<text text-anchor="start" x="776.399" y="-1173.9" font-family="Arial" font-size="14.00" fill="#666666">[geometry(MultiPoint,3067)]</text>
<polygon fill="none" stroke="#000000" points="730.5,-1132.5 730.5,-1162.5 1043.5,-1162.5 1043.5,-1132.5 730.5,-1132.5"/>
<text text-anchor="start" x="737.5" y="-1143.9" font-family="Arial" font-size="14.00" fill="#000000">name </text>
<text text-anchor="start" x="776.399" y="-1143.9" font-family="Arial" font-size="14.00" fill="#666666">[jsonb]</text>
<polygon fill="none" stroke="#000000" points="730.5,-1102.5 730.5,-1132.5 1043.5,-1132.5 1043.5,-1102.5 730.5,-1102.5"/>
<text text-anchor="start" x="737.5" y="-1113.9" font-family="Arial" font-size="14.00" fill="#000000">source_data_object </text>
<text text-anchor="start" x="863.5476" y="-1113.9" font-family="Arial" font-size="14.00" fill="#666666">[varchar]</text>
<polygon fill="none" stroke="#000000" points="730.5,-1072.5 730.5,-1102.5 1043.5,-1102.5 1043.5,-1072.5 730.5,-1072.5"/>
<text text-anchor="start" x="737.5" y="-1083.9" font-family="Arial" font-size="14.00" fill="#000000">height_range </text>
<text text-anchor="start" x="823.0918" y="-1083.9" font-family="Arial" font-size="14.00" fill="#666666">[numrange]</text>
<polygon fill="none" stroke="#000000" points="730.5,-1042.5 730.5,-1072.5 1043.5,-1072.5 1043.5,-1042.5 730.5,-1042.5"/>
<text text-anchor="start" x="737.5" y="-1053.9" font-family="Arial" font-size="14.00" fill="#000000">height_unit </text>
<text text-anchor="start" x="809.8632" y="-1053.9" font-family="Arial" font-size="14.00" fill="#666666">[varchar]</text>
<polygon fill="none" stroke="#000000" points="730.5,-1012.5 730.5,-1042.5 1043.5,-1042.5 1043.5,-1012.5 730.5,-1012.5"/>
<text text-anchor="start" x="737.5" y="-1023.9" font-family="Arial" font-size="14.00" fill="#000000">ordering </text>
<text text-anchor="start" x="792.7314" y="-1023.9" font-family="Arial" font-size="14.00" fill="#666666">[integer]</text>
<polygon fill="none" stroke="#000000" points="730.5,-982.5 730.5,-1012.5 1043.5,-1012.5 1043.5,-982.5 730.5,-982.5"/>
<text text-anchor="start" x="737.5" y="-993.9" font-family="Arial" font-size="14.00" fill="#000000">type_of_underground_id </text>
<text text-anchor="start" x="893.1212" y="-993.9" font-family="Arial" font-size="14.00" fill="#666666">[uuid]</text>
<polygon fill="none" stroke="#000000" points="730.5,-952.5 730.5,-982.5 1043.5,-982.5 1043.5,-952.5 730.5,-952.5"/>
<text text-anchor="start" x="737.5" y="-963.9" font-family="Arial" font-size="14.00" fill="#000000">plan_id </text>
<text text-anchor="start" x="786.5168" y="-963.9" font-family="Arial" font-size="14.00" fill="#666666">[uuid]</text>
<polygon fill="none" stroke="#000000" points="730.5,-922.5 730.5,-952.5 1043.5,-952.5 1043.5,-922.5 730.5,-922.5"/>
<text text-anchor="start" x="737.5" y="-933.9" font-family="Arial" font-size="14.00" fill="#000000">plan_regulation_group_id </text>
<text text-anchor="start" x="899.333" y="-933.9" font-family="Arial" font-size="14.00" fill="#666666">[uuid]</text>
<polygon fill="none" stroke="#000000" points="730.5,-892.5 730.5,-922.5 1043.5,-922.5 1043.5,-892.5 730.5,-892.5"/>
<text text-anchor="start" x="737.5" y="-903.9" font-family="Arial" font-size="14.00" fill="#000000">exported_at </text>
<text text-anchor="start" x="815.3106" y="-903.9" font-family="Arial" font-size="14.00" fill="#666666">[timestamp without time zone]</text>
<polygon fill="none" stroke="#000000" points="730.5,-862.5 730.5,-892.5 1043.5,-892.5 1043.5,-862.5 730.5,-862.5"/>
<text text-anchor="start" x="737.5" y="-873.9" font-family="Arial" font-size="14.00" fill="#000000">lifecycle_status_id </text>
<text text-anchor="start" x="854.967" y="-873.9" font-family="Arial" font-size="14.00" fill="#666666">[uuid]</text>
<polygon fill="none" stroke="#000000" points="730.5,-832.5 730.5,-862.5 1043.5,-862.5 1043.5,-832.5 730.5,-832.5"/>
<text text-anchor="start" x="737.5" y="-843.9" font-family="Arial" font-size="14.00" fill="#000000">id </text>
<text text-anchor="start" x="752.2798" y="-843.9" font-family="Arial" font-size="14.00" fill="#666666">[uuid]</text>
<polygon fill="none" stroke="#000000" points="730.5,-802.5 730.5,-832.5 1043.5,-832.5 1043.5,-802.5 730.5,-802.5"/>
<text text-anchor="start" x="737.5" y="-813.9" font-family="Arial" font-size="14.00" fill="#000000">created_at </text>
<text text-anchor="start" x="807.528" y="-813.9" font-family="Arial" font-size="14.00" fill="#666666">[timestamp without time zone]</text>
<polygon fill="none" stroke="#000000" points="730.5,-772.5 730.5,-802.5 1043.5,-802.5 1043.5,-772.5 730.5,-772.5"/>
<text text-anchor="start" x="737.5" y="-783.9" font-family="Arial" font-size="14.00" fill="#000000">modified_at </text>
<text text-anchor="start" x="813.7412" y="-783.9" font-family="Arial" font-size="14.00" fill="#666666">[timestamp without time zone]</text>
<polygon fill="none" stroke="#000000" points="730.5,-742.5 730.5,-772.5 1043.5,-772.5 1043.5,-742.5 730.5,-742.5"/>
<text text-anchor="start" x="737.5" y="-753.9" font-family="Arial" font-size="14.00" fill="#000000">description </text>
<text text-anchor="start" x="809.068" y="-753.9" font-family="Arial" font-size="14.00" fill="#666666">[jsonb]</text>
<polygon fill="none" stroke="#000000" stroke-width="3" points="728.5,-741.5 728.5,-1229.5 1044.5,-1229.5 1044.5,-741.5 728.5,-741.5"/>
</g>
<!-- codes.type_of_underground -->
<g id="node2" class="node">
<title>codes.type_of_underground</title>
<polygon fill="#efefef" stroke="transparent" points="43.5,-462.5 43.5,-497.5 408.5,-497.5 408.5,-462.5 43.5,-462.5"/>
<polygon fill="none" stroke="#000000" points="43.5,-462.5 43.5,-497.5 408.5,-497.5 408.5,-462.5 43.5,-462.5"/>
<text text-anchor="start" x="50.1678" y="-475.3" font-family="Arial Bold" font-size="18.00" fill="#000000">codes.type_of_underground</text>
<text text-anchor="start" x="274.2642" y="-475.3" font-family="Arial" font-size="14.00" fill="#000000">    </text>
<text text-anchor="start" x="308.469" y="-475.3" font-family="Arial" font-size="14.00" fill="#666666">[BASE TABLE]</text>
<polygon fill="none" stroke="#000000" points="43.5,-432.5 43.5,-462.5 408.5,-462.5 408.5,-432.5 43.5,-432.5"/>
<text text-anchor="start" x="50.5" y="-443.9" font-family="Arial" font-size="14.00" fill="#000000">value    </text>
<text text-anchor="start" x="118.1592" y="-443.9" font-family="Arial" font-size="14.00" fill="#666666">[varchar]</text>
<polygon fill="none" stroke="#000000" points="43.5,-402.5 43.5,-432.5 408.5,-432.5 408.5,-402.5 43.5,-402.5"/>
<text text-anchor="start" x="50.5" y="-413.9" font-family="Arial" font-size="14.00" fill="#000000">short_name    </text>
<text text-anchor="start" x="158.6122" y="-413.9" font-family="Arial" font-size="14.00" fill="#666666">[varchar]</text>
<polygon fill="none" stroke="#000000" points="43.5,-372.5 43.5,-402.5 408.5,-402.5 408.5,-372.5 43.5,-372.5"/>
<text text-anchor="start" x="50.5" y="-383.9" font-family="Arial" font-size="14.00" fill="#000000">name    </text>
<text text-anchor="start" x="119.7132" y="-383.9" font-family="Arial" font-size="14.00" fill="#666666">[jsonb]</text>
<polygon fill="none" stroke="#000000" points="43.5,-342.5 43.5,-372.5 408.5,-372.5 408.5,-342.5 43.5,-342.5"/>
<text text-anchor="start" x="50.5" y="-353.9" font-family="Arial" font-size="14.00" fill="#000000">description    </text>
<text text-anchor="start" x="152.3822" y="-353.9" font-family="Arial" font-size="14.00" fill="#666666">[jsonb]</text>
<polygon fill="none" stroke="#000000" points="43.5,-312.5 43.5,-342.5 408.5,-342.5 408.5,-312.5 43.5,-312.5"/>
<text text-anchor="start" x="50.5" y="-323.9" font-family="Arial" font-size="14.00" fill="#000000">status    </text>
<text text-anchor="start" x="122.0512" y="-323.9" font-family="Arial" font-size="14.00" fill="#666666">[varchar]</text>
<polygon fill="none" stroke="#000000" points="43.5,-282.5 43.5,-312.5 408.5,-312.5 408.5,-282.5 43.5,-282.5"/>
<text text-anchor="start" x="50.5" y="-293.9" font-family="Arial" font-size="14.00" fill="#000000">level    </text>
<text text-anchor="start" x="113.4832" y="-293.9" font-family="Arial" font-size="14.00" fill="#666666">[integer]</text>
<polygon fill="none" stroke="#000000" points="43.5,-252.5 43.5,-282.5 408.5,-282.5 408.5,-252.5 43.5,-252.5"/>
<text text-anchor="start" x="50.5" y="-263.9" font-family="Arial" font-size="14.00" fill="#000000">parent_id    </text>
<text text-anchor="start" x="143.0582" y="-263.9" font-family="Arial" font-size="14.00" fill="#666666">[uuid]</text>
<polygon fill="none" stroke="#000000" points="43.5,-222.5 43.5,-252.5 408.5,-252.5 408.5,-222.5 43.5,-222.5"/>
<text text-anchor="start" x="50.5" y="-233.9" font-family="Arial" font-size="14.00" fill="#000000">id    </text>
<text text-anchor="start" x="95.594" y="-233.9" font-family="Arial" font-size="14.00" fill="#666666">[uuid]</text>
<polygon fill="none" stroke="#000000" points="43.5,-192.5 43.5,-222.5 408.5,-222.5 408.5,-192.5 43.5,-192.5"/>
<text text-anchor="start" x="50.5" y="-203.9" font-family="Arial" font-size="14.00" fill="#000000">created_at    </text>
<text text-anchor="start" x="150.8422" y="-203.9" font-family="Arial" font-size="14.00" fill="#666666">[timestamp without time zone]</text>
<polygon fill="none" stroke="#000000" points="43.5,-162.5 43.5,-192.5 408.5,-192.5 408.5,-162.5 43.5,-162.5"/>
<text text-anchor="start" x="50.5" y="-173.9" font-family="Arial" font-size="14.00" fill="#000000">modified_at    </text>
<text text-anchor="start" x="157.0554" y="-173.9" font-family="Arial" font-size="14.00" fill="#666666">[timestamp without time zone]</text>
</g>
<!-- hame.land_use_point&#45;&gt;codes.type_of_underground -->
<g id="edge1" class="edge">
<title>hame.land_use_point:type_of_underground_id&#45;&gt;codes.type_of_underground:id</title>
<path fill="none" stroke="#000000" d="M720.29,-997.3443C538.5953,-991.7195 533.6788,-834.4798 460.5,-661 423.6476,-573.6368 503.3179,-237.5 408.5,-237.5"/>
<polygon fill="#000000" stroke="#000000" points="720.5012,-997.3475 730.4314,-1001.9995 725.5006,-997.4237 730.5,-997.5 730.5,-997.5 730.5,-997.5 725.5006,-997.4237 730.5686,-993.0005 720.5012,-997.3475 720.5012,-997.3475"/>
<text text-anchor="start" x="325.0115" y="-1007.5" font-family="Arial" font-size="10.00" fill="#000000">FOREIGN KEY (type_of_underground_id) REFERENCES codes.type_of_underground(id)</text>
</g>
<!-- hame.plan -->
<g id="node3" class="node">
<title>hame.plan</title>
<polygon fill="#efefef" stroke="transparent" points="512.5,-582.5 512.5,-617.5 820.5,-617.5 820.5,-582.5 512.5,-582.5"/>
<polygon fill="none" stroke="#000000" points="512.5,-582.5 512.5,-617.5 820.5,-617.5 820.5,-582.5 512.5,-582.5"/>
<text text-anchor="start" x="560.7031" y="-595.3" font-family="Arial Bold" font-size="18.00" fill="#000000">hame.plan</text>
<text text-anchor="start" x="644.7289" y="-595.3" font-family="Arial" font-size="14.00" fill="#000000">    </text>
<text text-anchor="start" x="678.9337" y="-595.3" font-family="Arial" font-size="14.00" fill="#666666">[BASE TABLE]</text>
<polygon fill="none" stroke="#000000" points="512.5,-552.5 512.5,-582.5 820.5,-582.5 820.5,-552.5 512.5,-552.5"/>
<text text-anchor="start" x="519.5" y="-563.9" font-family="Arial" font-size="14.00" fill="#000000">name    </text>
<text text-anchor="start" x="588.7132" y="-563.9" font-family="Arial" font-size="14.00" fill="#666666">[jsonb]</text>
<polygon fill="none" stroke="#000000" points="512.5,-522.5 512.5,-552.5 820.5,-552.5 820.5,-522.5 512.5,-522.5"/>
<text text-anchor="start" x="519.5" y="-533.9" font-family="Arial" font-size="14.00" fill="#000000">id    </text>
<text text-anchor="start" x="564.594" y="-533.9" font-family="Arial" font-size="14.00" fill="#666666">[uuid]</text>
<polygon fill="none" stroke="#000000" points="512.5,-492.5 512.5,-522.5 820.5,-522.5 820.5,-492.5 512.5,-492.5"/>
<text text-anchor="start" x="519.5" y="-503.9" font-family="Arial" font-size="14.00" fill="#000000">created_at    </text>
<text text-anchor="start" x="619.8422" y="-503.9" font-family="Arial" font-size="14.00" fill="#666666">[timestamp without time zone]</text>
<polygon fill="none" stroke="#000000" points="512.5,-462.5 512.5,-492.5 820.5,-492.5 820.5,-462.5 512.5,-462.5"/>
<text text-anchor="start" x="519.5" y="-473.9" font-family="Arial" font-size="14.00" fill="#000000">modified_at    </text>
<text text-anchor="start" x="626.0554" y="-473.9" font-family="Arial" font-size="14.00" fill="#666666">[timestamp without time zone]</text>
<polygon fill="none" stroke="#000000" points="512.5,-432.5 512.5,-462.5 820.5,-462.5 820.5,-432.5 512.5,-432.5"/>
<text text-anchor="start" x="519.5" y="-443.9" font-family="Arial" font-size="14.00" fill="#000000">exported_at    </text>
<text text-anchor="start" x="627.6248" y="-443.9" font-family="Arial" font-size="14.00" fill="#666666">[timestamp without time zone]</text>
<polygon fill="none" stroke="#000000" points="512.5,-402.5 512.5,-432.5 820.5,-432.5 820.5,-402.5 512.5,-402.5"/>
<text text-anchor="start" x="519.5" y="-413.9" font-family="Arial" font-size="14.00" fill="#000000">geom    </text>
<text text-anchor="start" x="588.7132" y="-413.9" font-family="Arial" font-size="14.00" fill="#666666">[geometry(MultiPolygon,3067)]</text>
<polygon fill="none" stroke="#000000" points="512.5,-372.5 512.5,-402.5 820.5,-402.5 820.5,-372.5 512.5,-372.5"/>
<text text-anchor="start" x="519.5" y="-383.9" font-family="Arial" font-size="14.00" fill="#000000">lifecycle_status_id    </text>
<text text-anchor="start" x="667.2812" y="-383.9" font-family="Arial" font-size="14.00" fill="#666666">[uuid]</text>
<polygon fill="none" stroke="#000000" points="512.5,-342.5 512.5,-372.5 820.5,-372.5 820.5,-342.5 512.5,-342.5"/>
<text text-anchor="start" x="519.5" y="-353.9" font-family="Arial" font-size="14.00" fill="#000000">organisation_id    </text>
<text text-anchor="start" x="648.6192" y="-353.9" font-family="Arial" font-size="14.00" fill="#666666">[uuid]</text>
<polygon fill="none" stroke="#000000" points="512.5,-312.5 512.5,-342.5 820.5,-342.5 820.5,-312.5 512.5,-312.5"/>
<text text-anchor="start" x="519.5" y="-323.9" font-family="Arial" font-size="14.00" fill="#000000">plan_regulation_group_id    </text>
<text text-anchor="start" x="711.6472" y="-323.9" font-family="Arial" font-size="14.00" fill="#666666">[uuid]</text>
<polygon fill="none" stroke="#000000" points="512.5,-282.5 512.5,-312.5 820.5,-312.5 820.5,-282.5 512.5,-282.5"/>
<text text-anchor="start" x="519.5" y="-293.9" font-family="Arial" font-size="14.00" fill="#000000">plan_type_id    </text>
<text text-anchor="start" x="633.0694" y="-293.9" font-family="Arial" font-size="14.00" fill="#666666">[uuid]</text>
<polygon fill="none" stroke="#000000" points="512.5,-252.5 512.5,-282.5 820.5,-282.5 820.5,-252.5 512.5,-252.5"/>
<text text-anchor="start" x="519.5" y="-263.9" font-family="Arial" font-size="14.00" fill="#000000">permanent_plan_identifier    </text>
<text text-anchor="start" x="715.5238" y="-263.9" font-family="Arial" font-size="14.00" fill="#666666">[varchar]</text>
<polygon fill="none" stroke="#000000" points="512.5,-222.5 512.5,-252.5 820.5,-252.5 820.5,-222.5 512.5,-222.5"/>
<text text-anchor="start" x="519.5" y="-233.9" font-family="Arial" font-size="14.00" fill="#000000">producers_plan_identifier    </text>
<text text-anchor="start" x="710.8506" y="-233.9" font-family="Arial" font-size="14.00" fill="#666666">[varchar]</text>
<polygon fill="none" stroke="#000000" points="512.5,-192.5 512.5,-222.5 820.5,-222.5 820.5,-192.5 512.5,-192.5"/>
<text text-anchor="start" x="519.5" y="-203.9" font-family="Arial" font-size="14.00" fill="#000000">description    </text>
<text text-anchor="start" x="621.3822" y="-203.9" font-family="Arial" font-size="14.00" fill="#666666">[jsonb]</text>
<polygon fill="none" stroke="#000000" points="512.5,-162.5 512.5,-192.5 820.5,-192.5 820.5,-162.5 512.5,-162.5"/>
<text text-anchor="start" x="519.5" y="-173.9" font-family="Arial" font-size="14.00" fill="#000000">scale    </text>
<text text-anchor="start" x="586.3766" y="-173.9" font-family="Arial" font-size="14.00" fill="#666666">[integer]</text>
<polygon fill="none" stroke="#000000" points="512.5,-132.5 512.5,-162.5 820.5,-162.5 820.5,-132.5 512.5,-132.5"/>
<text text-anchor="start" x="519.5" y="-143.9" font-family="Arial" font-size="14.00" fill="#000000">matter_management_identifier    </text>
<text text-anchor="start" x="743.5196" y="-143.9" font-family="Arial" font-size="14.00" fill="#666666">[varchar]</text>
<polygon fill="none" stroke="#000000" points="512.5,-102.5 512.5,-132.5 820.5,-132.5 820.5,-102.5 512.5,-102.5"/>
<text text-anchor="start" x="519.5" y="-113.9" font-family="Arial" font-size="14.00" fill="#000000">record_number    </text>
<text text-anchor="start" x="648.608" y="-113.9" font-family="Arial" font-size="14.00" fill="#666666">[varchar]</text>
<polygon fill="none" stroke="#000000" points="512.5,-72.5 512.5,-102.5 820.5,-102.5 820.5,-72.5 512.5,-72.5"/>
<text text-anchor="start" x="519.0912" y="-83.9" font-family="Arial" font-size="14.00" fill="#000000">validated_at    </text>
<text text-anchor="start" x="628.7686" y="-83.9" font-family="Arial" font-size="14.00" fill="#666666">[timestamp without time zone]</text>
<polygon fill="none" stroke="#000000" points="512.5,-42.5 512.5,-72.5 820.5,-72.5 820.5,-42.5 512.5,-42.5"/>
<text text-anchor="start" x="519.5" y="-53.9" font-family="Arial" font-size="14.00" fill="#000000">validation_errors    </text>
<text text-anchor="start" x="657.1578" y="-53.9" font-family="Arial" font-size="14.00" fill="#666666">[jsonb]</text>
</g>
<!-- hame.land_use_point&#45;&gt;hame.plan -->
<g id="edge2" class="edge">
<title>hame.land_use_point:plan_id&#45;&gt;hame.plan:id</title>
<path fill="none" stroke="#000000" d="M720.3752,-967.0659C613.3853,-957.5448 665.0746,-793.6355 730.5,-697 754.6526,-661.3258 796.3474,-696.6742 820.5,-661 851.2723,-615.5483 875.3889,-537.5 820.5,-537.5"/>
<polygon fill="#000000" stroke="#000000" points="720.5092,-967.0716 730.3072,-971.9959 725.5046,-967.2858 730.5,-967.5 730.5,-967.5 730.5,-967.5 725.5046,-967.2858 730.6928,-963.0041 720.5092,-967.0716 720.5092,-967.0716"/>
<text text-anchor="start" x="478.993" y="-977.5" font-family="Arial" font-size="10.00" fill="#000000">FOREIGN KEY (plan_id) REFERENCES hame.plan(id)</text>
</g>
<!-- hame.plan_regulation_group -->
<g id="node4" class="node">
<title>hame.plan_regulation_group</title>
<polygon fill="#efefef" stroke="transparent" points="924.5,-402.5 924.5,-437.5 1294.5,-437.5 1294.5,-402.5 924.5,-402.5"/>
<polygon fill="none" stroke="#000000" points="924.5,-402.5 924.5,-437.5 1294.5,-437.5 1294.5,-402.5 924.5,-402.5"/>
<text text-anchor="start" x="931.1784" y="-415.3" font-family="Arial Bold" font-size="18.00" fill="#000000">hame.plan_regulation_group</text>
<text text-anchor="start" x="1160.2536" y="-415.3" font-family="Arial" font-size="14.00" fill="#000000">    </text>
<text text-anchor="start" x="1194.4584" y="-415.3" font-family="Arial" font-size="14.00" fill="#666666">[BASE TABLE]</text>
<polygon fill="none" stroke="#000000" points="924.5,-372.5 924.5,-402.5 1294.5,-402.5 1294.5,-372.5 924.5,-372.5"/>
<text text-anchor="start" x="931.5" y="-383.9" font-family="Arial" font-size="14.00" fill="#000000">short_name    </text>
<text text-anchor="start" x="1039.6122" y="-383.9" font-family="Arial" font-size="14.00" fill="#666666">[varchar]</text>
<polygon fill="none" stroke="#000000" points="924.5,-342.5 924.5,-372.5 1294.5,-372.5 1294.5,-342.5 924.5,-342.5"/>
<text text-anchor="start" x="931.5" y="-353.9" font-family="Arial" font-size="14.00" fill="#000000">name    </text>
<text text-anchor="start" x="1000.7132" y="-353.9" font-family="Arial" font-size="14.00" fill="#666666">[jsonb]</text>
<polygon fill="none" stroke="#000000" points="924.5,-312.5 924.5,-342.5 1294.5,-342.5 1294.5,-312.5 924.5,-312.5"/>
<text text-anchor="start" x="931.5" y="-323.9" font-family="Arial" font-size="14.00" fill="#000000">id    </text>
<text text-anchor="start" x="976.594" y="-323.9" font-family="Arial" font-size="14.00" fill="#666666">[uuid]</text>
<polygon fill="none" stroke="#000000" points="924.5,-282.5 924.5,-312.5 1294.5,-312.5 1294.5,-282.5 924.5,-282.5"/>
<text text-anchor="start" x="931.5" y="-293.9" font-family="Arial" font-size="14.00" fill="#000000">created_at    </text>
<text text-anchor="start" x="1031.8422" y="-293.9" font-family="Arial" font-size="14.00" fill="#666666">[timestamp without time zone]</text>
<polygon fill="none" stroke="#000000" points="924.5,-252.5 924.5,-282.5 1294.5,-282.5 1294.5,-252.5 924.5,-252.5"/>
<text text-anchor="start" x="931.5" y="-263.9" font-family="Arial" font-size="14.00" fill="#000000">modified_at    </text>
<text text-anchor="start" x="1038.0554" y="-263.9" font-family="Arial" font-size="14.00" fill="#666666">[timestamp without time zone]</text>
<polygon fill="none" stroke="#000000" points="924.5,-222.5 924.5,-252.5 1294.5,-252.5 1294.5,-222.5 924.5,-222.5"/>
<text text-anchor="start" x="931.5" y="-233.9" font-family="Arial" font-size="14.00" fill="#000000">type_of_plan_regulation_group_id    </text>
<text text-anchor="start" x="1177.3414" y="-233.9" font-family="Arial" font-size="14.00" fill="#666666">[uuid]</text>
</g>
<!-- hame.land_use_point&#45;&gt;hame.plan_regulation_group -->
<g id="edge3" class="edge">
<title>hame.land_use_point:plan_regulation_group_id&#45;&gt;hame.plan_regulation_group:id</title>
<path fill="none" stroke="#000000" d="M1053.714,-937.1939C1253.132,-924.7963 939.58,-539.6234 924.5,-481 907.5041,-414.9287 856.2778,-327.5 924.5,-327.5"/>
<polygon fill="#000000" stroke="#000000" points="1053.4955,-937.2004 1043.3652,-933.002 1048.4978,-937.3502 1043.5,-937.5 1043.5,-937.5 1043.5,-937.5 1048.4978,-937.3502 1043.6348,-941.998 1053.4955,-937.2004 1053.4955,-937.2004"/>
<text text-anchor="start" x="1050.41" y="-947.5" font-family="Arial" font-size="10.00" fill="#000000">FOREIGN KEY (plan_regulation_group_id) REFERENCES hame.plan_regulation_group(id)</text>
</g>
<!-- codes.lifecycle_status -->
<g id="node5" class="node">
<title>codes.lifecycle_status</title>
<polygon fill="#efefef" stroke="transparent" points="1398.5,-462.5 1398.5,-497.5 1714.5,-497.5 1714.5,-462.5 1398.5,-462.5"/>
<polygon fill="none" stroke="#000000" points="1398.5,-462.5 1398.5,-497.5 1714.5,-497.5 1714.5,-462.5 1398.5,-462.5"/>
<text text-anchor="start" x="1405.1955" y="-475.3" font-family="Arial Bold" font-size="18.00" fill="#000000">codes.lifecycle_status</text>
<text text-anchor="start" x="1580.2365" y="-475.3" font-family="Arial" font-size="14.00" fill="#000000">    </text>
<text text-anchor="start" x="1614.4413" y="-475.3" font-family="Arial" font-size="14.00" fill="#666666">[BASE TABLE]</text>
<polygon fill="none" stroke="#000000" points="1398.5,-432.5 1398.5,-462.5 1714.5,-462.5 1714.5,-432.5 1398.5,-432.5"/>
<text text-anchor="start" x="1405.5" y="-443.9" font-family="Arial" font-size="14.00" fill="#000000">value    </text>
<text text-anchor="start" x="1473.1592" y="-443.9" font-family="Arial" font-size="14.00" fill="#666666">[varchar]</text>
<polygon fill="none" stroke="#000000" points="1398.5,-402.5 1398.5,-432.5 1714.5,-432.5 1714.5,-402.5 1398.5,-402.5"/>
<text text-anchor="start" x="1405.5" y="-413.9" font-family="Arial" font-size="14.00" fill="#000000">name    </text>
<text text-anchor="start" x="1474.7132" y="-413.9" font-family="Arial" font-size="14.00" fill="#666666">[jsonb]</text>
<polygon fill="none" stroke="#000000" points="1398.5,-372.5 1398.5,-402.5 1714.5,-402.5 1714.5,-372.5 1398.5,-372.5"/>
<text text-anchor="start" x="1405.5" y="-383.9" font-family="Arial" font-size="14.00" fill="#000000">id    </text>
<text text-anchor="start" x="1450.594" y="-383.9" font-family="Arial" font-size="14.00" fill="#666666">[uuid]</text>
<polygon fill="none" stroke="#000000" points="1398.5,-342.5 1398.5,-372.5 1714.5,-372.5 1714.5,-342.5 1398.5,-342.5"/>
<text text-anchor="start" x="1405.5" y="-353.9" font-family="Arial" font-size="14.00" fill="#000000">short_name    </text>
<text text-anchor="start" x="1513.6122" y="-353.9" font-family="Arial" font-size="14.00" fill="#666666">[varchar]</text>
<polygon fill="none" stroke="#000000" points="1398.5,-312.5 1398.5,-342.5 1714.5,-342.5 1714.5,-312.5 1398.5,-312.5"/>
<text text-anchor="start" x="1405.5" y="-323.9" font-family="Arial" font-size="14.00" fill="#000000">description    </text>
<text text-anchor="start" x="1507.3822" y="-323.9" font-family="Arial" font-size="14.00" fill="#666666">[jsonb]</text>
<polygon fill="none" stroke="#000000" points="1398.5,-282.5 1398.5,-312.5 1714.5,-312.5 1714.5,-282.5 1398.5,-282.5"/>
<text text-anchor="start" x="1405.5" y="-293.9" font-family="Arial" font-size="14.00" fill="#000000">created_at    </text>
<text text-anchor="start" x="1505.8422" y="-293.9" font-family="Arial" font-size="14.00" fill="#666666">[timestamp without time zone]</text>
<polygon fill="none" stroke="#000000" points="1398.5,-252.5 1398.5,-282.5 1714.5,-282.5 1714.5,-252.5 1398.5,-252.5"/>
<text text-anchor="start" x="1405.5" y="-263.9" font-family="Arial" font-size="14.00" fill="#000000">modified_at    </text>
<text text-anchor="start" x="1512.0554" y="-263.9" font-family="Arial" font-size="14.00" fill="#666666">[timestamp without time zone]</text>
<polygon fill="none" stroke="#000000" points="1398.5,-222.5 1398.5,-252.5 1714.5,-252.5 1714.5,-222.5 1398.5,-222.5"/>
<text text-anchor="start" x="1405.5" y="-233.9" font-family="Arial" font-size="14.00" fill="#000000">level    </text>
<text text-anchor="start" x="1468.4832" y="-233.9" font-family="Arial" font-size="14.00" fill="#666666">[integer]</text>
<polygon fill="none" stroke="#000000" points="1398.5,-192.5 1398.5,-222.5 1714.5,-222.5 1714.5,-192.5 1398.5,-192.5"/>
<text text-anchor="start" x="1405.5" y="-203.9" font-family="Arial" font-size="14.00" fill="#000000">parent_id    </text>
<text text-anchor="start" x="1498.0582" y="-203.9" font-family="Arial" font-size="14.00" fill="#666666">[uuid]</text>
<polygon fill="none" stroke="#000000" points="1398.5,-162.5 1398.5,-192.5 1714.5,-192.5 1714.5,-162.5 1398.5,-162.5"/>
<text text-anchor="start" x="1405.5" y="-173.9" font-family="Arial" font-size="14.00" fill="#000000">status    </text>
<text text-anchor="start" x="1477.0512" y="-173.9" font-family="Arial" font-size="14.00" fill="#666666">[varchar]</text>
</g>
<!-- hame.land_use_point&#45;&gt;codes.lifecycle_status -->
<g id="edge4" class="edge">
<title>hame.land_use_point:lifecycle_status_id&#45;&gt;codes.lifecycle_status:id</title>
<path fill="none" stroke="#000000" d="M1053.5363,-877.4029C1211.0088,-874.3123 1259.1344,-797.5614 1346.5,-661 1379.8403,-608.8857 1336.6335,-387.5 1398.5,-387.5"/>
<polygon fill="#000000" stroke="#000000" points="1053.4995,-877.4031 1043.4564,-873.0002 1048.4998,-877.4516 1043.5,-877.5 1043.5,-877.5 1043.5,-877.5 1048.4998,-877.4516 1043.5436,-881.9998 1053.4995,-877.4031 1053.4995,-877.4031"/>
<text text-anchor="start" x="1050.2645" y="-887.5" font-family="Arial" font-size="10.00" fill="#000000">FOREIGN KEY (lifecycle_status_id) REFERENCES codes.lifecycle_status(id)</text>
</g>
<!-- hame.lifecycle_date -->
<g id="node6" class="node">
<title>hame.lifecycle_date</title>
<polygon fill="#efefef" stroke="transparent" points="734.5,-1772.5 734.5,-1807.5 1039.5,-1807.5 1039.5,-1772.5 734.5,-1772.5"/>
<polygon fill="none" stroke="#000000" points="734.5,-1772.5 734.5,-1807.5 1039.5,-1807.5 1039.5,-1772.5 734.5,-1772.5"/>
<text text-anchor="start" x="743.6974" y="-1785.3" font-family="Arial Bold" font-size="18.00" fill="#000000">hame.lifecycle_date</text>
<text text-anchor="start" x="902.7346" y="-1785.3" font-family="Arial" font-size="14.00" fill="#000000">    </text>
<text text-anchor="start" x="936.9394" y="-1785.3" font-family="Arial" font-size="14.00" fill="#666666">[BASE TABLE]</text>
<polygon fill="none" stroke="#000000" points="734.5,-1742.5 734.5,-1772.5 1039.5,-1772.5 1039.5,-1742.5 734.5,-1742.5"/>
<text text-anchor="start" x="741.5" y="-1753.9" font-family="Arial" font-size="14.00" fill="#000000">lifecycle_status_id    </text>
<text text-anchor="start" x="889.2812" y="-1753.9" font-family="Arial" font-size="14.00" fill="#666666">[uuid]</text>
<polygon fill="none" stroke="#000000" points="734.5,-1712.5 734.5,-1742.5 1039.5,-1742.5 1039.5,-1712.5 734.5,-1712.5"/>
<text text-anchor="start" x="741.5" y="-1723.9" font-family="Arial" font-size="14.00" fill="#000000">plan_id    </text>
<text text-anchor="start" x="820.831" y="-1723.9" font-family="Arial" font-size="14.00" fill="#666666">[uuid]</text>
<polygon fill="none" stroke="#000000" points="734.5,-1682.5 734.5,-1712.5 1039.5,-1712.5 1039.5,-1682.5 734.5,-1682.5"/>
<text text-anchor="start" x="741.5" y="-1693.9" font-family="Arial" font-size="14.00" fill="#000000">plan_regulation_id    </text>
<text text-anchor="start" x="890.0736" y="-1693.9" font-family="Arial" font-size="14.00" fill="#666666">[uuid]</text>
<polygon fill="none" stroke="#000000" points="734.5,-1652.5 734.5,-1682.5 1039.5,-1682.5 1039.5,-1652.5 734.5,-1652.5"/>
<text text-anchor="start" x="741.5" y="-1663.9" font-family="Arial" font-size="14.00" fill="#000000">plan_proposition_id    </text>
<text text-anchor="start" x="897.0736" y="-1663.9" font-family="Arial" font-size="14.00" fill="#666666">[uuid]</text>
<polygon fill="none" stroke="#000000" points="734.5,-1622.5 734.5,-1652.5 1039.5,-1652.5 1039.5,-1622.5 734.5,-1622.5"/>
<text text-anchor="start" x="741.5" y="-1633.9" font-family="Arial" font-size="14.00" fill="#000000">starting_at    </text>
<text text-anchor="start" x="841.0568" y="-1633.9" font-family="Arial" font-size="14.00" fill="#666666">[timestamp without time zone]</text>
<polygon fill="none" stroke="#000000" points="734.5,-1592.5 734.5,-1622.5 1039.5,-1622.5 1039.5,-1592.5 734.5,-1592.5"/>
<text text-anchor="start" x="741.5" y="-1603.9" font-family="Arial" font-size="14.00" fill="#000000">ending_at    </text>
<text text-anchor="start" x="837.1802" y="-1603.9" font-family="Arial" font-size="14.00" fill="#666666">[timestamp without time zone]</text>
<polygon fill="none" stroke="#000000" points="734.5,-1562.5 734.5,-1592.5 1039.5,-1592.5 1039.5,-1562.5 734.5,-1562.5"/>
<text text-anchor="start" x="741.5" y="-1573.9" font-family="Arial" font-size="14.00" fill="#000000">id    </text>
<text text-anchor="start" x="786.594" y="-1573.9" font-family="Arial" font-size="14.00" fill="#666666">[uuid]</text>
<polygon fill="none" stroke="#000000" points="734.5,-1532.5 734.5,-1562.5 1039.5,-1562.5 1039.5,-1532.5 734.5,-1532.5"/>
<text text-anchor="start" x="741.5" y="-1543.9" font-family="Arial" font-size="14.00" fill="#000000">created_at    </text>
<text text-anchor="start" x="841.8422" y="-1543.9" font-family="Arial" font-size="14.00" fill="#666666">[timestamp without time zone]</text>
<polygon fill="none" stroke="#000000" points="734.5,-1502.5 734.5,-1532.5 1039.5,-1532.5 1039.5,-1502.5 734.5,-1502.5"/>
<text text-anchor="start" x="741.1522" y="-1513.9" font-family="Arial" font-size="14.00" fill="#000000">modified_at    </text>
<text text-anchor="start" x="847.7076" y="-1513.9" font-family="Arial" font-size="14.00" fill="#666666">[timestamp without time zone]</text>
<polygon fill="none" stroke="#000000" points="734.5,-1472.5 734.5,-1502.5 1039.5,-1502.5 1039.5,-1472.5 734.5,-1472.5"/>
<text text-anchor="start" x="741.5" y="-1483.9" font-family="Arial" font-size="14.00" fill="#000000">land_use_area_id    </text>
<text text-anchor="start" x="886.9698" y="-1483.9" font-family="Arial" font-size="14.00" fill="#666666">[uuid]</text>
<polygon fill="none" stroke="#000000" points="734.5,-1442.5 734.5,-1472.5 1039.5,-1472.5 1039.5,-1442.5 734.5,-1442.5"/>
<text text-anchor="start" x="741.5" y="-1453.9" font-family="Arial" font-size="14.00" fill="#000000">other_area_id    </text>
<text text-anchor="start" x="862.0666" y="-1453.9" font-family="Arial" font-size="14.00" fill="#666666">[uuid]</text>
<polygon fill="none" stroke="#000000" points="734.5,-1412.5 734.5,-1442.5 1039.5,-1442.5 1039.5,-1412.5 734.5,-1412.5"/>
<text text-anchor="start" x="741.5" y="-1423.9" font-family="Arial" font-size="14.00" fill="#000000">line_id    </text>
<text text-anchor="start" x="816.155" y="-1423.9" font-family="Arial" font-size="14.00" fill="#666666">[uuid]</text>
<polygon fill="none" stroke="#000000" points="734.5,-1382.5 734.5,-1412.5 1039.5,-1412.5 1039.5,-1382.5 734.5,-1382.5"/>
<text text-anchor="start" x="741.5" y="-1393.9" font-family="Arial" font-size="14.00" fill="#000000">land_use_point_id    </text>
<text text-anchor="start" x="889.3064" y="-1393.9" font-family="Arial" font-size="14.00" fill="#666666">[uuid]</text>
<polygon fill="none" stroke="#000000" points="734.5,-1352.5 734.5,-1382.5 1039.5,-1382.5 1039.5,-1352.5 734.5,-1352.5"/>
<text text-anchor="start" x="741.5" y="-1363.9" font-family="Arial" font-size="14.00" fill="#000000">other_point_id    </text>
<text text-anchor="start" x="864.4032" y="-1363.9" font-family="Arial" font-size="14.00" fill="#666666">[uuid]</text>
</g>
<!-- hame.lifecycle_date&#45;&gt;hame.land_use_point -->
<g id="edge5" class="edge">
<title>hame.lifecycle_date:land_use_point_id&#45;&gt;hame.land_use_point:id</title>
<path fill="none" stroke="#000000" d="M724.2603,-1397.1723C489.9856,-1382.0341 489.5106,-847.5 730.5,-847.5"/>
<polygon fill="#000000" stroke="#000000" points="724.5051,-1397.18 734.356,-1401.9977 729.5026,-1397.34 734.5,-1397.5 734.5,-1397.5 734.5,-1397.5 729.5026,-1397.34 734.644,-1393.0023 724.5051,-1397.18 724.5051,-1397.18"/>
<text text-anchor="start" x="385.082" y="-1407.5" font-family="Arial" font-size="10.00" fill="#000000">FOREIGN KEY (land_use_point_id) REFERENCES hame.land_use_point(id)</text>
</g>
</g>
</svg>
