<?xml version="1.0" encoding="UTF-8" standalone="no"?>
<!DOCTYPE svg PUBLIC "-//W3C//DTD SVG 1.1//EN"
 "http://www.w3.org/Graphics/SVG/1.1/DTD/svg11.dtd">
<!-- Generated by graphviz version 2.40.1 (20161225.0304)
 -->
<!-- Title: hame.document Pages: 1 -->
<svg width="952pt" height="1192pt"
 viewBox="0.00 0.00 952.00 1192.00" xmlns="http://www.w3.org/2000/svg" xmlns:xlink="http://www.w3.org/1999/xlink">
<g id="graph0" class="graph" transform="scale(1 1) rotate(0) translate(4 1188)">
<title>hame.document</title>
<polygon fill="#ffffff" stroke="transparent" points="-4,4 -4,-1188 948,-1188 948,4 -4,4"/>
<!-- hame.document -->
<g id="node1" class="node">
<title>hame.document</title>
<polygon fill="#efefef" stroke="transparent" points="387,-1102.5 387,-1137.5 676,-1137.5 676,-1102.5 387,-1102.5"/>
<polygon fill="none" stroke="#000000" points="387,-1102.5 387,-1137.5 676,-1137.5 676,-1102.5 387,-1102.5"/>
<text text-anchor="start" x="403.1968" y="-1115.3" font-family="Arial Bold" font-size="18.00" fill="#000000">hame.document</text>
<text text-anchor="start" x="532.2352" y="-1115.3" font-family="Arial" font-size="14.00" fill="#000000">    </text>
<text text-anchor="start" x="566.44" y="-1115.3" font-family="Arial" font-size="14.00" fill="#666666">[BASE TABLE]</text>
<polygon fill="none" stroke="#000000" points="387,-1072.5 387,-1102.5 676,-1102.5 676,-1072.5 387,-1072.5"/>
<text text-anchor="start" x="394" y="-1083.9" font-family="Arial" font-size="14.00" fill="#000000">type_of_document_id </text>
<text text-anchor="start" x="531.7208" y="-1083.9" font-family="Arial" font-size="14.00" fill="#666666">[uuid]</text>
<polygon fill="none" stroke="#000000" points="387,-1042.5 387,-1072.5 676,-1072.5 676,-1042.5 387,-1042.5"/>
<text text-anchor="start" x="394" y="-1053.9" font-family="Arial" font-size="14.00" fill="#000000">name </text>
<text text-anchor="start" x="432.899" y="-1053.9" font-family="Arial" font-size="14.00" fill="#666666">[varchar]</text>
<polygon fill="none" stroke="#000000" points="387,-1012.5 387,-1042.5 676,-1042.5 676,-1012.5 387,-1012.5"/>
<text text-anchor="start" x="394" y="-1023.9" font-family="Arial" font-size="14.00" fill="#000000">personal_details </text>
<text text-anchor="start" x="499.805" y="-1023.9" font-family="Arial" font-size="14.00" fill="#666666">[varchar]</text>
<polygon fill="none" stroke="#000000" points="387,-982.5 387,-1012.5 676,-1012.5 676,-982.5 387,-982.5"/>
<text text-anchor="start" x="394" y="-993.9" font-family="Arial" font-size="14.00" fill="#000000">publicity </text>
<text text-anchor="start" x="448.4488" y="-993.9" font-family="Arial" font-size="14.00" fill="#666666">[varchar(11)]</text>
<polygon fill="none" stroke="#000000" points="387,-952.5 387,-982.5 676,-982.5 676,-952.5 387,-952.5"/>
<text text-anchor="start" x="394" y="-963.9" font-family="Arial" font-size="14.00" fill="#000000">language </text>
<text text-anchor="start" x="455.4754" y="-963.9" font-family="Arial" font-size="14.00" fill="#666666">[varchar]</text>
<polygon fill="none" stroke="#000000" points="387,-922.5 387,-952.5 676,-952.5 676,-922.5 387,-922.5"/>
<text text-anchor="start" x="394" y="-933.9" font-family="Arial" font-size="14.00" fill="#000000">decision </text>
<text text-anchor="start" x="449.2342" y="-933.9" font-family="Arial" font-size="14.00" fill="#666666">[boolean]</text>
<polygon fill="none" stroke="#000000" points="387,-892.5 387,-922.5 676,-922.5 676,-892.5 387,-892.5"/>
<text text-anchor="start" x="393.8023" y="-903.9" font-family="Arial" font-size="14.00" fill="#000000">decision_date </text>
<text text-anchor="start" x="484.0575" y="-903.9" font-family="Arial" font-size="14.00" fill="#666666">[timestamp without time zone]</text>
<polygon fill="none" stroke="#000000" points="387,-862.5 387,-892.5 676,-892.5 676,-862.5 387,-862.5"/>
<text text-anchor="start" x="394" y="-873.9" font-family="Arial" font-size="14.00" fill="#000000">id </text>
<text text-anchor="start" x="408.7798" y="-873.9" font-family="Arial" font-size="14.00" fill="#666666">[uuid]</text>
<polygon fill="none" stroke="#000000" points="387,-832.5 387,-862.5 676,-862.5 676,-832.5 387,-832.5"/>
<text text-anchor="start" x="394" y="-843.9" font-family="Arial" font-size="14.00" fill="#000000">created_at </text>
<text text-anchor="start" x="464.028" y="-843.9" font-family="Arial" font-size="14.00" fill="#666666">[timestamp without time zone]</text>
<polygon fill="none" stroke="#000000" points="387,-802.5 387,-832.5 676,-832.5 676,-802.5 387,-802.5"/>
<text text-anchor="start" x="394" y="-813.9" font-family="Arial" font-size="14.00" fill="#000000">modified_at </text>
<text text-anchor="start" x="470.2412" y="-813.9" font-family="Arial" font-size="14.00" fill="#666666">[timestamp without time zone]</text>
<polygon fill="none" stroke="#000000" points="387,-772.5 387,-802.5 676,-802.5 676,-772.5 387,-772.5"/>
<text text-anchor="start" x="394" y="-783.9" font-family="Arial" font-size="14.00" fill="#000000">plan_id </text>
<text text-anchor="start" x="443.0168" y="-783.9" font-family="Arial" font-size="14.00" fill="#666666">[uuid]</text>
<polygon fill="none" stroke="#000000" points="387,-742.5 387,-772.5 676,-772.5 676,-742.5 387,-742.5"/>
<text text-anchor="start" x="394" y="-753.9" font-family="Arial" font-size="14.00" fill="#000000">permanent_document_identifier </text>
<text text-anchor="start" x="594.7194" y="-753.9" font-family="Arial" font-size="14.00" fill="#666666">[uuid]</text>
<polygon fill="none" stroke="#000000" stroke-width="3" points="385,-741.5 385,-1139.5 677,-1139.5 677,-741.5 385,-741.5"/>
</g>
<!-- codes.type_of_document -->
<g id="node2" class="node">
<title>codes.type_of_document</title>
<polygon fill="#efefef" stroke="transparent" points="147,-462.5 147,-497.5 489,-497.5 489,-462.5 147,-462.5"/>
<polygon fill="none" stroke="#000000" points="147,-462.5 147,-497.5 489,-497.5 489,-462.5 147,-462.5"/>
<text text-anchor="start" x="153.6752" y="-475.3" font-family="Arial Bold" font-size="18.00" fill="#000000">codes.type_of_document</text>
<text text-anchor="start" x="354.7568" y="-475.3" font-family="Arial" font-size="14.00" fill="#000000">    </text>
<text text-anchor="start" x="388.9616" y="-475.3" font-family="Arial" font-size="14.00" fill="#666666">[BASE TABLE]</text>
<polygon fill="none" stroke="#000000" points="147,-432.5 147,-462.5 489,-462.5 489,-432.5 147,-432.5"/>
<text text-anchor="start" x="154" y="-443.9" font-family="Arial" font-size="14.00" fill="#000000">value    </text>
<text text-anchor="start" x="221.6592" y="-443.9" font-family="Arial" font-size="14.00" fill="#666666">[varchar]</text>
<polygon fill="none" stroke="#000000" points="147,-402.5 147,-432.5 489,-432.5 489,-402.5 147,-402.5"/>
<text text-anchor="start" x="154" y="-413.9" font-family="Arial" font-size="14.00" fill="#000000">short_name    </text>
<text text-anchor="start" x="262.1122" y="-413.9" font-family="Arial" font-size="14.00" fill="#666666">[varchar]</text>
<polygon fill="none" stroke="#000000" points="147,-372.5 147,-402.5 489,-402.5 489,-372.5 147,-372.5"/>
<text text-anchor="start" x="154" y="-383.9" font-family="Arial" font-size="14.00" fill="#000000">name    </text>
<text text-anchor="start" x="223.2132" y="-383.9" font-family="Arial" font-size="14.00" fill="#666666">[jsonb]</text>
<polygon fill="none" stroke="#000000" points="147,-342.5 147,-372.5 489,-372.5 489,-342.5 147,-342.5"/>
<text text-anchor="start" x="154" y="-353.9" font-family="Arial" font-size="14.00" fill="#000000">description    </text>
<text text-anchor="start" x="255.8822" y="-353.9" font-family="Arial" font-size="14.00" fill="#666666">[jsonb]</text>
<polygon fill="none" stroke="#000000" points="147,-312.5 147,-342.5 489,-342.5 489,-312.5 147,-312.5"/>
<text text-anchor="start" x="154" y="-323.9" font-family="Arial" font-size="14.00" fill="#000000">status    </text>
<text text-anchor="start" x="225.5512" y="-323.9" font-family="Arial" font-size="14.00" fill="#666666">[varchar]</text>
<polygon fill="none" stroke="#000000" points="147,-282.5 147,-312.5 489,-312.5 489,-282.5 147,-282.5"/>
<text text-anchor="start" x="154" y="-293.9" font-family="Arial" font-size="14.00" fill="#000000">level    </text>
<text text-anchor="start" x="216.9832" y="-293.9" font-family="Arial" font-size="14.00" fill="#666666">[integer]</text>
<polygon fill="none" stroke="#000000" points="147,-252.5 147,-282.5 489,-282.5 489,-252.5 147,-252.5"/>
<text text-anchor="start" x="154" y="-263.9" font-family="Arial" font-size="14.00" fill="#000000">parent_id    </text>
<text text-anchor="start" x="246.5582" y="-263.9" font-family="Arial" font-size="14.00" fill="#666666">[uuid]</text>
<polygon fill="none" stroke="#000000" points="147,-222.5 147,-252.5 489,-252.5 489,-222.5 147,-222.5"/>
<text text-anchor="start" x="154" y="-233.9" font-family="Arial" font-size="14.00" fill="#000000">id    </text>
<text text-anchor="start" x="199.094" y="-233.9" font-family="Arial" font-size="14.00" fill="#666666">[uuid]</text>
<polygon fill="none" stroke="#000000" points="147,-192.5 147,-222.5 489,-222.5 489,-192.5 147,-192.5"/>
<text text-anchor="start" x="154" y="-203.9" font-family="Arial" font-size="14.00" fill="#000000">created_at    </text>
<text text-anchor="start" x="254.3422" y="-203.9" font-family="Arial" font-size="14.00" fill="#666666">[timestamp without time zone]</text>
<polygon fill="none" stroke="#000000" points="147,-162.5 147,-192.5 489,-192.5 489,-162.5 147,-162.5"/>
<text text-anchor="start" x="154" y="-173.9" font-family="Arial" font-size="14.00" fill="#000000">modified_at    </text>
<text text-anchor="start" x="260.5554" y="-173.9" font-family="Arial" font-size="14.00" fill="#666666">[timestamp without time zone]</text>
</g>
<!-- hame.document&#45;&gt;codes.type_of_document -->
<g id="edge1" class="edge">
<title>hame.document:type_of_document_id&#45;&gt;codes.type_of_document:id</title>
<path fill="none" stroke="#000000" d="M376.6945,-1087.2196C218.4992,-1078.3299 338.4646,-859.9204 387,-697 410.6511,-617.6095 465.3489,-620.3905 489,-541 508.256,-476.3629 556.4444,-237.5 489,-237.5"/>
<polygon fill="#000000" stroke="#000000" points="377.0037,-1087.2279 386.8776,-1091.9983 382.0018,-1087.364 387,-1087.5 387,-1087.5 387,-1087.5 382.0018,-1087.364 387.1224,-1083.0017 377.0037,-1087.2279 377.0037,-1087.2279"/>
<text text-anchor="start" x="7.2975" y="-1097.5" font-family="Arial" font-size="10.00" fill="#000000">FOREIGN KEY (type_of_document_id) REFERENCES codes.type_of_document(id)</text>
</g>
<!-- hame.plan -->
<g id="node3" class="node">
<title>hame.plan</title>
<polygon fill="#efefef" stroke="transparent" points="593,-582.5 593,-617.5 901,-617.5 901,-582.5 593,-582.5"/>
<polygon fill="none" stroke="#000000" points="593,-582.5 593,-617.5 901,-617.5 901,-582.5 593,-582.5"/>
<text text-anchor="start" x="641.2031" y="-595.3" font-family="Arial Bold" font-size="18.00" fill="#000000">hame.plan</text>
<text text-anchor="start" x="725.2289" y="-595.3" font-family="Arial" font-size="14.00" fill="#000000">    </text>
<text text-anchor="start" x="759.4337" y="-595.3" font-family="Arial" font-size="14.00" fill="#666666">[BASE TABLE]</text>
<polygon fill="none" stroke="#000000" points="593,-552.5 593,-582.5 901,-582.5 901,-552.5 593,-552.5"/>
<text text-anchor="start" x="600" y="-563.9" font-family="Arial" font-size="14.00" fill="#000000">name    </text>
<text text-anchor="start" x="669.2132" y="-563.9" font-family="Arial" font-size="14.00" fill="#666666">[jsonb]</text>
<polygon fill="none" stroke="#000000" points="593,-522.5 593,-552.5 901,-552.5 901,-522.5 593,-522.5"/>
<text text-anchor="start" x="600" y="-533.9" font-family="Arial" font-size="14.00" fill="#000000">id    </text>
<text text-anchor="start" x="645.094" y="-533.9" font-family="Arial" font-size="14.00" fill="#666666">[uuid]</text>
<polygon fill="none" stroke="#000000" points="593,-492.5 593,-522.5 901,-522.5 901,-492.5 593,-492.5"/>
<text text-anchor="start" x="600" y="-503.9" font-family="Arial" font-size="14.00" fill="#000000">created_at    </text>
<text text-anchor="start" x="700.3422" y="-503.9" font-family="Arial" font-size="14.00" fill="#666666">[timestamp without time zone]</text>
<polygon fill="none" stroke="#000000" points="593,-462.5 593,-492.5 901,-492.5 901,-462.5 593,-462.5"/>
<text text-anchor="start" x="600" y="-473.9" font-family="Arial" font-size="14.00" fill="#000000">modified_at    </text>
<text text-anchor="start" x="706.5554" y="-473.9" font-family="Arial" font-size="14.00" fill="#666666">[timestamp without time zone]</text>
<polygon fill="none" stroke="#000000" points="593,-432.5 593,-462.5 901,-462.5 901,-432.5 593,-432.5"/>
<text text-anchor="start" x="600" y="-443.9" font-family="Arial" font-size="14.00" fill="#000000">exported_at    </text>
<text text-anchor="start" x="708.1248" y="-443.9" font-family="Arial" font-size="14.00" fill="#666666">[timestamp without time zone]</text>
<polygon fill="none" stroke="#000000" points="593,-402.5 593,-432.5 901,-432.5 901,-402.5 593,-402.5"/>
<text text-anchor="start" x="600" y="-413.9" font-family="Arial" font-size="14.00" fill="#000000">geom    </text>
<text text-anchor="start" x="669.2132" y="-413.9" font-family="Arial" font-size="14.00" fill="#666666">[geometry(MultiPolygon,3067)]</text>
<polygon fill="none" stroke="#000000" points="593,-372.5 593,-402.5 901,-402.5 901,-372.5 593,-372.5"/>
<text text-anchor="start" x="600" y="-383.9" font-family="Arial" font-size="14.00" fill="#000000">lifecycle_status_id    </text>
<text text-anchor="start" x="747.7812" y="-383.9" font-family="Arial" font-size="14.00" fill="#666666">[uuid]</text>
<polygon fill="none" stroke="#000000" points="593,-342.5 593,-372.5 901,-372.5 901,-342.5 593,-342.5"/>
<text text-anchor="start" x="600" y="-353.9" font-family="Arial" font-size="14.00" fill="#000000">organisation_id    </text>
<text text-anchor="start" x="729.1192" y="-353.9" font-family="Arial" font-size="14.00" fill="#666666">[uuid]</text>
<polygon fill="none" stroke="#000000" points="593,-312.5 593,-342.5 901,-342.5 901,-312.5 593,-312.5"/>
<text text-anchor="start" x="600" y="-323.9" font-family="Arial" font-size="14.00" fill="#000000">plan_regulation_group_id    </text>
<text text-anchor="start" x="792.1472" y="-323.9" font-family="Arial" font-size="14.00" fill="#666666">[uuid]</text>
<polygon fill="none" stroke="#000000" points="593,-282.5 593,-312.5 901,-312.5 901,-282.5 593,-282.5"/>
<text text-anchor="start" x="600" y="-293.9" font-family="Arial" font-size="14.00" fill="#000000">plan_type_id    </text>
<text text-anchor="start" x="713.5694" y="-293.9" font-family="Arial" font-size="14.00" fill="#666666">[uuid]</text>
<polygon fill="none" stroke="#000000" points="593,-252.5 593,-282.5 901,-282.5 901,-252.5 593,-252.5"/>
<text text-anchor="start" x="600" y="-263.9" font-family="Arial" font-size="14.00" fill="#000000">permanent_plan_identifier    </text>
<text text-anchor="start" x="796.0238" y="-263.9" font-family="Arial" font-size="14.00" fill="#666666">[varchar]</text>
<polygon fill="none" stroke="#000000" points="593,-222.5 593,-252.5 901,-252.5 901,-222.5 593,-222.5"/>
<text text-anchor="start" x="600" y="-233.9" font-family="Arial" font-size="14.00" fill="#000000">producers_plan_identifier    </text>
<text text-anchor="start" x="791.3506" y="-233.9" font-family="Arial" font-size="14.00" fill="#666666">[varchar]</text>
<polygon fill="none" stroke="#000000" points="593,-192.5 593,-222.5 901,-222.5 901,-192.5 593,-192.5"/>
<text text-anchor="start" x="600" y="-203.9" font-family="Arial" font-size="14.00" fill="#000000">description    </text>
<text text-anchor="start" x="701.8822" y="-203.9" font-family="Arial" font-size="14.00" fill="#666666">[jsonb]</text>
<polygon fill="none" stroke="#000000" points="593,-162.5 593,-192.5 901,-192.5 901,-162.5 593,-162.5"/>
<text text-anchor="start" x="600" y="-173.9" font-family="Arial" font-size="14.00" fill="#000000">scale    </text>
<text text-anchor="start" x="666.8766" y="-173.9" font-family="Arial" font-size="14.00" fill="#666666">[integer]</text>
<polygon fill="none" stroke="#000000" points="593,-132.5 593,-162.5 901,-162.5 901,-132.5 593,-132.5"/>
<text text-anchor="start" x="600" y="-143.9" font-family="Arial" font-size="14.00" fill="#000000">matter_management_identifier    </text>
<text text-anchor="start" x="824.0196" y="-143.9" font-family="Arial" font-size="14.00" fill="#666666">[varchar]</text>
<polygon fill="none" stroke="#000000" points="593,-102.5 593,-132.5 901,-132.5 901,-102.5 593,-102.5"/>
<text text-anchor="start" x="600" y="-113.9" font-family="Arial" font-size="14.00" fill="#000000">record_number    </text>
<text text-anchor="start" x="729.108" y="-113.9" font-family="Arial" font-size="14.00" fill="#666666">[varchar]</text>
<polygon fill="none" stroke="#000000" points="593,-72.5 593,-102.5 901,-102.5 901,-72.5 593,-72.5"/>
<text text-anchor="start" x="599.5912" y="-83.9" font-family="Arial" font-size="14.00" fill="#000000">validated_at    </text>
<text text-anchor="start" x="709.2686" y="-83.9" font-family="Arial" font-size="14.00" fill="#666666">[timestamp without time zone]</text>
<polygon fill="none" stroke="#000000" points="593,-42.5 593,-72.5 901,-72.5 901,-42.5 593,-42.5"/>
<text text-anchor="start" x="600" y="-53.9" font-family="Arial" font-size="14.00" fill="#000000">validation_errors    </text>
<text text-anchor="start" x="737.6578" y="-53.9" font-family="Arial" font-size="14.00" fill="#666666">[jsonb]</text>
</g>
<!-- hame.document&#45;&gt;hame.plan -->
<g id="edge2" class="edge">
<title>hame.document:plan_id&#45;&gt;hame.plan:id</title>
<path fill="none" stroke="#000000" d="M686.1644,-785.9475C712.6393,-776.6137 695.9137,-727.3434 676,-697 653.9383,-663.3835 615.0617,-694.6165 593,-661 562.884,-615.1108 538.1111,-537.5 593,-537.5"/>
<polygon fill="#000000" stroke="#000000" points="685.8854,-785.99 675.3205,-783.0516 680.9427,-786.745 676,-787.5 676,-787.5 676,-787.5 680.9427,-786.745 676.6795,-791.9484 685.8854,-785.99 685.8854,-785.99"/>
<text text-anchor="start" x="683.493" y="-797.5" font-family="Arial" font-size="10.00" fill="#000000">FOREIGN KEY (plan_id) REFERENCES hame.plan(id)</text>
</g>
</g>
</svg>
