<?xml version="1.0" encoding="UTF-8" standalone="no"?>
<!DOCTYPE svg PUBLIC "-//W3C//DTD SVG 1.1//EN"
 "http://www.w3.org/Graphics/SVG/1.1/DTD/svg11.dtd">
<!-- Generated by graphviz version 2.40.1 (20161225.0304)
 -->
<!-- Title: hame.source_data Pages: 1 -->
<svg width="990pt" height="1072pt"
 viewBox="0.00 0.00 990.00 1072.00" xmlns="http://www.w3.org/2000/svg" xmlns:xlink="http://www.w3.org/1999/xlink">
<g id="graph0" class="graph" transform="scale(1 1) rotate(0) translate(4 1068)">
<title>hame.source_data</title>
<polygon fill="#ffffff" stroke="transparent" points="-4,4 -4,-1068 986,-1068 986,4 -4,4"/>
<!-- hame.source_data -->
<g id="node1" class="node">
<title>hame.source_data</title>
<polygon fill="#efefef" stroke="transparent" points="409,-982.5 409,-1017.5 720,-1017.5 720,-982.5 409,-982.5"/>
<polygon fill="none" stroke="#000000" points="409,-982.5 409,-1017.5 720,-1017.5 720,-982.5 409,-982.5"/>
<text text-anchor="start" x="426.1906" y="-995.3" font-family="Arial Bold" font-size="18.00" fill="#000000">hame.source_data</text>
<text text-anchor="start" x="575.2414" y="-995.3" font-family="Arial" font-size="14.00" fill="#000000">    </text>
<text text-anchor="start" x="609.4462" y="-995.3" font-family="Arial" font-size="14.00" fill="#666666">[BASE TABLE]</text>
<polygon fill="none" stroke="#000000" points="409,-952.5 409,-982.5 720,-982.5 720,-952.5 409,-952.5"/>
<text text-anchor="start" x="416" y="-963.9" font-family="Arial" font-size="14.00" fill="#000000">type_of_source_data_id </text>
<text text-anchor="start" x="569.286" y="-963.9" font-family="Arial" font-size="14.00" fill="#666666">[uuid]</text>
<polygon fill="none" stroke="#000000" points="409,-922.5 409,-952.5 720,-952.5 720,-922.5 409,-922.5"/>
<text text-anchor="start" x="416" y="-933.9" font-family="Arial" font-size="14.00" fill="#000000">name </text>
<text text-anchor="start" x="454.899" y="-933.9" font-family="Arial" font-size="14.00" fill="#666666">[jsonb]</text>
<polygon fill="none" stroke="#000000" points="409,-892.5 409,-922.5 720,-922.5 720,-892.5 409,-892.5"/>
<text text-anchor="start" x="416" y="-903.9" font-family="Arial" font-size="14.00" fill="#000000">additional_information_uri </text>
<text text-anchor="start" x="580.1402" y="-903.9" font-family="Arial" font-size="14.00" fill="#666666">[varchar]</text>
<polygon fill="none" stroke="#000000" points="409,-862.5 409,-892.5 720,-892.5 720,-862.5 409,-862.5"/>
<text text-anchor="start" x="416" y="-873.9" font-family="Arial" font-size="14.00" fill="#000000">id </text>
<text text-anchor="start" x="430.7798" y="-873.9" font-family="Arial" font-size="14.00" fill="#666666">[uuid]</text>
<polygon fill="none" stroke="#000000" points="409,-832.5 409,-862.5 720,-862.5 720,-832.5 409,-832.5"/>
<text text-anchor="start" x="416" y="-843.9" font-family="Arial" font-size="14.00" fill="#000000">created_at </text>
<text text-anchor="start" x="486.028" y="-843.9" font-family="Arial" font-size="14.00" fill="#666666">[timestamp without time zone]</text>
<polygon fill="none" stroke="#000000" points="409,-802.5 409,-832.5 720,-832.5 720,-802.5 409,-802.5"/>
<text text-anchor="start" x="416" y="-813.9" font-family="Arial" font-size="14.00" fill="#000000">modified_at </text>
<text text-anchor="start" x="492.2412" y="-813.9" font-family="Arial" font-size="14.00" fill="#666666">[timestamp without time zone]</text>
<polygon fill="none" stroke="#000000" points="409,-772.5 409,-802.5 720,-802.5 720,-772.5 409,-772.5"/>
<text text-anchor="start" x="415.9054" y="-783.9" font-family="Arial" font-size="14.00" fill="#000000">detachment_date </text>
<text text-anchor="start" x="527.9544" y="-783.9" font-family="Arial" font-size="14.00" fill="#666666">[timestamp without time zone]</text>
<polygon fill="none" stroke="#000000" points="409,-742.5 409,-772.5 720,-772.5 720,-742.5 409,-742.5"/>
<text text-anchor="start" x="416" y="-753.9" font-family="Arial" font-size="14.00" fill="#000000">plan_id </text>
<text text-anchor="start" x="465.0168" y="-753.9" font-family="Arial" font-size="14.00" fill="#666666">[uuid]</text>
<polygon fill="none" stroke="#000000" stroke-width="3" points="407,-741.5 407,-1019.5 721,-1019.5 721,-741.5 407,-741.5"/>
</g>
<!-- codes.type_of_source_data -->
<g id="node2" class="node">
<title>codes.type_of_source_data</title>
<polygon fill="#efefef" stroke="transparent" points="165,-462.5 165,-497.5 527,-497.5 527,-462.5 165,-462.5"/>
<polygon fill="none" stroke="#000000" points="165,-462.5 165,-497.5 527,-497.5 527,-462.5 165,-462.5"/>
<text text-anchor="start" x="171.669" y="-475.3" font-family="Arial Bold" font-size="18.00" fill="#000000">codes.type_of_source_data</text>
<text text-anchor="start" x="392.763" y="-475.3" font-family="Arial" font-size="14.00" fill="#000000">    </text>
<text text-anchor="start" x="426.9678" y="-475.3" font-family="Arial" font-size="14.00" fill="#666666">[BASE TABLE]</text>
<polygon fill="none" stroke="#000000" points="165,-432.5 165,-462.5 527,-462.5 527,-432.5 165,-432.5"/>
<text text-anchor="start" x="172" y="-443.9" font-family="Arial" font-size="14.00" fill="#000000">value    </text>
<text text-anchor="start" x="239.6592" y="-443.9" font-family="Arial" font-size="14.00" fill="#666666">[varchar]</text>
<polygon fill="none" stroke="#000000" points="165,-402.5 165,-432.5 527,-432.5 527,-402.5 165,-402.5"/>
<text text-anchor="start" x="172" y="-413.9" font-family="Arial" font-size="14.00" fill="#000000">short_name    </text>
<text text-anchor="start" x="280.1122" y="-413.9" font-family="Arial" font-size="14.00" fill="#666666">[varchar]</text>
<polygon fill="none" stroke="#000000" points="165,-372.5 165,-402.5 527,-402.5 527,-372.5 165,-372.5"/>
<text text-anchor="start" x="172" y="-383.9" font-family="Arial" font-size="14.00" fill="#000000">name    </text>
<text text-anchor="start" x="241.2132" y="-383.9" font-family="Arial" font-size="14.00" fill="#666666">[jsonb]</text>
<polygon fill="none" stroke="#000000" points="165,-342.5 165,-372.5 527,-372.5 527,-342.5 165,-342.5"/>
<text text-anchor="start" x="172" y="-353.9" font-family="Arial" font-size="14.00" fill="#000000">description    </text>
<text text-anchor="start" x="273.8822" y="-353.9" font-family="Arial" font-size="14.00" fill="#666666">[jsonb]</text>
<polygon fill="none" stroke="#000000" points="165,-312.5 165,-342.5 527,-342.5 527,-312.5 165,-312.5"/>
<text text-anchor="start" x="172" y="-323.9" font-family="Arial" font-size="14.00" fill="#000000">status    </text>
<text text-anchor="start" x="243.5512" y="-323.9" font-family="Arial" font-size="14.00" fill="#666666">[varchar]</text>
<polygon fill="none" stroke="#000000" points="165,-282.5 165,-312.5 527,-312.5 527,-282.5 165,-282.5"/>
<text text-anchor="start" x="172" y="-293.9" font-family="Arial" font-size="14.00" fill="#000000">level    </text>
<text text-anchor="start" x="234.9832" y="-293.9" font-family="Arial" font-size="14.00" fill="#666666">[integer]</text>
<polygon fill="none" stroke="#000000" points="165,-252.5 165,-282.5 527,-282.5 527,-252.5 165,-252.5"/>
<text text-anchor="start" x="172" y="-263.9" font-family="Arial" font-size="14.00" fill="#000000">parent_id    </text>
<text text-anchor="start" x="264.5582" y="-263.9" font-family="Arial" font-size="14.00" fill="#666666">[uuid]</text>
<polygon fill="none" stroke="#000000" points="165,-222.5 165,-252.5 527,-252.5 527,-222.5 165,-222.5"/>
<text text-anchor="start" x="172" y="-233.9" font-family="Arial" font-size="14.00" fill="#000000">id    </text>
<text text-anchor="start" x="217.094" y="-233.9" font-family="Arial" font-size="14.00" fill="#666666">[uuid]</text>
<polygon fill="none" stroke="#000000" points="165,-192.5 165,-222.5 527,-222.5 527,-192.5 165,-192.5"/>
<text text-anchor="start" x="172" y="-203.9" font-family="Arial" font-size="14.00" fill="#000000">created_at    </text>
<text text-anchor="start" x="272.3422" y="-203.9" font-family="Arial" font-size="14.00" fill="#666666">[timestamp without time zone]</text>
<polygon fill="none" stroke="#000000" points="165,-162.5 165,-192.5 527,-192.5 527,-162.5 165,-162.5"/>
<text text-anchor="start" x="172" y="-173.9" font-family="Arial" font-size="14.00" fill="#000000">modified_at    </text>
<text text-anchor="start" x="278.5554" y="-173.9" font-family="Arial" font-size="14.00" fill="#666666">[timestamp without time zone]</text>
</g>
<!-- hame.source_data&#45;&gt;codes.type_of_source_data -->
<g id="edge1" class="edge">
<title>hame.source_data:type_of_source_data_id&#45;&gt;codes.type_of_source_data:id</title>
<path fill="none" stroke="#000000" d="M398.948,-967.102C293.5433,-958.3651 371.8699,-807.6357 409,-697 436.6596,-614.5835 499.3404,-623.4165 527,-541 548.4586,-477.0603 594.4444,-237.5 527,-237.5"/>
<polygon fill="#000000" stroke="#000000" points="399.0078,-967.1042 408.8219,-971.9965 404.0039,-967.3021 409,-967.5 409,-967.5 409,-967.5 404.0039,-967.3021 409.1781,-963.0035 399.0078,-967.1042 399.0078,-967.1042"/>
<text text-anchor="start" x="7.1795" y="-977.5" font-family="Arial" font-size="10.00" fill="#000000">FOREIGN KEY (type_of_source_data_id) REFERENCES codes.type_of_source_data(id)</text>
</g>
<!-- hame.plan -->
<g id="node3" class="node">
<title>hame.plan</title>
<polygon fill="#efefef" stroke="transparent" points="631,-582.5 631,-617.5 939,-617.5 939,-582.5 631,-582.5"/>
<polygon fill="none" stroke="#000000" points="631,-582.5 631,-617.5 939,-617.5 939,-582.5 631,-582.5"/>
<text text-anchor="start" x="679.2031" y="-595.3" font-family="Arial Bold" font-size="18.00" fill="#000000">hame.plan</text>
<text text-anchor="start" x="763.2289" y="-595.3" font-family="Arial" font-size="14.00" fill="#000000">    </text>
<text text-anchor="start" x="797.4337" y="-595.3" font-family="Arial" font-size="14.00" fill="#666666">[BASE TABLE]</text>
<polygon fill="none" stroke="#000000" points="631,-552.5 631,-582.5 939,-582.5 939,-552.5 631,-552.5"/>
<text text-anchor="start" x="638" y="-563.9" font-family="Arial" font-size="14.00" fill="#000000">name    </text>
<text text-anchor="start" x="707.2132" y="-563.9" font-family="Arial" font-size="14.00" fill="#666666">[jsonb]</text>
<polygon fill="none" stroke="#000000" points="631,-522.5 631,-552.5 939,-552.5 939,-522.5 631,-522.5"/>
<text text-anchor="start" x="638" y="-533.9" font-family="Arial" font-size="14.00" fill="#000000">id    </text>
<text text-anchor="start" x="683.094" y="-533.9" font-family="Arial" font-size="14.00" fill="#666666">[uuid]</text>
<polygon fill="none" stroke="#000000" points="631,-492.5 631,-522.5 939,-522.5 939,-492.5 631,-492.5"/>
<text text-anchor="start" x="638" y="-503.9" font-family="Arial" font-size="14.00" fill="#000000">created_at    </text>
<text text-anchor="start" x="738.3422" y="-503.9" font-family="Arial" font-size="14.00" fill="#666666">[timestamp without time zone]</text>
<polygon fill="none" stroke="#000000" points="631,-462.5 631,-492.5 939,-492.5 939,-462.5 631,-462.5"/>
<text text-anchor="start" x="638" y="-473.9" font-family="Arial" font-size="14.00" fill="#000000">modified_at    </text>
<text text-anchor="start" x="744.5554" y="-473.9" font-family="Arial" font-size="14.00" fill="#666666">[timestamp without time zone]</text>
<polygon fill="none" stroke="#000000" points="631,-432.5 631,-462.5 939,-462.5 939,-432.5 631,-432.5"/>
<text text-anchor="start" x="638" y="-443.9" font-family="Arial" font-size="14.00" fill="#000000">exported_at    </text>
<text text-anchor="start" x="746.1248" y="-443.9" font-family="Arial" font-size="14.00" fill="#666666">[timestamp without time zone]</text>
<polygon fill="none" stroke="#000000" points="631,-402.5 631,-432.5 939,-432.5 939,-402.5 631,-402.5"/>
<text text-anchor="start" x="638" y="-413.9" font-family="Arial" font-size="14.00" fill="#000000">geom    </text>
<text text-anchor="start" x="707.2132" y="-413.9" font-family="Arial" font-size="14.00" fill="#666666">[geometry(MultiPolygon,3067)]</text>
<polygon fill="none" stroke="#000000" points="631,-372.5 631,-402.5 939,-402.5 939,-372.5 631,-372.5"/>
<text text-anchor="start" x="638" y="-383.9" font-family="Arial" font-size="14.00" fill="#000000">lifecycle_status_id    </text>
<text text-anchor="start" x="785.7812" y="-383.9" font-family="Arial" font-size="14.00" fill="#666666">[uuid]</text>
<polygon fill="none" stroke="#000000" points="631,-342.5 631,-372.5 939,-372.5 939,-342.5 631,-342.5"/>
<text text-anchor="start" x="638" y="-353.9" font-family="Arial" font-size="14.00" fill="#000000">organisation_id    </text>
<text text-anchor="start" x="767.1192" y="-353.9" font-family="Arial" font-size="14.00" fill="#666666">[uuid]</text>
<polygon fill="none" stroke="#000000" points="631,-312.5 631,-342.5 939,-342.5 939,-312.5 631,-312.5"/>
<text text-anchor="start" x="638" y="-323.9" font-family="Arial" font-size="14.00" fill="#000000">plan_regulation_group_id    </text>
<text text-anchor="start" x="830.1472" y="-323.9" font-family="Arial" font-size="14.00" fill="#666666">[uuid]</text>
<polygon fill="none" stroke="#000000" points="631,-282.5 631,-312.5 939,-312.5 939,-282.5 631,-282.5"/>
<text text-anchor="start" x="638" y="-293.9" font-family="Arial" font-size="14.00" fill="#000000">plan_type_id    </text>
<text text-anchor="start" x="751.5694" y="-293.9" font-family="Arial" font-size="14.00" fill="#666666">[uuid]</text>
<polygon fill="none" stroke="#000000" points="631,-252.5 631,-282.5 939,-282.5 939,-252.5 631,-252.5"/>
<text text-anchor="start" x="638" y="-263.9" font-family="Arial" font-size="14.00" fill="#000000">permanent_plan_identifier    </text>
<text text-anchor="start" x="834.0238" y="-263.9" font-family="Arial" font-size="14.00" fill="#666666">[varchar]</text>
<polygon fill="none" stroke="#000000" points="631,-222.5 631,-252.5 939,-252.5 939,-222.5 631,-222.5"/>
<text text-anchor="start" x="638" y="-233.9" font-family="Arial" font-size="14.00" fill="#000000">producers_plan_identifier    </text>
<text text-anchor="start" x="829.3506" y="-233.9" font-family="Arial" font-size="14.00" fill="#666666">[varchar]</text>
<polygon fill="none" stroke="#000000" points="631,-192.5 631,-222.5 939,-222.5 939,-192.5 631,-192.5"/>
<text text-anchor="start" x="638" y="-203.9" font-family="Arial" font-size="14.00" fill="#000000">description    </text>
<text text-anchor="start" x="739.8822" y="-203.9" font-family="Arial" font-size="14.00" fill="#666666">[jsonb]</text>
<polygon fill="none" stroke="#000000" points="631,-162.5 631,-192.5 939,-192.5 939,-162.5 631,-162.5"/>
<text text-anchor="start" x="638" y="-173.9" font-family="Arial" font-size="14.00" fill="#000000">scale    </text>
<text text-anchor="start" x="704.8766" y="-173.9" font-family="Arial" font-size="14.00" fill="#666666">[integer]</text>
<polygon fill="none" stroke="#000000" points="631,-132.5 631,-162.5 939,-162.5 939,-132.5 631,-132.5"/>
<text text-anchor="start" x="638" y="-143.9" font-family="Arial" font-size="14.00" fill="#000000">matter_management_identifier    </text>
<text text-anchor="start" x="862.0196" y="-143.9" font-family="Arial" font-size="14.00" fill="#666666">[varchar]</text>
<polygon fill="none" stroke="#000000" points="631,-102.5 631,-132.5 939,-132.5 939,-102.5 631,-102.5"/>
<text text-anchor="start" x="638" y="-113.9" font-family="Arial" font-size="14.00" fill="#000000">record_number    </text>
<text text-anchor="start" x="767.108" y="-113.9" font-family="Arial" font-size="14.00" fill="#666666">[varchar]</text>
<polygon fill="none" stroke="#000000" points="631,-72.5 631,-102.5 939,-102.5 939,-72.5 631,-72.5"/>
<text text-anchor="start" x="637.5912" y="-83.9" font-family="Arial" font-size="14.00" fill="#000000">validated_at    </text>
<text text-anchor="start" x="747.2686" y="-83.9" font-family="Arial" font-size="14.00" fill="#666666">[timestamp without time zone]</text>
<polygon fill="none" stroke="#000000" points="631,-42.5 631,-72.5 939,-72.5 939,-42.5 631,-42.5"/>
<text text-anchor="start" x="638" y="-53.9" font-family="Arial" font-size="14.00" fill="#000000">validation_errors    </text>
<text text-anchor="start" x="775.6578" y="-53.9" font-family="Arial" font-size="14.00" fill="#666666">[jsonb]</text>
</g>
<!-- hame.source_data&#45;&gt;hame.plan -->
<g id="edge2" class="edge">
<title>hame.source_data:plan_id&#45;&gt;hame.plan:id</title>
<path fill="none" stroke="#000000" d="M729.902,-754.9082C743.106,-745.9493 732.6829,-715.8113 720,-697 696.1469,-661.621 654.8531,-696.379 631,-661 600.3157,-615.4889 576.1111,-537.5 631,-537.5"/>
<polygon fill="#000000" stroke="#000000" points="729.6741,-754.9678 718.8605,-753.1467 724.8371,-756.2339 720,-757.5 720,-757.5 720,-757.5 724.8371,-756.2339 721.1395,-761.8533 729.6741,-754.9678 729.6741,-754.9678"/>
<text text-anchor="start" x="727.493" y="-767.5" font-family="Arial" font-size="10.00" fill="#000000">FOREIGN KEY (plan_id) REFERENCES hame.plan(id)</text>
</g>
</g>
</svg>
