<?xml version="1.0" encoding="UTF-8" standalone="no"?>
<!DOCTYPE svg PUBLIC "-//W3C//DTD SVG 1.1//EN"
 "http://www.w3.org/Graphics/SVG/1.1/DTD/svg11.dtd">
<!-- Generated by graphviz version 2.40.1 (20161225.0304)
 -->
<!-- Title: hame.other_point Pages: 1 -->
<svg width="1766pt" height="1859pt"
 viewBox="0.00 0.00 1765.50 1859.00" xmlns="http://www.w3.org/2000/svg" xmlns:xlink="http://www.w3.org/1999/xlink">
<g id="graph0" class="graph" transform="scale(1 1) rotate(0) translate(4 1855)">
<title>hame.other_point</title>
<polygon fill="#ffffff" stroke="transparent" points="-4,4 -4,-1855 1761.5,-1855 1761.5,4 -4,4"/>
<!-- hame.other_point -->
<g id="node1" class="node">
<title>hame.other_point</title>
<polygon fill="#efefef" stroke="transparent" points="746.5,-1192.5 746.5,-1227.5 1027.5,-1227.5 1027.5,-1192.5 746.5,-1192.5"/>
<polygon fill="none" stroke="#000000" points="746.5,-1192.5 746.5,-1227.5 1027.5,-1227.5 1027.5,-1192.5 746.5,-1192.5"/>
<text text-anchor="start" x="753.1924" y="-1205.3" font-family="Arial Bold" font-size="18.00" fill="#000000">hame.other_point</text>
<text text-anchor="start" x="893.2396" y="-1205.3" font-family="Arial" font-size="14.00" fill="#000000">    </text>
<text text-anchor="start" x="927.4444" y="-1205.3" font-family="Arial" font-size="14.00" fill="#666666">[BASE TABLE]</text>
<polygon fill="none" stroke="#000000" points="746.5,-1162.5 746.5,-1192.5 1027.5,-1192.5 1027.5,-1162.5 746.5,-1162.5"/>
<text text-anchor="start" x="753.5" y="-1173.9" font-family="Arial" font-size="14.00" fill="#000000">geom </text>
<text text-anchor="start" x="792.399" y="-1173.9" font-family="Arial" font-size="14.00" fill="#666666">[geometry(MultiPoint,3067)]</text>
<polygon fill="none" stroke="#000000" points="746.5,-1132.5 746.5,-1162.5 1027.5,-1162.5 1027.5,-1132.5 746.5,-1132.5"/>
<text text-anchor="start" x="753.5" y="-1143.9" font-family="Arial" font-size="14.00" fill="#000000">name </text>
<text text-anchor="start" x="792.399" y="-1143.9" font-family="Arial" font-size="14.00" fill="#666666">[jsonb]</text>
<polygon fill="none" stroke="#000000" points="746.5,-1102.5 746.5,-1132.5 1027.5,-1132.5 1027.5,-1102.5 746.5,-1102.5"/>
<text text-anchor="start" x="753.5" y="-1113.9" font-family="Arial" font-size="14.00" fill="#000000">source_data_object </text>
<text text-anchor="start" x="879.5476" y="-1113.9" font-family="Arial" font-size="14.00" fill="#666666">[varchar]</text>
<polygon fill="none" stroke="#000000" points="746.5,-1072.5 746.5,-1102.5 1027.5,-1102.5 1027.5,-1072.5 746.5,-1072.5"/>
<text text-anchor="start" x="753.5" y="-1083.9" font-family="Arial" font-size="14.00" fill="#000000">height_range </text>
<text text-anchor="start" x="839.0918" y="-1083.9" font-family="Arial" font-size="14.00" fill="#666666">[numrange]</text>
<polygon fill="none" stroke="#000000" points="746.5,-1042.5 746.5,-1072.5 1027.5,-1072.5 1027.5,-1042.5 746.5,-1042.5"/>
<text text-anchor="start" x="753.5" y="-1053.9" font-family="Arial" font-size="14.00" fill="#000000">height_unit </text>
<text text-anchor="start" x="825.8632" y="-1053.9" font-family="Arial" font-size="14.00" fill="#666666">[varchar]</text>
<polygon fill="none" stroke="#000000" points="746.5,-1012.5 746.5,-1042.5 1027.5,-1042.5 1027.5,-1012.5 746.5,-1012.5"/>
<text text-anchor="start" x="753.5" y="-1023.9" font-family="Arial" font-size="14.00" fill="#000000">ordering </text>
<text text-anchor="start" x="808.7314" y="-1023.9" font-family="Arial" font-size="14.00" fill="#666666">[integer]</text>
<polygon fill="none" stroke="#000000" points="746.5,-982.5 746.5,-1012.5 1027.5,-1012.5 1027.5,-982.5 746.5,-982.5"/>
<text text-anchor="start" x="753.5" y="-993.9" font-family="Arial" font-size="14.00" fill="#000000">type_of_underground_id </text>
<text text-anchor="start" x="909.1212" y="-993.9" font-family="Arial" font-size="14.00" fill="#666666">[uuid]</text>
<polygon fill="none" stroke="#000000" points="746.5,-952.5 746.5,-982.5 1027.5,-982.5 1027.5,-952.5 746.5,-952.5"/>
<text text-anchor="start" x="753.5" y="-963.9" font-family="Arial" font-size="14.00" fill="#000000">plan_id </text>
<text text-anchor="start" x="802.5168" y="-963.9" font-family="Arial" font-size="14.00" fill="#666666">[uuid]</text>
<polygon fill="none" stroke="#000000" points="746.5,-922.5 746.5,-952.5 1027.5,-952.5 1027.5,-922.5 746.5,-922.5"/>
<text text-anchor="start" x="753.5" y="-933.9" font-family="Arial" font-size="14.00" fill="#000000">plan_regulation_group_id </text>
<text text-anchor="start" x="915.333" y="-933.9" font-family="Arial" font-size="14.00" fill="#666666">[uuid]</text>
<polygon fill="none" stroke="#000000" points="746.5,-892.5 746.5,-922.5 1027.5,-922.5 1027.5,-892.5 746.5,-892.5"/>
<text text-anchor="start" x="753.5" y="-903.9" font-family="Arial" font-size="14.00" fill="#000000">exported_at </text>
<text text-anchor="start" x="831.3106" y="-903.9" font-family="Arial" font-size="14.00" fill="#666666">[timestamp without time zone]</text>
<polygon fill="none" stroke="#000000" points="746.5,-862.5 746.5,-892.5 1027.5,-892.5 1027.5,-862.5 746.5,-862.5"/>
<text text-anchor="start" x="753.5" y="-873.9" font-family="Arial" font-size="14.00" fill="#000000">lifecycle_status_id </text>
<text text-anchor="start" x="870.967" y="-873.9" font-family="Arial" font-size="14.00" fill="#666666">[uuid]</text>
<polygon fill="none" stroke="#000000" points="746.5,-832.5 746.5,-862.5 1027.5,-862.5 1027.5,-832.5 746.5,-832.5"/>
<text text-anchor="start" x="753.5" y="-843.9" font-family="Arial" font-size="14.00" fill="#000000">id </text>
<text text-anchor="start" x="768.2798" y="-843.9" font-family="Arial" font-size="14.00" fill="#666666">[uuid]</text>
<polygon fill="none" stroke="#000000" points="746.5,-802.5 746.5,-832.5 1027.5,-832.5 1027.5,-802.5 746.5,-802.5"/>
<text text-anchor="start" x="753.5" y="-813.9" font-family="Arial" font-size="14.00" fill="#000000">created_at </text>
<text text-anchor="start" x="823.528" y="-813.9" font-family="Arial" font-size="14.00" fill="#666666">[timestamp without time zone]</text>
<polygon fill="none" stroke="#000000" points="746.5,-772.5 746.5,-802.5 1027.5,-802.5 1027.5,-772.5 746.5,-772.5"/>
<text text-anchor="start" x="753.5" y="-783.9" font-family="Arial" font-size="14.00" fill="#000000">modified_at </text>
<text text-anchor="start" x="829.7412" y="-783.9" font-family="Arial" font-size="14.00" fill="#666666">[timestamp without time zone]</text>
<polygon fill="none" stroke="#000000" points="746.5,-742.5 746.5,-772.5 1027.5,-772.5 1027.5,-742.5 746.5,-742.5"/>
<text text-anchor="start" x="753.5" y="-753.9" font-family="Arial" font-size="14.00" fill="#000000">description </text>
<text text-anchor="start" x="825.068" y="-753.9" font-family="Arial" font-size="14.00" fill="#666666">[jsonb]</text>
<polygon fill="none" stroke="#000000" stroke-width="3" points="744.5,-741.5 744.5,-1229.5 1028.5,-1229.5 1028.5,-741.5 744.5,-741.5"/>
</g>
<!-- codes.type_of_underground -->
<g id="node2" class="node">
<title>codes.type_of_underground</title>
<polygon fill="#efefef" stroke="transparent" points="43.5,-462.5 43.5,-497.5 408.5,-497.5 408.5,-462.5 43.5,-462.5"/>
<polygon fill="none" stroke="#000000" points="43.5,-462.5 43.5,-497.5 408.5,-497.5 408.5,-462.5 43.5,-462.5"/>
<text text-anchor="start" x="50.1678" y="-475.3" font-family="Arial Bold" font-size="18.00" fill="#000000">codes.type_of_underground</text>
<text text-anchor="start" x="274.2642" y="-475.3" font-family="Arial" font-size="14.00" fill="#000000">    </text>
<text text-anchor="start" x="308.469" y="-475.3" font-family="Arial" font-size="14.00" fill="#666666">[BASE TABLE]</text>
<polygon fill="none" stroke="#000000" points="43.5,-432.5 43.5,-462.5 408.5,-462.5 408.5,-432.5 43.5,-432.5"/>
<text text-anchor="start" x="50.5" y="-443.9" font-family="Arial" font-size="14.00" fill="#000000">value    </text>
<text text-anchor="start" x="118.1592" y="-443.9" font-family="Arial" font-size="14.00" fill="#666666">[varchar]</text>
<polygon fill="none" stroke="#000000" points="43.5,-402.5 43.5,-432.5 408.5,-432.5 408.5,-402.5 43.5,-402.5"/>
<text text-anchor="start" x="50.5" y="-413.9" font-family="Arial" font-size="14.00" fill="#000000">short_name    </text>
<text text-anchor="start" x="158.6122" y="-413.9" font-family="Arial" font-size="14.00" fill="#666666">[varchar]</text>
<polygon fill="none" stroke="#000000" points="43.5,-372.5 43.5,-402.5 408.5,-402.5 408.5,-372.5 43.5,-372.5"/>
<text text-anchor="start" x="50.5" y="-383.9" font-family="Arial" font-size="14.00" fill="#000000">name    </text>
<text text-anchor="start" x="119.7132" y="-383.9" font-family="Arial" font-size="14.00" fill="#666666">[jsonb]</text>
<polygon fill="none" stroke="#000000" points="43.5,-342.5 43.5,-372.5 408.5,-372.5 408.5,-342.5 43.5,-342.5"/>
<text text-anchor="start" x="50.5" y="-353.9" font-family="Arial" font-size="14.00" fill="#000000">description    </text>
<text text-anchor="start" x="152.3822" y="-353.9" font-family="Arial" font-size="14.00" fill="#666666">[jsonb]</text>
<polygon fill="none" stroke="#000000" points="43.5,-312.5 43.5,-342.5 408.5,-342.5 408.5,-312.5 43.5,-312.5"/>
<text text-anchor="start" x="50.5" y="-323.9" font-family="Arial" font-size="14.00" fill="#000000">status    </text>
<text text-anchor="start" x="122.0512" y="-323.9" font-family="Arial" font-size="14.00" fill="#666666">[varchar]</text>
<polygon fill="none" stroke="#000000" points="43.5,-282.5 43.5,-312.5 408.5,-312.5 408.5,-282.5 43.5,-282.5"/>
<text text-anchor="start" x="50.5" y="-293.9" font-family="Arial" font-size="14.00" fill="#000000">level    </text>
<text text-anchor="start" x="113.4832" y="-293.9" font-family="Arial" font-size="14.00" fill="#666666">[integer]</text>
<polygon fill="none" stroke="#000000" points="43.5,-252.5 43.5,-282.5 408.5,-282.5 408.5,-252.5 43.5,-252.5"/>
<text text-anchor="start" x="50.5" y="-263.9" font-family="Arial" font-size="14.00" fill="#000000">parent_id    </text>
<text text-anchor="start" x="143.0582" y="-263.9" font-family="Arial" font-size="14.00" fill="#666666">[uuid]</text>
<polygon fill="none" stroke="#000000" points="43.5,-222.5 43.5,-252.5 408.5,-252.5 408.5,-222.5 43.5,-222.5"/>
<text text-anchor="start" x="50.5" y="-233.9" font-family="Arial" font-size="14.00" fill="#000000">id    </text>
<text text-anchor="start" x="95.594" y="-233.9" font-family="Arial" font-size="14.00" fill="#666666">[uuid]</text>
<polygon fill="none" stroke="#000000" points="43.5,-192.5 43.5,-222.5 408.5,-222.5 408.5,-192.5 43.5,-192.5"/>
<text text-anchor="start" x="50.5" y="-203.9" font-family="Arial" font-size="14.00" fill="#000000">created_at    </text>
<text text-anchor="start" x="150.8422" y="-203.9" font-family="Arial" font-size="14.00" fill="#666666">[timestamp without time zone]</text>
<polygon fill="none" stroke="#000000" points="43.5,-162.5 43.5,-192.5 408.5,-192.5 408.5,-162.5 43.5,-162.5"/>
<text text-anchor="start" x="50.5" y="-173.9" font-family="Arial" font-size="14.00" fill="#000000">modified_at    </text>
<text text-anchor="start" x="157.0554" y="-173.9" font-family="Arial" font-size="14.00" fill="#666666">[timestamp without time zone]</text>
</g>
<!-- hame.other_point&#45;&gt;codes.type_of_underground -->
<g id="edge1" class="edge">
<title>hame.other_point:type_of_underground_id&#45;&gt;codes.type_of_underground:id</title>
<path fill="none" stroke="#000000" d="M736.32,-997.3554C549.8205,-991.9821 537.9474,-837.5886 460.5,-661 422.4168,-574.1662 503.3179,-237.5 408.5,-237.5"/>
<polygon fill="#000000" stroke="#000000" points="736.501,-997.3579 746.4361,-1001.9995 741.5005,-997.4289 746.5,-997.5 746.5,-997.5 746.5,-997.5 741.5005,-997.4289 746.5639,-993.0005 736.501,-997.3579 736.501,-997.3579"/>
<text text-anchor="start" x="341.0115" y="-1007.5" font-family="Arial" font-size="10.00" fill="#000000">FOREIGN KEY (type_of_underground_id) REFERENCES codes.type_of_underground(id)</text>
</g>
<!-- hame.plan -->
<g id="node3" class="node">
<title>hame.plan</title>
<polygon fill="#efefef" stroke="transparent" points="512.5,-582.5 512.5,-617.5 820.5,-617.5 820.5,-582.5 512.5,-582.5"/>
<polygon fill="none" stroke="#000000" points="512.5,-582.5 512.5,-617.5 820.5,-617.5 820.5,-582.5 512.5,-582.5"/>
<text text-anchor="start" x="560.7031" y="-595.3" font-family="Arial Bold" font-size="18.00" fill="#000000">hame.plan</text>
<text text-anchor="start" x="644.7289" y="-595.3" font-family="Arial" font-size="14.00" fill="#000000">    </text>
<text text-anchor="start" x="678.9337" y="-595.3" font-family="Arial" font-size="14.00" fill="#666666">[BASE TABLE]</text>
<polygon fill="none" stroke="#000000" points="512.5,-552.5 512.5,-582.5 820.5,-582.5 820.5,-552.5 512.5,-552.5"/>
<text text-anchor="start" x="519.5" y="-563.9" font-family="Arial" font-size="14.00" fill="#000000">name    </text>
<text text-anchor="start" x="588.7132" y="-563.9" font-family="Arial" font-size="14.00" fill="#666666">[jsonb]</text>
<polygon fill="none" stroke="#000000" points="512.5,-522.5 512.5,-552.5 820.5,-552.5 820.5,-522.5 512.5,-522.5"/>
<text text-anchor="start" x="519.5" y="-533.9" font-family="Arial" font-size="14.00" fill="#000000">id    </text>
<text text-anchor="start" x="564.594" y="-533.9" font-family="Arial" font-size="14.00" fill="#666666">[uuid]</text>
<polygon fill="none" stroke="#000000" points="512.5,-492.5 512.5,-522.5 820.5,-522.5 820.5,-492.5 512.5,-492.5"/>
<text text-anchor="start" x="519.5" y="-503.9" font-family="Arial" font-size="14.00" fill="#000000">created_at    </text>
<text text-anchor="start" x="619.8422" y="-503.9" font-family="Arial" font-size="14.00" fill="#666666">[timestamp without time zone]</text>
<polygon fill="none" stroke="#000000" points="512.5,-462.5 512.5,-492.5 820.5,-492.5 820.5,-462.5 512.5,-462.5"/>
<text text-anchor="start" x="519.5" y="-473.9" font-family="Arial" font-size="14.00" fill="#000000">modified_at    </text>
<text text-anchor="start" x="626.0554" y="-473.9" font-family="Arial" font-size="14.00" fill="#666666">[timestamp without time zone]</text>
<polygon fill="none" stroke="#000000" points="512.5,-432.5 512.5,-462.5 820.5,-462.5 820.5,-432.5 512.5,-432.5"/>
<text text-anchor="start" x="519.5" y="-443.9" font-family="Arial" font-size="14.00" fill="#000000">exported_at    </text>
<text text-anchor="start" x="627.6248" y="-443.9" font-family="Arial" font-size="14.00" fill="#666666">[timestamp without time zone]</text>
<polygon fill="none" stroke="#000000" points="512.5,-402.5 512.5,-432.5 820.5,-432.5 820.5,-402.5 512.5,-402.5"/>
<text text-anchor="start" x="519.5" y="-413.9" font-family="Arial" font-size="14.00" fill="#000000">geom    </text>
<text text-anchor="start" x="588.7132" y="-413.9" font-family="Arial" font-size="14.00" fill="#666666">[geometry(MultiPolygon,3067)]</text>
<polygon fill="none" stroke="#000000" points="512.5,-372.5 512.5,-402.5 820.5,-402.5 820.5,-372.5 512.5,-372.5"/>
<text text-anchor="start" x="519.5" y="-383.9" font-family="Arial" font-size="14.00" fill="#000000">lifecycle_status_id    </text>
<text text-anchor="start" x="667.2812" y="-383.9" font-family="Arial" font-size="14.00" fill="#666666">[uuid]</text>
<polygon fill="none" stroke="#000000" points="512.5,-342.5 512.5,-372.5 820.5,-372.5 820.5,-342.5 512.5,-342.5"/>
<text text-anchor="start" x="519.5" y="-353.9" font-family="Arial" font-size="14.00" fill="#000000">organisation_id    </text>
<text text-anchor="start" x="648.6192" y="-353.9" font-family="Arial" font-size="14.00" fill="#666666">[uuid]</text>
<polygon fill="none" stroke="#000000" points="512.5,-312.5 512.5,-342.5 820.5,-342.5 820.5,-312.5 512.5,-312.5"/>
<text text-anchor="start" x="519.5" y="-323.9" font-family="Arial" font-size="14.00" fill="#000000">plan_regulation_group_id    </text>
<text text-anchor="start" x="711.6472" y="-323.9" font-family="Arial" font-size="14.00" fill="#666666">[uuid]</text>
<polygon fill="none" stroke="#000000" points="512.5,-282.5 512.5,-312.5 820.5,-312.5 820.5,-282.5 512.5,-282.5"/>
<text text-anchor="start" x="519.5" y="-293.9" font-family="Arial" font-size="14.00" fill="#000000">plan_type_id    </text>
<text text-anchor="start" x="633.0694" y="-293.9" font-family="Arial" font-size="14.00" fill="#666666">[uuid]</text>
<polygon fill="none" stroke="#000000" points="512.5,-252.5 512.5,-282.5 820.5,-282.5 820.5,-252.5 512.5,-252.5"/>
<text text-anchor="start" x="519.5" y="-263.9" font-family="Arial" font-size="14.00" fill="#000000">permanent_plan_identifier    </text>
<text text-anchor="start" x="715.5238" y="-263.9" font-family="Arial" font-size="14.00" fill="#666666">[varchar]</text>
<polygon fill="none" stroke="#000000" points="512.5,-222.5 512.5,-252.5 820.5,-252.5 820.5,-222.5 512.5,-222.5"/>
<text text-anchor="start" x="519.5" y="-233.9" font-family="Arial" font-size="14.00" fill="#000000">producers_plan_identifier    </text>
<text text-anchor="start" x="710.8506" y="-233.9" font-family="Arial" font-size="14.00" fill="#666666">[varchar]</text>
<polygon fill="none" stroke="#000000" points="512.5,-192.5 512.5,-222.5 820.5,-222.5 820.5,-192.5 512.5,-192.5"/>
<text text-anchor="start" x="519.5" y="-203.9" font-family="Arial" font-size="14.00" fill="#000000">description    </text>
<text text-anchor="start" x="621.3822" y="-203.9" font-family="Arial" font-size="14.00" fill="#666666">[jsonb]</text>
<polygon fill="none" stroke="#000000" points="512.5,-162.5 512.5,-192.5 820.5,-192.5 820.5,-162.5 512.5,-162.5"/>
<text text-anchor="start" x="519.5" y="-173.9" font-family="Arial" font-size="14.00" fill="#000000">scale    </text>
<text text-anchor="start" x="586.3766" y="-173.9" font-family="Arial" font-size="14.00" fill="#666666">[integer]</text>
<polygon fill="none" stroke="#000000" points="512.5,-132.5 512.5,-162.5 820.5,-162.5 820.5,-132.5 512.5,-132.5"/>
<text text-anchor="start" x="519.5" y="-143.9" font-family="Arial" font-size="14.00" fill="#000000">matter_management_identifier    </text>
<text text-anchor="start" x="743.5196" y="-143.9" font-family="Arial" font-size="14.00" fill="#666666">[varchar]</text>
<polygon fill="none" stroke="#000000" points="512.5,-102.5 512.5,-132.5 820.5,-132.5 820.5,-102.5 512.5,-102.5"/>
<text text-anchor="start" x="519.5" y="-113.9" font-family="Arial" font-size="14.00" fill="#000000">record_number    </text>
<text text-anchor="start" x="648.608" y="-113.9" font-family="Arial" font-size="14.00" fill="#666666">[varchar]</text>
<polygon fill="none" stroke="#000000" points="512.5,-72.5 512.5,-102.5 820.5,-102.5 820.5,-72.5 512.5,-72.5"/>
<text text-anchor="start" x="519.0912" y="-83.9" font-family="Arial" font-size="14.00" fill="#000000">validated_at    </text>
<text text-anchor="start" x="628.7686" y="-83.9" font-family="Arial" font-size="14.00" fill="#666666">[timestamp without time zone]</text>
<polygon fill="none" stroke="#000000" points="512.5,-42.5 512.5,-72.5 820.5,-72.5 820.5,-42.5 512.5,-42.5"/>
<text text-anchor="start" x="519.5" y="-53.9" font-family="Arial" font-size="14.00" fill="#000000">validation_errors    </text>
<text text-anchor="start" x="657.1578" y="-53.9" font-family="Arial" font-size="14.00" fill="#666666">[jsonb]</text>
</g>
<!-- hame.other_point&#45;&gt;hame.plan -->
<g id="edge2" class="edge">
<title>hame.other_point:plan_id&#45;&gt;hame.plan:id</title>
<path fill="none" stroke="#000000" d="M736.3843,-967.0718C629.5924,-957.6796 684.6085,-795.9361 746.5,-697 765.897,-665.993 801.103,-692.007 820.5,-661 849.6101,-614.4662 875.3889,-537.5 820.5,-537.5"/>
<polygon fill="#000000" stroke="#000000" points="736.5089,-967.077 746.3097,-971.996 741.5045,-967.2885 746.5,-967.5 746.5,-967.5 746.5,-967.5 741.5045,-967.2885 746.6903,-963.004 736.5089,-967.077 736.5089,-967.077"/>
<text text-anchor="start" x="494.993" y="-977.5" font-family="Arial" font-size="10.00" fill="#000000">FOREIGN KEY (plan_id) REFERENCES hame.plan(id)</text>
</g>
<!-- hame.plan_regulation_group -->
<g id="node4" class="node">
<title>hame.plan_regulation_group</title>
<polygon fill="#efefef" stroke="transparent" points="924.5,-402.5 924.5,-437.5 1294.5,-437.5 1294.5,-402.5 924.5,-402.5"/>
<polygon fill="none" stroke="#000000" points="924.5,-402.5 924.5,-437.5 1294.5,-437.5 1294.5,-402.5 924.5,-402.5"/>
<text text-anchor="start" x="931.1784" y="-415.3" font-family="Arial Bold" font-size="18.00" fill="#000000">hame.plan_regulation_group</text>
<text text-anchor="start" x="1160.2536" y="-415.3" font-family="Arial" font-size="14.00" fill="#000000">    </text>
<text text-anchor="start" x="1194.4584" y="-415.3" font-family="Arial" font-size="14.00" fill="#666666">[BASE TABLE]</text>
<polygon fill="none" stroke="#000000" points="924.5,-372.5 924.5,-402.5 1294.5,-402.5 1294.5,-372.5 924.5,-372.5"/>
<text text-anchor="start" x="931.5" y="-383.9" font-family="Arial" font-size="14.00" fill="#000000">short_name    </text>
<text text-anchor="start" x="1039.6122" y="-383.9" font-family="Arial" font-size="14.00" fill="#666666">[varchar]</text>
<polygon fill="none" stroke="#000000" points="924.5,-342.5 924.5,-372.5 1294.5,-372.5 1294.5,-342.5 924.5,-342.5"/>
<text text-anchor="start" x="931.5" y="-353.9" font-family="Arial" font-size="14.00" fill="#000000">name    </text>
<text text-anchor="start" x="1000.7132" y="-353.9" font-family="Arial" font-size="14.00" fill="#666666">[jsonb]</text>
<polygon fill="none" stroke="#000000" points="924.5,-312.5 924.5,-342.5 1294.5,-342.5 1294.5,-312.5 924.5,-312.5"/>
<text text-anchor="start" x="931.5" y="-323.9" font-family="Arial" font-size="14.00" fill="#000000">id    </text>
<text text-anchor="start" x="976.594" y="-323.9" font-family="Arial" font-size="14.00" fill="#666666">[uuid]</text>
<polygon fill="none" stroke="#000000" points="924.5,-282.5 924.5,-312.5 1294.5,-312.5 1294.5,-282.5 924.5,-282.5"/>
<text text-anchor="start" x="931.5" y="-293.9" font-family="Arial" font-size="14.00" fill="#000000">created_at    </text>
<text text-anchor="start" x="1031.8422" y="-293.9" font-family="Arial" font-size="14.00" fill="#666666">[timestamp without time zone]</text>
<polygon fill="none" stroke="#000000" points="924.5,-252.5 924.5,-282.5 1294.5,-282.5 1294.5,-252.5 924.5,-252.5"/>
<text text-anchor="start" x="931.5" y="-263.9" font-family="Arial" font-size="14.00" fill="#000000">modified_at    </text>
<text text-anchor="start" x="1038.0554" y="-263.9" font-family="Arial" font-size="14.00" fill="#666666">[timestamp without time zone]</text>
<polygon fill="none" stroke="#000000" points="924.5,-222.5 924.5,-252.5 1294.5,-252.5 1294.5,-222.5 924.5,-222.5"/>
<text text-anchor="start" x="931.5" y="-233.9" font-family="Arial" font-size="14.00" fill="#000000">type_of_plan_regulation_group_id    </text>
<text text-anchor="start" x="1177.3414" y="-233.9" font-family="Arial" font-size="14.00" fill="#666666">[uuid]</text>
</g>
<!-- hame.other_point&#45;&gt;hame.plan_regulation_group -->
<g id="edge3" class="edge">
<title>hame.other_point:plan_regulation_group_id&#45;&gt;hame.plan_regulation_group:id</title>
<path fill="none" stroke="#000000" d="M1037.5184,-937.0972C1210.6569,-922.5882 933.4772,-520.6828 924.5,-481 909.4469,-414.4592 856.2778,-327.5 924.5,-327.5"/>
<polygon fill="#000000" stroke="#000000" points="1037.4919,-937.0982 1027.3192,-933.0036 1032.496,-937.2991 1027.5,-937.5 1027.5,-937.5 1027.5,-937.5 1032.496,-937.2991 1027.6808,-941.9964 1037.4919,-937.0982 1037.4919,-937.0982"/>
<text text-anchor="start" x="1034.41" y="-947.5" font-family="Arial" font-size="10.00" fill="#000000">FOREIGN KEY (plan_regulation_group_id) REFERENCES hame.plan_regulation_group(id)</text>
</g>
<!-- codes.lifecycle_status -->
<g id="node5" class="node">
<title>codes.lifecycle_status</title>
<polygon fill="#efefef" stroke="transparent" points="1398.5,-462.5 1398.5,-497.5 1714.5,-497.5 1714.5,-462.5 1398.5,-462.5"/>
<polygon fill="none" stroke="#000000" points="1398.5,-462.5 1398.5,-497.5 1714.5,-497.5 1714.5,-462.5 1398.5,-462.5"/>
<text text-anchor="start" x="1405.1955" y="-475.3" font-family="Arial Bold" font-size="18.00" fill="#000000">codes.lifecycle_status</text>
<text text-anchor="start" x="1580.2365" y="-475.3" font-family="Arial" font-size="14.00" fill="#000000">    </text>
<text text-anchor="start" x="1614.4413" y="-475.3" font-family="Arial" font-size="14.00" fill="#666666">[BASE TABLE]</text>
<polygon fill="none" stroke="#000000" points="1398.5,-432.5 1398.5,-462.5 1714.5,-462.5 1714.5,-432.5 1398.5,-432.5"/>
<text text-anchor="start" x="1405.5" y="-443.9" font-family="Arial" font-size="14.00" fill="#000000">value    </text>
<text text-anchor="start" x="1473.1592" y="-443.9" font-family="Arial" font-size="14.00" fill="#666666">[varchar]</text>
<polygon fill="none" stroke="#000000" points="1398.5,-402.5 1398.5,-432.5 1714.5,-432.5 1714.5,-402.5 1398.5,-402.5"/>
<text text-anchor="start" x="1405.5" y="-413.9" font-family="Arial" font-size="14.00" fill="#000000">name    </text>
<text text-anchor="start" x="1474.7132" y="-413.9" font-family="Arial" font-size="14.00" fill="#666666">[jsonb]</text>
<polygon fill="none" stroke="#000000" points="1398.5,-372.5 1398.5,-402.5 1714.5,-402.5 1714.5,-372.5 1398.5,-372.5"/>
<text text-anchor="start" x="1405.5" y="-383.9" font-family="Arial" font-size="14.00" fill="#000000">id    </text>
<text text-anchor="start" x="1450.594" y="-383.9" font-family="Arial" font-size="14.00" fill="#666666">[uuid]</text>
<polygon fill="none" stroke="#000000" points="1398.5,-342.5 1398.5,-372.5 1714.5,-372.5 1714.5,-342.5 1398.5,-342.5"/>
<text text-anchor="start" x="1405.5" y="-353.9" font-family="Arial" font-size="14.00" fill="#000000">short_name    </text>
<text text-anchor="start" x="1513.6122" y="-353.9" font-family="Arial" font-size="14.00" fill="#666666">[varchar]</text>
<polygon fill="none" stroke="#000000" points="1398.5,-312.5 1398.5,-342.5 1714.5,-342.5 1714.5,-312.5 1398.5,-312.5"/>
<text text-anchor="start" x="1405.5" y="-323.9" font-family="Arial" font-size="14.00" fill="#000000">description    </text>
<text text-anchor="start" x="1507.3822" y="-323.9" font-family="Arial" font-size="14.00" fill="#666666">[jsonb]</text>
<polygon fill="none" stroke="#000000" points="1398.5,-282.5 1398.5,-312.5 1714.5,-312.5 1714.5,-282.5 1398.5,-282.5"/>
<text text-anchor="start" x="1405.5" y="-293.9" font-family="Arial" font-size="14.00" fill="#000000">created_at    </text>
<text text-anchor="start" x="1505.8422" y="-293.9" font-family="Arial" font-size="14.00" fill="#666666">[timestamp without time zone]</text>
<polygon fill="none" stroke="#000000" points="1398.5,-252.5 1398.5,-282.5 1714.5,-282.5 1714.5,-252.5 1398.5,-252.5"/>
<text text-anchor="start" x="1405.5" y="-263.9" font-family="Arial" font-size="14.00" fill="#000000">modified_at    </text>
<text text-anchor="start" x="1512.0554" y="-263.9" font-family="Arial" font-size="14.00" fill="#666666">[timestamp without time zone]</text>
<polygon fill="none" stroke="#000000" points="1398.5,-222.5 1398.5,-252.5 1714.5,-252.5 1714.5,-222.5 1398.5,-222.5"/>
<text text-anchor="start" x="1405.5" y="-233.9" font-family="Arial" font-size="14.00" fill="#000000">level    </text>
<text text-anchor="start" x="1468.4832" y="-233.9" font-family="Arial" font-size="14.00" fill="#666666">[integer]</text>
<polygon fill="none" stroke="#000000" points="1398.5,-192.5 1398.5,-222.5 1714.5,-222.5 1714.5,-192.5 1398.5,-192.5"/>
<text text-anchor="start" x="1405.5" y="-203.9" font-family="Arial" font-size="14.00" fill="#000000">parent_id    </text>
<text text-anchor="start" x="1498.0582" y="-203.9" font-family="Arial" font-size="14.00" fill="#666666">[uuid]</text>
<polygon fill="none" stroke="#000000" points="1398.5,-162.5 1398.5,-192.5 1714.5,-192.5 1714.5,-162.5 1398.5,-162.5"/>
<text text-anchor="start" x="1405.5" y="-173.9" font-family="Arial" font-size="14.00" fill="#000000">status    </text>
<text text-anchor="start" x="1477.0512" y="-173.9" font-family="Arial" font-size="14.00" fill="#666666">[varchar]</text>
</g>
<!-- hame.other_point&#45;&gt;codes.lifecycle_status -->
<g id="edge4" class="edge">
<title>hame.other_point:lifecycle_status_id&#45;&gt;codes.lifecycle_status:id</title>
<path fill="none" stroke="#000000" d="M1037.8946,-877.4076C1201.0612,-874.4646 1254.3549,-801.275 1346.5,-661 1380.4666,-609.2918 1336.6335,-387.5 1398.5,-387.5"/>
<polygon fill="#000000" stroke="#000000" points="1037.4996,-877.411 1027.4599,-873.0002 1032.4998,-877.4555 1027.5,-877.5 1027.5,-877.5 1027.5,-877.5 1032.4998,-877.4555 1027.5401,-881.9998 1037.4996,-877.411 1037.4996,-877.411"/>
<text text-anchor="start" x="1034.2645" y="-887.5" font-family="Arial" font-size="10.00" fill="#000000">FOREIGN KEY (lifecycle_status_id) REFERENCES codes.lifecycle_status(id)</text>
</g>
<!-- hame.lifecycle_date -->
<g id="node6" class="node">
<title>hame.lifecycle_date</title>
<polygon fill="#efefef" stroke="transparent" points="734.5,-1772.5 734.5,-1807.5 1039.5,-1807.5 1039.5,-1772.5 734.5,-1772.5"/>
<polygon fill="none" stroke="#000000" points="734.5,-1772.5 734.5,-1807.5 1039.5,-1807.5 1039.5,-1772.5 734.5,-1772.5"/>
<text text-anchor="start" x="743.6974" y="-1785.3" font-family="Arial Bold" font-size="18.00" fill="#000000">hame.lifecycle_date</text>
<text text-anchor="start" x="902.7346" y="-1785.3" font-family="Arial" font-size="14.00" fill="#000000">    </text>
<text text-anchor="start" x="936.9394" y="-1785.3" font-family="Arial" font-size="14.00" fill="#666666">[BASE TABLE]</text>
<polygon fill="none" stroke="#000000" points="734.5,-1742.5 734.5,-1772.5 1039.5,-1772.5 1039.5,-1742.5 734.5,-1742.5"/>
<text text-anchor="start" x="741.5" y="-1753.9" font-family="Arial" font-size="14.00" fill="#000000">lifecycle_status_id    </text>
<text text-anchor="start" x="889.2812" y="-1753.9" font-family="Arial" font-size="14.00" fill="#666666">[uuid]</text>
<polygon fill="none" stroke="#000000" points="734.5,-1712.5 734.5,-1742.5 1039.5,-1742.5 1039.5,-1712.5 734.5,-1712.5"/>
<text text-anchor="start" x="741.5" y="-1723.9" font-family="Arial" font-size="14.00" fill="#000000">plan_id    </text>
<text text-anchor="start" x="820.831" y="-1723.9" font-family="Arial" font-size="14.00" fill="#666666">[uuid]</text>
<polygon fill="none" stroke="#000000" points="734.5,-1682.5 734.5,-1712.5 1039.5,-1712.5 1039.5,-1682.5 734.5,-1682.5"/>
<text text-anchor="start" x="741.5" y="-1693.9" font-family="Arial" font-size="14.00" fill="#000000">plan_regulation_id    </text>
<text text-anchor="start" x="890.0736" y="-1693.9" font-family="Arial" font-size="14.00" fill="#666666">[uuid]</text>
<polygon fill="none" stroke="#000000" points="734.5,-1652.5 734.5,-1682.5 1039.5,-1682.5 1039.5,-1652.5 734.5,-1652.5"/>
<text text-anchor="start" x="741.5" y="-1663.9" font-family="Arial" font-size="14.00" fill="#000000">plan_proposition_id    </text>
<text text-anchor="start" x="897.0736" y="-1663.9" font-family="Arial" font-size="14.00" fill="#666666">[uuid]</text>
<polygon fill="none" stroke="#000000" points="734.5,-1622.5 734.5,-1652.5 1039.5,-1652.5 1039.5,-1622.5 734.5,-1622.5"/>
<text text-anchor="start" x="741.5" y="-1633.9" font-family="Arial" font-size="14.00" fill="#000000">starting_at    </text>
<text text-anchor="start" x="841.0568" y="-1633.9" font-family="Arial" font-size="14.00" fill="#666666">[timestamp without time zone]</text>
<polygon fill="none" stroke="#000000" points="734.5,-1592.5 734.5,-1622.5 1039.5,-1622.5 1039.5,-1592.5 734.5,-1592.5"/>
<text text-anchor="start" x="741.5" y="-1603.9" font-family="Arial" font-size="14.00" fill="#000000">ending_at    </text>
<text text-anchor="start" x="837.1802" y="-1603.9" font-family="Arial" font-size="14.00" fill="#666666">[timestamp without time zone]</text>
<polygon fill="none" stroke="#000000" points="734.5,-1562.5 734.5,-1592.5 1039.5,-1592.5 1039.5,-1562.5 734.5,-1562.5"/>
<text text-anchor="start" x="741.5" y="-1573.9" font-family="Arial" font-size="14.00" fill="#000000">id    </text>
<text text-anchor="start" x="786.594" y="-1573.9" font-family="Arial" font-size="14.00" fill="#666666">[uuid]</text>
<polygon fill="none" stroke="#000000" points="734.5,-1532.5 734.5,-1562.5 1039.5,-1562.5 1039.5,-1532.5 734.5,-1532.5"/>
<text text-anchor="start" x="741.5" y="-1543.9" font-family="Arial" font-size="14.00" fill="#000000">created_at    </text>
<text text-anchor="start" x="841.8422" y="-1543.9" font-family="Arial" font-size="14.00" fill="#666666">[timestamp without time zone]</text>
<polygon fill="none" stroke="#000000" points="734.5,-1502.5 734.5,-1532.5 1039.5,-1532.5 1039.5,-1502.5 734.5,-1502.5"/>
<text text-anchor="start" x="741.1522" y="-1513.9" font-family="Arial" font-size="14.00" fill="#000000">modified_at    </text>
<text text-anchor="start" x="847.7076" y="-1513.9" font-family="Arial" font-size="14.00" fill="#666666">[timestamp without time zone]</text>
<polygon fill="none" stroke="#000000" points="734.5,-1472.5 734.5,-1502.5 1039.5,-1502.5 1039.5,-1472.5 734.5,-1472.5"/>
<text text-anchor="start" x="741.5" y="-1483.9" font-family="Arial" font-size="14.00" fill="#000000">land_use_area_id    </text>
<text text-anchor="start" x="886.9698" y="-1483.9" font-family="Arial" font-size="14.00" fill="#666666">[uuid]</text>
<polygon fill="none" stroke="#000000" points="734.5,-1442.5 734.5,-1472.5 1039.5,-1472.5 1039.5,-1442.5 734.5,-1442.5"/>
<text text-anchor="start" x="741.5" y="-1453.9" font-family="Arial" font-size="14.00" fill="#000000">other_area_id    </text>
<text text-anchor="start" x="862.0666" y="-1453.9" font-family="Arial" font-size="14.00" fill="#666666">[uuid]</text>
<polygon fill="none" stroke="#000000" points="734.5,-1412.5 734.5,-1442.5 1039.5,-1442.5 1039.5,-1412.5 734.5,-1412.5"/>
<text text-anchor="start" x="741.5" y="-1423.9" font-family="Arial" font-size="14.00" fill="#000000">line_id    </text>
<text text-anchor="start" x="816.155" y="-1423.9" font-family="Arial" font-size="14.00" fill="#666666">[uuid]</text>
<polygon fill="none" stroke="#000000" points="734.5,-1382.5 734.5,-1412.5 1039.5,-1412.5 1039.5,-1382.5 734.5,-1382.5"/>
<text text-anchor="start" x="741.5" y="-1393.9" font-family="Arial" font-size="14.00" fill="#000000">land_use_point_id    </text>
<text text-anchor="start" x="889.3064" y="-1393.9" font-family="Arial" font-size="14.00" fill="#666666">[uuid]</text>
<polygon fill="none" stroke="#000000" points="734.5,-1352.5 734.5,-1382.5 1039.5,-1382.5 1039.5,-1352.5 734.5,-1352.5"/>
<text text-anchor="start" x="741.5" y="-1363.9" font-family="Arial" font-size="14.00" fill="#000000">other_point_id    </text>
<text text-anchor="start" x="864.4032" y="-1363.9" font-family="Arial" font-size="14.00" fill="#666666">[uuid]</text>
</g>
<!-- hame.lifecycle_date&#45;&gt;hame.other_point -->
<g id="edge5" class="edge">
<title>hame.lifecycle_date:other_point_id&#45;&gt;hame.other_point:id</title>
<path fill="none" stroke="#000000" d="M886.713,-1342.5222C877.0472,-1286.0662 780.9997,-1332.6933 746.5,-1274 650.4449,-1110.5842 556.9444,-847.5 746.5,-847.5"/>
<polygon fill="#000000" stroke="#000000" points="886.7136,-1342.531 883.0139,-1352.8539 887.1068,-1347.5155 887.5,-1352.5 887.5,-1352.5 887.5,-1352.5 887.1068,-1347.5155 891.9861,-1352.1461 886.7136,-1342.531 886.7136,-1342.531"/>
<text text-anchor="start" x="894.87" y="-1362.5" font-family="Arial" font-size="10.00" fill="#000000">FOREIGN KEY (other_point_id) REFERENCES hame.other_point(id)</text>
</g>
</g>
</svg>
