<?xml version="1.0" encoding="UTF-8" standalone="no"?>
<!DOCTYPE svg PUBLIC "-//W3C//DTD SVG 1.1//EN"
 "http://www.w3.org/Graphics/SVG/1.1/DTD/svg11.dtd">
<!-- Generated by graphviz version 2.40.1 (20161225.0304)
 -->
<!-- Title: hame.plan_proposition Pages: 1 -->
<svg width="1294pt" height="1469pt"
 viewBox="0.00 0.00 1293.50 1469.00" xmlns="http://www.w3.org/2000/svg" xmlns:xlink="http://www.w3.org/1999/xlink">
<g id="graph0" class="graph" transform="scale(1 1) rotate(0) translate(4 1465)">
<title>hame.plan_proposition</title>
<polygon fill="#ffffff" stroke="transparent" points="-4,4 -4,-1465 1289.5,-1465 1289.5,4 -4,4"/>
<!-- hame.plan_proposition -->
<g id="node1" class="node">
<title>hame.plan_proposition</title>
<polygon fill="#efefef" stroke="transparent" points="513,-802.5 513,-837.5 836,-837.5 836,-802.5 513,-802.5"/>
<polygon fill="none" stroke="#000000" points="513,-802.5 513,-837.5 836,-837.5 836,-802.5 513,-802.5"/>
<text text-anchor="start" x="519.69" y="-815.3" font-family="Arial Bold" font-size="18.00" fill="#000000">hame.plan_proposition</text>
<text text-anchor="start" x="701.742" y="-815.3" font-family="Arial" font-size="14.00" fill="#000000">    </text>
<text text-anchor="start" x="735.9468" y="-815.3" font-family="Arial" font-size="14.00" fill="#666666">[BASE TABLE]</text>
<polygon fill="none" stroke="#000000" points="513,-772.5 513,-802.5 836,-802.5 836,-772.5 513,-772.5"/>
<text text-anchor="start" x="520" y="-783.9" font-family="Arial" font-size="14.00" fill="#000000">plan_regulation_group_id </text>
<text text-anchor="start" x="681.833" y="-783.9" font-family="Arial" font-size="14.00" fill="#666666">[uuid]</text>
<polygon fill="none" stroke="#000000" points="513,-742.5 513,-772.5 836,-772.5 836,-742.5 513,-742.5"/>
<text text-anchor="start" x="520" y="-753.9" font-family="Arial" font-size="14.00" fill="#000000">text_value </text>
<text text-anchor="start" x="587.6914" y="-753.9" font-family="Arial" font-size="14.00" fill="#666666">[jsonb]</text>
<polygon fill="none" stroke="#000000" points="513,-712.5 513,-742.5 836,-742.5 836,-712.5 513,-712.5"/>
<text text-anchor="start" x="520" y="-723.9" font-family="Arial" font-size="14.00" fill="#000000">ordering </text>
<text text-anchor="start" x="575.2314" y="-723.9" font-family="Arial" font-size="14.00" fill="#666666">[integer]</text>
<polygon fill="none" stroke="#000000" points="513,-682.5 513,-712.5 836,-712.5 836,-682.5 513,-682.5"/>
<text text-anchor="start" x="520" y="-693.9" font-family="Arial" font-size="14.00" fill="#000000">exported_at </text>
<text text-anchor="start" x="597.8106" y="-693.9" font-family="Arial" font-size="14.00" fill="#666666">[timestamp without time zone]</text>
<polygon fill="none" stroke="#000000" points="513,-652.5 513,-682.5 836,-682.5 836,-652.5 513,-652.5"/>
<text text-anchor="start" x="520" y="-663.9" font-family="Arial" font-size="14.00" fill="#000000">lifecycle_status_id </text>
<text text-anchor="start" x="637.467" y="-663.9" font-family="Arial" font-size="14.00" fill="#666666">[uuid]</text>
<polygon fill="none" stroke="#000000" points="513,-622.5 513,-652.5 836,-652.5 836,-622.5 513,-622.5"/>
<text text-anchor="start" x="520" y="-633.9" font-family="Arial" font-size="14.00" fill="#000000">id </text>
<text text-anchor="start" x="534.7798" y="-633.9" font-family="Arial" font-size="14.00" fill="#666666">[uuid]</text>
<polygon fill="none" stroke="#000000" points="513,-592.5 513,-622.5 836,-622.5 836,-592.5 513,-592.5"/>
<text text-anchor="start" x="520" y="-603.9" font-family="Arial" font-size="14.00" fill="#000000">created_at </text>
<text text-anchor="start" x="590.028" y="-603.9" font-family="Arial" font-size="14.00" fill="#666666">[timestamp without time zone]</text>
<polygon fill="none" stroke="#000000" points="513,-562.5 513,-592.5 836,-592.5 836,-562.5 513,-562.5"/>
<text text-anchor="start" x="520" y="-573.9" font-family="Arial" font-size="14.00" fill="#000000">modified_at </text>
<text text-anchor="start" x="596.2412" y="-573.9" font-family="Arial" font-size="14.00" fill="#666666">[timestamp without time zone]</text>
<polygon fill="none" stroke="#000000" points="513,-532.5 513,-562.5 836,-562.5 836,-532.5 513,-532.5"/>
<text text-anchor="start" x="520" y="-543.9" font-family="Arial" font-size="14.00" fill="#000000">name </text>
<text text-anchor="start" x="558.899" y="-543.9" font-family="Arial" font-size="14.00" fill="#666666">[jsonb]</text>
<polygon fill="none" stroke="#000000" points="513,-502.5 513,-532.5 836,-532.5 836,-502.5 513,-502.5"/>
<text text-anchor="start" x="520" y="-513.9" font-family="Arial" font-size="14.00" fill="#000000">plan_theme_id </text>
<text text-anchor="start" x="615.6984" y="-513.9" font-family="Arial" font-size="14.00" fill="#666666">[uuid]</text>
<polygon fill="none" stroke="#000000" stroke-width="3" points="511,-501.5 511,-839.5 837,-839.5 837,-501.5 511,-501.5"/>
</g>
<!-- hame.plan_regulation_group -->
<g id="node2" class="node">
<title>hame.plan_regulation_group</title>
<polygon fill="#efefef" stroke="transparent" points="43,-282.5 43,-317.5 413,-317.5 413,-282.5 43,-282.5"/>
<polygon fill="none" stroke="#000000" points="43,-282.5 43,-317.5 413,-317.5 413,-282.5 43,-282.5"/>
<text text-anchor="start" x="49.6784" y="-295.3" font-family="Arial Bold" font-size="18.00" fill="#000000">hame.plan_regulation_group</text>
<text text-anchor="start" x="278.7536" y="-295.3" font-family="Arial" font-size="14.00" fill="#000000">    </text>
<text text-anchor="start" x="312.9584" y="-295.3" font-family="Arial" font-size="14.00" fill="#666666">[BASE TABLE]</text>
<polygon fill="none" stroke="#000000" points="43,-252.5 43,-282.5 413,-282.5 413,-252.5 43,-252.5"/>
<text text-anchor="start" x="50" y="-263.9" font-family="Arial" font-size="14.00" fill="#000000">short_name    </text>
<text text-anchor="start" x="158.1122" y="-263.9" font-family="Arial" font-size="14.00" fill="#666666">[varchar]</text>
<polygon fill="none" stroke="#000000" points="43,-222.5 43,-252.5 413,-252.5 413,-222.5 43,-222.5"/>
<text text-anchor="start" x="50" y="-233.9" font-family="Arial" font-size="14.00" fill="#000000">name    </text>
<text text-anchor="start" x="119.2132" y="-233.9" font-family="Arial" font-size="14.00" fill="#666666">[jsonb]</text>
<polygon fill="none" stroke="#000000" points="43,-192.5 43,-222.5 413,-222.5 413,-192.5 43,-192.5"/>
<text text-anchor="start" x="50" y="-203.9" font-family="Arial" font-size="14.00" fill="#000000">id    </text>
<text text-anchor="start" x="95.094" y="-203.9" font-family="Arial" font-size="14.00" fill="#666666">[uuid]</text>
<polygon fill="none" stroke="#000000" points="43,-162.5 43,-192.5 413,-192.5 413,-162.5 43,-162.5"/>
<text text-anchor="start" x="50" y="-173.9" font-family="Arial" font-size="14.00" fill="#000000">created_at    </text>
<text text-anchor="start" x="150.3422" y="-173.9" font-family="Arial" font-size="14.00" fill="#666666">[timestamp without time zone]</text>
<polygon fill="none" stroke="#000000" points="43,-132.5 43,-162.5 413,-162.5 413,-132.5 43,-132.5"/>
<text text-anchor="start" x="50" y="-143.9" font-family="Arial" font-size="14.00" fill="#000000">modified_at    </text>
<text text-anchor="start" x="156.5554" y="-143.9" font-family="Arial" font-size="14.00" fill="#666666">[timestamp without time zone]</text>
<polygon fill="none" stroke="#000000" points="43,-102.5 43,-132.5 413,-132.5 413,-102.5 43,-102.5"/>
<text text-anchor="start" x="50" y="-113.9" font-family="Arial" font-size="14.00" fill="#000000">type_of_plan_regulation_group_id    </text>
<text text-anchor="start" x="295.8414" y="-113.9" font-family="Arial" font-size="14.00" fill="#666666">[uuid]</text>
</g>
<!-- hame.plan_proposition&#45;&gt;hame.plan_regulation_group -->
<g id="edge1" class="edge">
<title>hame.plan_proposition:plan_regulation_group_id&#45;&gt;hame.plan_regulation_group:id</title>
<path fill="none" stroke="#000000" d="M503.7564,-783.1649C450.4838,-730.0894 475.0744,-207.5 413,-207.5"/>
<polygon fill="#000000" stroke="#000000" points="503.9462,-783.2539 511.0892,-791.5742 508.4731,-785.3769 513,-787.5 513,-787.5 513,-787.5 508.4731,-785.3769 514.9108,-783.4258 503.9462,-783.2539 503.9462,-783.2539"/>
<text text-anchor="start" x="99.91" y="-797.5" font-family="Arial" font-size="10.00" fill="#000000">FOREIGN KEY (plan_regulation_group_id) REFERENCES hame.plan_regulation_group(id)</text>
</g>
<!-- codes.lifecycle_status -->
<g id="node3" class="node">
<title>codes.lifecycle_status</title>
<polygon fill="#efefef" stroke="transparent" points="517,-342.5 517,-377.5 833,-377.5 833,-342.5 517,-342.5"/>
<polygon fill="none" stroke="#000000" points="517,-342.5 517,-377.5 833,-377.5 833,-342.5 517,-342.5"/>
<text text-anchor="start" x="523.6955" y="-355.3" font-family="Arial Bold" font-size="18.00" fill="#000000">codes.lifecycle_status</text>
<text text-anchor="start" x="698.7365" y="-355.3" font-family="Arial" font-size="14.00" fill="#000000">    </text>
<text text-anchor="start" x="732.9413" y="-355.3" font-family="Arial" font-size="14.00" fill="#666666">[BASE TABLE]</text>
<polygon fill="none" stroke="#000000" points="517,-312.5 517,-342.5 833,-342.5 833,-312.5 517,-312.5"/>
<text text-anchor="start" x="524" y="-323.9" font-family="Arial" font-size="14.00" fill="#000000">value    </text>
<text text-anchor="start" x="591.6592" y="-323.9" font-family="Arial" font-size="14.00" fill="#666666">[varchar]</text>
<polygon fill="none" stroke="#000000" points="517,-282.5 517,-312.5 833,-312.5 833,-282.5 517,-282.5"/>
<text text-anchor="start" x="524" y="-293.9" font-family="Arial" font-size="14.00" fill="#000000">name    </text>
<text text-anchor="start" x="593.2132" y="-293.9" font-family="Arial" font-size="14.00" fill="#666666">[jsonb]</text>
<polygon fill="none" stroke="#000000" points="517,-252.5 517,-282.5 833,-282.5 833,-252.5 517,-252.5"/>
<text text-anchor="start" x="524" y="-263.9" font-family="Arial" font-size="14.00" fill="#000000">id    </text>
<text text-anchor="start" x="569.094" y="-263.9" font-family="Arial" font-size="14.00" fill="#666666">[uuid]</text>
<polygon fill="none" stroke="#000000" points="517,-222.5 517,-252.5 833,-252.5 833,-222.5 517,-222.5"/>
<text text-anchor="start" x="524" y="-233.9" font-family="Arial" font-size="14.00" fill="#000000">short_name    </text>
<text text-anchor="start" x="632.1122" y="-233.9" font-family="Arial" font-size="14.00" fill="#666666">[varchar]</text>
<polygon fill="none" stroke="#000000" points="517,-192.5 517,-222.5 833,-222.5 833,-192.5 517,-192.5"/>
<text text-anchor="start" x="524" y="-203.9" font-family="Arial" font-size="14.00" fill="#000000">description    </text>
<text text-anchor="start" x="625.8822" y="-203.9" font-family="Arial" font-size="14.00" fill="#666666">[jsonb]</text>
<polygon fill="none" stroke="#000000" points="517,-162.5 517,-192.5 833,-192.5 833,-162.5 517,-162.5"/>
<text text-anchor="start" x="524" y="-173.9" font-family="Arial" font-size="14.00" fill="#000000">created_at    </text>
<text text-anchor="start" x="624.3422" y="-173.9" font-family="Arial" font-size="14.00" fill="#666666">[timestamp without time zone]</text>
<polygon fill="none" stroke="#000000" points="517,-132.5 517,-162.5 833,-162.5 833,-132.5 517,-132.5"/>
<text text-anchor="start" x="524" y="-143.9" font-family="Arial" font-size="14.00" fill="#000000">modified_at    </text>
<text text-anchor="start" x="630.5554" y="-143.9" font-family="Arial" font-size="14.00" fill="#666666">[timestamp without time zone]</text>
<polygon fill="none" stroke="#000000" points="517,-102.5 517,-132.5 833,-132.5 833,-102.5 517,-102.5"/>
<text text-anchor="start" x="524" y="-113.9" font-family="Arial" font-size="14.00" fill="#000000">level    </text>
<text text-anchor="start" x="586.9832" y="-113.9" font-family="Arial" font-size="14.00" fill="#666666">[integer]</text>
<polygon fill="none" stroke="#000000" points="517,-72.5 517,-102.5 833,-102.5 833,-72.5 517,-72.5"/>
<text text-anchor="start" x="524" y="-83.9" font-family="Arial" font-size="14.00" fill="#000000">parent_id    </text>
<text text-anchor="start" x="616.5582" y="-83.9" font-family="Arial" font-size="14.00" fill="#666666">[uuid]</text>
<polygon fill="none" stroke="#000000" points="517,-42.5 517,-72.5 833,-72.5 833,-42.5 517,-42.5"/>
<text text-anchor="start" x="524" y="-53.9" font-family="Arial" font-size="14.00" fill="#000000">status    </text>
<text text-anchor="start" x="595.5512" y="-53.9" font-family="Arial" font-size="14.00" fill="#666666">[varchar]</text>
</g>
<!-- hame.plan_proposition&#45;&gt;codes.lifecycle_status -->
<g id="edge2" class="edge">
<title>hame.plan_proposition:lifecycle_status_id&#45;&gt;codes.lifecycle_status:id</title>
<path fill="none" stroke="#000000" d="M846.3979,-666.8684C927.0689,-656.6133 895.8993,-524.0393 836,-457 740.9366,-350.605 612.0634,-527.395 517,-421 471.5449,-370.1266 448.7778,-267.5 517,-267.5"/>
<polygon fill="#000000" stroke="#000000" points="845.9816,-666.8936 835.7271,-663.0083 840.9908,-667.1968 836,-667.5 836,-667.5 836,-667.5 840.9908,-667.1968 836.2729,-671.9917 845.9816,-666.8936 845.9816,-666.8936"/>
<text text-anchor="start" x="842.7645" y="-677.5" font-family="Arial" font-size="10.00" fill="#000000">FOREIGN KEY (lifecycle_status_id) REFERENCES codes.lifecycle_status(id)</text>
</g>
<!-- codes.plan_theme -->
<g id="node5" class="node">
<title>codes.plan_theme</title>
<polygon fill="#efefef" stroke="transparent" points="938,-342.5 938,-377.5 1243,-377.5 1243,-342.5 938,-342.5"/>
<polygon fill="none" stroke="#000000" points="938,-342.5 938,-377.5 1243,-377.5 1243,-342.5 938,-342.5"/>
<text text-anchor="start" x="953.1896" y="-355.3" font-family="Arial Bold" font-size="18.00" fill="#000000">codes.plan_theme</text>
<text text-anchor="start" x="1100.2424" y="-355.3" font-family="Arial" font-size="14.00" fill="#000000">    </text>
<text text-anchor="start" x="1134.4472" y="-355.3" font-family="Arial" font-size="14.00" fill="#666666">[BASE TABLE]</text>
<polygon fill="none" stroke="#000000" points="938,-312.5 938,-342.5 1243,-342.5 1243,-312.5 938,-312.5"/>
<text text-anchor="start" x="945" y="-323.9" font-family="Arial" font-size="14.00" fill="#000000">value    </text>
<text text-anchor="start" x="1012.6592" y="-323.9" font-family="Arial" font-size="14.00" fill="#666666">[varchar]</text>
<polygon fill="none" stroke="#000000" points="938,-282.5 938,-312.5 1243,-312.5 1243,-282.5 938,-282.5"/>
<text text-anchor="start" x="945" y="-293.9" font-family="Arial" font-size="14.00" fill="#000000">short_name    </text>
<text text-anchor="start" x="1053.1122" y="-293.9" font-family="Arial" font-size="14.00" fill="#666666">[varchar]</text>
<polygon fill="none" stroke="#000000" points="938,-252.5 938,-282.5 1243,-282.5 1243,-252.5 938,-252.5"/>
<text text-anchor="start" x="945" y="-263.9" font-family="Arial" font-size="14.00" fill="#000000">name    </text>
<text text-anchor="start" x="1014.2132" y="-263.9" font-family="Arial" font-size="14.00" fill="#666666">[jsonb]</text>
<polygon fill="none" stroke="#000000" points="938,-222.5 938,-252.5 1243,-252.5 1243,-222.5 938,-222.5"/>
<text text-anchor="start" x="945" y="-233.9" font-family="Arial" font-size="14.00" fill="#000000">description    </text>
<text text-anchor="start" x="1046.8822" y="-233.9" font-family="Arial" font-size="14.00" fill="#666666">[jsonb]</text>
<polygon fill="none" stroke="#000000" points="938,-192.5 938,-222.5 1243,-222.5 1243,-192.5 938,-192.5"/>
<text text-anchor="start" x="945" y="-203.9" font-family="Arial" font-size="14.00" fill="#000000">status    </text>
<text text-anchor="start" x="1016.5512" y="-203.9" font-family="Arial" font-size="14.00" fill="#666666">[varchar]</text>
<polygon fill="none" stroke="#000000" points="938,-162.5 938,-192.5 1243,-192.5 1243,-162.5 938,-162.5"/>
<text text-anchor="start" x="945" y="-173.9" font-family="Arial" font-size="14.00" fill="#000000">level    </text>
<text text-anchor="start" x="1007.9832" y="-173.9" font-family="Arial" font-size="14.00" fill="#666666">[integer]</text>
<polygon fill="none" stroke="#000000" points="938,-132.5 938,-162.5 1243,-162.5 1243,-132.5 938,-132.5"/>
<text text-anchor="start" x="945" y="-143.9" font-family="Arial" font-size="14.00" fill="#000000">parent_id    </text>
<text text-anchor="start" x="1037.5582" y="-143.9" font-family="Arial" font-size="14.00" fill="#666666">[uuid]</text>
<polygon fill="none" stroke="#000000" points="938,-102.5 938,-132.5 1243,-132.5 1243,-102.5 938,-102.5"/>
<text text-anchor="start" x="945" y="-113.9" font-family="Arial" font-size="14.00" fill="#000000">id    </text>
<text text-anchor="start" x="990.094" y="-113.9" font-family="Arial" font-size="14.00" fill="#666666">[uuid]</text>
<polygon fill="none" stroke="#000000" points="938,-72.5 938,-102.5 1243,-102.5 1243,-72.5 938,-72.5"/>
<text text-anchor="start" x="945" y="-83.9" font-family="Arial" font-size="14.00" fill="#000000">created_at    </text>
<text text-anchor="start" x="1045.3422" y="-83.9" font-family="Arial" font-size="14.00" fill="#666666">[timestamp without time zone]</text>
<polygon fill="none" stroke="#000000" points="938,-42.5 938,-72.5 1243,-72.5 1243,-42.5 938,-42.5"/>
<text text-anchor="start" x="944.6522" y="-53.9" font-family="Arial" font-size="14.00" fill="#000000">modified_at    </text>
<text text-anchor="start" x="1051.2076" y="-53.9" font-family="Arial" font-size="14.00" fill="#666666">[timestamp without time zone]</text>
</g>
<!-- hame.plan_proposition&#45;&gt;codes.plan_theme -->
<g id="edge4" class="edge">
<title>hame.plan_proposition:plan_theme_id&#45;&gt;codes.plan_theme:id</title>
<path fill="none" stroke="#000000" d="M846.175,-516.5954C882.0477,-509.5848 870.9936,-463.0732 885,-421 906.6256,-356.04 869.5349,-117.5 938,-117.5"/>
<polygon fill="#000000" stroke="#000000" points="845.9607,-516.6144 835.6015,-513.0177 840.9804,-517.0572 836,-517.5 836,-517.5 836,-517.5 840.9804,-517.0572 836.3985,-521.9823 845.9607,-516.6144 845.9607,-516.6144"/>
<text text-anchor="start" x="843.3135" y="-527.5" font-family="Arial" font-size="10.00" fill="#000000">FOREIGN KEY (plan_theme_id) REFERENCES codes.plan_theme(id)</text>
</g>
<!-- hame.lifecycle_date -->
<g id="node4" class="node">
<title>hame.lifecycle_date</title>
<polygon fill="#efefef" stroke="transparent" points="522,-1382.5 522,-1417.5 827,-1417.5 827,-1382.5 522,-1382.5"/>
<polygon fill="none" stroke="#000000" points="522,-1382.5 522,-1417.5 827,-1417.5 827,-1382.5 522,-1382.5"/>
<text text-anchor="start" x="531.1974" y="-1395.3" font-family="Arial Bold" font-size="18.00" fill="#000000">hame.lifecycle_date</text>
<text text-anchor="start" x="690.2346" y="-1395.3" font-family="Arial" font-size="14.00" fill="#000000">    </text>
<text text-anchor="start" x="724.4394" y="-1395.3" font-family="Arial" font-size="14.00" fill="#666666">[BASE TABLE]</text>
<polygon fill="none" stroke="#000000" points="522,-1352.5 522,-1382.5 827,-1382.5 827,-1352.5 522,-1352.5"/>
<text text-anchor="start" x="529" y="-1363.9" font-family="Arial" font-size="14.00" fill="#000000">lifecycle_status_id    </text>
<text text-anchor="start" x="676.7812" y="-1363.9" font-family="Arial" font-size="14.00" fill="#666666">[uuid]</text>
<polygon fill="none" stroke="#000000" points="522,-1322.5 522,-1352.5 827,-1352.5 827,-1322.5 522,-1322.5"/>
<text text-anchor="start" x="529" y="-1333.9" font-family="Arial" font-size="14.00" fill="#000000">plan_id    </text>
<text text-anchor="start" x="608.331" y="-1333.9" font-family="Arial" font-size="14.00" fill="#666666">[uuid]</text>
<polygon fill="none" stroke="#000000" points="522,-1292.5 522,-1322.5 827,-1322.5 827,-1292.5 522,-1292.5"/>
<text text-anchor="start" x="529" y="-1303.9" font-family="Arial" font-size="14.00" fill="#000000">plan_regulation_id    </text>
<text text-anchor="start" x="677.5736" y="-1303.9" font-family="Arial" font-size="14.00" fill="#666666">[uuid]</text>
<polygon fill="none" stroke="#000000" points="522,-1262.5 522,-1292.5 827,-1292.5 827,-1262.5 522,-1262.5"/>
<text text-anchor="start" x="529" y="-1273.9" font-family="Arial" font-size="14.00" fill="#000000">plan_proposition_id    </text>
<text text-anchor="start" x="684.5736" y="-1273.9" font-family="Arial" font-size="14.00" fill="#666666">[uuid]</text>
<polygon fill="none" stroke="#000000" points="522,-1232.5 522,-1262.5 827,-1262.5 827,-1232.5 522,-1232.5"/>
<text text-anchor="start" x="529" y="-1243.9" font-family="Arial" font-size="14.00" fill="#000000">starting_at    </text>
<text text-anchor="start" x="628.5568" y="-1243.9" font-family="Arial" font-size="14.00" fill="#666666">[timestamp without time zone]</text>
<polygon fill="none" stroke="#000000" points="522,-1202.5 522,-1232.5 827,-1232.5 827,-1202.5 522,-1202.5"/>
<text text-anchor="start" x="529" y="-1213.9" font-family="Arial" font-size="14.00" fill="#000000">ending_at    </text>
<text text-anchor="start" x="624.6802" y="-1213.9" font-family="Arial" font-size="14.00" fill="#666666">[timestamp without time zone]</text>
<polygon fill="none" stroke="#000000" points="522,-1172.5 522,-1202.5 827,-1202.5 827,-1172.5 522,-1172.5"/>
<text text-anchor="start" x="529" y="-1183.9" font-family="Arial" font-size="14.00" fill="#000000">id    </text>
<text text-anchor="start" x="574.094" y="-1183.9" font-family="Arial" font-size="14.00" fill="#666666">[uuid]</text>
<polygon fill="none" stroke="#000000" points="522,-1142.5 522,-1172.5 827,-1172.5 827,-1142.5 522,-1142.5"/>
<text text-anchor="start" x="529" y="-1153.9" font-family="Arial" font-size="14.00" fill="#000000">created_at    </text>
<text text-anchor="start" x="629.3422" y="-1153.9" font-family="Arial" font-size="14.00" fill="#666666">[timestamp without time zone]</text>
<polygon fill="none" stroke="#000000" points="522,-1112.5 522,-1142.5 827,-1142.5 827,-1112.5 522,-1112.5"/>
<text text-anchor="start" x="528.6522" y="-1123.9" font-family="Arial" font-size="14.00" fill="#000000">modified_at    </text>
<text text-anchor="start" x="635.2076" y="-1123.9" font-family="Arial" font-size="14.00" fill="#666666">[timestamp without time zone]</text>
<polygon fill="none" stroke="#000000" points="522,-1082.5 522,-1112.5 827,-1112.5 827,-1082.5 522,-1082.5"/>
<text text-anchor="start" x="529" y="-1093.9" font-family="Arial" font-size="14.00" fill="#000000">land_use_area_id    </text>
<text text-anchor="start" x="674.4698" y="-1093.9" font-family="Arial" font-size="14.00" fill="#666666">[uuid]</text>
<polygon fill="none" stroke="#000000" points="522,-1052.5 522,-1082.5 827,-1082.5 827,-1052.5 522,-1052.5"/>
<text text-anchor="start" x="529" y="-1063.9" font-family="Arial" font-size="14.00" fill="#000000">other_area_id    </text>
<text text-anchor="start" x="649.5666" y="-1063.9" font-family="Arial" font-size="14.00" fill="#666666">[uuid]</text>
<polygon fill="none" stroke="#000000" points="522,-1022.5 522,-1052.5 827,-1052.5 827,-1022.5 522,-1022.5"/>
<text text-anchor="start" x="529" y="-1033.9" font-family="Arial" font-size="14.00" fill="#000000">line_id    </text>
<text text-anchor="start" x="603.655" y="-1033.9" font-family="Arial" font-size="14.00" fill="#666666">[uuid]</text>
<polygon fill="none" stroke="#000000" points="522,-992.5 522,-1022.5 827,-1022.5 827,-992.5 522,-992.5"/>
<text text-anchor="start" x="529" y="-1003.9" font-family="Arial" font-size="14.00" fill="#000000">land_use_point_id    </text>
<text text-anchor="start" x="676.8064" y="-1003.9" font-family="Arial" font-size="14.00" fill="#666666">[uuid]</text>
<polygon fill="none" stroke="#000000" points="522,-962.5 522,-992.5 827,-992.5 827,-962.5 522,-962.5"/>
<text text-anchor="start" x="529" y="-973.9" font-family="Arial" font-size="14.00" fill="#000000">other_point_id    </text>
<text text-anchor="start" x="651.9032" y="-973.9" font-family="Arial" font-size="14.00" fill="#666666">[uuid]</text>
</g>
<!-- hame.lifecycle_date&#45;&gt;hame.plan_proposition -->
<g id="edge3" class="edge">
<title>hame.lifecycle_date:plan_proposition_id&#45;&gt;hame.plan_proposition:id</title>
<path fill="none" stroke="#000000" d="M511.7055,-1277.2162C237.3514,-1261.9704 232,-637.5 513,-637.5"/>
<polygon fill="#000000" stroke="#000000" points="512.0038,-1277.2244 521.876,-1281.9983 517.0019,-1277.3622 522,-1277.5 522,-1277.5 522,-1277.5 517.0019,-1277.3622 522.124,-1273.0017 512.0038,-1277.2244 512.0038,-1277.2244"/>
<text text-anchor="start" x="162.034" y="-1287.5" font-family="Arial" font-size="10.00" fill="#000000">FOREIGN KEY (plan_proposition_id) REFERENCES hame.plan_proposition(id)</text>
</g>
</g>
</svg>
