<?xml version="1.0" encoding="UTF-8" standalone="no"?>
<!DOCTYPE svg PUBLIC "-//W3C//DTD SVG 1.1//EN"
 "http://www.w3.org/Graphics/SVG/1.1/DTD/svg11.dtd">
<!-- Generated by graphviz version 2.40.1 (20161225.0304)
 -->
<!-- Title: hame.line Pages: 1 -->
<svg width="1766pt" height="1859pt"
 viewBox="0.00 0.00 1765.50 1859.00" xmlns="http://www.w3.org/2000/svg" xmlns:xlink="http://www.w3.org/1999/xlink">
<g id="graph0" class="graph" transform="scale(1 1) rotate(0) translate(4 1855)">
<title>hame.line</title>
<polygon fill="#ffffff" stroke="transparent" points="-4,4 -4,-1855 1761.5,-1855 1761.5,4 -4,4"/>
<!-- hame.line -->
<g id="node1" class="node">
<title>hame.line</title>
<polygon fill="#efefef" stroke="transparent" points="749.5,-1192.5 749.5,-1227.5 1025.5,-1227.5 1025.5,-1192.5 749.5,-1192.5"/>
<polygon fill="none" stroke="#000000" points="749.5,-1192.5 749.5,-1227.5 1025.5,-1227.5 1025.5,-1192.5 749.5,-1192.5"/>
<text text-anchor="start" x="784.7091" y="-1205.3" font-family="Arial Bold" font-size="18.00" fill="#000000">hame.line</text>
<text text-anchor="start" x="862.7229" y="-1205.3" font-family="Arial" font-size="14.00" fill="#000000">    </text>
<text text-anchor="start" x="896.9277" y="-1205.3" font-family="Arial" font-size="14.00" fill="#666666">[BASE TABLE]</text>
<polygon fill="none" stroke="#000000" points="749.5,-1162.5 749.5,-1192.5 1025.5,-1192.5 1025.5,-1162.5 749.5,-1162.5"/>
<text text-anchor="start" x="756.5" y="-1173.9" font-family="Arial" font-size="14.00" fill="#000000">geom </text>
<text text-anchor="start" x="795.399" y="-1173.9" font-family="Arial" font-size="14.00" fill="#666666">[geometry(MultiLineString,3067)]</text>
<polygon fill="none" stroke="#000000" points="749.5,-1132.5 749.5,-1162.5 1025.5,-1162.5 1025.5,-1132.5 749.5,-1132.5"/>
<text text-anchor="start" x="756.5" y="-1143.9" font-family="Arial" font-size="14.00" fill="#000000">name </text>
<text text-anchor="start" x="795.399" y="-1143.9" font-family="Arial" font-size="14.00" fill="#666666">[jsonb]</text>
<polygon fill="none" stroke="#000000" points="749.5,-1102.5 749.5,-1132.5 1025.5,-1132.5 1025.5,-1102.5 749.5,-1102.5"/>
<text text-anchor="start" x="756.5" y="-1113.9" font-family="Arial" font-size="14.00" fill="#000000">source_data_object </text>
<text text-anchor="start" x="882.5476" y="-1113.9" font-family="Arial" font-size="14.00" fill="#666666">[varchar]</text>
<polygon fill="none" stroke="#000000" points="749.5,-1072.5 749.5,-1102.5 1025.5,-1102.5 1025.5,-1072.5 749.5,-1072.5"/>
<text text-anchor="start" x="756.5" y="-1083.9" font-family="Arial" font-size="14.00" fill="#000000">height_range </text>
<text text-anchor="start" x="842.0918" y="-1083.9" font-family="Arial" font-size="14.00" fill="#666666">[numrange]</text>
<polygon fill="none" stroke="#000000" points="749.5,-1042.5 749.5,-1072.5 1025.5,-1072.5 1025.5,-1042.5 749.5,-1042.5"/>
<text text-anchor="start" x="756.5" y="-1053.9" font-family="Arial" font-size="14.00" fill="#000000">height_unit </text>
<text text-anchor="start" x="828.8632" y="-1053.9" font-family="Arial" font-size="14.00" fill="#666666">[varchar]</text>
<polygon fill="none" stroke="#000000" points="749.5,-1012.5 749.5,-1042.5 1025.5,-1042.5 1025.5,-1012.5 749.5,-1012.5"/>
<text text-anchor="start" x="756.5" y="-1023.9" font-family="Arial" font-size="14.00" fill="#000000">ordering </text>
<text text-anchor="start" x="811.7314" y="-1023.9" font-family="Arial" font-size="14.00" fill="#666666">[integer]</text>
<polygon fill="none" stroke="#000000" points="749.5,-982.5 749.5,-1012.5 1025.5,-1012.5 1025.5,-982.5 749.5,-982.5"/>
<text text-anchor="start" x="756.5" y="-993.9" font-family="Arial" font-size="14.00" fill="#000000">type_of_underground_id </text>
<text text-anchor="start" x="912.1212" y="-993.9" font-family="Arial" font-size="14.00" fill="#666666">[uuid]</text>
<polygon fill="none" stroke="#000000" points="749.5,-952.5 749.5,-982.5 1025.5,-982.5 1025.5,-952.5 749.5,-952.5"/>
<text text-anchor="start" x="756.5" y="-963.9" font-family="Arial" font-size="14.00" fill="#000000">plan_id </text>
<text text-anchor="start" x="805.5168" y="-963.9" font-family="Arial" font-size="14.00" fill="#666666">[uuid]</text>
<polygon fill="none" stroke="#000000" points="749.5,-922.5 749.5,-952.5 1025.5,-952.5 1025.5,-922.5 749.5,-922.5"/>
<text text-anchor="start" x="756.5" y="-933.9" font-family="Arial" font-size="14.00" fill="#000000">plan_regulation_group_id </text>
<text text-anchor="start" x="918.333" y="-933.9" font-family="Arial" font-size="14.00" fill="#666666">[uuid]</text>
<polygon fill="none" stroke="#000000" points="749.5,-892.5 749.5,-922.5 1025.5,-922.5 1025.5,-892.5 749.5,-892.5"/>
<text text-anchor="start" x="756.0246" y="-903.9" font-family="Arial" font-size="14.00" fill="#000000">exported_at </text>
<text text-anchor="start" x="833.8352" y="-903.9" font-family="Arial" font-size="14.00" fill="#666666">[timestamp without time zone]</text>
<polygon fill="none" stroke="#000000" points="749.5,-862.5 749.5,-892.5 1025.5,-892.5 1025.5,-862.5 749.5,-862.5"/>
<text text-anchor="start" x="756.5" y="-873.9" font-family="Arial" font-size="14.00" fill="#000000">lifecycle_status_id </text>
<text text-anchor="start" x="873.967" y="-873.9" font-family="Arial" font-size="14.00" fill="#666666">[uuid]</text>
<polygon fill="none" stroke="#000000" points="749.5,-832.5 749.5,-862.5 1025.5,-862.5 1025.5,-832.5 749.5,-832.5"/>
<text text-anchor="start" x="756.5" y="-843.9" font-family="Arial" font-size="14.00" fill="#000000">id </text>
<text text-anchor="start" x="771.2798" y="-843.9" font-family="Arial" font-size="14.00" fill="#666666">[uuid]</text>
<polygon fill="none" stroke="#000000" points="749.5,-802.5 749.5,-832.5 1025.5,-832.5 1025.5,-802.5 749.5,-802.5"/>
<text text-anchor="start" x="756.5" y="-813.9" font-family="Arial" font-size="14.00" fill="#000000">created_at </text>
<text text-anchor="start" x="826.528" y="-813.9" font-family="Arial" font-size="14.00" fill="#666666">[timestamp without time zone]</text>
<polygon fill="none" stroke="#000000" points="749.5,-772.5 749.5,-802.5 1025.5,-802.5 1025.5,-772.5 749.5,-772.5"/>
<text text-anchor="start" x="756.5" y="-783.9" font-family="Arial" font-size="14.00" fill="#000000">modified_at </text>
<text text-anchor="start" x="832.7412" y="-783.9" font-family="Arial" font-size="14.00" fill="#666666">[timestamp without time zone]</text>
<polygon fill="none" stroke="#000000" points="749.5,-742.5 749.5,-772.5 1025.5,-772.5 1025.5,-742.5 749.5,-742.5"/>
<text text-anchor="start" x="756.5" y="-753.9" font-family="Arial" font-size="14.00" fill="#000000">description </text>
<text text-anchor="start" x="828.068" y="-753.9" font-family="Arial" font-size="14.00" fill="#666666">[jsonb]</text>
<polygon fill="none" stroke="#000000" stroke-width="3" points="748,-741.5 748,-1229.5 1027,-1229.5 1027,-741.5 748,-741.5"/>
</g>
<!-- codes.type_of_underground -->
<g id="node2" class="node">
<title>codes.type_of_underground</title>
<polygon fill="#efefef" stroke="transparent" points="43.5,-462.5 43.5,-497.5 408.5,-497.5 408.5,-462.5 43.5,-462.5"/>
<polygon fill="none" stroke="#000000" points="43.5,-462.5 43.5,-497.5 408.5,-497.5 408.5,-462.5 43.5,-462.5"/>
<text text-anchor="start" x="50.1678" y="-475.3" font-family="Arial Bold" font-size="18.00" fill="#000000">codes.type_of_underground</text>
<text text-anchor="start" x="274.2642" y="-475.3" font-family="Arial" font-size="14.00" fill="#000000">    </text>
<text text-anchor="start" x="308.469" y="-475.3" font-family="Arial" font-size="14.00" fill="#666666">[BASE TABLE]</text>
<polygon fill="none" stroke="#000000" points="43.5,-432.5 43.5,-462.5 408.5,-462.5 408.5,-432.5 43.5,-432.5"/>
<text text-anchor="start" x="50.5" y="-443.9" font-family="Arial" font-size="14.00" fill="#000000">value    </text>
<text text-anchor="start" x="118.1592" y="-443.9" font-family="Arial" font-size="14.00" fill="#666666">[varchar]</text>
<polygon fill="none" stroke="#000000" points="43.5,-402.5 43.5,-432.5 408.5,-432.5 408.5,-402.5 43.5,-402.5"/>
<text text-anchor="start" x="50.5" y="-413.9" font-family="Arial" font-size="14.00" fill="#000000">short_name    </text>
<text text-anchor="start" x="158.6122" y="-413.9" font-family="Arial" font-size="14.00" fill="#666666">[varchar]</text>
<polygon fill="none" stroke="#000000" points="43.5,-372.5 43.5,-402.5 408.5,-402.5 408.5,-372.5 43.5,-372.5"/>
<text text-anchor="start" x="50.5" y="-383.9" font-family="Arial" font-size="14.00" fill="#000000">name    </text>
<text text-anchor="start" x="119.7132" y="-383.9" font-family="Arial" font-size="14.00" fill="#666666">[jsonb]</text>
<polygon fill="none" stroke="#000000" points="43.5,-342.5 43.5,-372.5 408.5,-372.5 408.5,-342.5 43.5,-342.5"/>
<text text-anchor="start" x="50.5" y="-353.9" font-family="Arial" font-size="14.00" fill="#000000">description    </text>
<text text-anchor="start" x="152.3822" y="-353.9" font-family="Arial" font-size="14.00" fill="#666666">[jsonb]</text>
<polygon fill="none" stroke="#000000" points="43.5,-312.5 43.5,-342.5 408.5,-342.5 408.5,-312.5 43.5,-312.5"/>
<text text-anchor="start" x="50.5" y="-323.9" font-family="Arial" font-size="14.00" fill="#000000">status    </text>
<text text-anchor="start" x="122.0512" y="-323.9" font-family="Arial" font-size="14.00" fill="#666666">[varchar]</text>
<polygon fill="none" stroke="#000000" points="43.5,-282.5 43.5,-312.5 408.5,-312.5 408.5,-282.5 43.5,-282.5"/>
<text text-anchor="start" x="50.5" y="-293.9" font-family="Arial" font-size="14.00" fill="#000000">level    </text>
<text text-anchor="start" x="113.4832" y="-293.9" font-family="Arial" font-size="14.00" fill="#666666">[integer]</text>
<polygon fill="none" stroke="#000000" points="43.5,-252.5 43.5,-282.5 408.5,-282.5 408.5,-252.5 43.5,-252.5"/>
<text text-anchor="start" x="50.5" y="-263.9" font-family="Arial" font-size="14.00" fill="#000000">parent_id    </text>
<text text-anchor="start" x="143.0582" y="-263.9" font-family="Arial" font-size="14.00" fill="#666666">[uuid]</text>
<polygon fill="none" stroke="#000000" points="43.5,-222.5 43.5,-252.5 408.5,-252.5 408.5,-222.5 43.5,-222.5"/>
<text text-anchor="start" x="50.5" y="-233.9" font-family="Arial" font-size="14.00" fill="#000000">id    </text>
<text text-anchor="start" x="95.594" y="-233.9" font-family="Arial" font-size="14.00" fill="#666666">[uuid]</text>
<polygon fill="none" stroke="#000000" points="43.5,-192.5 43.5,-222.5 408.5,-222.5 408.5,-192.5 43.5,-192.5"/>
<text text-anchor="start" x="50.5" y="-203.9" font-family="Arial" font-size="14.00" fill="#000000">created_at    </text>
<text text-anchor="start" x="150.8422" y="-203.9" font-family="Arial" font-size="14.00" fill="#666666">[timestamp without time zone]</text>
<polygon fill="none" stroke="#000000" points="43.5,-162.5 43.5,-192.5 408.5,-192.5 408.5,-162.5 43.5,-162.5"/>
<text text-anchor="start" x="50.5" y="-173.9" font-family="Arial" font-size="14.00" fill="#000000">modified_at    </text>
<text text-anchor="start" x="157.0554" y="-173.9" font-family="Arial" font-size="14.00" fill="#666666">[timestamp without time zone]</text>
</g>
<!-- hame.line&#45;&gt;codes.type_of_underground -->
<g id="edge1" class="edge">
<title>hame.line:type_of_underground_id&#45;&gt;codes.type_of_underground:id</title>
<path fill="none" stroke="#000000" d="M739.2739,-997.356C551.9082,-992.0024 538.746,-838.1668 460.5,-661 422.1932,-574.2646 503.3179,-237.5 408.5,-237.5"/>
<polygon fill="#000000" stroke="#000000" points="739.501,-997.3591 749.4366,-1001.9996 744.5005,-997.4295 749.5,-997.5 749.5,-997.5 749.5,-997.5 744.5005,-997.4295 749.5634,-993.0004 739.501,-997.3591 739.501,-997.3591"/>
<text text-anchor="start" x="344.0115" y="-1007.5" font-family="Arial" font-size="10.00" fill="#000000">FOREIGN KEY (type_of_underground_id) REFERENCES codes.type_of_underground(id)</text>
</g>
<!-- hame.plan -->
<g id="node3" class="node">
<title>hame.plan</title>
<polygon fill="#efefef" stroke="transparent" points="512.5,-582.5 512.5,-617.5 820.5,-617.5 820.5,-582.5 512.5,-582.5"/>
<polygon fill="none" stroke="#000000" points="512.5,-582.5 512.5,-617.5 820.5,-617.5 820.5,-582.5 512.5,-582.5"/>
<text text-anchor="start" x="560.7031" y="-595.3" font-family="Arial Bold" font-size="18.00" fill="#000000">hame.plan</text>
<text text-anchor="start" x="644.7289" y="-595.3" font-family="Arial" font-size="14.00" fill="#000000">    </text>
<text text-anchor="start" x="678.9337" y="-595.3" font-family="Arial" font-size="14.00" fill="#666666">[BASE TABLE]</text>
<polygon fill="none" stroke="#000000" points="512.5,-552.5 512.5,-582.5 820.5,-582.5 820.5,-552.5 512.5,-552.5"/>
<text text-anchor="start" x="519.5" y="-563.9" font-family="Arial" font-size="14.00" fill="#000000">name    </text>
<text text-anchor="start" x="588.7132" y="-563.9" font-family="Arial" font-size="14.00" fill="#666666">[jsonb]</text>
<polygon fill="none" stroke="#000000" points="512.5,-522.5 512.5,-552.5 820.5,-552.5 820.5,-522.5 512.5,-522.5"/>
<text text-anchor="start" x="519.5" y="-533.9" font-family="Arial" font-size="14.00" fill="#000000">id    </text>
<text text-anchor="start" x="564.594" y="-533.9" font-family="Arial" font-size="14.00" fill="#666666">[uuid]</text>
<polygon fill="none" stroke="#000000" points="512.5,-492.5 512.5,-522.5 820.5,-522.5 820.5,-492.5 512.5,-492.5"/>
<text text-anchor="start" x="519.5" y="-503.9" font-family="Arial" font-size="14.00" fill="#000000">created_at    </text>
<text text-anchor="start" x="619.8422" y="-503.9" font-family="Arial" font-size="14.00" fill="#666666">[timestamp without time zone]</text>
<polygon fill="none" stroke="#000000" points="512.5,-462.5 512.5,-492.5 820.5,-492.5 820.5,-462.5 512.5,-462.5"/>
<text text-anchor="start" x="519.5" y="-473.9" font-family="Arial" font-size="14.00" fill="#000000">modified_at    </text>
<text text-anchor="start" x="626.0554" y="-473.9" font-family="Arial" font-size="14.00" fill="#666666">[timestamp without time zone]</text>
<polygon fill="none" stroke="#000000" points="512.5,-432.5 512.5,-462.5 820.5,-462.5 820.5,-432.5 512.5,-432.5"/>
<text text-anchor="start" x="519.5" y="-443.9" font-family="Arial" font-size="14.00" fill="#000000">exported_at    </text>
<text text-anchor="start" x="627.6248" y="-443.9" font-family="Arial" font-size="14.00" fill="#666666">[timestamp without time zone]</text>
<polygon fill="none" stroke="#000000" points="512.5,-402.5 512.5,-432.5 820.5,-432.5 820.5,-402.5 512.5,-402.5"/>
<text text-anchor="start" x="519.5" y="-413.9" font-family="Arial" font-size="14.00" fill="#000000">geom    </text>
<text text-anchor="start" x="588.7132" y="-413.9" font-family="Arial" font-size="14.00" fill="#666666">[geometry(MultiPolygon,3067)]</text>
<polygon fill="none" stroke="#000000" points="512.5,-372.5 512.5,-402.5 820.5,-402.5 820.5,-372.5 512.5,-372.5"/>
<text text-anchor="start" x="519.5" y="-383.9" font-family="Arial" font-size="14.00" fill="#000000">lifecycle_status_id    </text>
<text text-anchor="start" x="667.2812" y="-383.9" font-family="Arial" font-size="14.00" fill="#666666">[uuid]</text>
<polygon fill="none" stroke="#000000" points="512.5,-342.5 512.5,-372.5 820.5,-372.5 820.5,-342.5 512.5,-342.5"/>
<text text-anchor="start" x="519.5" y="-353.9" font-family="Arial" font-size="14.00" fill="#000000">organisation_id    </text>
<text text-anchor="start" x="648.6192" y="-353.9" font-family="Arial" font-size="14.00" fill="#666666">[uuid]</text>
<polygon fill="none" stroke="#000000" points="512.5,-312.5 512.5,-342.5 820.5,-342.5 820.5,-312.5 512.5,-312.5"/>
<text text-anchor="start" x="519.5" y="-323.9" font-family="Arial" font-size="14.00" fill="#000000">plan_regulation_group_id    </text>
<text text-anchor="start" x="711.6472" y="-323.9" font-family="Arial" font-size="14.00" fill="#666666">[uuid]</text>
<polygon fill="none" stroke="#000000" points="512.5,-282.5 512.5,-312.5 820.5,-312.5 820.5,-282.5 512.5,-282.5"/>
<text text-anchor="start" x="519.5" y="-293.9" font-family="Arial" font-size="14.00" fill="#000000">plan_type_id    </text>
<text text-anchor="start" x="633.0694" y="-293.9" font-family="Arial" font-size="14.00" fill="#666666">[uuid]</text>
<polygon fill="none" stroke="#000000" points="512.5,-252.5 512.5,-282.5 820.5,-282.5 820.5,-252.5 512.5,-252.5"/>
<text text-anchor="start" x="519.5" y="-263.9" font-family="Arial" font-size="14.00" fill="#000000">permanent_plan_identifier    </text>
<text text-anchor="start" x="715.5238" y="-263.9" font-family="Arial" font-size="14.00" fill="#666666">[varchar]</text>
<polygon fill="none" stroke="#000000" points="512.5,-222.5 512.5,-252.5 820.5,-252.5 820.5,-222.5 512.5,-222.5"/>
<text text-anchor="start" x="519.5" y="-233.9" font-family="Arial" font-size="14.00" fill="#000000">producers_plan_identifier    </text>
<text text-anchor="start" x="710.8506" y="-233.9" font-family="Arial" font-size="14.00" fill="#666666">[varchar]</text>
<polygon fill="none" stroke="#000000" points="512.5,-192.5 512.5,-222.5 820.5,-222.5 820.5,-192.5 512.5,-192.5"/>
<text text-anchor="start" x="519.5" y="-203.9" font-family="Arial" font-size="14.00" fill="#000000">description    </text>
<text text-anchor="start" x="621.3822" y="-203.9" font-family="Arial" font-size="14.00" fill="#666666">[jsonb]</text>
<polygon fill="none" stroke="#000000" points="512.5,-162.5 512.5,-192.5 820.5,-192.5 820.5,-162.5 512.5,-162.5"/>
<text text-anchor="start" x="519.5" y="-173.9" font-family="Arial" font-size="14.00" fill="#000000">scale    </text>
<text text-anchor="start" x="586.3766" y="-173.9" font-family="Arial" font-size="14.00" fill="#666666">[integer]</text>
<polygon fill="none" stroke="#000000" points="512.5,-132.5 512.5,-162.5 820.5,-162.5 820.5,-132.5 512.5,-132.5"/>
<text text-anchor="start" x="519.5" y="-143.9" font-family="Arial" font-size="14.00" fill="#000000">matter_management_identifier    </text>
<text text-anchor="start" x="743.5196" y="-143.9" font-family="Arial" font-size="14.00" fill="#666666">[varchar]</text>
<polygon fill="none" stroke="#000000" points="512.5,-102.5 512.5,-132.5 820.5,-132.5 820.5,-102.5 512.5,-102.5"/>
<text text-anchor="start" x="519.5" y="-113.9" font-family="Arial" font-size="14.00" fill="#000000">record_number    </text>
<text text-anchor="start" x="648.608" y="-113.9" font-family="Arial" font-size="14.00" fill="#666666">[varchar]</text>
<polygon fill="none" stroke="#000000" points="512.5,-72.5 512.5,-102.5 820.5,-102.5 820.5,-72.5 512.5,-72.5"/>
<text text-anchor="start" x="519.0912" y="-83.9" font-family="Arial" font-size="14.00" fill="#000000">validated_at    </text>
<text text-anchor="start" x="628.7686" y="-83.9" font-family="Arial" font-size="14.00" fill="#666666">[timestamp without time zone]</text>
<polygon fill="none" stroke="#000000" points="512.5,-42.5 512.5,-72.5 820.5,-72.5 820.5,-42.5 512.5,-42.5"/>
<text text-anchor="start" x="519.5" y="-53.9" font-family="Arial" font-size="14.00" fill="#000000">validation_errors    </text>
<text text-anchor="start" x="657.1578" y="-53.9" font-family="Arial" font-size="14.00" fill="#666666">[jsonb]</text>
</g>
<!-- hame.line&#45;&gt;hame.plan -->
<g id="edge2" class="edge">
<title>hame.line:plan_id&#45;&gt;hame.plan:id</title>
<path fill="none" stroke="#000000" d="M739.3804,-967.4802C41.253,-964.723 811.8302,-675.1166 820.5,-661 849.2255,-614.2278 875.3889,-537.5 820.5,-537.5"/>
<polygon fill="#000000" stroke="#000000" points="739.5,-967.4803 749.4911,-972 744.5,-967.4902 749.5,-967.5 749.5,-967.5 749.5,-967.5 744.5,-967.4902 749.5089,-963 739.5,-967.4803 739.5,-967.4803"/>
<text text-anchor="start" x="497.993" y="-977.5" font-family="Arial" font-size="10.00" fill="#000000">FOREIGN KEY (plan_id) REFERENCES hame.plan(id)</text>
</g>
<!-- hame.plan_regulation_group -->
<g id="node4" class="node">
<title>hame.plan_regulation_group</title>
<polygon fill="#efefef" stroke="transparent" points="924.5,-402.5 924.5,-437.5 1294.5,-437.5 1294.5,-402.5 924.5,-402.5"/>
<polygon fill="none" stroke="#000000" points="924.5,-402.5 924.5,-437.5 1294.5,-437.5 1294.5,-402.5 924.5,-402.5"/>
<text text-anchor="start" x="931.1784" y="-415.3" font-family="Arial Bold" font-size="18.00" fill="#000000">hame.plan_regulation_group</text>
<text text-anchor="start" x="1160.2536" y="-415.3" font-family="Arial" font-size="14.00" fill="#000000">    </text>
<text text-anchor="start" x="1194.4584" y="-415.3" font-family="Arial" font-size="14.00" fill="#666666">[BASE TABLE]</text>
<polygon fill="none" stroke="#000000" points="924.5,-372.5 924.5,-402.5 1294.5,-402.5 1294.5,-372.5 924.5,-372.5"/>
<text text-anchor="start" x="931.5" y="-383.9" font-family="Arial" font-size="14.00" fill="#000000">short_name    </text>
<text text-anchor="start" x="1039.6122" y="-383.9" font-family="Arial" font-size="14.00" fill="#666666">[varchar]</text>
<polygon fill="none" stroke="#000000" points="924.5,-342.5 924.5,-372.5 1294.5,-372.5 1294.5,-342.5 924.5,-342.5"/>
<text text-anchor="start" x="931.5" y="-353.9" font-family="Arial" font-size="14.00" fill="#000000">name    </text>
<text text-anchor="start" x="1000.7132" y="-353.9" font-family="Arial" font-size="14.00" fill="#666666">[jsonb]</text>
<polygon fill="none" stroke="#000000" points="924.5,-312.5 924.5,-342.5 1294.5,-342.5 1294.5,-312.5 924.5,-312.5"/>
<text text-anchor="start" x="931.5" y="-323.9" font-family="Arial" font-size="14.00" fill="#000000">id    </text>
<text text-anchor="start" x="976.594" y="-323.9" font-family="Arial" font-size="14.00" fill="#666666">[uuid]</text>
<polygon fill="none" stroke="#000000" points="924.5,-282.5 924.5,-312.5 1294.5,-312.5 1294.5,-282.5 924.5,-282.5"/>
<text text-anchor="start" x="931.5" y="-293.9" font-family="Arial" font-size="14.00" fill="#000000">created_at    </text>
<text text-anchor="start" x="1031.8422" y="-293.9" font-family="Arial" font-size="14.00" fill="#666666">[timestamp without time zone]</text>
<polygon fill="none" stroke="#000000" points="924.5,-252.5 924.5,-282.5 1294.5,-282.5 1294.5,-252.5 924.5,-252.5"/>
<text text-anchor="start" x="931.5" y="-263.9" font-family="Arial" font-size="14.00" fill="#000000">modified_at    </text>
<text text-anchor="start" x="1038.0554" y="-263.9" font-family="Arial" font-size="14.00" fill="#666666">[timestamp without time zone]</text>
<polygon fill="none" stroke="#000000" points="924.5,-222.5 924.5,-252.5 1294.5,-252.5 1294.5,-222.5 924.5,-222.5"/>
<text text-anchor="start" x="931.5" y="-233.9" font-family="Arial" font-size="14.00" fill="#000000">type_of_plan_regulation_group_id    </text>
<text text-anchor="start" x="1177.3414" y="-233.9" font-family="Arial" font-size="14.00" fill="#666666">[uuid]</text>
</g>
<!-- hame.line&#45;&gt;hame.plan_regulation_group -->
<g id="edge3" class="edge">
<title>hame.line:plan_regulation_group_id&#45;&gt;hame.plan_regulation_group:id</title>
<path fill="none" stroke="#000000" d="M1035.5955,-937.073C1205.1571,-922.1071 932.8268,-518.4664 924.5,-481 909.6989,-414.4027 856.2778,-327.5 924.5,-327.5"/>
<polygon fill="#000000" stroke="#000000" points="1035.4911,-937.0774 1025.3098,-933.004 1030.4955,-937.2887 1025.5,-937.5 1025.5,-937.5 1025.5,-937.5 1030.4955,-937.2887 1025.6902,-941.996 1035.4911,-937.0774 1035.4911,-937.0774"/>
<text text-anchor="start" x="1032.41" y="-947.5" font-family="Arial" font-size="10.00" fill="#000000">FOREIGN KEY (plan_regulation_group_id) REFERENCES hame.plan_regulation_group(id)</text>
</g>
<!-- codes.lifecycle_status -->
<g id="node5" class="node">
<title>codes.lifecycle_status</title>
<polygon fill="#efefef" stroke="transparent" points="1398.5,-462.5 1398.5,-497.5 1714.5,-497.5 1714.5,-462.5 1398.5,-462.5"/>
<polygon fill="none" stroke="#000000" points="1398.5,-462.5 1398.5,-497.5 1714.5,-497.5 1714.5,-462.5 1398.5,-462.5"/>
<text text-anchor="start" x="1405.1955" y="-475.3" font-family="Arial Bold" font-size="18.00" fill="#000000">codes.lifecycle_status</text>
<text text-anchor="start" x="1580.2365" y="-475.3" font-family="Arial" font-size="14.00" fill="#000000">    </text>
<text text-anchor="start" x="1614.4413" y="-475.3" font-family="Arial" font-size="14.00" fill="#666666">[BASE TABLE]</text>
<polygon fill="none" stroke="#000000" points="1398.5,-432.5 1398.5,-462.5 1714.5,-462.5 1714.5,-432.5 1398.5,-432.5"/>
<text text-anchor="start" x="1405.5" y="-443.9" font-family="Arial" font-size="14.00" fill="#000000">value    </text>
<text text-anchor="start" x="1473.1592" y="-443.9" font-family="Arial" font-size="14.00" fill="#666666">[varchar]</text>
<polygon fill="none" stroke="#000000" points="1398.5,-402.5 1398.5,-432.5 1714.5,-432.5 1714.5,-402.5 1398.5,-402.5"/>
<text text-anchor="start" x="1405.5" y="-413.9" font-family="Arial" font-size="14.00" fill="#000000">name    </text>
<text text-anchor="start" x="1474.7132" y="-413.9" font-family="Arial" font-size="14.00" fill="#666666">[jsonb]</text>
<polygon fill="none" stroke="#000000" points="1398.5,-372.5 1398.5,-402.5 1714.5,-402.5 1714.5,-372.5 1398.5,-372.5"/>
<text text-anchor="start" x="1405.5" y="-383.9" font-family="Arial" font-size="14.00" fill="#000000">id    </text>
<text text-anchor="start" x="1450.594" y="-383.9" font-family="Arial" font-size="14.00" fill="#666666">[uuid]</text>
<polygon fill="none" stroke="#000000" points="1398.5,-342.5 1398.5,-372.5 1714.5,-372.5 1714.5,-342.5 1398.5,-342.5"/>
<text text-anchor="start" x="1405.5" y="-353.9" font-family="Arial" font-size="14.00" fill="#000000">short_name    </text>
<text text-anchor="start" x="1513.6122" y="-353.9" font-family="Arial" font-size="14.00" fill="#666666">[varchar]</text>
<polygon fill="none" stroke="#000000" points="1398.5,-312.5 1398.5,-342.5 1714.5,-342.5 1714.5,-312.5 1398.5,-312.5"/>
<text text-anchor="start" x="1405.5" y="-323.9" font-family="Arial" font-size="14.00" fill="#000000">description    </text>
<text text-anchor="start" x="1507.3822" y="-323.9" font-family="Arial" font-size="14.00" fill="#666666">[jsonb]</text>
<polygon fill="none" stroke="#000000" points="1398.5,-282.5 1398.5,-312.5 1714.5,-312.5 1714.5,-282.5 1398.5,-282.5"/>
<text text-anchor="start" x="1405.5" y="-293.9" font-family="Arial" font-size="14.00" fill="#000000">created_at    </text>
<text text-anchor="start" x="1505.8422" y="-293.9" font-family="Arial" font-size="14.00" fill="#666666">[timestamp without time zone]</text>
<polygon fill="none" stroke="#000000" points="1398.5,-252.5 1398.5,-282.5 1714.5,-282.5 1714.5,-252.5 1398.5,-252.5"/>
<text text-anchor="start" x="1405.5" y="-263.9" font-family="Arial" font-size="14.00" fill="#000000">modified_at    </text>
<text text-anchor="start" x="1512.0554" y="-263.9" font-family="Arial" font-size="14.00" fill="#666666">[timestamp without time zone]</text>
<polygon fill="none" stroke="#000000" points="1398.5,-222.5 1398.5,-252.5 1714.5,-252.5 1714.5,-222.5 1398.5,-222.5"/>
<text text-anchor="start" x="1405.5" y="-233.9" font-family="Arial" font-size="14.00" fill="#000000">level    </text>
<text text-anchor="start" x="1468.4832" y="-233.9" font-family="Arial" font-size="14.00" fill="#666666">[integer]</text>
<polygon fill="none" stroke="#000000" points="1398.5,-192.5 1398.5,-222.5 1714.5,-222.5 1714.5,-192.5 1398.5,-192.5"/>
<text text-anchor="start" x="1405.5" y="-203.9" font-family="Arial" font-size="14.00" fill="#000000">parent_id    </text>
<text text-anchor="start" x="1498.0582" y="-203.9" font-family="Arial" font-size="14.00" fill="#666666">[uuid]</text>
<polygon fill="none" stroke="#000000" points="1398.5,-162.5 1398.5,-192.5 1714.5,-192.5 1714.5,-162.5 1398.5,-162.5"/>
<text text-anchor="start" x="1405.5" y="-173.9" font-family="Arial" font-size="14.00" fill="#000000">status    </text>
<text text-anchor="start" x="1477.0512" y="-173.9" font-family="Arial" font-size="14.00" fill="#666666">[varchar]</text>
</g>
<!-- hame.line&#45;&gt;codes.lifecycle_status -->
<g id="edge4" class="edge">
<title>hame.line:lifecycle_status_id&#45;&gt;codes.lifecycle_status:id</title>
<path fill="none" stroke="#000000" d="M1035.9398,-877.4082C1199.8241,-874.4838 1253.7547,-801.7433 1346.5,-661 1380.5415,-609.3411 1336.6335,-387.5 1398.5,-387.5"/>
<polygon fill="#000000" stroke="#000000" points="1035.4996,-877.4119 1025.4604,-873.0002 1030.4998,-877.456 1025.5,-877.5 1025.5,-877.5 1025.5,-877.5 1030.4998,-877.456 1025.5396,-881.9998 1035.4996,-877.4119 1035.4996,-877.4119"/>
<text text-anchor="start" x="1032.2645" y="-887.5" font-family="Arial" font-size="10.00" fill="#000000">FOREIGN KEY (lifecycle_status_id) REFERENCES codes.lifecycle_status(id)</text>
</g>
<!-- hame.lifecycle_date -->
<g id="node6" class="node">
<title>hame.lifecycle_date</title>
<polygon fill="#efefef" stroke="transparent" points="734.5,-1772.5 734.5,-1807.5 1039.5,-1807.5 1039.5,-1772.5 734.5,-1772.5"/>
<polygon fill="none" stroke="#000000" points="734.5,-1772.5 734.5,-1807.5 1039.5,-1807.5 1039.5,-1772.5 734.5,-1772.5"/>
<text text-anchor="start" x="743.6974" y="-1785.3" font-family="Arial Bold" font-size="18.00" fill="#000000">hame.lifecycle_date</text>
<text text-anchor="start" x="902.7346" y="-1785.3" font-family="Arial" font-size="14.00" fill="#000000">    </text>
<text text-anchor="start" x="936.9394" y="-1785.3" font-family="Arial" font-size="14.00" fill="#666666">[BASE TABLE]</text>
<polygon fill="none" stroke="#000000" points="734.5,-1742.5 734.5,-1772.5 1039.5,-1772.5 1039.5,-1742.5 734.5,-1742.5"/>
<text text-anchor="start" x="741.5" y="-1753.9" font-family="Arial" font-size="14.00" fill="#000000">lifecycle_status_id    </text>
<text text-anchor="start" x="889.2812" y="-1753.9" font-family="Arial" font-size="14.00" fill="#666666">[uuid]</text>
<polygon fill="none" stroke="#000000" points="734.5,-1712.5 734.5,-1742.5 1039.5,-1742.5 1039.5,-1712.5 734.5,-1712.5"/>
<text text-anchor="start" x="741.5" y="-1723.9" font-family="Arial" font-size="14.00" fill="#000000">plan_id    </text>
<text text-anchor="start" x="820.831" y="-1723.9" font-family="Arial" font-size="14.00" fill="#666666">[uuid]</text>
<polygon fill="none" stroke="#000000" points="734.5,-1682.5 734.5,-1712.5 1039.5,-1712.5 1039.5,-1682.5 734.5,-1682.5"/>
<text text-anchor="start" x="741.5" y="-1693.9" font-family="Arial" font-size="14.00" fill="#000000">plan_regulation_id    </text>
<text text-anchor="start" x="890.0736" y="-1693.9" font-family="Arial" font-size="14.00" fill="#666666">[uuid]</text>
<polygon fill="none" stroke="#000000" points="734.5,-1652.5 734.5,-1682.5 1039.5,-1682.5 1039.5,-1652.5 734.5,-1652.5"/>
<text text-anchor="start" x="741.5" y="-1663.9" font-family="Arial" font-size="14.00" fill="#000000">plan_proposition_id    </text>
<text text-anchor="start" x="897.0736" y="-1663.9" font-family="Arial" font-size="14.00" fill="#666666">[uuid]</text>
<polygon fill="none" stroke="#000000" points="734.5,-1622.5 734.5,-1652.5 1039.5,-1652.5 1039.5,-1622.5 734.5,-1622.5"/>
<text text-anchor="start" x="741.5" y="-1633.9" font-family="Arial" font-size="14.00" fill="#000000">starting_at    </text>
<text text-anchor="start" x="841.0568" y="-1633.9" font-family="Arial" font-size="14.00" fill="#666666">[timestamp without time zone]</text>
<polygon fill="none" stroke="#000000" points="734.5,-1592.5 734.5,-1622.5 1039.5,-1622.5 1039.5,-1592.5 734.5,-1592.5"/>
<text text-anchor="start" x="741.5" y="-1603.9" font-family="Arial" font-size="14.00" fill="#000000">ending_at    </text>
<text text-anchor="start" x="837.1802" y="-1603.9" font-family="Arial" font-size="14.00" fill="#666666">[timestamp without time zone]</text>
<polygon fill="none" stroke="#000000" points="734.5,-1562.5 734.5,-1592.5 1039.5,-1592.5 1039.5,-1562.5 734.5,-1562.5"/>
<text text-anchor="start" x="741.5" y="-1573.9" font-family="Arial" font-size="14.00" fill="#000000">id    </text>
<text text-anchor="start" x="786.594" y="-1573.9" font-family="Arial" font-size="14.00" fill="#666666">[uuid]</text>
<polygon fill="none" stroke="#000000" points="734.5,-1532.5 734.5,-1562.5 1039.5,-1562.5 1039.5,-1532.5 734.5,-1532.5"/>
<text text-anchor="start" x="741.5" y="-1543.9" font-family="Arial" font-size="14.00" fill="#000000">created_at    </text>
<text text-anchor="start" x="841.8422" y="-1543.9" font-family="Arial" font-size="14.00" fill="#666666">[timestamp without time zone]</text>
<polygon fill="none" stroke="#000000" points="734.5,-1502.5 734.5,-1532.5 1039.5,-1532.5 1039.5,-1502.5 734.5,-1502.5"/>
<text text-anchor="start" x="741.1522" y="-1513.9" font-family="Arial" font-size="14.00" fill="#000000">modified_at    </text>
<text text-anchor="start" x="847.7076" y="-1513.9" font-family="Arial" font-size="14.00" fill="#666666">[timestamp without time zone]</text>
<polygon fill="none" stroke="#000000" points="734.5,-1472.5 734.5,-1502.5 1039.5,-1502.5 1039.5,-1472.5 734.5,-1472.5"/>
<text text-anchor="start" x="741.5" y="-1483.9" font-family="Arial" font-size="14.00" fill="#000000">land_use_area_id    </text>
<text text-anchor="start" x="886.9698" y="-1483.9" font-family="Arial" font-size="14.00" fill="#666666">[uuid]</text>
<polygon fill="none" stroke="#000000" points="734.5,-1442.5 734.5,-1472.5 1039.5,-1472.5 1039.5,-1442.5 734.5,-1442.5"/>
<text text-anchor="start" x="741.5" y="-1453.9" font-family="Arial" font-size="14.00" fill="#000000">other_area_id    </text>
<text text-anchor="start" x="862.0666" y="-1453.9" font-family="Arial" font-size="14.00" fill="#666666">[uuid]</text>
<polygon fill="none" stroke="#000000" points="734.5,-1412.5 734.5,-1442.5 1039.5,-1442.5 1039.5,-1412.5 734.5,-1412.5"/>
<text text-anchor="start" x="741.5" y="-1423.9" font-family="Arial" font-size="14.00" fill="#000000">line_id    </text>
<text text-anchor="start" x="816.155" y="-1423.9" font-family="Arial" font-size="14.00" fill="#666666">[uuid]</text>
<polygon fill="none" stroke="#000000" points="734.5,-1382.5 734.5,-1412.5 1039.5,-1412.5 1039.5,-1382.5 734.5,-1382.5"/>
<text text-anchor="start" x="741.5" y="-1393.9" font-family="Arial" font-size="14.00" fill="#000000">land_use_point_id    </text>
<text text-anchor="start" x="889.3064" y="-1393.9" font-family="Arial" font-size="14.00" fill="#666666">[uuid]</text>
<polygon fill="none" stroke="#000000" points="734.5,-1352.5 734.5,-1382.5 1039.5,-1382.5 1039.5,-1352.5 734.5,-1352.5"/>
<text text-anchor="start" x="741.5" y="-1363.9" font-family="Arial" font-size="14.00" fill="#000000">other_point_id    </text>
<text text-anchor="start" x="864.4032" y="-1363.9" font-family="Arial" font-size="14.00" fill="#666666">[uuid]</text>
</g>
<!-- hame.lifecycle_date&#45;&gt;hame.line -->
<g id="edge5" class="edge">
<title>hame.lifecycle_date:line_id&#45;&gt;hame.line:id</title>
<path fill="none" stroke="#000000" d="M1049.4978,-1426.3786C1089.1572,-1416.6739 1071.6462,-1346.3835 1039.5,-1310 953.505,-1212.6696 835.495,-1371.3304 749.5,-1274 623.9913,-1131.9476 559.9444,-847.5 749.5,-847.5"/>
<polygon fill="#000000" stroke="#000000" points="1049.4377,-1426.3853 1038.9984,-1423.028 1044.4688,-1426.9426 1039.5,-1427.5 1039.5,-1427.5 1039.5,-1427.5 1044.4688,-1426.9426 1040.0016,-1431.972 1049.4377,-1426.3853 1049.4377,-1426.3853"/>
<text text-anchor="start" x="1046.333" y="-1437.5" font-family="Arial" font-size="10.00" fill="#000000">FOREIGN KEY (line_id) REFERENCES hame.line(id)</text>
</g>
</g>
</svg>
